<svg xmlns="http://www.w3.org/2000/svg" width="1030" height="1034" viewBox="0 0 1030 1034"><circle fill="#FFCA00" cx="515" cy="517" r="512"/><path fill="#FF9D00" d="M686.074 331.631l-.522.013c.159-3.069.244-6.16.244-9.271 0-96.613-78.321-174.935-174.935-174.935S335.927 225.76 335.927 322.374c0 6.024.306 11.978.899 17.845l-.568.014 12.816 131.012c4.592 85.374 75.268 163.188 161.787 163.188 85.25 0 155.121-75.837 161.547-159.441l.764.006 12.902-143.367z"/><path fill="#FF9D00" d="M694.205 606.084c-25.745 70.552-103.439 100.922-182.9 100.922-79.191 0-166.692-40.03-192.634-110.206-24.648-4.247-154.185 66.572-170.366 160.206 0 0 94 209 362 209s369.525-209 369.525-209c-53.525-110-155.225-154.904-185.625-150.922z"/></svg>