<svg xmlns="http://www.w3.org/2000/svg" xmlns:xlink="http://www.w3.org/1999/xlink" width="1024" height="1024" viewBox="3 5 1024 1024"><circle fill="#EF6100" cx="515" cy="517" r="512"/><defs><circle id="a" cx="515" cy="517" r="512"/></defs><clipPath id="b"><use xlink:href="#a" overflow="visible"/></clipPath><g clip-path="url(#b)"><path fill="#163663" d="M685.996 1253.859V903.777l44.053-16.668v-16.623c0-73.211-26.004-111.715-99.205-111.715H413.851c-73.21 0-95.036 30.166-95.036 103.379v29.123l41.169 20.85v341.504l326.012.232z"/><path fill="#FFBF1F" d="M526.172 927.326c-53.175 0-96.284 43.105-96.284 96.285 0 53.174 43.108 96.283 96.284 96.283 53.176 0 96.283-43.109 96.283-96.283 0-53.179-43.107-96.285-96.283-96.285zm0 159.672c-35.007 0-63.387-28.381-63.387-63.387 0-35.008 28.38-63.389 63.387-63.389 35.006 0 63.387 28.379 63.387 63.389 0 35.006-28.381 63.387-63.387 63.387z"/><path fill="#FFE5B8" d="M655.65 804.697c-27.443 14.006-38.332 47.607-24.33 75.049l153.74 295.916c14.006 27.441 47.605 38.342 75.053 24.332 27.445-14.006 38.338-47.613 24.336-75.055l-153.744-295.91c-14.002-27.441-47.609-38.336-75.055-24.332z"/><path fill="#163663" d="M708.764 1059.568l115.58-57.514-99.473-194.098c-18.656-36.389-54.553-53.309-90.951-34.654l-2.139 3.209c-36.391 18.648-41.148 52.572-22.496 88.971l99.479 194.086z"/><path fill="#FFBF1F" d="M682.766 1009.301l115.541-55.629 12.838 21.396-117.68 58.84z"/><path fill="#FFE5B8" d="M385.26 804.697c27.446 14.006 38.336 47.607 24.33 75.049l-153.74 295.916c-14.004 27.441-47.605 38.342-75.049 24.332-27.444-14.006-38.34-47.613-24.338-75.055l153.742-295.91c14.004-27.441 47.612-38.336 75.055-24.332z"/><path fill="#163663" d="M332.15 1059.568l-115.582-57.514 99.477-194.098c18.652-36.389 54.55-53.309 90.949-34.654l2.14 3.209c36.39 18.648 41.146 52.572 22.495 88.971l-99.479 194.086z"/><path fill="#FFBF1F" d="M358.147 1009.301l-115.54-55.629-12.838 21.396 117.681 58.84zm67.946-251.406c-2.142 7.838-2.223 16.086-2.223 24.605 0 51.404 42.74 93.074 94.143 93.074 51.404 0 93.076-41.67 93.076-93.074 0-8.52-1.152-16.768-3.297-24.605H426.093z"/><path fill="#FFE5B8" d="M589.332 758.008c0 101.598-72.977 88.762-80.177 87.623h2.14c-36.602 0-66.262-22.477-66.262-75.854v-118.41c0-36.598 29.66 17.109 66.262 17.109 36.598 0 76.965-53.707 76.965-17.109l1.072 106.641z"/><path fill="#FFE5B8" d="M707.305 543.42c.383 108.688-77.928 187.551-186.617 187.938-108.694.383-187.558-77.928-187.94-186.617l-.695-294.318c-.387-108.677 77.942-86.365 186.629-86.746 108.699-.384 187.699 31.906 187.924 96.121l.699 283.622z"/><path fill="#FFE5B8" d="M377.125 494.209c.078 22.4 13.374 40.861-8.26 43.718-1.89.259-78.572.638-80.528.647-24.29.08-44.078-19.565-44.168-43.896-.083-24.307 19.566-44.093 43.856-44.172 2.012-.007 63.823-.11 65.757.146 21.564 2.791 23.269 21.254 23.343 43.557zm270.924-1.994c.076 22.869-13.35 41.819 8.764 44.582 1.881.242 80.236.083 82.188.072 24.867-.086 44.91-20.275 44.822-45.133-.09-24.825-20.271-44.887-45.141-44.794-2 .006-65.141.356-67.111.627-21.995 3.007-23.604 21.865-23.522 44.646z"/><path fill="#163663" d="M515.066 626.426c41.918-.152 75.788-34.241 75.639-76.162l-151.803.537c.148 41.919 34.236 75.768 76.164 75.625z"/><path fill="#FFF" d="M587.268 573.139c2.25-7.223 3.465-14.902 3.426-26.043l-151.799.537c.037 11.137 1.297 18.81 3.601 26.016l144.772-.51z"/><path fill="#FF617F" d="M518.113 626.65c-34.912.129-49.601-17.257-49.601-17.257 11.548-8.397 29.414-13.825 49.492-13.896 17.451-.062 36.445 3.918 47.906 10.439 0 .002-12.887 20.595-47.797 20.714z"/><path fill="#EAA688" d="M721.279 470.112h15.232c10.934 0 19.791 8.862 19.791 19.792s-8.857 19.791-19.791 19.791h-15.232v-39.583zM444.197 718.311s82.375 21.396 145.497 2.141v20.326s-72.748 29.955-145.497-4.279v-18.188z"/><path fill="#163663" d="M636.861 400.336c7.973.027 14.838-5.961 15.729-14.072.951-8.668-5.297-16.472-13.965-17.418l-67.756-5.084c-8.65-.988-16.467 5.305-17.424 13.979-.951 8.672 5.301 16.472 13.969 17.42l67.76 5.088c.566.062 1.129.087 1.687.087z"/><path fill="#EAA688" d="M304.84 473.322h-15.234c-10.931 0-19.792 8.861-19.792 19.791 0 10.931 8.861 19.792 19.792 19.792h15.234v-39.583z"/><path fill="#163663" d="M301.934 450.507V101.096l79.183 58.844V90.394l88.806 68.478V90.394l93.083 69.546V91.463l83.453 71.687V94.675l86.664 84.524v268.447h-45.137V280.21c0-44.936-53.328-37.553-53.328-37.553L512.011 266.3l-115.345-29.68s-50.47-12.577-50.47 46.798v167.438l-44.262-.349z"/><path fill="#163663" d="M387.306 400.336c-7.974.027-14.838-5.961-15.729-14.072-.951-8.668 5.297-16.472 13.968-17.418l67.756-5.084c8.648-.988 16.465 5.305 17.421 13.979.951 8.672-5.299 16.472-13.969 17.42l-67.758 5.088c-.566.062-1.131.087-1.689.087zm61.251 42.551c.041 12.123-9.77 21.998-21.89 22.039-12.128.043-22.007-9.757-22.048-21.885-.041-12.136 9.765-22.004 21.894-22.047 12.119-.039 21.998 9.752 22.044 21.893zm174.935-.559c.039 12.123-9.766 22-21.885 22.041-12.133.043-22.008-9.763-22.051-21.884-.043-12.14 9.764-22.005 21.893-22.046 12.125-.042 22 9.752 22.043 21.889z"/><path fill="#2F61DD" d="M301.848 398.455h43.862v52.4h-43.776zm386.205-3.209h44.931v52.4h-44.845zm-386.205-74.887h43.862v52.4h-43.776zm386.205-3.21h44.931v52.401h-44.845z"/></g></svg>