<svg xmlns="http://www.w3.org/2000/svg" xmlns:xlink="http://www.w3.org/1999/xlink" width="1024" height="1024" viewBox="3 5 1024 1024"><circle fill="#FFBF1F" cx="515" cy="517" r="512"/><defs><circle id="a" cx="515" cy="517" r="512"/></defs><clipPath id="b"><use xlink:href="#a" overflow="visible"/></clipPath><g clip-path="url(#b)"><path fill="#163663" d="M814.55 396.329c-.826-15.497-10.219-28.48-23.343-34.641 19.932-3.561 34.549-21.465 33.441-42.202-1.064-19.771-16.087-35.464-34.992-38.093 11.561-7.713 18.89-21.109 18.097-36-1.223-22.424-20.376-39.638-42.813-38.435-1.951.108-3.851.386-5.729.771 8.243-7.914 13.151-19.21 12.485-31.521-1.204-22.434-20.36-39.641-42.793-38.443-6.978.385-13.436 2.49-19.011 5.903 2.522-5.681 3.813-12.007 3.455-18.649-1.198-22.42-20.362-39.635-42.797-38.428-10.786.572-20.34 5.331-27.25 12.593.711-3.396 1.045-6.914.853-10.533-1.195-22.437-20.368-39.64-42.798-38.446-13.605.738-25.254 8.096-32.083 18.762 0-.722.034-1.43-.003-2.158-1.208-22.444-20.37-39.645-42.8-38.444-19.457 1.046-34.978 15.624-37.96 34.103-6.788-14.627-21.955-24.416-39.054-23.504-22.439 1.207-39.644 20.368-38.447 42.803a40.923 40.923 0 0 0 2.244 11.216C405.581 81.208 392.045 73.724 377 74.528c-22.434 1.205-39.638 20.365-38.432 42.793.262 5.088 1.511 9.891 3.458 14.289-7.449-5.777-16.913-9.036-27.069-8.492-22.442 1.207-39.637 20.373-38.44 42.802a40.448 40.448 0 0 0 10.664 25.345c-2.396-.31-4.866-.449-7.381-.299-22.438 1.193-39.642 20.361-38.433 42.793.781 14.451 9.027 26.709 20.794 33.301-.945-.02-1.88-.047-2.841.006-22.436 1.205-39.646 20.363-38.443 42.789 1.073 19.995 16.414 35.798 35.609 38.163-16.137 6.089-27.201 22.089-26.231 40.228 1.21 22.421 20.36 39.637 42.804 38.434 3.384-.188 6.628-.825 9.726-1.773-12.001 7.622-19.675 21.316-18.86 36.533 1.206 22.424 20.379 39.646 42.802 38.434 11.452-.617 21.531-5.93 28.506-13.952 44.71 48.364 107.979 78.315 181.3 78.164 71.848-.146 134.916-29.161 180.253-76.013 7.876 7.847 18.887 12.486 30.863 11.846 22.432-1.209 39.639-20.355 38.446-42.803-.421-7.751-3.029-14.852-7.131-20.828a40.61 40.61 0 0 0 17.145 2.85c22.443-1.225 39.642-20.383 38.441-42.809zM492.495 87.501c-.338.02-.68.027-1.018.049.098-.484.225-.963.302-1.453.221.474.474.933.716 1.404zm272.122 271.482c.109-.496.219-.992.325-1.491.608.324 1.185.708 1.819 1.007-.731.128-1.43.316-2.144.484z"/><path fill="#2F61DD" d="M816.283 395.801c-.839-15.607-10.3-28.692-23.523-34.899 20.086-3.579 34.81-21.619 33.688-42.501-1.072-19.912-16.202-35.728-35.25-38.379 11.648-7.763 19.029-21.257 18.232-36.247-1.23-22.592-20.529-39.934-43.118-38.729-1.975.121-3.88.39-5.78.785 8.312-7.963 13.251-19.359 12.584-31.752-1.222-22.598-20.516-39.932-43.107-38.727a40.839 40.839 0 0 0-19.148 5.954c2.54-5.728 3.842-12.101 3.479-18.79-1.204-22.578-20.503-39.927-43.112-38.707-10.862.57-20.483 5.371-27.448 12.684.719-3.42 1.062-6.965.864-10.611-1.209-22.589-20.523-39.93-43.11-38.725-13.707.749-25.438 8.15-32.309 18.902-.017-.729.03-1.441-.011-2.177-1.218-22.608-20.518-39.937-43.107-38.718-19.602 1.047-35.229 15.73-38.238 34.344-6.834-14.729-22.115-24.594-39.335-23.676-22.607 1.225-39.927 20.521-38.727 43.116a41.438 41.438 0 0 0 2.252 11.299c-7.72-11.856-21.358-19.4-36.51-18.588-22.601 1.222-39.929 20.517-38.709 43.103.261 5.121 1.523 9.963 3.479 14.4-7.504-5.831-17.04-9.104-27.271-8.568-22.601 1.229-39.928 20.536-38.712 43.121a40.695 40.695 0 0 0 10.74 25.525c-2.415-.304-4.902-.452-7.442-.291-22.594 1.205-39.925 20.502-38.704 43.095.787 14.562 9.088 26.906 20.941 33.548-.953-.025-1.893-.046-2.862.005-22.594 1.216-39.928 20.511-38.722 43.095 1.082 20.146 16.533 36.066 35.862 38.447-16.246 6.142-27.393 22.245-26.415 40.513 1.218 22.587 20.507 39.928 43.118 38.716 3.299-.184 6.463-.803 9.503-1.713-.205-.03-.415-.03-.62-.064-12.387-2.041-21.87-12.65-22.55-25.207-.632-11.812 6.37-22.549 17.412-26.711a12.679 12.679 0 0 0 8.112-13.365 12.673 12.673 0 0 0-11.035-11.078 28.59 28.59 0 0 1-1.085-.158c-12.398-2.041-21.883-12.631-22.559-25.184-.794-14.867 10.667-27.615 25.494-28.41.609-.035 1.199-.016 1.883 0a12.664 12.664 0 0 0 12.484-9.352 12.687 12.687 0 0 0-6.035-14.389c-8.158-4.564-13.327-12.832-13.826-22.117-.391-7.198 2.054-14.123 6.871-19.494 4.817-5.365 11.441-8.528 18.748-8.918 1.436-.096 3.023-.021 4.851.211a12.673 12.673 0 0 0 12.846-6.783 12.674 12.674 0 0 0-1.947-14.391 26.988 26.988 0 0 1-7.07-16.811c-.794-14.875 10.655-27.638 25.521-28.438a27.106 27.106 0 0 1 5.832.316 26.955 26.955 0 0 1 12.14 5.336 12.748 12.748 0 0 0 5.714 2.488 12.69 12.69 0 0 0 9.871-2.519 12.684 12.684 0 0 0 3.788-15.115c-1.371-3.089-2.146-6.277-2.312-9.505-.802-14.857 10.651-27.607 25.521-28.416a27.534 27.534 0 0 1 5.862.318c7.427 1.225 14.063 5.582 18.216 11.957a12.676 12.676 0 0 0 8.566 5.585 12.64 12.64 0 0 0 7.644-1.128 12.68 12.68 0 0 0 6.383-15.555 27.232 27.232 0 0 1-1.5-7.444c-.791-14.878 10.666-27.636 25.537-28.437 1.969-.107 3.94.003 5.858.318 8.8 1.451 16.302 7.167 20.077 15.296a12.678 12.678 0 0 0 9.438 7.169 12.68 12.68 0 0 0 14.573-10.488c2.008-12.44 12.61-21.959 25.212-22.635a27.262 27.262 0 0 1 5.878.316c12.389 2.041 21.866 12.65 22.539 25.144l-.004.467c-.007.409-.006.821-.008 1.243a12.675 12.675 0 0 0 9.224 11.982c.467.142.934.241 1.4.318a12.673 12.673 0 0 0 12.738-5.678c4.693-7.349 12.664-12.014 21.296-12.486a27.246 27.246 0 0 1 5.87.32c12.4 2.043 21.885 12.646 22.56 25.215.123 2.26-.064 4.549-.581 7.012a12.669 12.669 0 0 0 10.342 15.102 12.676 12.676 0 0 0 11.247-3.771c4.794-5.033 11.214-8.006 18.088-8.371a27.424 27.424 0 0 1 5.885.318c12.392 2.043 21.871 12.646 22.544 25.213.226 4.25-.546 8.41-2.3 12.367a12.678 12.678 0 0 0 18.2 15.96c3.845-2.353 8.102-3.672 12.608-3.925 1.974-.104 3.95.003 5.871.318 12.39 2.048 21.882 12.656 22.56 25.226.423 7.837-2.601 15.466-8.304 20.926a12.693 12.693 0 0 0-2.439 15.066 12.664 12.664 0 0 0 9.158 6.594c1.509.248 3.075.229 4.644-.098a27.18 27.18 0 0 1 3.686-.511 27.195 27.195 0 0 1 5.866.32c12.396 2.043 21.888 12.649 22.571 25.214.509 9.602-3.986 18.539-12.036 23.893a12.68 12.68 0 0 0-5.324 13.376 12.676 12.676 0 0 0 10.291 9.685c.104.018.213.033.318.049l.666.098c12.405 2.045 21.898 12.646 22.571 25.207.735 13.579-8.816 25.625-22.204 28.016a12.68 12.68 0 0 0-10.343 10.823 12.68 12.68 0 0 0 7.191 13.132 26.984 26.984 0 0 1 15.509 23.008c.796 14.871-10.666 27.627-25.485 28.438-.822.045-1.651.027-2.473-.011-.024.146-.002.29-.026.437l-.232 1.413c1.228.049 2.465.079 3.729.017 22.607-1.232 39.932-20.531 38.722-43.118zM490.854 84.778c.101-.494.226-.973.304-1.472.226.483.482.95.721 1.419-.337.022-.682.033-1.025.053z"/><path fill="#D8724A" d="M677.392 839.589c-29.793 9.54-46.205 41.426-36.665 71.217l105.607 321.679c9.541 29.787 41.423 46.211 71.218 36.664 29.793-9.54 46.21-41.434 36.674-71.221L748.613 876.254c-9.54-29.787-41.429-46.205-71.221-36.665z"/><path fill="#61E9FF" d="M666.77 1111.057l147.346-46.099-67.901-210.773c-12.734-39.512-59.322-61.231-98.847-48.498-39.518 12.73-61.236 55.087-48.504 94.609l67.906 210.761z"/><path fill="#61E9FF" d="M688.964 1287.586V935.41l33.863-16.923 32.586-19.05c0-74.331-58.986-111.251-133.31-111.251h-220.31c-74.328 0-129.073 19.766-129.073 94.097l32.585 40.431 21.16 21.17v346.724l362.499-3.022z"/><path fill="#D8724A" d="M574.526 799.36c0 37.157-30.124 77.015-67.281 77.015-37.161 0-67.275-39.857-67.275-77.015V679.14c0-37.157 30.114 17.37 67.275 17.37 37.157 0 67.281-54.527 67.281-17.37v120.22z"/><path fill="#FDEBDF" d="M727.367 493.014c15.732-.056 28.504 12.638 28.559 28.351.058 15.719-12.623 28.498-28.36 28.553-15.71.062-28.494-12.631-28.55-28.349-.058-15.718 12.635-28.504 28.351-28.555"/><path fill="#D8724A" d="M706.254 569.542c.388 110.35-79.119 190.419-189.474 190.812-110.355.388-190.424-79.119-190.812-189.47l-.707-201.064c-.144-40.563 4.918-80.92 29.532-105.441 19.157-19.084 47.158-41.652 96.275-10.395 11.948 7.603 31.5 21.723 57.567 22.809 32.833.195 50.73-15.854 65.567-27.645 32.189-25.578 73.464-8.199 95.188 14.611 30.152 31.66 36.052 76.203 36.151 104.719l.713 201.064z"/><path fill="#D8724A" d="M377.542 518.492c.079 22.744 13.577 41.487-8.385 44.388-1.922.262-79.776.646-81.762.657-24.661.081-44.751-19.865-44.843-44.567-.084-24.679 19.865-44.767 44.526-44.848 2.044-.006 64.801-.112 66.763.148 21.894 2.833 23.625 21.579 23.701 44.222zm268.547-2.024c.079 23.22-13.552 42.459 8.899 45.264 1.91.246 81.464.085 83.444.074 25.245-.087 45.597-20.586 45.507-45.822-.091-25.205-20.581-45.573-45.83-45.48-2.031.007-66.136.363-68.138.637-22.328 3.051-23.965 22.198-23.882 45.327z"/><path fill="#163663" d="M511.075 653.816c42.56-.154 76.946-34.764 76.796-77.326l-154.126.546c.151 42.56 34.761 76.927 77.33 76.78z"/><path fill="#FFF" d="M584.378 599.716c2.288-7.334 3.52-15.13 3.479-26.441l-154.12.545c.037 11.308 1.316 19.098 3.654 26.414l146.987-.518z"/><path fill="#FF617F" d="M514.167 654.046c-35.444.13-50.359-17.521-50.359-17.521 11.726-8.526 29.864-14.038 50.249-14.107 17.718-.064 37.002 3.977 48.639 10.598-.001 0-13.083 20.909-48.529 21.03z"/><path fill="#163663" d="M395.468 383.045c-7.015.027-13.055-5.237-13.839-12.372-.837-7.625 4.659-14.492 12.289-15.328l40.795-4.484c7.61-.871 14.488 4.661 15.329 12.291.836 7.627-4.664 14.49-12.292 15.326l-40.796 4.49c-.499.055-.995.077-1.486.077z"/><path fill="#893C1D" d="M316.1 498.372h-26.328c-11.098 0-20.095 8.998-20.095 20.095s8.997 20.095 20.095 20.095H316.1v-40.19zm394.565 0h26.328c11.099 0 20.095 8.998 20.095 20.095s-8.996 20.095-20.095 20.095h-26.328v-40.19zM439.121 747.107s70.602 26.068 134.686 6.517v23.896s-60.826 27.154-134.686-7.604v-22.809z"/><path fill="#163663" d="M636.623 382.392c7.016.025 13.056-5.24 13.84-12.375.837-7.624-4.661-14.488-12.29-15.324l-40.794-4.485c-7.61-.872-14.488 4.661-15.329 12.292-.836 7.626 4.664 14.489 12.292 15.324l40.796 4.49c.498.056.994.078 1.485.078z"/><path fill="#D8724A" d="M340.453 838.238c29.016 11.69 43.058 44.688 31.368 73.705l-128.806 313.109c-11.689 29.013-44.687 43.065-73.704 31.369-29.016-11.688-43.062-44.696-31.376-73.707l128.809-313.107c11.69-29.012 44.692-43.058 73.709-31.369z"/><path fill="#61E9FF" d="M331.231 1109.757l-143.587-56.729 83.104-205.256c15.586-38.477 63.634-56.738 102.123-41.153 38.483 15.579 57.051 59.41 41.469 97.897l-83.109 205.241z"/><path fill="#D8724A" d="M409.763 787.296a99.967 99.967 0 0 0-1.055 14.473c0 54.813 44.435 99.247 99.247 99.247s99.247-44.434 99.247-99.247c0-4.916-.363-9.748-1.054-14.473H409.763z"/><circle fill="#FFF" cx="410.035" cy="482.077" r="78.213"/><circle fill="#FFF" cx="619.667" cy="482.077" r="78.212"/><path fill="#2695F9" d="M742.164 444.063h-45.619c-.479 0-.951.029-1.417.081-13.503-28.913-42.845-49.005-76.804-49.005-41.222 0-75.645 29.596-83.18 68.651-15.768-5.738-28.029-4.404-36.339-1.632-1.31.438-2.533.926-3.711 1.437-7.61-38.958-41.99-68.456-83.145-68.456-33.928 0-63.247 20.053-76.768 48.924H291.4c-7.197 0-13.034 5.836-13.034 13.034s5.837 13.034 13.034 13.034h36.397a85.063 85.063 0 0 0-.576 9.735c0 46.721 38.01 84.73 84.729 84.73 45.79 0 83.189-36.521 84.659-81.96a27.576 27.576 0 0 1 8.532-4.256c8.204-2.456 17.91-1.215 28.507 3.554 1.104 45.767 38.65 82.662 84.676 82.662 46.72 0 84.729-38.01 84.729-84.73 0-3.292-.209-6.538-.577-9.735h39.688c7.198 0 13.034-5.836 13.034-13.034s-5.836-13.034-13.034-13.034zM411.95 545.046c-35.939 0-65.178-29.239-65.178-65.179 0-35.938 29.238-65.177 65.178-65.177s65.179 29.238 65.179 65.177c0 35.94-29.239 65.179-65.179 65.179zm206.374 0c-35.939 0-65.178-29.239-65.178-65.179 0-1.381.057-2.749.143-4.108l1.333-2.053c-.374-.243-.742-.469-1.112-.703 3.442-32.724 31.193-58.312 64.814-58.312 35.939 0 65.178 29.238 65.178 65.177 0 35.939-29.238 65.178-65.178 65.178z"/><path fill="#163663" d="M439.226 466.269c.042 12.309-9.919 22.335-22.223 22.377-12.316.043-22.345-9.906-22.386-22.22-.042-12.321 9.912-22.341 22.228-22.384 12.304-.039 22.334 9.901 22.381 22.227zm197.161-.567c.041 12.309-9.913 22.337-22.221 22.377-12.315.045-22.342-9.911-22.387-22.218-.043-12.325 9.914-22.341 22.229-22.384 12.308-.04 22.335 9.902 22.379 22.225z"/></g></svg>