<svg xmlns="http://www.w3.org/2000/svg" xmlns:xlink="http://www.w3.org/1999/xlink" width="1024" height="1024" viewBox="3 5 1024 1024"><circle fill="#FFBF1F" cx="515" cy="517" r="512"/><path fill="#FFDE55" d="M917.324 1016.224c2.938 0 1.322-4.607-1.125-4.607-2.937-.001-1.322 4.607 1.125 4.607z"/><defs><circle id="a" cx="515" cy="517" r="512"/></defs><clipPath id="b"><use xlink:href="#a" overflow="visible"/></clipPath><g clip-path="url(#b)"><path fill="#FFE5B8" d="M676.277 841.666c-29.734 9.521-46.115 41.347-36.594 71.08l105.406 321.069c9.523 29.732 41.348 46.124 71.084 36.597 29.736-9.522 46.123-41.356 36.605-71.086L747.367 878.261c-9.523-29.731-41.351-46.118-71.09-36.595z"/><path fill="#61E9FF" d="M665.678 1112.62l147.066-46.014-67.773-210.373c-12.709-39.437-59.209-61.115-98.66-48.407-39.441 12.706-61.121 54.983-48.41 94.431l67.777 210.363z"/><path fill="#61E9FF" d="M687.83 1288.813V937.306l33.799-16.891 32.525-19.016c0-74.189-58.875-111.039-133.061-111.039h-219.89c-74.188 0-128.83 19.727-128.83 93.917l32.525 40.354 21.121 21.13v346.067l361.811-3.015z"/><path fill="#FFE5B8" d="M573.609 768.989c0 37.087-30.068 109.392-67.154 109.392-37.09 0-67.15-72.305-67.15-109.392V681.52c0-37.087 30.061 17.338 67.15 17.338 37.086 0 67.154-54.425 67.154-17.338v87.469z"/><path fill="#FDEBDF" d="M726.16 495.746c15.703-.055 28.449 12.613 28.506 28.297.057 15.688-12.602 28.444-28.309 28.499-15.678.062-28.439-12.607-28.496-28.296-.058-15.687 12.616-28.448 28.299-28.5"/><path fill="#FFE5B8" d="M705.086 572.131c.389 110.139-78.971 190.056-189.115 190.448-110.145.389-190.062-78.968-190.451-189.11l-.703-200.683c-.393-110.13 78.984-185.092 189.123-185.476 136.818 0 190.209 119.062 190.438 184.135l.708 200.686z"/><path fill="#FFE5B8" d="M376.998 521.177c.078 22.7 13.551 41.408-8.371 44.303-1.916.262-79.623.646-81.605.656-24.615.08-44.666-19.828-44.76-44.482-.084-24.633 19.83-44.682 44.445-44.763 2.039-.007 64.678-.112 66.635.148 21.851 2.826 23.58 21.536 23.656 44.138zm268.039-2.021c.078 23.176-13.527 42.378 8.881 45.178 1.906.245 81.309.084 83.285.073 25.201-.086 45.512-20.546 45.424-45.735-.092-25.157-20.543-45.486-45.746-45.394-2.027.006-66.012.361-68.006.636-22.289 3.047-23.92 22.156-23.838 45.242z"/><path fill="#163663" d="M437.48 451.706c.041 12.285-9.902 22.292-22.18 22.334-12.295.043-22.303-9.888-22.346-22.178-.041-12.298 9.895-22.298 22.186-22.341 12.284-.04 22.294 9.882 22.34 22.185zm189.2-.565c.039 12.285-9.895 22.294-22.18 22.334-12.293.045-22.299-9.892-22.344-22.176-.043-12.302 9.896-22.298 22.186-22.34 12.287-.043 22.293 9.882 22.338 22.182z"/><path fill="#EAA688" d="M315.67 501.095h-26.277c-11.074 0-20.055 8.98-20.055 20.057 0 11.075 8.98 20.057 20.055 20.057h26.277v-40.114zm393.82 0h26.277c11.078 0 20.055 8.98 20.055 20.057 0 11.075-8.977 20.057-20.055 20.057H709.49v-40.114zM438.459 749.357s70.469 26.021 134.432 6.507v17.346s-60.709 27.103-134.432-7.589v-16.264z"/><path fill="#FFE5B8" d="M339.977 840.316c28.963 11.67 42.979 44.603 31.311 73.566l-128.561 312.516c-11.668 28.959-44.602 42.983-73.566 31.311-28.961-11.666-42.98-44.612-31.314-73.568l128.562-312.513c11.667-28.96 44.609-42.978 73.568-31.312z"/><path fill="#61E9FF" d="M330.775 1111.32l-143.316-56.621 82.947-204.867c15.555-38.402 63.514-56.63 101.928-41.076 38.412 15.551 56.943 59.299 41.393 97.714l-82.952 204.85z"/><path fill="#FFE5B8" d="M409.158 789.471a99.598 99.598 0 0 0-1.055 14.444c0 54.71 44.35 99.06 99.061 99.06 54.707 0 99.059-44.35 99.059-99.06 0-4.904-.363-9.729-1.051-14.444H409.158z"/><path fill="#163663" d="M633.773 565.356s-15.902 3.974-22.404-10.48c-6.637-14.751-19.297-20.823-38.307-20.949-.555-.004-113.373-.008-114.553 0-19.012.126-31.674 6.198-38.309 20.949-6.504 14.454-22.406 11.565-22.406 11.565h-74.441c-6.158 235.19 181.619 294.128 192.43 293.472 10.812.656 200.367-58.281 192.434-294.557h-74.444z"/><path fill="#FFE5B8" d="M429.326 584.509v39.344h.725c0 39.481 39.615 77.991 88.484 77.991 48.871 0 88.488-39.594 88.488-79.075h.725v-38.26H429.326z"/><path fill="#163663" d="M518.518 671.394c37.309-.135 67.455-30.475 67.324-67.784l-135.111.479c.13 37.309 30.47 67.433 67.787 67.305z"/><path fill="#FFF" d="M582.781 623.969c2.002-6.429 3.084-13.264 3.049-23.18l-135.107.479c.033 9.91 1.154 16.739 3.205 23.156l128.853-.455z"/><path fill="#FF617F" d="M521.229 671.595c-31.072.112-44.145-15.357-44.145-15.357 10.277-7.477 26.182-12.307 44.049-12.369 15.533-.054 32.436 3.486 42.639 9.291-.001-.001-11.467 18.328-42.543 18.435z"/><path fill="#2F61DD" d="M406.77 230.03s82.395-53.121 198.396-3.251c8.672 3.419 71.551 41.39 71.551 143.104v104.075h40.402v-123.59s6.201-94.204-87.02-152.86c0 0-145.814-80.105-275.365 20.598 0 0-56.367 38.059-53.123 164.786l-1.061 93.968 39.004-.732-.895-104.458c.001-.001-4.524-99.358 68.111-141.64z"/><circle fill="#FCFAF0" cx="420.546" cy="287.33" r="21.952"/><circle fill="#2F61DD" cx="509.085" cy="77.439" r="75.888"/><path fill="#2F61DD" d="M364.896 209.701c106.244-52.037 112.748-84.561 112.748-84.561s39.029 30.355 32.525 41.197c-6.505 10.841-145.273 43.364-145.273 43.364z"/><path fill="#2F61DD" d="M613.893 189.103c-88.547-22.765-58.543-54.205-58.543-54.205s-60.709 19.515-54.205 30.355c6.503 10.842 112.748 23.85 112.748 23.85z"/><path fill="#163663" d="M465.719 141.401s30.355-18.43 26.021-61.794c-3.266-32.648-29.271-58.543-44.451-47.701-15.176 10.841-29.271 81.309 18.43 109.495z"/><path fill="#FF7D08" d="M698.713 391.658c-10.85-8.208-22.957-8.847-26.408-8.847H346.191c-3.455 0-15.561.639-26.408 8.847-7.545 5.708-16.539 16.688-16.539 36.574 0 18.401.176 21.685.387 23.84 2.322 23.497 13.248 45.229 30.766 61.191 17.639 16.073 40.506 24.926 64.385 24.926 24.096 0 47.109-8.99 64.809-25.313 17.596-16.226 28.408-38.249 30.455-62.012.123-1.432.113-3.218.041-13.72-.025-3.074-.051-6.822-.08-11.381-.047-7.745-.246-15.536-.436-21.438h31.355c-.189 5.901-.391 13.692-.438 21.438-.029 4.559-.053 8.307-.078 11.381-.074 10.502-.082 12.288.041 13.718 2.045 23.765 12.859 45.788 30.451 62.014 17.703 16.323 40.717 25.313 64.812 25.313 23.879 0 46.746-8.853 64.383-24.926 17.518-15.963 28.443-37.694 30.764-61.191.215-2.155.391-5.438.391-23.84 0-19.886-8.994-30.866-16.539-36.574zm-228.496 57.279c-1.559 17.763-9.664 34.222-22.83 46.367-13.273 12.241-30.535 18.98-48.605 18.98-17.91 0-35.059-6.636-48.285-18.69-13.141-11.972-21.334-28.266-23.076-45.87-.115-1.189-.271-4.711-.271-21.491 0-8.188 2.309-13.918 7.059-17.511 3.906-2.957 8.896-4.005 11.984-4.005H469.73c.168 5.533.332 12.433.375 19.191.027 4.569.053 8.327.078 11.407.042 6.356.071 10.598.034 11.622zm220.855.785c-1.738 17.606-9.932 33.9-23.074 45.872-13.229 12.055-30.373 18.69-48.283 18.69-18.072 0-35.334-6.739-48.605-18.98-13.166-12.146-21.27-28.604-22.83-46.367-.039-1.023-.01-5.268.035-11.621.021-3.08.049-6.838.078-11.403.041-6.757.207-13.659.375-19.195h123.537c3.084 0 8.076 1.048 11.984 4.005 4.75 3.593 7.059 9.322 7.059 17.511 0 16.779-.157 20.3-.276 21.488z"/><path fill="#163663" d="M455.963 363.646c0 8.98-7.281 16.262-16.262 16.262h-56.375c-8.98 0-16.26-7.281-16.26-16.262 0-8.981 7.279-16.262 16.26-16.262h56.375c8.981.001 16.262 7.281 16.262 16.262zm195.141 0c0 8.98-7.279 16.262-16.26 16.262h-56.375c-8.98 0-16.264-7.281-16.264-16.262 0-8.981 7.283-16.262 16.264-16.262h56.375c8.98.001 16.26 7.281 16.26 16.262z"/><path fill="#FF7D08" d="M576.412 152.298c0 7.188-5.824 13.012-13.01 13.012H449.561c-7.188 0-13.012-5.824-13.012-13.012 0-7.185 5.824-13.009 13.012-13.009h113.842c7.185 0 13.009 5.824 13.009 13.009z"/></g></svg>