<svg xmlns="http://www.w3.org/2000/svg" xmlns:xlink="http://www.w3.org/1999/xlink" width="1024" height="1024" viewBox="3 5 1024 1024"><circle fill="#22A1FF" cx="515" cy="517" r="512"/><defs><circle id="a" cx="515" cy="517" r="512"/></defs><clipPath id="b"><use xlink:href="#a" overflow="visible"/></clipPath><g clip-path="url(#b)"><path fill="#D8724A" d="M680.768 818.454c-30.145 9.654-46.749 41.914-37.097 72.057l106.853 325.467c9.651 30.141 41.91 46.757 72.056 37.098 30.144-9.652 46.756-41.921 37.104-72.061L752.828 855.553c-9.652-30.14-41.918-46.75-72.06-37.099z"/><path fill="#163663" d="M670.021 1093.121l149.081-46.642L750.4 833.222c-12.885-39.978-60.021-61.951-100.012-49.069-39.983 12.881-61.956 55.738-49.075 95.726l68.708 213.242z"/><path fill="#163663" d="M692.477 1271.73V915.404l34.262-17.122 32.969-19.275c0-75.207-59.679-112.561-134.879-112.561H401.922c-75.202 0-130.593 19.998-130.593 95.206l32.969 40.907 21.409 21.418v350.809l366.77-3.056z"/><path fill="#D8724A" d="M576.689 744.783c0 37.595-30.478 110.892-68.072 110.892-37.6 0-68.07-73.297-68.07-110.892v-88.667c0-37.596 30.471 17.574 68.07 17.574 37.595 0 68.072-55.17 68.072-17.574v88.667z"/><path fill="#FDEBDF" d="M731.331 467.795c15.919-.054 28.84 12.787 28.896 28.687.059 15.903-12.771 28.832-28.693 28.89-15.896.06-28.831-12.781-28.887-28.684-.058-15.905 12.784-28.84 28.684-28.893"/><path fill="#D8724A" d="M709.971 545.227c.393 111.649-80.052 192.662-191.707 193.059-111.656.395-192.667-80.05-193.062-191.701l-.714-203.433c-.398-111.641 80.065-187.626 191.716-188.019 111.661-.395 192.813 120.695 193.044 186.66l.723 203.434z"/><path fill="#D8724A" d="M377.384 493.576c.082 23.009 13.737 41.974-8.482 44.908-1.944.266-80.717.655-82.726.664-24.95.082-45.277-20.098-45.372-45.09-.083-24.972 20.1-45.294 45.052-45.375 2.07-.01 65.566-.115 67.551.147 22.152 2.869 23.9 21.834 23.977 44.746zm271.711-2.05c.082 23.494-13.711 42.959 9.005 45.796 1.934.251 82.425.086 84.427.076 25.544-.088 46.137-20.828 46.046-46.363-.093-25.503-20.824-46.108-46.372-46.015-2.056.006-66.915.366-68.94.642-22.593 3.092-24.25 22.463-24.166 45.864z"/><path fill="#163663" d="M512.492 630.493c43.061-.155 77.853-35.173 77.7-78.236l-155.943.552c.153 43.062 35.173 77.833 78.243 77.684z"/><path fill="#FFF" d="M586.656 575.755c2.316-7.421 3.562-15.308 3.521-26.753l-155.935.551c.036 11.441 1.331 19.322 3.696 26.727l148.718-.525z"/><path fill="#FF617F" d="M515.619 630.726c-35.861.131-50.953-17.728-50.953-17.728 11.863-8.627 30.217-14.202 50.842-14.274 17.926-.064 37.438 4.026 49.213 10.724 0-.001-13.238 21.155-49.102 21.278z"/><path fill="#163663" d="M427.707 434.141c.041 12.455-10.037 22.6-22.485 22.642-12.46.044-22.606-10.024-22.649-22.481-.043-12.466 10.03-22.604 22.49-22.646 12.449-.045 22.597 10.016 22.644 22.485zm202.781-.573c.039 12.455-10.031 22.599-22.482 22.642-12.462.046-22.606-10.028-22.651-22.481-.043-12.469 10.03-22.604 22.49-22.646 12.454-.044 22.597 10.017 22.643 22.485z"/><path fill="#893C1D" d="M637.317 496.398c0 8.193-6.642 14.836-14.836 14.836H593.36c-8.193 0-14.834-6.643-14.834-14.836 0-8.193 6.641-14.836 14.834-14.836h29.121c8.195 0 14.836 6.643 14.836 14.836zm-202.782 0c0 8.193-6.642 14.836-14.836 14.836h-29.121c-8.193 0-14.834-6.643-14.834-14.836 0-8.193 6.641-14.836 14.834-14.836h29.121c8.195 0 14.836 6.643 14.836 14.836zm-119.316-23.18H288.58c-11.229 0-20.331 9.102-20.331 20.331s9.103 20.331 20.331 20.331h26.639v-40.662zm399.214 0h26.64c11.228 0 20.331 9.102 20.331 20.331s-9.104 20.33-20.331 20.33h-26.64v-40.661z"/><path fill="#D8724A" d="M339.857 817.088c29.36 11.828 43.566 45.214 31.74 74.573L241.274 1208.46c-11.829 29.355-45.214 43.572-74.573 31.739-29.357-11.827-43.568-45.223-31.746-74.576l130.327-316.797c11.827-29.352 45.217-43.565 74.575-31.738z"/><path fill="#163663" d="M330.53 1091.807l-145.279-57.398 84.082-207.675c15.77-38.93 64.384-57.405 103.327-41.639 38.936 15.765 57.723 60.111 41.956 99.053l-84.086 207.659z"/><path fill="#D8724A" d="M409.984 765.545c-.697 4.78-1.067 9.67-1.067 14.644 0 55.459 44.96 100.418 100.417 100.418 55.46 0 100.416-44.959 100.416-100.418 0-4.974-.366-9.863-1.065-14.644H409.984z"/><path fill="#893C1D" d="M439.689 724.882s71.433 26.377 136.272 6.595v28.573s-61.543 30.771-136.272-4.396v-30.772z"/><path fill="#FFBF1F" d="M738.867 282.587l-2.086-.009c.555-122.112-98.131-190.264-220.243-190.815-122.11-.554-221.409 66.702-221.961 188.813l-.587 108.465 444.291 2.011.586-108.465z"/><path fill="#FFEE73" d="M745.584 391.086l-16.689-.076.544-119.938-1.043-.005.043 11.473c.25-55.349-20.855-101.85-61.041-134.479-37.754-30.655-91.344-47.688-150.898-47.954-59.554-.271-113.296 16.275-151.325 46.587-40.478 32.262-62.003 78.572-62.254 133.918l-.586 108.467-16.686-.075.585-108.465c.273-60.577 23.974-111.371 68.538-146.893 40.995-32.676 98.459-50.515 161.806-50.227 63.345.285 120.644 18.643 161.341 51.688 42.193 34.264 65.287 82.245 67.096 139.164l1.193.006-.624 116.809z"/><path fill="#FFEE73" d="M388.9 389.473l-14.603-.066.803-156.442c.175-39.372 15.429-76.705 44.104-107.964 21.538-23.477 42.867-35.217 43.764-35.705l6.979 12.826-3.49-6.414 3.499 6.408c-.202.112-20.411 11.295-40.321 33.117-26.336 28.863-39.771 61.768-39.934 97.799l-.801 156.441zm271.161 1.226l-14.6-.066.803-156.44c.161-36.03-12.975-69.056-39.046-98.157-19.712-22.002-39.821-33.367-40.021-33.479l7.101-12.757c.894.495 22.117 12.429 43.439 36.101 28.394 31.516 43.305 68.984 43.126 108.356l-.802 156.442z"/><path fill="#163663" d="M286.747 389.004h37.648v57.009h-37.648zm422.006 0h37.648v57.009h-37.648zm-117.281-57.846c0 15.479-12.548 28.027-28.026 28.027h-89.027c-15.479 0-28.026-12.548-28.026-28.027 0-15.477 12.548-28.025 28.026-28.025h89.027c15.478 0 28.026 12.549 28.026 28.025z"/></g></svg>