<svg xmlns="http://www.w3.org/2000/svg" xmlns:xlink="http://www.w3.org/1999/xlink" width="1024" height="1024" viewBox="3 5 1024 1024"><circle fill="#22A1FF" cx="515" cy="517" r="512"/><defs><circle id="a" cx="515" cy="517" r="512"/></defs><clipPath id="b"><use xlink:href="#a" overflow="visible"/></clipPath><g clip-path="url(#b)"><path fill="#163663" d="M693.531 1278.329V925.055l44.453-16.82V891.46c0-73.88-26.24-112.734-100.113-112.734H418.9c-73.875 0-95.9 30.441-95.9 104.321v29.389l41.543 21.041v344.617l328.988.235z"/><path fill="#FFBF1F" d="M532.246 948.817c-53.66 0-97.162 43.5-97.162 97.162 0 53.66 43.502 97.161 97.162 97.161s97.162-43.501 97.162-97.161c0-53.662-43.502-97.162-97.162-97.162zm0 161.128c-35.326 0-63.965-28.639-63.965-63.966s28.639-63.966 63.965-63.966 63.965 28.637 63.965 63.966c0 35.328-28.639 63.966-63.965 63.966z"/><path fill="#FFE5B8" d="M662.908 825.068c-27.695 14.134-38.686 48.041-24.551 75.735L793.5 1199.419c14.131 27.691 48.039 38.691 75.732 24.554 27.695-14.134 38.689-48.048 24.561-75.739l-155.145-298.61c-14.132-27.692-48.046-38.686-75.74-24.556z"/><path fill="#163663" d="M716.504 1082.266l116.637-58.038-100.385-195.87c-18.822-36.717-55.047-53.792-91.777-34.97l-2.16 3.239c-36.723 18.818-41.521 53.053-22.701 89.781l100.386 195.858z"/><path fill="#FFBF1F" d="M690.27 1031.54l116.593-56.138 12.955 21.592-118.754 59.377z"/><path fill="#FFE5B8" d="M390.053 825.068c27.693 14.134 38.682 48.041 24.551 75.735l-155.143 298.615c-14.133 27.691-48.039 38.691-75.734 24.554-27.695-14.134-38.689-48.048-24.561-75.739l155.146-298.61c14.131-27.691 48.043-38.685 75.741-24.555z"/><path fill="#163663" d="M336.455 1082.266l-116.635-58.038 100.381-195.87c18.826-36.717 55.051-53.792 91.779-34.97l2.158 3.239c36.723 18.818 41.523 53.053 22.701 89.781l-100.384 195.858z"/><path fill="#FFBF1F" d="M362.689 1031.54l-116.595-56.138-12.953 21.592 118.752 59.377zm68.569-253.7c-2.164 7.908-2.246 16.233-2.246 24.83 0 51.873 43.129 93.923 95.002 93.923s93.924-42.05 93.924-93.923a94.116 94.116 0 0 0-3.322-24.83H431.258z"/><path fill="#FFE5B8" d="M595.98 777.955c0 102.524-73.639 89.571-80.904 88.422h2.158c-36.936 0-66.867-22.684-66.867-76.546v-119.49c0-36.931 29.932 17.266 66.867 17.266 36.932 0 77.668-54.196 77.668-17.266l1.078 107.614z"/><path fill="#FFE5B8" d="M715.033 561.409c.387 109.679-78.637 189.262-188.322 189.652-109.686.386-189.266-78.639-189.654-188.319l-.701-199.843c-.391-109.668 78.652-184.314 188.334-184.697 109.689-.389 189.408 118.562 189.637 183.363l.706 199.844z"/><path fill="#FFE5B8" d="M381.842 510.669c.08 22.606 13.494 41.235-8.334 44.117-1.91.262-79.291.644-81.266.654-24.51.08-44.479-19.744-44.57-44.297-.082-24.529 19.744-44.494 44.256-44.574 2.033-.007 64.408-.111 66.359.147 21.76 2.816 23.477 21.447 23.555 43.953zm273.39-2.012c.08 23.078-13.469 42.201 8.848 44.988 1.898.245 80.969.084 82.936.074 25.092-.086 45.322-20.461 45.234-45.545-.092-25.052-20.459-45.295-45.555-45.203-2.02.006-65.732.361-67.725.633-22.191 3.035-23.82 22.065-23.738 45.053z"/><path fill="#163663" d="M521.041 645.172c42.301-.154 76.479-34.554 76.33-76.856l-153.189.541c.148 42.302 34.548 76.459 76.859 76.315z"/><path fill="#FFF" d="M593.898 591.399c2.273-7.289 3.498-15.039 3.457-26.281l-153.182.542c.035 11.239 1.309 18.981 3.631 26.253l146.094-.514z"/><path fill="#FF617F" d="M524.113 645.399c-35.227.128-50.053-17.414-50.053-17.414 11.654-8.475 29.682-13.953 49.943-14.022 17.611-.063 36.777 3.954 48.344 10.534.001 0-13.001 20.782-48.234 20.902z"/><path fill="#FF7D08" d="M400.738 411.671c-6.973.027-12.977-5.206-13.754-12.297-.834-7.578 4.631-14.404 12.215-15.234l40.545-4.457c7.566-.867 14.4 4.632 15.236 12.217.83 7.58-4.635 14.4-12.217 15.232l-40.549 4.463c-.493.054-.987.076-1.476.076z"/><path fill="#EAA688" d="M729.133 487.433h15.375c11.029 0 19.973 8.943 19.973 19.973s-8.943 19.973-19.973 19.973h-15.375v-39.946zm-279.61 250.462s83.127 21.592 146.822 2.159v20.513s-73.41 30.228-146.822-4.318v-18.354z"/><path fill="#FF7D08" d="M635.029 411.021c6.973.026 12.979-5.207 13.756-12.299.834-7.578-4.633-14.4-12.215-15.231l-40.545-4.458c-7.564-.866-14.402 4.633-15.236 12.217-.83 7.58 4.635 14.402 12.217 15.232l40.547 4.462c.496.057.99.077 1.476.077z"/><path fill="#EAA688" d="M416.057 221.856s82.047-52.898 197.562-3.238c8.637 3.405 71.252 41.217 71.252 142.504v103.641h40.232V341.69s6.178-93.81-86.654-152.221c0 0-145.203-79.769-274.213 20.512 0 0-60.447 37.899-57.217 164.096l-1.057 93.571 43.16-.728-.893-104.021c.001 0-4.504-98.939 67.828-141.043zM308.896 490.672h-15.373c-11.031 0-19.971 8.942-19.971 19.972 0 11.03 8.939 19.973 19.971 19.973h15.373v-39.945z"/><circle fill="#EAA688" cx="383.135" cy="502.648" r="11.334"/><circle fill="#EAA688" cx="416.602" cy="502.648" r="11.334"/><circle fill="#EAA688" cx="451.147" cy="502.648" r="11.335"/><circle fill="#EAA688" cx="400.408" cy="529.638" r="11.334"/><circle fill="#EAA688" cx="434.954" cy="529.638" r="11.335"/><circle fill="#EAA688" cx="588.78" cy="501.569" r="11.335"/><circle fill="#EAA688" cx="622.248" cy="501.569" r="11.336"/><path fill="#EAA688" d="M668.131 501.569c0 6.26-5.078 11.333-11.336 11.333-6.262 0-11.336-5.073-11.336-11.333 0-6.261 5.074-11.336 11.336-11.336 6.258 0 11.336 5.076 11.336 11.336z"/><circle fill="#EAA688" cx="606.054" cy="528.558" r="11.335"/><circle fill="#EAA688" cx="640.6" cy="528.558" r="11.336"/><path fill="#163663" d="M442.51 444.624c0 7.601-6.162 13.764-13.764 13.764h-17.812c-7.602 0-13.766-6.163-13.766-13.764 0-7.603 6.164-13.766 13.766-13.766h17.812c7.602 0 13.764 6.163 13.764 13.766zm199.72 0c0 7.601-6.162 13.764-13.764 13.764h-17.812c-7.602 0-13.766-6.163-13.766-13.764 0-7.603 6.164-13.766 13.766-13.766h17.812c7.602 0 13.764 6.163 13.764 13.766z"/><circle fill="#FCFAF0" cx="418.978" cy="268.12" r="21.86"/><path fill="#C98F79" d="M416.057 221.856s82.047-52.898 197.562-3.238c8.637 3.405 71.252 41.217 71.252 142.504v103.641h40.232V341.69s6.178-93.81-86.654-152.221c0 0-145.203-79.769-274.213 20.512 0 0-60.447 37.899-57.217 164.096l-1.057 93.571 43.16-.728-.893-104.021c.001 0-4.504-98.939 67.828-141.043z"/><path fill="#FF7D08" d="M251.961 225.096l60.455-50.739-12.955-18.354 69.094-43.184 1.08-43.183 76.65 19.433V54.522l66.934 30.229V45.886l75.57 42.104 1.078-50.74s49.314 12.398 66.936 60.457c11.875 32.387 7.557 93.923 7.557 93.923l-220.234-11.876-192.165 45.342z"/><path fill="#EF6100" d="M588.789 87.989l1.078 46.422-76.648-49.66v47.501c-6.477-2.159-65.854-43.183-65.854-43.183l-1.08 49.66-77.73-25.91 15.115 43.184h-84.209l30.229 43.183-77.729 25.91 41.592 44.037-50.229 38.011 63.703 31.85 52.848-52.865c1.619 4.855 9.715-35.626 60.5-65.35 0 0 95.002-51.82 193.244-2.16 0 0 50.74 19.433 52.898-38.865.001-.001 6.479-43.183-77.728-91.765z"/><path fill="#FF7D08" d="M243.324 307.144c.506-6.443 29.654-59.881 29.654-59.881l20.574 21.87-50.228 38.011z"/><path fill="#F99D5F" d="M960.137 277.401c3.225 0 3.225-5 0-5s-3.225 5 0 5z"/></g></svg>