<svg xmlns="http://www.w3.org/2000/svg" xmlns:xlink="http://www.w3.org/1999/xlink" width="1024" height="1024" viewBox="3 5 1024 1024"><circle fill="#22A1FF" cx="515" cy="517" r="512.001"/><defs><circle id="a" cx="515.001" cy="517" r="512"/></defs><clipPath id="b"><use xlink:href="#a" overflow="visible"/></clipPath><g clip-path="url(#b)"><path fill="#FFE5B8" d="M666.599 827.702c-30.064 9.597-46.656 41.748-37.059 71.812l106.225 324.63c9.596 30.062 41.746 46.661 71.811 37.06 30.066-9.596 46.66-41.755 37.07-71.815l-106.23-324.625c-9.597-30.062-41.755-46.656-71.817-37.062z"/><path fill="#FF7D08" d="M655.616 1101.564l148.695-46.362-68.297-212.706c-12.809-39.875-59.787-61.832-99.674-49.025-39.879 12.804-61.83 55.516-49.025 95.4l68.301 212.693z"/><path fill="#FF7D08" d="M677.831 1279.678l.346-355.295 34.184-17.038 32.891-19.188c.074-74.989-59.396-112.293-134.379-112.365l-222.26-.219c-74.986-.073-130.236 19.813-130.309 94.805l32.832 40.819 21.328 21.377-.342 349.794 365.709-2.69z"/><path fill="#FFE5B8" d="M562.896 754.144c-.039 37.486-30.498 110.541-67.988 110.504-37.486-.036-67.799-73.15-67.76-110.637l.086-88.41c.037-37.486 30.363 17.554 67.854 17.589 37.486.037 67.93-54.942 67.895-17.456l-.087 88.41z"/><path fill="#EAA688" d="M426.312 691.431s71.199 26.369 135.871 6.708l-.018 61.364s-61.391 27.335-135.871-7.804l.018-60.268z"/><path fill="#FFE5B8" d="M326.679 826.008c29.262 11.823 43.395 45.126 31.572 74.388l-130.252 315.756c-11.824 29.26-45.125 43.401-74.389 31.573-29.262-11.82-43.4-45.132-31.582-74.389l130.256-315.754c11.824-29.257 45.131-43.395 74.395-31.574z"/><path fill="#FF7D08" d="M317.108 1099.922l-144.805-57.375 84.043-206.99c15.764-38.802 64.254-57.176 103.066-41.417 38.809 15.756 57.5 59.993 41.742 98.807l-84.046 206.975z"/><path fill="#FFE5B8" d="M396.651 774.683a100.834 100.834 0 0 0-1.078 14.6c-.055 55.299 44.73 100.17 100.029 100.226 55.297.053 100.17-44.73 100.223-100.029.006-4.959-.357-9.835-1.049-14.603l-198.125-.194z"/><path fill="#FDEBDF" d="M717.024 468.114c15.869.033 28.686 12.908 28.65 28.761-.027 15.856-12.893 28.679-28.768 28.647-15.85-.026-28.676-12.901-28.645-28.756.031-15.859 12.908-28.687 28.763-28.652"/><path fill="#FFE5B8" d="M695.298 545.202c-.221 111.329-80.875 191.663-192.207 191.446-111.334-.22-191.67-80.875-191.447-192.202l.402-202.846c.217-111.316 80.861-164.725 192.189-164.503 111.338.22 191.592 99.485 191.461 165.26l-.398 202.845z"/><path fill="#FFE5B8" d="M363.966 491.878c-.047 22.944 13.467 41.928-8.705 44.731-1.941.254-80.486.211-82.49.21-24.879-.056-45.037-20.289-44.992-45.211.053-24.897 20.287-45.051 45.17-44.995 2.062.003 65.373.245 67.354.52 22.067 2.979 23.71 21.899 23.663 44.745zm270.93-.553c-.049 23.426-13.908 42.758 8.727 45.713 1.928.26 82.184.538 84.182.538 25.469.052 46.115-20.515 46.166-45.975.049-25.429-20.512-46.091-45.986-46.137-2.049-.004-66.721-.001-68.742.264-22.545 2.959-24.303 22.263-24.347 45.597z"/><path fill="#163663" d="M501.214 629.154c42.938.081 77.818-34.646 77.904-77.584l-155.492-.306c-.084 42.938 34.643 77.8 77.588 77.89z"/><path fill="#FFF" d="M575.464 574.981c2.348-7.387 3.635-15.244 3.656-26.656l-155.482-.307c-.025 11.408 1.223 19.274 3.539 26.67l148.287.293z"/><path fill="#FF617F" d="M504.329 629.401c-35.758-.065-50.703-17.953-50.703-17.953 11.875-8.537 30.205-13.998 50.771-13.956 17.875.034 37.305 4.22 49.008 10.963 0 0-13.312 21.023-49.076 20.946z"/><path fill="#FF7D08" d="M371.663 388.144c-7.078-.011-13.143-5.355-13.895-12.557-.805-7.697 4.781-14.594 12.486-15.396l41.178-4.297c7.682-.837 14.59 4.783 15.396 12.484.801 7.701-4.785 14.592-12.486 15.395l-41.18 4.303a13.75 13.75 0 0 1-1.499.068z"/><path fill="#163663" d="M417.739 436.196c-.029 12.417-10.133 22.477-22.545 22.45-12.426-.024-22.484-10.118-22.457-22.541.023-12.429 10.123-22.483 22.543-22.456 12.416.027 22.481 10.112 22.459 22.547zm209.864.575c-.025 12.417-10.125 22.479-22.539 22.452-12.426-.025-22.486-10.125-22.463-22.54.025-12.435 10.123-22.483 22.549-22.457 12.417.026 22.476 10.113 22.453 22.545z"/><path fill="#EAA688" d="M634.083 496.169c-.045 8.169-6.703 14.754-14.875 14.71l-29.033-.159c-8.168-.045-14.756-6.705-14.713-14.873.045-8.17 6.703-14.758 14.873-14.713l29.037.16c8.172.045 14.756 6.705 14.711 14.875zm-213.148-1.162c-.045 8.17-6.705 14.755-14.875 14.71l-29.035-.159c-8.172-.045-14.758-6.705-14.711-14.874.045-8.169 6.703-14.757 14.873-14.712l29.035.16c8.17.045 14.754 6.705 14.713 14.875zm-118.846-23.77l-26.559-.145c-11.195-.062-20.322 8.964-20.383 20.159-.062 11.195 8.965 20.322 20.16 20.385l26.561.146.221-40.545zm398.055 2.192l26.559.146c11.197.062 20.225 9.188 20.162 20.383-.061 11.195-9.186 20.222-20.383 20.16l-26.561-.146.223-40.543z"/><path fill="#FF7D08" d="M614.935 392.111c7.078.065 13.199-5.214 14.031-12.405.887-7.688-4.623-14.645-12.316-15.531l-41.129-4.75c-7.672-.922-14.641 4.623-15.531 12.314-.887 7.689 4.625 14.645 12.312 15.531l41.135 4.756c.503.057 1.001.082 1.498.085z"/><path fill="#FFBF1F" d="M736.468 281.491l-2.191-.01c.58-128.299-103.107-199.904-231.406-200.484s-232.627 70.082-233.207 198.381l-.615 113.962 466.803 2.112.616-113.961z"/><path fill="#EAA688" d="M502.515 676.963c-22.795-.104-41.854-7.897-42.996-8.374a8.768 8.768 0 0 1-4.717-11.466 8.765 8.765 0 0 1 11.451-4.723c.34.141 34.266 13.903 61.15 2.523 4.463-1.888 9.602.2 11.492 4.657a8.768 8.768 0 0 1-4.658 11.489c-10.466 4.431-21.474 5.94-31.722 5.894z"/><path fill="#FFEE73" d="M743.522 395.486l-17.533-.079.57-126.014-1.096-.006.045 12.054c.264-58.152-21.912-107.011-64.133-141.291-39.668-32.209-95.973-50.104-158.545-50.387-62.572-.283-119.037 17.101-158.994 48.95-42.525 33.896-65.145 82.552-65.406 140.704l-.617 113.962-17.533-.08.617-113.961c.285-63.646 25.188-117.015 72.012-154.336 43.072-34.332 103.445-53.073 170.002-52.771 66.557.301 126.76 19.588 169.516 54.309 44.334 35.997 68.596 86.412 70.494 146.213l1.256.006-.655 122.727z"/><path fill="#FFEE73" d="M368.765 393.791l-15.342-.069.844-164.367c.186-41.367 16.209-80.593 46.34-113.436 22.629-24.665 45.039-37.002 45.98-37.514l7.332 13.475-3.666-6.738 3.676 6.734c-.213.116-21.445 11.865-42.363 34.793-27.67 30.327-41.787 64.898-41.959 102.755l-.842 164.367zm284.902 1.289l-15.34-.069.844-164.367c.17-37.855-13.633-72.554-41.025-103.129-20.711-23.117-41.84-35.059-42.047-35.176l7.461-13.404c.938.521 23.236 13.059 45.641 37.929 29.83 33.113 45.498 72.481 45.311 113.851l-.845 164.365z"/><path fill="#2F61DD" d="M402.997 335.868l112.428 96.939.357-78.896 75.422 41.982.318-70.495c.111-24.837-17.729-86.829-130.037-58.301-62.168 15.791-59.941 66.939-58.488 68.771z"/><path fill="#163663" d="M425.923 354.601c-.723-1.829-5.09-85.496 75.996-85.128 0 0 66.816 6.146 66.533 68.241l-.203 44.926-50.285-26.527-.352 77.802-91.689-79.314z"/><path fill="#EAA688" d="M556.147 393.543l-.222 49.311-38.213-30.856.088-19.724z"/><path fill="#163663" d="M272.771 536.819l-63.957 90.752 116.154.524s-16.25-43.427-13.289-91.32l-38.908.044zm79.546-140.912l-39.687 52.42-98.619-.445 55.027-52.351zM734.12 537.812l63.135 91.325-116.154-.525s16.643-43.277 14.115-91.196l38.904.396zm-78.266-141.625l39.211 52.775 98.62.446-54.551-52.845z"/><path fill="#163663" d="M296.577 606.05l-20.021 65.658 78.896.357s-35.4-32.981-45.588-96.637l-13.287 30.622zm413.106 1.871l19.43 65.835-78.896-.356s35.695-32.66 46.459-96.221l13.007 30.742z"/><path fill="#EAA688" d="M291.81 448.232l27.666.126 38.314-53.777-25.186-.954-39.691 53.517m426.25 1.927l-27.666-.125-37.83-54.123 25.191.371 39.211 52.778"/></g></svg>