<svg xmlns="http://www.w3.org/2000/svg" xmlns:xlink="http://www.w3.org/1999/xlink" width="1024" height="1024" viewBox="3 5 1024 1024"><circle fill="#EF6100" cx="515" cy="517" r="512"/><defs><path id="a" d="M1027 517c0 280.561-229.23 512-512 512C232.231 1029 3 797.561 3 517S232.231 9 515 9c282.77 0 512 227.439 512 508z"/></defs><clipPath id="b"><use xlink:href="#a" overflow="visible"/></clipPath><g clip-path="url(#b)"><path fill="#FFE5B8" d="M688.566 822.738c-30.119 9.645-46.709 41.877-37.064 71.994l106.758 325.18c9.643 30.113 41.875 46.715 71.992 37.064 30.117-9.645 46.715-41.885 37.072-71.996L760.562 859.805c-9.644-30.114-41.88-46.711-71.996-37.067z"/><path fill="#163663" d="M677.828 1097.164l148.949-46.602-68.641-213.07c-12.873-39.941-59.967-61.896-99.922-49.025-39.949 12.869-61.902 55.688-49.033 95.641l68.647 213.056z"/><path fill="#163663" d="M700.264 1275.615V919.604l34.232-17.107 32.939-19.258c0-75.141-59.627-112.463-134.76-112.463H409.966c-75.136 0-130.479 19.98-130.479 95.123l32.94 40.871 21.39 21.398v350.5l366.447-3.053z"/><path fill="#FFE5B8" d="M584.58 749.133c0 37.561-30.451 110.793-68.014 110.793-37.566 0-68.009-73.232-68.009-110.793v-88.59c0-37.562 30.443 17.559 68.009 17.559 37.562 0 68.014-55.121 68.014-17.559v88.59z"/><path fill="#FDEBDF" d="M739.086 472.389c15.902-.055 28.812 12.775 28.869 28.66.059 15.889-12.76 28.807-28.668 28.863-15.883.062-28.807-12.77-28.861-28.656-.059-15.891 12.773-28.816 28.66-28.867"/><path fill="#FFE5B8" d="M717.742 549.75c.393 111.553-79.98 192.494-191.537 192.889-111.558.395-192.497-79.979-192.891-191.531l-.714-247.174c-.397-111.541 79.996-143.541 191.549-143.933 111.561-.394 192.643 120.589 192.873 186.495l.72 203.254z"/><path fill="#FFE5B8" d="M385.45 498.146c.082 22.991 13.725 41.938-8.475 44.869-1.943.266-80.646.655-82.653.665-24.928.082-45.236-20.082-45.331-45.053-.084-24.947 20.081-45.253 45.012-45.335 2.067-.007 65.507-.114 67.491.149 22.131 2.865 23.879 21.814 23.956 44.705zm271.47-2.047c.082 23.474-13.697 42.921 8.998 45.755 1.932.25 82.352.087 84.354.076 25.52-.088 46.096-20.811 46.004-46.321-.092-25.479-20.807-46.07-46.33-45.976-2.055.006-66.855.367-68.881.643-22.573 3.087-24.227 22.442-24.145 45.823z"/><path fill="#163663" d="M520.438 634.943c43.025-.156 77.785-35.143 77.633-78.168l-155.805.551c.151 43.024 35.14 77.766 78.172 77.617z"/><path fill="#FFF" d="M594.539 580.252c2.312-7.413 3.557-15.295 3.516-26.729l-155.796.551c.037 11.43 1.33 19.305 3.693 26.703l148.587-.525z"/><path fill="#FF617F" d="M523.562 635.174c-35.829.133-50.907-17.71-50.907-17.71 11.853-8.62 30.188-14.19 50.795-14.263 17.912-.064 37.404 4.022 49.17 10.715.001 0-13.224 21.135-49.058 21.258z"/><path fill="#FFBF1F" d="M392.591 394.162c-7.09.027-13.198-5.295-13.989-12.508-.847-7.707 4.709-14.647 12.424-15.494l41.237-4.533c7.694-.881 14.647 4.713 15.496 12.426.845 7.711-4.714 14.646-12.425 15.493l-41.24 4.538a13.36 13.36 0 0 1-1.503.078z"/><path fill="#163663" d="M435.729 438.764c.041 12.443-10.028 22.579-22.467 22.621-12.449.044-22.586-10.016-22.629-22.462-.043-12.454 10.021-22.584 22.471-22.626 12.438-.042 22.578 10.009 22.625 22.467zm202.601-.573c.041 12.443-10.021 22.58-22.463 22.621-12.451.045-22.586-10.02-22.631-22.461-.043-12.459 10.021-22.584 22.471-22.627 12.443-.042 22.578 10.01 22.623 22.467z"/><path fill="#EAA688" d="M645.154 500.967c0 8.186-6.635 14.822-14.824 14.822h-29.094c-8.186 0-14.822-6.637-14.822-14.822 0-8.188 6.637-14.823 14.822-14.823h29.094c8.19 0 14.824 6.635 14.824 14.823zm-202.604 0c0 8.186-6.635 14.822-14.823 14.822h-29.095c-8.186 0-14.821-6.637-14.821-14.822 0-8.188 6.636-14.823 14.821-14.823h29.095c8.189 0 14.823 6.635 14.823 14.823zm-119.211-23.161h-26.615c-11.219 0-20.313 9.095-20.313 20.313 0 11.218 9.095 20.312 20.313 20.312h26.615v-40.625zm398.862-.001h26.615c11.219 0 20.314 9.096 20.314 20.314s-9.096 20.312-20.314 20.312h-26.615v-40.626zM447.7 729.248s71.371 26.354 136.152 6.588v17.568s-61.488 27.451-136.152-7.686v-16.47z"/><path fill="#FFBF1F" d="M636.373 396.795c7.092.027 13.199-5.295 13.99-12.508.848-7.707-4.711-14.648-12.424-15.492l-41.236-4.534c-7.695-.882-14.648 4.712-15.498 12.425-.844 7.71 4.715 14.648 12.426 15.494l41.24 4.537c.504.056 1.006.078 1.502.078z"/><path fill="#FFBF1F" d="M402.681 204.402s84.896-68.833 223.993-3.295c0 0 59.293 24.156 65.881 111.997v138.349h46.41V282.36s13.785-95.819-88.135-132.858c0 0-148.413-65.07-298.657 3.294 0 0-63.856 28.804-63.684 118.585l1.122 183.01 42.798-.741.191-105.796c-2.673-86.27-.438-101.95 70.081-143.452z"/><path fill="#FFE5B8" d="M347.957 821.373c29.333 11.818 43.528 45.174 31.712 74.508L249.46 1212.4c-11.818 29.33-45.175 43.533-74.509 31.711-29.33-11.816-43.529-45.182-31.717-74.51l130.212-316.518c11.817-29.327 45.178-43.528 74.511-31.71z"/><path fill="#163663" d="M338.636 1095.85l-145.151-57.35 84.009-207.49c15.756-38.895 64.328-57.355 103.235-41.602 38.902 15.75 57.672 60.059 41.92 98.965l-84.013 207.477z"/><path fill="#FFE5B8" d="M418.021 769.875a101.41 101.41 0 0 0-1.065 14.631c0 55.41 44.92 100.328 100.328 100.328 55.41 0 100.328-44.918 100.328-100.328 0-4.969-.367-9.855-1.066-14.631H418.021z"/><path fill="#FFBF1F" d="M395.334 188.279s-26.354 82.359 75.771 128.479v-49.415l77.966 56.004v-49.416l73.572 59.299v-52.709l72.475 59.297s36.242-125.184-29.648-144.95c-65.887-19.767-210.837-36.238-210.837-36.238l-59.299 29.649z"/><path fill="#FF7D08" d="M692.924 340.917l1.086-48.424 45.564 43.369v115.286l-46.664-1.095zm-360.723 3.294l.013-48.424-43.37 43.369v115.287l43.37.002z"/></g></svg>