<svg xmlns="http://www.w3.org/2000/svg" xmlns:xlink="http://www.w3.org/1999/xlink" width="1024" height="1024" viewBox="3 5 1024 1024"><circle fill="#FFBF1F" cx="515" cy="517" r="512"/><defs><circle id="a" cx="515" cy="517" r="512"/></defs><clipPath id="b"><use xlink:href="#a" overflow="visible"/></clipPath><g clip-path="url(#b)"><path fill="#2F61DD" d="M815.686 640.264c0-16.738-6.451-32.709-17.689-44.688 9.973-11.656 15.514-26.535 15.514-42.34a65.367 65.367 0 0 0-13.703-40.023c10.195-11.777 15.879-26.812 15.879-42.65 0-15.861-5.676-30.893-15.859-42.654a65.337 65.337 0 0 0 13.684-40.021c0-19.374-8.672-37.575-23.232-49.872 6.623-10.391 10.178-22.461 10.178-34.979a65.143 65.143 0 0 0-33.951-57.275 65.345 65.345 0 0 0 3.492-21.047c0-34.97-27.645-63.604-62.225-65.199-2.738-33.489-30.869-59.9-65.051-59.9a65.353 65.353 0 0 0-21.074 3.492 65.807 65.807 0 0 0-18.467-23.824c-11.561-9.337-26.105-14.479-40.957-14.479-18.07 0-35.369 7.699-47.605 20.689-11.467-9.109-25.679-14.162-40.508-14.162-14.853 0-29.397 5.141-40.957 14.477a65.814 65.814 0 0 0-18.468 23.826 65.344 65.344 0 0 0-21.074-3.492c-34.182 0-62.312 26.411-65.051 59.899-34.581 1.595-62.225 30.229-62.225 65.198a65.342 65.342 0 0 0 3.492 21.048 65.147 65.147 0 0 0-33.952 57.276 64.96 64.96 0 0 0 10.159 34.94c-14.549 12.276-23.213 30.488-23.213 49.91 0 14.575 4.905 28.661 13.722 40.028-10.207 11.79-15.897 26.824-15.897 42.646 0 15.82 5.69 30.855 15.897 42.646-8.816 11.365-13.722 25.453-13.722 40.027 0 15.781 5.552 30.664 15.542 42.352-11.255 12.008-17.718 27.979-17.718 44.674 0 19.186 8.469 37.207 22.719 49.48-7.622 10.896-11.84 24.043-11.84 37.549 0 35.428 28.665 64.582 64.016 65.256 32.554 3.625 89.493 10.109 99.023 11.697 13.469 2.244 149.334 14.088 164.772 15.432l2.793.244 151.719-27.986 7.27-8.545a64.93 64.93 0 0 0 18.422 2.645c35.988 0 65.27-29.281 65.27-65.27 0-13.455-4.207-26.568-11.807-37.451 14.226-12.219 22.682-30.272 22.682-49.574zM296.793 757.75c-13.196 0-23.933-10.736-23.933-23.932 0-10.479 6.7-19.643 16.674-22.814l106.442-33.816-111.496-6.514c-12.616-.736-22.497-11.227-22.497-23.885 0-11.406 8.104-21.281 19.27-23.475l91.014-17.891-89.999-22.443c-10.662-2.66-18.109-12.207-18.109-23.217a23.95 23.95 0 0 1 14.39-21.949l46.806-20.408-47.821-17.895c-9.3-3.48-15.549-12.492-15.549-22.422 0-9.932 6.249-18.941 15.548-22.424l47.822-17.896-46.805-20.405a23.95 23.95 0 0 1-14.391-21.949c0-12.084 9.027-22.29 20.998-23.743l72.9-8.85-66.815-30.473c-8.522-3.887-14.028-12.439-14.028-21.785 0-13.186 10.718-23.916 23.901-23.932l58.827 1.694-43.959-37.972a23.928 23.928 0 0 1-8.311-18.115c0-13.195 10.735-23.931 23.932-23.931 4.358 0 8.617 1.179 12.318 3.409l66.304 39.967-37.561-67.695a23.91 23.91 0 0 1-2.987-11.579c0-13.196 10.735-23.933 23.933-23.933 7.979 0 15.408 3.963 19.877 10.602l61.85 91.869-24.551-107.996a24.229 24.229 0 0 1-.609-5.352c0-13.197 10.735-23.933 23.933-23.933 11.221 0 21.061 7.946 23.396 18.894l31.439 147.316 9.402-150.34c.787-12.559 11.273-22.396 23.875-22.396 13.195 0 23.932 10.735 23.932 23.932 0 1.771-.205 3.571-.609 5.352l-24.551 107.996 61.852-91.871a23.931 23.931 0 0 1 19.875-10.6c13.197 0 23.934 10.736 23.934 23.934a23.91 23.91 0 0 1-2.988 11.578l-37.561 67.696 66.305-39.967a23.867 23.867 0 0 1 12.316-3.41c13.197 0 23.934 10.735 23.934 23.933a23.927 23.927 0 0 1-8.311 18.114l-43.957 37.97 58.09-1.67.703-.023c13.197 0 23.934 10.735 23.934 23.932 0 8.613-4.682 16.604-12.213 20.852l-12.701 7.162 5.287 30.549 13.719 2.887c10.986 2.314 18.961 12.156 18.961 23.401 0 8.366-4.268 15.991-11.416 20.394l-11.914 7.336 2.596 15.002-.477 12.854 11.068 6.164a23.972 23.972 0 0 1 12.318 20.926c0 9.289-5.453 17.819-13.893 21.729l-11.502 5.326-1.047 28.38 11.48 6.062c7.887 4.166 12.785 12.281 12.785 21.176 0 9.211-5.148 17.455-13.438 21.51l-11.582 5.672v32.467l12.596 5.344a23.902 23.902 0 0 1 14.6 22.035c0 11.871-8.49 21.812-20.189 23.637l-12.664 1.975-10.121 32.043 17.402 7.295a23.89 23.89 0 0 1 14.695 22.078c0 13.195-10.736 23.932-23.932 23.932-4.609 0-9.086-1.32-12.945-3.814l-15.219-9.83-19.484 22.896-131.752 24.303c-57.418-5.002-150.069-13.328-158.78-14.781-12.739-2.123-87.381-10.465-102.292-12.121l-1.135-.125h-1.139z"/><path fill="#163663" d="M795.018 640.264c0-18.455-11.215-34.279-27.197-41.062v-5.889c14.816-7.252 25.021-22.469 25.021-40.076 0-17.117-9.65-31.975-23.801-39.45l.102-2.741c15.277-7.076 25.875-22.54 25.875-40.482 0-16.766-9.254-31.366-22.934-38.983l.088-2.354-.578-3.347c12.746-7.849 21.248-21.924 21.248-37.991 0-21.468-15.172-39.374-35.375-43.625l-.408-2.37c13.562-7.648 22.729-22.174 22.729-38.855 0-24.633-19.969-44.6-44.602-44.6-.443 0-.885.021-1.326.033 9.469-8.18 15.469-20.263 15.469-33.756 0-24.634-19.969-44.602-44.602-44.602a44.406 44.406 0 0 0-22.986 6.376 44.378 44.378 0 0 0 5.582-21.604c0-24.634-19.969-44.602-44.602-44.602-15.42 0-29.012 7.827-37.021 19.725a44.734 44.734 0 0 0 1.123-9.934c0-24.633-19.967-44.602-44.6-44.602-23.684 0-43.045 18.461-44.504 41.777C513.421 107.109 495.533 92 474.11 92c-24.633 0-44.602 19.968-44.602 44.602 0 3.416.397 6.736 1.124 9.934-8.01-11.898-21.602-19.725-37.021-19.725-24.632 0-44.602 19.967-44.602 44.601 0 7.84 2.03 15.204 5.583 21.606a44.383 44.383 0 0 0-22.988-6.377c-24.632 0-44.601 19.968-44.601 44.6 0 13.495 6 25.578 15.469 33.758-.442-.012-.882-.034-1.327-.034-24.632 0-44.601 19.968-44.601 44.601 0 18.039 10.715 33.563 26.121 40.59-22.071 2.679-39.176 21.465-39.176 44.261 0 18.302 11.028 34.02 26.799 40.895-16.924 6.334-28.974 22.647-28.974 41.78 0 19.132 12.05 35.445 28.974 41.779-15.771 6.875-26.799 22.594-26.799 40.895 0 20.898 14.376 38.434 33.776 43.271-20.491 4.029-35.951 22.084-35.951 43.754 0 23.746 18.559 43.152 41.961 44.52-18.022 5.725-31.083 22.59-31.083 42.51 0 24.629 19.969 44.598 44.601 44.598 0 0 88.114 9.793 101.168 11.969 13.055 2.176 163.173 15.23 163.173 15.23l141.734-26.148 12.508-14.697a44.362 44.362 0 0 0 24.162 7.121c24.631 0 44.6-19.971 44.6-44.6 0-18.523-11.297-34.402-27.373-41.141l.578-1.828c21.343-3.331 37.675-21.786 37.675-44.061z"/><path fill="#FFE5B8" d="M693.078 779.467c-29.836 9.557-46.275 41.488-36.721 71.326l105.768 322.164c9.555 29.836 41.488 46.281 71.324 36.721 29.84-9.553 46.283-41.494 36.73-71.328L764.408 816.19c-9.554-29.835-41.492-46.276-71.33-36.723z"/><path fill="#61E9FF" d="M682.031 1015.719l147.57-46.17-66.508-175.465c-12.756-39.57-59.412-61.32-98.996-48.57-39.578 12.75-61.328 55.172-48.578 94.756l66.512 175.449z"/><path fill="#61E9FF" d="M704.67 1232.494v-357.06l33.914-16.947 32.635-19.08c0-74.443-59.074-111.42-133.512-111.42H417.064c-74.439 0-129.269 19.797-129.269 94.242l32.635 40.492 21.192 21.199v347.25l363.048 1.324z"/><path fill="#FFE5B8" d="M590.059 739.18c0 37.213-30.17 77.131-67.383 77.131-37.218 0-67.378-39.918-67.378-77.131V618.773c0-37.213 30.16 17.396 67.378 17.396 37.213 0 67.383-54.609 67.383-17.396V739.18zM355.63 778.115c29.059 11.707 43.123 44.756 31.416 73.814l-129.001 313.588c-11.707 29.057-44.755 43.129-73.815 31.416-29.06-11.709-43.127-44.764-31.424-73.816L281.81 809.531c11.707-29.054 44.759-43.123 73.82-31.416z"/><path fill="#61E9FF" d="M358.77 1014.418L214.963 957.6l70.857-169.936c15.608-38.537 63.729-56.822 102.276-41.217 38.542 15.604 57.138 59.5 41.532 98.047l-70.858 169.924z"/><path fill="#FFE5B8" d="M392.41 730.133c-.691 4.732-1.265 9.578-1.057 14.498 4.047 95.604 77.136 142.91 132.034 142.91 54.895 0 128.182-34.254 142.91-142.91.662-4.881-.365-9.766-1.057-14.498H392.41z"/><path fill="#EAA688" d="M455.536 643.332s69.621 26.107 133.802 6.525v67.447s-59.83 38.072-133.802 3.264v-77.236z"/><path fill="#F9F0CA" d="M716.283 426.668c-.871-.005-2.465.046-16.295.133l-.055-24.949c-.025-10.879-.195-31.702-.227-40.812-.153-73.455-81.292-139.278-183.706-139.049-102.457.204-185.416 59.127-185.197 161.6.026 9.244.912 6.846.931 15.837l.063 30.134c-16.95-.038-13.37-.934-14.457-.93-23.629.049-42.772 19.251-42.729 42.911.053 23.669 19.289 42.8 42.92 42.754.916-.002-3.822.854 14.532.767l.008 7.232c.224 105.766 76.858 182.051 182.606 181.84 105.749-.234 184.752-76.576 184.518-182.324l1.068-4.522c16.055.004 15.264-.685 16.066-.687 24.191-.042 43.857-22.105 43.809-46.29-.056-24.165-19.661-43.699-43.855-43.645z"/><circle fill="#26CAEF" cx="593.471" cy="441.978" r="21.213"/><path fill="#163663" d="M640.248 442.521h-46.777c-.982 0-19.334.157-20.223.44.098 3.911-.99 11.312-.99 22.404 0 12.617 10.229 22.844 22.846 22.844 12.615 0 22.844-10.227 22.844-22.844 0-1.489-.152-2.94-.426-4.352h9.672c14.685.001 13.054-18.492 13.054-18.492z"/><circle fill="#26CAEF" cx="430.896" cy="441.978" r="21.212"/><path fill="#163663" d="M384.121 442.521h46.776c.982 0 19.334.157 20.222.44-.098 3.911.99 11.312.99 22.404 0 12.617-10.228 22.844-22.844 22.844-12.615 0-22.844-10.227-22.844-22.844 0-1.489.152-2.94.425-4.352h-9.672c-14.684.001-13.053-18.492-13.053-18.492z"/><path fill="#FF617F" d="M566.686 581.27c-1.025-10.551-19.602-21.264-30.373-21.264-8.432 0-15.674 7.518-18.922 14.775-3.25-7.258-10.492-14.775-18.924-14.775-10.771 0-30.567 10.713-31.594 21.264H477.1c2.043 20.438 19.209 36.393 40.085 36.393 20.877 0 36.822-15.955 38.865-36.393h10.636z"/><path fill="#163663" d="M452.598 381.059c0 5.709-4.628 10.334-10.335 10.334H408.54c-5.706 0-10.334-4.625-10.334-10.334 0-5.706 4.628-10.334 10.334-10.334h33.723c5.707 0 10.335 4.628 10.335 10.334z"/><path fill="#163663" d="M463.476 381.059c0 5.709-4.627 10.334-10.334 10.334h-33.723c-5.707 0-10.334-4.625-10.334-10.334 0-5.706 4.627-10.334 10.334-10.334h33.723c5.707 0 10.334 4.628 10.334 10.334zm165.35 0c0 5.709-4.629 10.334-10.336 10.334h-33.72c-5.707 0-10.336-4.625-10.336-10.334 0-5.706 4.629-10.334 10.336-10.334h33.721c5.706 0 10.335 4.628 10.335 10.334z"/><path fill="#FFFDFE" d="M493.159 579.762h47.615s-4.883 15.129-24.824 14.719c-19.942-.409-22.791-14.719-22.791-14.719z"/><path fill="#FFAB8D" d="M439.25 520.059c0 9.01-7.306 16.318-16.317 16.318h-21.756c-9.012 0-16.317-7.309-16.317-16.318 0-9.013 7.306-16.317 16.317-16.317h21.756c9.011 0 16.317 7.303 16.317 16.317zm208.861-1.088c0 9.012-7.305 16.318-16.316 16.318l-21.756-.002c-9.012 0-16.318-7.305-16.318-16.316 0-9.012 7.307-16.318 16.318-16.318h21.756c9.012 0 16.316 7.305 16.316 16.318z"/><path fill="#163663" d="M742.326 345.92l4.826-82.043-154.47-87.027s-3.41 4.014-7.486 10.33c-7.287-6.424-16.848-10.33-27.324-10.33-15.27 0-28.598 8.287-35.754 20.604.094-.582.188-1.167.26-1.757 2.982-24.336-14.327-46.481-38.663-49.464-24.333-2.984-46.48 14.326-49.462 38.662a44.652 44.652 0 0 0-.319 5.941 44.201 44.201 0 0 0-25.274-11.97c-24.334-2.982-46.48 14.327-49.464 38.661-1.475 12.033 2.018 23.525 8.861 32.434-.54-.084-1.08-.174-1.627-.239-24.334-2.983-46.48 14.327-49.464 38.662-2.01 16.407 5.211 31.809 17.581 41.023-20.721 1.507-38.169 17.468-40.792 38.872-2.981 24.334 14.327 46.479 38.663 49.463 24.334 2.982 46.479-14.328 49.463-38.661 2.01-16.409-5.209-31.811-17.581-41.024 20.721-1.509 38.168-17.47 40.791-38.871 1.475-12.034-2.017-23.526-8.861-32.438.541.088 1.08.175 1.627.242 24.336 2.983 46.481-14.326 49.464-38.662.246-2 .341-3.98.319-5.942a44.19 44.19 0 0 0 25.273 11.97c18.378 2.255 35.5-7.07 44.07-22.248a41.574 41.574 0 0 0-.449 6.08c0 22.829 18.51 41.338 41.338 41.338 3.951 0 7.768-.566 11.387-1.604a41.208 41.208 0 0 0-2.684 14.656c0 22.83 18.508 41.338 41.338 41.338a41.125 41.125 0 0 0 20.916-5.688 41.136 41.136 0 0 0-5.688 20.917c0 22.829 18.508 41.337 41.338 41.337a41.17 41.17 0 0 0 18.057-4.146 41.234 41.234 0 0 0-2.828 15.025c0 22.83 18.508 41.338 41.338 41.338 22.828 0 41.338-18.508 41.338-41.338-.001-15.044-8.042-28.208-20.058-35.441z"/><path fill="#2F61DD" d="M722.133 434.665c-28.191 0-51.127-22.936-51.127-51.127 0-.459.006-.916.018-1.373a52.265 52.265 0 0 1-5.457.285c-28.193 0-51.129-22.937-51.129-51.129 0-1.932.111-3.855.326-5.766a51.038 51.038 0 0 1-5.766.327c-28.191 0-51.127-22.936-51.127-51.128 0-1.108.035-2.211.105-3.31-16.869-1.276-29.865-7.462-38.627-18.388-4.146-5.171-6.805-10.752-8.492-16.066-10.606 7.645-23.828 11.002-38.048 9.26a54.15 54.15 0 0 1-16.77-4.865c-3.25 10.396-9.562 19.558-18.328 26.409-7.197 5.624-15.508 9.271-24.269 10.749 2.595 7.625 3.459 15.797 2.452 24.008-2.376 19.387-14.948 35.531-32.068 43.05 7.176 10.673 10.465 23.739 8.858 36.847-3.637 29.652-30.718 50.816-60.372 47.188-5.367-.658-9.185-5.543-8.527-10.91.658-5.367 5.549-9.174 10.909-8.525 18.94 2.332 36.231-11.197 38.554-30.135 1.509-12.304-3.745-24.559-13.71-31.98a9.792 9.792 0 0 1 5.136-17.617c16.413-1.193 29.78-13.938 31.784-30.298 1.111-9.057-1.342-18.036-6.906-25.28a9.79 9.79 0 0 1 9.302-15.634l.154.025c.374.06.746.121 1.124.168 9.184 1.128 18.24-1.392 25.521-7.082 7.281-5.691 11.911-13.878 13.035-23.052.181-1.477.265-3.041.247-4.646a9.79 9.79 0 0 1 16.56-7.18c5.416 5.187 12.228 8.412 19.695 9.325 14.684 1.804 27.193-4.505 34.328-17.299a9.79 9.79 0 0 1 18.251 6.098c-.061.602-1.373 15.237 7.088 25.483 5.275 6.385 13.621 10.03 24.805 10.84 2.555.193 5.469-.527 7.986-1.25a9.789 9.789 0 0 1 11.847 12.887 31.42 31.42 0 0 0-2.047 11.182c0 17.396 14.154 31.547 31.547 31.547 5.613 0 11.131-1.5 15.955-4.336a9.79 9.79 0 0 1 13.401 13.403 31.515 31.515 0 0 0-4.334 15.953c0 17.396 14.152 31.547 31.547 31.547a31.25 31.25 0 0 0 13.773-3.158 9.792 9.792 0 0 1 13.404 12.363 31.383 31.383 0 0 0-2.158 11.465c0 17.394 14.152 31.547 31.547 31.547 5.406 0 9.791 4.383 9.791 9.79s-4.382 9.788-9.788 9.788z"/><path fill="#2F61DD" d="M453.441 241.032a10.841 10.841 0 0 1-7.692-3.187c-13.639-13.638-20.486-28.392-20.352-43.844.104-11.752 4.365-21.472 8.485-28.146-8.194-7.536-13.34-16.612-15.341-27.093-5.135-26.896 7.916-41.756 8.705-42.837 3.542-4.858 15.788-16.796 20.639-13.258 4.845 3.534 5.914 10.321 2.396 15.173-.139.192-13.761 19.367-10.354 36.926 1.545 7.959 6.441 14.447 14.97 19.834a10.867 10.867 0 0 1 5.012 8.086 10.873 10.873 0 0 1-3.265 8.936c-.038.039-9.479 9.594-9.492 22.787-.012 9.327 4.693 18.766 13.98 28.052 4.247 4.249 4.247 11.138 0 15.385a10.842 10.842 0 0 1-7.691 3.186z"/><path fill="#26CAEF" d="M304.409 492.319l-33.723 54.392h59.83zm426.427 3.264l-33.723 54.39h59.83z"/></g></svg>