<svg xmlns="http://www.w3.org/2000/svg" xmlns:xlink="http://www.w3.org/1999/xlink" width="1024" height="1024" viewBox="3 5 1024 1024"><circle fill="#22A1FF" cx="515" cy="517" r="512"/><defs><circle id="a" cx="515" cy="517" r="512"/></defs><clipPath id="b"><use xlink:href="#a" overflow="visible"/></clipPath><g clip-path="url(#b)"><path fill="#163663" d="M258.819 671.658h-91.268s1.147 161.271 141.545 161.271c213.697 0 98.007-132.38 98.007-132.38l-148.284-28.891zm535.154 0h91.27s-1.148 161.271-141.547 161.271c-213.697 0-98.008-132.38-98.008-132.38l148.285-28.891z"/><path fill="#163663" d="M793.385 369.633c.002 4.163.959 55.832 1.021 51.705.129-8.628-.434 387.818-.434 387.818 0 5.738-537.147-58.146-536.201-53.928 0 0-3.091-451.245-3.262-454.661-4.11-85.965 81.521-180.945 193.771-184.367 4.481-.135 21.878-63.178 108.358-53.066l47.715 15.399c148.924 47.998 188.731 148.924 189.032 291.1z"/><path fill="#FFE5B8" d="M702.938 794.252c-31.43 10.066-48.744 43.7-38.68 75.128l111.406 339.343c10.064 31.422 43.701 48.748 75.129 38.679 31.43-10.064 48.748-43.71 38.689-75.133L778.07 832.93c-10.064-31.423-43.705-48.742-75.132-38.678z"/><path fill="#FF7D08" d="M668.814 1000.419l155.438-48.629-48.713-142.142c-13.436-41.682-62.58-64.593-104.275-51.16-41.688 13.43-64.598 58.111-51.168 99.805l48.718 142.126z"/><path fill="#FF7D08" d="M715.145 1271.435V895.334l35.723-17.852 34.375-20.096c0-78.413-62.223-117.36-140.629-117.36H412.205c-78.409 0-136.162 20.851-136.162 99.264l34.376 42.651 22.322 22.332v365.765l382.404 1.397z"/><path fill="#FFE5B8" d="M594.422 751.814c0 39.197-31.777 81.246-70.975 81.246-39.203 0-70.97-42.049-70.97-81.246V624.991c0-39.197 31.768 18.324 70.97 18.324 39.197 0 70.975-57.521 70.975-18.324v126.823zm-246.926 41.012c30.607 12.334 45.422 47.143 33.091 77.754l-135.879 330.304c-12.332 30.605-47.141 45.43-77.751 33.091-30.61-12.33-45.428-47.15-33.1-77.753L269.739 825.92c12.331-30.607 47.145-45.425 77.757-33.094z"/><path fill="#FF7D08" d="M372.143 1053l-151.475-93.797 53.295-156.319c16.441-40.59 67.128-59.854 107.729-43.414 40.598 16.436 60.186 62.673 43.747 103.274L372.143 1053z"/><path fill="#FFE5B8" d="M386.236 739.086c-.729 4.985-1.331 10.088-1.112 15.269 4.261 100.703 81.248 150.53 139.072 150.53s135.018-36.077 150.531-150.53c.697-5.14-.385-10.283-1.111-15.269h-287.38z"/><path fill="#EAA688" d="M452.727 650.859s73.333 27.499 140.937 6.875v71.041s-63.021 40.104-140.937 3.438v-81.354z"/><path fill="#F9F0CA" d="M738.838 422.641c-.92-.003-14.055.049-28.623.142l-.057-26.281c-.029-11.458-.209-33.392-.24-42.988-.162-77.369-85.627-146.703-193.502-146.461-107.919.215-195.301 62.28-195.072 170.215.027 9.737.961 7.211.98 16.682l.067 31.742c-17.854-.042-14.083-.984-15.229-.982-24.889.052-45.052 20.278-45.008 45.199.057 24.932 20.319 45.084 45.21 45.035.964-.003-4.025.899 15.308.808l.009 7.618c.234 111.403 80.955 191.755 192.342 191.531 111.387-.247 194.604-80.656 194.356-192.044l1.125-4.763c16.91.005 27.535-1.865 28.383-1.869 25.48-.043 46.195-22.137 46.145-47.611-.059-25.453-20.714-46.029-46.194-45.973z"/><circle fill="#26CAEF" cx="595.726" cy="438.768" r="22.344"/><path fill="#163663" d="M644.996 439.341h-49.27c-1.035 0-20.365.165-21.301.463.104 4.121-1.043 11.916-1.043 23.6 0 13.289 10.773 24.062 24.062 24.062 13.287 0 24.062-10.773 24.062-24.062a24.3 24.3 0 0 0-.447-4.584h10.186c15.47-.001 13.751-19.479 13.751-19.479z"/><circle fill="#26CAEF" cx="426.775" cy="438.769" r="22.343"/><path fill="#163663" d="M377.504 439.341h49.271c1.035 0 20.365.165 21.301.463-.103 4.121 1.043 11.916 1.043 23.6 0 13.289-10.773 24.062-24.062 24.062s-24.062-10.773-24.062-24.062c0-1.568.162-3.098.448-4.584h-10.188c-15.468-.001-13.751-19.479-13.751-19.479z"/><path fill="#FF617F" d="M569.805 585.485c-1.082-11.113-20.646-22.396-31.992-22.396-8.883 0-16.512 7.917-19.932 15.562-3.421-7.645-11.05-15.562-19.933-15.562-11.347 0-32.197 11.282-33.278 22.396h10.773c2.15 21.527 20.231 38.333 42.223 38.333 21.99 0 38.785-16.806 40.936-38.333h11.203z"/><path fill="#163663" d="M449.633 374.603c0 6.012-4.874 10.885-10.886 10.885h-35.521c-6.011 0-10.885-4.873-10.885-10.885s4.874-10.886 10.885-10.886h35.521c6.012 0 10.886 4.874 10.886 10.886z"/><path fill="#163663" d="M461.091 374.603c0 6.012-4.874 10.885-10.885 10.885h-35.521c-6.012 0-10.886-4.873-10.886-10.885s4.874-10.886 10.886-10.886h35.521c6.011 0 10.885 4.874 10.885 10.886zm164.999 0c0 6.012-4.873 10.885-10.885 10.885h-35.52c-6.012 0-10.887-4.873-10.887-10.885 0-6.014 4.875-10.886 10.887-10.886h35.52c6.012 0 10.885 4.872 10.885 10.886z"/><path fill="#F9F0CA" d="M478.754 210.563s-5.156-49.841 34.373-51.56c39.529-1.719 111.898 9.322 79.625 147.802-4.006 17.189-40.096-18.903-40.096-18.903l-73.902-77.339z"/><path fill="#2F61DD" d="M478.754 210.563h119.16s10.885-68.747-68.174-66.455c-56.796 1.647-50.986 61.301-50.986 66.455z"/><path fill="#FFFDFE" d="M492.357 583.897h50.153s-5.145 15.937-26.148 15.504c-21.004-.429-24.005-15.504-24.005-15.504z"/><path fill="#2F61DD" d="M257.672 671.658v71.826s-47.149-3.437-47.149-72.188l47.149.362z"/><path opacity=".3" fill="#BA0F30" d="M576.039 209.53s.426 94.346 16.043 122.604c24.062 43.541 118.133 90.648 118.133 90.648l3.324-31.065-59.582-135.208-49.271-46.979h-28.647z"/><path fill="#163663" d="M599.059 209.417s-8.02 100.828 31.51 131.764c39.527 30.935 85.932 64.164 85.932 64.164l54.424-129.473-171.866-66.455z"/><path fill="#2F61DD" d="M616.242 81.666c-7.125-2.878 56.717 29.202 56.717 130.618 0 71.824 20.828 89.488 48.867 113.685 21.609 18.646 71.439 56.46 71.439 56.46s6.873-124.315-22.344-174.156c-29.214-49.842-65.308-90.514-154.679-126.607zm178.653 589.992v71.826s47.148-3.437 47.148-72.188l-47.148.362z"/><path fill="#FFAB8D" d="M428.229 523.486c0 9.493-7.695 17.188-17.188 17.188h-22.916c-9.493 0-17.188-7.694-17.188-17.188 0-9.491 7.694-17.188 17.188-17.188h22.916c9.493.001 17.188 7.697 17.188 17.188zm224.582-1.145c0 9.492-7.695 17.188-17.188 17.188h-22.916c-9.492 0-17.188-7.695-17.188-17.188 0-9.492 7.695-17.188 17.188-17.188h22.916c9.492 0 17.188 7.696 17.188 17.188z"/><circle fill="#FF617F" cx="300.923" cy="476.514" r="18.333"/><circle fill="#FF617F" cx="723.852" cy="481.091" r="18.334"/></g></svg>