<svg xmlns="http://www.w3.org/2000/svg" xmlns:xlink="http://www.w3.org/1999/xlink" width="1024" height="1024" viewBox="3 5 1024 1024"><circle fill="#22A1FF" cx="515" cy="517" r="512"/><defs><circle id="a" cx="515" cy="517" r="512"/></defs><clipPath id="b"><use xlink:href="#a" overflow="visible"/></clipPath><g clip-path="url(#b)"><path fill="#FFBF1F" d="M261.76 666.797h-88.255s1.11 155.949 136.872 155.949c206.641 0 94.773-128.01 94.773-128.01l-143.39-27.939zm517.485 0h88.257s-1.111 155.949-136.874 155.949c-206.642 0-94.771-128.01-94.771-128.01l143.388-27.939z"/><path fill="#FFBF1F" d="M778.676 374.744c.002 4.025.929 53.988.986 49.998.127-8.342-.417 375.014-.417 375.014 0 5.549-519.412-56.225-518.499-52.146 0 0-2.988-358.787-3.153-362.09-3.975-83.127 22.934-255.84 187.373-255.84 4.338 0 21.157-61.094 104.782-51.316l46.139 14.893c144.008 46.411 182.499 144.005 182.789 281.487z"/><path fill="#FFE5B8" d="M691.217 785.344c-30.393 9.734-47.137 42.258-37.404 72.648l107.729 328.141c9.731 30.385 42.258 47.137 72.648 37.4 30.395-9.73 47.141-42.266 37.411-72.652L763.868 822.746c-9.731-30.387-42.262-47.133-72.651-37.402z"/><path fill="#FF7D08" d="M680.922 1048.025L831.227 1001 761.42 800.232c-12.991-40.305-60.514-62.459-100.832-49.473-40.312 12.986-62.465 56.195-49.479 96.512l69.813 200.754z"/><path fill="#FF7D08" d="M703.021 1246.771V883.09l34.543-17.264 33.239-19.43c0-75.826-60.169-113.488-135.988-113.488H410.082c-75.82 0-131.666 20.164-131.666 95.988l33.24 41.242 21.584 21.594v353.689l369.781 1.35z"/><path fill="#FFE5B8" d="M586.283 744.309c0 37.904-30.727 78.561-68.631 78.561-37.91 0-68.63-40.656-68.63-78.561V621.672c0-37.902 30.72 17.721 68.63 17.721 37.904 0 68.631-55.623 68.631-17.721v122.637zm-238.774 39.658c29.597 11.924 43.924 45.584 32 75.184l-131.393 319.402c-11.928 29.594-45.587 43.93-75.187 31.998-29.599-11.926-43.926-45.596-32.008-75.188L272.32 815.965c11.924-29.594 45.588-43.924 75.189-31.998z"/><path fill="#FF7D08" d="M347.227 1035l-146.473-57.869 75.649-183.439c15.899-39.25 64.912-57.877 104.173-41.98 39.259 15.893 58.199 60.604 42.303 99.865L347.227 1035z"/><path fill="#FFE5B8" d="M384.97 732c-.704 4.818-1.287 9.754-1.075 14.764 4.12 97.377 78.565 145.561 134.48 145.561s130.561-34.887 145.561-145.561c.675-4.969-.371-9.945-1.075-14.764H384.97z"/><path fill="#EAA688" d="M449.266 646.686s70.912 26.592 136.284 6.646v68.697s-60.939 38.777-136.284 3.324v-78.667z"/><path fill="#F9F0CA" d="M725.93 426.002c-.888-.004-13.591.047-27.676.137l-.056-25.412c-.029-11.08-.2-32.291-.232-41.57-.156-74.814-82.802-141.859-187.112-141.625-104.358.207-188.855 60.225-188.633 164.594.026 9.416.93 6.973.948 16.133l.064 30.693c-17.265-.041-13.618-.951-14.726-.949-24.066.049-43.565 19.607-43.521 43.707.055 24.107 19.648 43.596 43.716 43.547.933-.002-3.891.871 14.801.781l.011 7.367c.226 107.725 78.281 185.424 185.991 185.207 107.709-.238 188.179-77.992 187.938-185.703l1.089-4.605c16.354.004 26.626-1.803 27.444-1.807 24.641-.043 44.671-21.404 44.621-46.041-.055-24.61-20.026-44.509-44.667-44.454z"/><circle fill="#26CAEF" cx="587.544" cy="441.598" r="21.606"/><path fill="#163663" d="M635.188 442.15h-47.645c-1.001 0-19.691.16-20.597.449.101 3.984-1.009 11.521-1.009 22.82 0 12.85 10.418 23.268 23.269 23.268s23.269-10.418 23.269-23.268c0-1.518-.157-2.996-.435-4.432h9.852c14.959.001 13.296-18.837 13.296-18.837z"/><circle fill="#26CAEF" cx="424.172" cy="441.598" r="21.605"/><path fill="#163663" d="M376.528 442.15h47.643c1.001 0 19.693.16 20.598.449-.098 3.984 1.009 11.521 1.009 22.82 0 12.85-10.418 23.268-23.268 23.268s-23.267-10.418-23.267-23.268c0-1.518.154-2.996.432-4.432h-9.852c-14.958.001-13.295-18.837-13.295-18.837z"/><path fill="#FF617F" d="M562.478 583.473c-1.044-10.748-19.964-21.658-30.934-21.658-8.589 0-15.968 7.656-19.276 15.047-3.309-7.391-10.686-15.047-19.275-15.047-10.97 0-31.134 10.91-32.178 21.658h10.417c2.079 20.814 19.564 37.064 40.829 37.064 21.263 0 37.506-16.25 39.585-37.064h10.832z"/><path fill="#163663" d="M446.275 379.549c0 5.814-4.714 10.527-10.526 10.527H401.4c-5.812 0-10.525-4.713-10.525-10.527 0-5.812 4.713-10.525 10.525-10.525h34.349c5.813-.001 10.526 4.712 10.526 10.525z"/><path fill="#163663" d="M457.355 379.549c0 5.814-4.713 10.527-10.526 10.527H412.48c-5.812 0-10.525-4.713-10.525-10.527 0-5.812 4.714-10.525 10.525-10.525h34.349c5.814-.001 10.526 4.712 10.526 10.525zm159.552 0c0 5.814-4.715 10.527-10.526 10.527h-34.348c-5.813 0-10.526-4.713-10.526-10.527 0-5.812 4.713-10.525 10.526-10.525h34.348c5.811-.001 10.526 4.712 10.526 10.525z"/><path fill="#F9F0CA" d="M474.434 220.926s-4.985-48.195 33.238-49.857c38.223-1.662 108.205 9.016 76.997 142.924-3.874 16.619-38.774-18.281-38.774-18.281l-71.461-74.786z"/><path fill="#FF7D08" d="M474.434 220.926h115.225s10.527-66.477-65.92-64.262c-54.924 1.592-49.305 59.277-49.305 64.262z"/><path fill="#FFFDFE" d="M487.586 581.936h48.501s-4.976 15.41-25.285 14.992c-20.313-.416-23.216-14.992-23.216-14.992z"/><path fill="#FF7D08" d="M260.652 666.797v69.455s-45.595-3.322-45.595-69.803l45.595.348z"/><path opacity=".3" fill="#BA0F30" d="M568.508 219.928s.411 91.23 15.512 118.555c23.269 42.105 114.234 87.656 114.234 87.656l3.213-30.039-57.614-130.744-47.646-45.428h-27.699z"/><path fill="#FFBF1F" d="M590.767 208.738s-7.756 108.58 30.468 138.492c38.224 29.914 83.096 62.047 83.096 62.047l52.629-125.199-166.193-75.34z"/><path fill="#FFEE73" d="M586.333 88.529c-6.894-2.783 53.733 30.57 53.733 156.221 0 69.453 42.302 86.535 69.416 109.932 20.896 18.029 69.079 54.596 69.079 54.596s3.467-140.643-21.605-190.566c-32.221-64.155-84.203-95.282-170.623-130.183z"/><path fill="#FF7D08" d="M780.134 666.797v69.455s45.595-3.322 45.595-69.803l-45.595.348z"/><path fill="#FFBF1F" d="M323.233 428.951s84.726-19.176 133.479-162.121l16.62-54.299s-176.186-2.215-172.86 57.623c3.325 59.838 22.761 158.797 22.761 158.797z"/><path fill="#FFEE73" d="M305.912 192.229s64.265-75.344 137.393-62.049c0 0-4.433 241.543-183.928 277 0 0-6.648-148.471 46.535-214.951z"/></g></svg>