<svg xmlns="http://www.w3.org/2000/svg" xmlns:xlink="http://www.w3.org/1999/xlink" width="1024" height="1024" viewBox="3 5 1024 1024"><circle fill="#22A1FF" cx="515" cy="517" r="512"/><defs><circle id="a" cx="515" cy="517" r="512"/></defs><clipPath id="b"><use xlink:href="#a" overflow="visible"/></clipPath><g clip-path="url(#b)"><path fill="#FFE5B8" d="M689.408 790.838c-30.107 9.641-46.695 41.865-37.055 71.973l106.729 325.088c9.641 30.104 41.863 46.701 71.971 37.055 30.109-9.643 46.703-41.873 37.064-71.977l-106.73-325.086c-9.645-30.102-41.869-46.694-71.979-37.053z"/><path fill="#FF7D08" d="M678.674 1065.184l148.908-46.588-68.621-213.008c-12.871-39.932-59.953-61.881-99.895-49.012-39.938 12.865-61.887 55.67-49.018 95.613l68.626 212.995z"/><path fill="#FF7D08" d="M701.104 1243.586v-355.91l34.223-17.104 32.932-19.252c0-75.119-59.609-112.43-134.723-112.43H410.889c-75.117 0-130.443 19.975-130.443 95.094l32.932 40.859 21.385 21.395v350.4l366.341-3.052z"/><path fill="#FFE5B8" d="M585.453 750.182c0 37.551-30.443 77.832-67.996 77.832-37.555 0-67.988-40.281-67.988-77.832V628.686c0-37.551 30.434 17.555 67.988 17.555 37.553 0 67.996-55.105 67.996-17.555v121.496zm-236.557 39.291c29.324 11.814 43.514 45.162 31.701 74.486l-130.172 316.43c-11.812 29.32-45.158 43.521-74.484 31.703-29.324-11.814-43.52-45.172-31.709-74.49l130.174-316.428c11.813-29.32 45.166-43.516 74.49-31.701z"/><path fill="#FF7D08" d="M339.578 1063.869l-145.111-57.33 83.988-207.432c15.748-38.885 64.307-57.34 103.203-41.59 38.893 15.744 57.658 60.039 41.91 98.936l-83.99 207.416z"/><path fill="#FFE5B8" d="M418.941 737.99a100.902 100.902 0 0 0-1.064 14.625c0 55.395 44.904 100.301 100.299 100.301 55.393 0 100.301-44.906 100.301-100.301 0-4.967-.369-9.852-1.066-14.625h-198.47z"/><path fill="#163663" d="M777.154 406.007c.002 3.989-.178 31.532-.119 27.579.125-8.265 2.287 303.07 2.287 303.07 0 1.762-195.418-127.49-195.418-127.49-11.025.004-22.197 109.756-33.432 109.719-35.391-.121-69.197-241.926-103.189-242.29-99.291-1.053-163.857 8.452-163.484 10.117 0 0 5.82-33.828 5.658-37.1-3.939-82.355-16.043-183.188 65.078-216.771 3.971-1.645-.99-89.357 73.975-118.264 27.037-10.426 177.436-5.006 177.436-5.006 136.199-.3 170.919 160.231 171.208 296.436z"/><path fill="#EAA688" d="M449.709 653.467s71.352 26.344 136.115 6.586v68.059s-61.471 38.418-136.115 3.293v-77.938z"/><path fill="#F9F0CA" d="M723.801 434.833c-.879-.002-13.463.048-27.418.136l-.057-25.177c-.027-10.977 1.996-31.989 1.967-41.183-.219-103.394-84.168-162.495-187.568-162.261-103.389.203-187.1 59.663-186.879 163.062.025 9.328.92 28.861.939 37.936l.064 30.409c-17.105-.041-13.492-.943-14.59-.941-23.844.05-43.16 19.427-43.117 43.302.055 23.883 19.465 43.19 43.311 43.141.924-.002-3.857.863 14.664.775l.008 7.297c.227 106.725 77.555 183.703 184.264 183.488 106.707-.236 186.43-77.27 186.191-183.979l1.078-4.562c16.199.004 26.379-1.785 27.189-1.791 24.412-.039 44.256-21.206 44.207-45.612-.056-24.379-19.841-44.092-44.253-44.04z"/><circle fill="#FFF" cx="408.683" cy="451.974" r="79.042"/><path fill="#FFF" d="M699.578 451.974c0 43.653-35.387 79.042-79.043 79.042-43.652 0-79.039-35.388-79.039-79.042s35.387-79.042 79.039-79.042c43.656 0 79.043 35.388 79.043 79.042z"/><path fill="#2695F9" d="M744.334 413.556H698.23c-.484 0-.963.029-1.432.08-13.646-29.219-43.299-49.524-77.619-49.524-41.66 0-76.447 29.91-84.062 69.38-15.934-5.799-28.326-4.448-36.723-1.646a45.07 45.07 0 0 0-3.75 1.451c-7.693-39.373-42.438-69.185-84.027-69.185-34.289 0-63.918 20.269-77.58 49.444h-44.246c-7.275 0-13.174 5.897-13.174 13.172s5.898 13.172 13.174 13.172h36.783a85.723 85.723 0 0 0-.584 9.841c0 47.214 38.412 85.626 85.627 85.626 46.277 0 84.072-36.905 85.559-82.827a27.856 27.856 0 0 1 8.619-4.303c8.293-2.482 18.102-1.229 28.811 3.594 1.117 46.248 39.061 83.536 85.574 83.536 47.215 0 85.629-38.413 85.629-85.626 0-3.329-.213-6.61-.584-9.841h40.109c7.273 0 13.172-5.897 13.172-13.172s-5.899-13.172-13.172-13.172zM410.617 515.609c-36.32 0-65.869-29.548-65.869-65.868s29.549-65.87 65.869-65.87 65.869 29.55 65.869 65.87-29.548 65.868-65.869 65.868zm208.563 0c-36.32 0-65.869-29.548-65.869-65.868 0-1.397.059-2.78.145-4.155l1.346-2.072c-.377-.245-.748-.475-1.123-.713 3.479-33.07 31.523-58.93 65.502-58.93 36.32 0 65.869 29.55 65.869 65.87s-29.55 65.868-65.87 65.868z"/><path fill="#2F61DD" d="M397.453 234.593s-13.172-27.443 0-42.811 49.396-31.834 95.5 14.27c0 0-47.201-3.293-95.5 28.541z"/><circle fill="#2F61DD" cx="304.149" cy="492.55" r="16.466"/><path fill="#163663" d="M386.355 349.533c.443-.006.875-.019 1.316-.064l48.094-5.016c6.744-.715 11.654-6.743 10.945-13.49-.703-6.738-6.705-11.648-13.486-10.934l-48.098 5.006c-6.748.707-11.645 6.747-10.93 13.494.658 6.304 5.97 10.992 12.159 11.004z"/><path opacity=".3" fill="#BA0F30" d="M460.021 210.443s61.471 61.471 94.402 131.724c32.93 70.253 85.619 197.585 138.309 237.103 0 0 7.684-50.494 3.293-87.817-4.391-37.32-173.436-282.107-173.436-282.107s-45.003-7.684-62.568 1.097z"/><path fill="#163663" d="M488.562 200.564s42.275 24.889 83.424 103.184c21.287 40.503 64.645 134.352 79.311 158.641 42.791 70.866 67.543 117.668 119.373 115.784 0 0-3.293-242.591-16.465-266.741-13.174-24.148-133.92-108.672-137.213-109.77s-111.965-35.126-111.965-35.126l-16.465 34.028z"/><path fill="#2F61DD" d="M500.637 159.949s74.525 67.402 126.234 178.925c0 0 65.861 181.121 151.262 215.458 0 0 4.611-219.849-8.561-271.441S736.64 128.117 627.968 109.455c0 0-144.895-9.88-192.096 2.195 0 0-30.736 5.488-49.396 32.931.001.001 47.202-40.615 114.161 15.368z"/><path fill="#163663" d="M631.262 204.955s34.455 47.094 63.666 126.235c15.062 40.804 83.426 138.31 83.426 138.31l-2.195-127.333-144.897-137.212zM429.32 427.208c-11.484-3.081-23.242 2.581-28.234 12.906l-15.918-5.949s.811 35.553 31.514 40.113c13.316 1.982 26.371-4.22 29.859-17.215 3.488-13.006-4.238-26.368-17.221-29.855zm165.231-.356c11.455-3.13 23.238 2.472 28.273 12.791l12.713-5.694s2.527 35.223-28.164 39.914c-13.295 2.051-26.375-4.1-29.924-17.072-3.545-13.002 4.115-26.393 17.102-29.939z"/><path fill="#FF617F" d="M563.979 582.4c-1.035-10.646-19.779-21.455-30.646-21.455-8.51 0-15.818 7.584-19.096 14.908-3.279-7.324-10.588-14.908-19.098-14.908-10.867 0-30.844 10.809-31.879 21.455h10.32c2.061 20.623 19.383 36.723 40.449 36.723s37.156-16.1 39.217-36.723h10.733z"/><path fill="#FFFDFE" d="M489.783 580.879h48.049s-4.93 15.268-25.051 14.854c-20.123-.413-22.998-14.854-22.998-14.854z"/></g></svg>