<svg xmlns="http://www.w3.org/2000/svg" xmlns:xlink="http://www.w3.org/1999/xlink" width="1024" height="1024" viewBox="3 5 1024 1024"><path fill="#22A1FF" d="M1027 523.367C1027 802.62 797.77 1029 515 1029S3 802.62 3 523.367C3 244.115 232.23 5.953 515 5.953s512 238.162 512 517.414z"/><defs><path id="a" d="M1027 522.414c0 279.253-229.23 505.633-512 505.633S3 801.667 3 522.414C3 243.162 232.23 5 515 5s512 238.162 512 517.414z"/></defs><clipPath id="b"><use xlink:href="#a" overflow="visible"/></clipPath><g clip-path="url(#b)"><path fill="#FFE5B8" d="M298.06 831.812c31.753 8.335 50.645 40.527 42.211 71.884l-93.865 338.742c-8.434 31.359-41.021 50.03-72.78 41.69-31.76-8.343-50.646-40.525-42.218-71.881l93.858-338.737c8.443-31.363 41.032-50.031 72.794-41.698z"/><path fill="#FF7D08" d="M346.311 1033.637L193.74 993.323l37.324-143.029c11.282-41.594 54.571-66.294 96.694-55.157 42.131 11.13 67.141 53.892 55.868 95.495l-37.315 143.005z"/><path fill="#FFE5B8" d="M654.513 829.182c-31.292 9.897-48.532 42.971-38.512 73.875l110.927 333.677c10.023 30.899 43.512 47.935 74.807 38.032 31.291-9.895 48.535-42.979 38.52-73.876L729.323 867.217c-10.02-30.901-43.516-47.932-74.81-38.035z"/><path fill="#FF7D08" d="M621.679 1043.175l154.769-47.818-49.645-151.035c-13.376-40.985-62.312-63.513-103.827-50.306-41.506 13.204-64.319 57.142-50.945 98.139l49.648 151.02z"/><path fill="#FF7D08" d="M678.077 1297.271V931.958l35.57-17.555v-17.508c0-77.104-27.731-117.653-105.797-117.653H376.444c-78.073 0-101.35 31.771-101.35 108.875v30.671l22.228 21.96v359.658l380.755-3.135z"/><path fill="#FFE5B8" d="M557.876 757.032c0 38.544-31.642 113.689-70.67 113.689-39.033 0-70.664-75.146-70.664-113.689v-90.904c0-38.544 31.631 18.02 70.664 18.02 39.028 0 70.67-56.563 70.67-18.02v90.904z"/><path fill="#FDEBDF" d="M718.416 473.057c16.525-.056 29.939 13.109 29.997 29.41.061 16.304-13.261 29.559-29.79 29.617-16.5.063-29.928-13.104-29.988-29.406-.061-16.304 13.274-29.567 29.781-29.621"/><path fill="#FFE5B8" d="M696.237 552.44c.408 114.467-83.104 197.524-199.016 197.93-115.913.404-200.016-82.068-200.424-196.537l-.741-208.565c-.413-114.455 83.119-192.359 199.026-192.76 115.92-.404 200.168 123.739 200.408 191.367l.747 208.565z"/><path fill="#FFE5B8" d="M350.971 499.488c.082 23.592 14.261 43.033-8.809 46.042-2.017.272-83.793.671-85.879.683-25.903.083-47.006-20.607-47.102-46.23-.089-25.6 20.866-46.436 46.77-46.52 2.146-.008 68.063-.118 70.125.153 22.996 2.938 24.814 22.382 24.895 45.872zm282.072-2.101c.083 24.085-14.234 44.042 9.348 46.952 2.006.257 85.566.087 87.648.077 26.517-.09 13.666-21.354 13.572-47.532-.096-26.146 12.607-47.274-13.914-47.177-2.132.006-69.467.376-71.567.661-23.455 3.167-25.174 23.027-25.087 47.019z"/><path fill="#163663" d="M495.685 639.942c37.712-.134 68.182-30.42 68.048-67.664l-136.57.477c.133 37.242 30.801 67.316 68.522 67.187z"/><path fill="#FFF" d="M560.637 592.601c2.028-6.417 3.12-13.239 3.084-23.139l-136.565.477c.034 9.896 1.166 16.712 3.238 23.115l130.243-.453z"/><path fill="#FF617F" d="M498.423 640.143c-31.405.114-44.621-15.33-44.621-15.33 10.388-7.463 26.461-12.285 44.523-12.347 15.7-.056 32.789 3.481 43.1 9.275 0 0-11.592 18.295-43.002 18.402z"/><path fill="#EAA688" d="M286.433 476.363H258.78c-11.656 0-21.106 9.332-21.106 20.843s9.45 20.845 21.106 20.845h27.653v-41.688zm413.298-1.128h27.653c11.658 0 21.106 9.333 21.106 20.844 0 11.511-9.448 20.844-21.106 20.844h-27.653v-41.688zm-284.08 261.396s74.157 27.04 141.47 6.759v18.028s-63.89 28.167-141.47-7.887v-16.9z"/><path d="M612.22 378.067l1.109.497-1.109-.497zm-.372-.168l.372.168a82.123 82.123 0 0 1-.372-.168zm1.481.665l.622.279-.622-.279zm-1.954-.876c.161.071.319.143.473.212-.178-.079-.334-.151-.473-.212zm0 0c-.195-.089-.372-.166-.577-.258 0-.001.221.097.577.258zm2.576 1.155l.111.051-.111-.051zm4.374 1.964l.308.139c-.091-.043-.188-.085-.308-.139zm-.261-.117l.261.117c-.08-.037-.171-.076-.261-.117zm-4.002-1.796l2.184.979-2.184-.979zm4.874 2.186c.274.124.307.139 0 0zm-.303-.135l.303.135-.303-.135zm-1.502-.673c.344.152.657.293.934.418-.263-.118-.562-.253-.934-.418zm-.885-.399l.885.399-.885-.399zm-314.808-1.806l-1.112.497 1.112-.497zm.372-.168c-.118.052-.243.108-.372.168l.372-.168zm-1.485.665c-.2.092-.407.185-.621.279.193-.087.417-.185.621-.279zm1.957-.876l-.473.212.473-.212zm0 0l.575-.258c0-.001-.22.097-.575.258zm-2.578 1.155l-.109.051c.036-.018.073-.033.109-.051zm-4.374 1.964l-.308.139.308-.139zm.263-.117l-.263.117.263-.117zm4.002-1.796l-2.186.979 2.186-.979zm-4.873 2.186c-.275.124-.31.139 0 0zm.3-.135l-.301.135c.083-.037.181-.08.301-.135zm1.502-.673zm.885-.399l-.885.399.885-.399z" fill="#FF7D08"/><path fill="#163663" d="M418.659 438.554c.042 12.768-10.42 23.169-23.344 23.212-12.936.046-23.468-10.277-23.513-23.049-.045-12.779 10.413-23.174 23.348-23.216 12.925-.044 23.46 10.269 23.509 23.053zm199.954-.588c.042 12.768-10.413 23.17-23.342 23.213-12.936.045-23.466-10.282-23.513-23.048-.047-12.785 10.412-23.174 23.348-23.217 12.929-.044 23.46 10.269 23.507 23.052zM409.53 188.997s115.715-19.664 157.457 15.78c0 0-27.386-89.023-99.268-92.405-71.882-3.379-58.189 76.625-58.189 76.625z"/><path fill="#2F61DD" d="M414.094 188.997s-13.586 186.146-118.548 262.761h-47.917s-27.382-238.86 38.79-308.715c0 0 61.607-72.11 125.497-33.801l2.178 79.755z"/><path fill="#2F61DD" d="M441.579 375.143c0 8.71-7.15 15.773-15.972 15.773h-50.199c-8.822 0-15.973-7.062-15.973-15.773 0-8.712 7.15-15.774 15.973-15.774h50.199c8.822-.001 15.972 7.062 15.972 15.774zm186.961-1.631c0 8.71-7.15 15.774-15.973 15.774h-50.199c-8.821 0-15.972-7.063-15.972-15.774 0-8.711 7.15-15.774 15.972-15.774h50.199c8.823-.001 15.973 7.063 15.973 15.774z"/><path fill="#163663" d="M297.939 545.946c-3.312 108.836 66.06 160.446 66.06 160.446h-79.862V659.07l-41.071 15.773 1.81-128.632m452.15-8.158c3.312 108.835-67.201 168.332-67.201 168.332h79.862v-47.32l41.072 15.774-1.81-128.635-51.923-8.151z"/><path fill="#2F61DD" d="M515.635 139.416c32.136 32.575 78.823 449.8 317.197 473.26l-34.227-87.891 79.869 1.13-45.572-86.609c.381-1.821 73.666.035 73.666.035C858.398 265.576 523.827-98.734 415.232 72.93c-5.707 9.019-2.286 76.628-2.286 76.628 8.097-23.791 50.692-62.85 102.689-10.142z"/><path fill="#163663" d="M413.113 87.398s41.069-32.109 109.521-1.69c68.448 30.419 125.843 394.825 275.972 439.077l79.869 1.13-45.572-86.609 73.666.035S821.147 93.131 558 38.159C409.69 7.178 413.113 87.398 413.113 87.398zm-133.477 365.03s69.021-86.188 80.999-206.175l-70.16 21.968-29.661-77.737S224.176 331.1 247.629 451.757l32.007.671z"/></g></svg>