<svg xmlns="http://www.w3.org/2000/svg" xmlns:xlink="http://www.w3.org/1999/xlink" width="1024" height="1024" viewBox="3 5 1024 1024"><circle fill="#22A1FF" cx="515" cy="517" r="512"/><defs><circle id="a" cx="515" cy="517" r="512"/></defs><clipPath id="b"><use xlink:href="#a" overflow="visible"/></clipPath><g clip-path="url(#b)"><path fill="#163663" d="M789.326 377.367c.004 4.102.947 43.719 1.006 39.654.129-8.504-.426 459.987-.426 459.987 0 5.652-529.216.287-528.285 4.441 0 0-3.045-557.473-3.213-560.838-4.05-84.697 57.739-212.143 168.33-215.514 4.417-.135 1.164-59.279 95.472-50.025l92.166 26.461c146.726 47.289 174.655 155.758 174.95 295.834z"/><path fill="#FFE5B8" d="M700.215 784.428c-30.965 9.918-48.023 43.055-38.107 74.021l109.762 334.33c9.914 30.961 43.055 48.029 74.018 38.107 30.967-9.916 48.031-43.061 38.117-74.023L774.238 822.537c-9.916-30.961-43.058-48.025-74.023-38.109z"/><path fill="#FF7D08" d="M689.176 1066.576l153.141-47.912-70.572-219.066c-13.236-41.066-61.656-63.639-102.734-50.406-41.072 13.23-63.645 57.256-50.412 98.334l70.577 219.05z"/><path fill="#FF7D08" d="M712.242 1254.566V884.02l35.195-17.59 33.867-19.799c0-77.256-61.305-115.629-138.553-115.629H413.776c-77.253 0-134.152 20.543-134.152 97.801l33.867 42.021 21.992 22v360.365l376.759 1.377z"/><path fill="#FFE5B8" d="M593.303 742.619c0 38.617-31.309 80.043-69.928 80.043-38.625 0-69.922-41.426-69.922-80.043V617.666c0-38.619 31.298 18.055 69.922 18.055 38.619 0 69.928-56.674 69.928-18.055v124.953zm-243.282 40.406c30.156 12.148 44.751 46.443 32.603 76.602L248.75 1185.059c-12.15 30.154-46.445 44.756-76.604 32.602-30.157-12.148-44.756-46.453-32.61-76.607l133.876-325.426c12.149-30.153 46.45-44.755 76.609-32.603z"/><path fill="#FF7D08" d="M340.437 1065.227L191.2 1006.262l86.373-213.33c16.199-39.99 66.139-58.967 106.141-42.773 39.998 16.195 59.296 61.748 43.101 101.752l-86.378 213.316z"/><path fill="#FFE5B8" d="M422.057 730.076a103.936 103.936 0 0 0-1.098 15.045c0 56.967 46.184 103.152 103.154 103.152 56.969 0 103.15-46.186 103.15-103.152 0-5.111-.377-10.135-1.096-15.045h-204.11z"/><path fill="#EAA688" d="M453.698 643.15s73.38 27.094 139.986 6.773v69.992s-63.219 39.512-139.986 3.387V643.15z"/><path fill="#F9F0CA" d="M735.584 418.304c-.902-.006-13.846.047-28.199.139l-.057-25.893c-.027-11.289-.203-32.9-.234-42.354-.16-76.229-84.365-144.539-190.646-144.301-106.327.213-192.419 61.361-192.191 167.703.026 9.594.947 7.104.966 16.436l.064 31.271c-17.59-.039-13.874-.967-15.003-.965-24.521.051-44.387 19.979-44.344 44.531.057 24.562 20.02 44.418 44.541 44.369.951-.002-3.964.887 15.083.797l.009 7.506c.231 109.76 79.76 188.924 189.501 188.703 109.743-.242 191.733-79.467 191.489-189.209l1.107-4.693c16.662.006 27.129-1.838 27.963-1.84 25.105-.043 45.514-21.811 45.463-46.908-.057-25.075-20.405-45.348-45.512-45.292z"/><path fill="#163663" d="M401.354 152.08c50.426 94.148 97.84 125.758 179.255 149.133 2.029.582 147.436 33.268 147.436 33.268-.002.023-6.416-114.084-54.031-175.35-31.031-39.906-123.758-83.457-199.169-72.432-17.033 2.482-69.242 37.17-83.591 45.881l10.1 19.5z"/><path fill="#FF7D08" d="M532.951 448.523c-3.17-6.152-10.385-10.287-17.953-10.287-7.499 0-14.681 4.07-17.87 10.131l-15.983-8.414c6.325-12.016 19.614-19.779 33.854-19.779 14.376 0 27.726 7.881 34.009 20.078l-16.057 8.271z"/><path fill="#FF617F" d="M556.631 576.248c-.949-9.711-9.094-17.311-19.055-17.311-7.797 0-14.494 4.658-17.498 11.338-3.002-6.68-9.7-11.338-17.498-11.338-9.959 0-18.104 7.6-19.054 17.311h-.702c1.888 18.807 17.761 33.49 37.066 33.49 19.305 0 35.178-14.684 37.064-33.49h-.323z"/><path fill="#163663" d="M450.651 370.972c0 5.926-4.802 10.725-10.725 10.725H404.93c-5.922 0-10.725-4.799-10.725-10.725 0-5.922 4.803-10.725 10.725-10.725h34.996c5.923.001 10.725 4.803 10.725 10.725z"/><path fill="#163663" d="M450.651 370.972c0 5.926-4.802 10.725-10.725 10.725H404.93c-5.922 0-10.725-4.799-10.725-10.725 0-5.922 4.803-10.725 10.725-10.725h34.996c5.923.001 10.725 4.803 10.725 10.725zm196.431 0c0 5.926-4.803 10.725-10.725 10.725h-34.996c-5.924 0-10.727-4.799-10.727-10.725 0-5.922 4.803-10.725 10.727-10.725h34.996c5.922.001 10.725 4.803 10.725 10.725z"/><path fill="#2F61DD" d="M705.602 330.289l84.666 15.24v37.252l-84.102-16.934zm-382.681 20.884l-66.038 21.448v40.638l68.339-23.224zM441.45 215.146s-22.011-33.865-20.317-71.117l26.526-3.387s-3.951 97.646 112.886 126.432l150.137-133.205s40.639 30.479 59.266 93.131l-96.518 94.26c0-.001-182.874-9.598-231.98-106.114z"/><path fill="#2F61DD" d="M447.659 140.642s-1.693-77.326 59.266-87.486c0 0-83.352-8.52-85.792 67.166-1.693 52.492 22.575 92.002 22.575 92.002l3.951-71.682z"/><path fill="#FFF" d="M546.607 442.658c0 49.881 37.402 90.315 83.541 90.315 46.137 0 83.539-40.434 83.539-90.313 0-45.736-20.162-50.803-60.957-51.326-3.693-.049-18.754-.061-22.582-.061-4.225 0-19.664.014-23.721.074-40.241.608-59.82 6-59.82 51.311z"/><circle fill="#26CAEF" cx="613.779" cy="434.191" r="22.014"/><path fill="#163663" d="M662.322 434.755h-48.543c-1.021 0-20.066.164-20.986.457.102 4.059-1.027 11.738-1.027 23.252 0 13.092 10.613 23.707 23.707 23.707 13.092 0 23.707-10.615 23.707-23.707 0-1.547-.16-3.053-.441-4.516h10.037c15.24.001 13.546-19.193 13.546-19.193z"/><path fill="#FFF" d="M487.905 442.658c0 49.881-37.401 90.315-83.539 90.315s-83.539-40.434-83.539-90.315c0-45.734 20.161-50.801 60.957-51.324 3.692-.049 18.752-.061 22.582-.061 4.224 0 19.663.014 23.72.074 40.242.608 59.819 6 59.819 51.311z"/><circle fill="#26CAEF" cx="416.841" cy="434.191" r="22.014"/><path fill="#163663" d="M368.298 434.755h48.543c1.02 0 20.064.164 20.986.457-.102 4.059 1.027 11.738 1.027 23.252 0 13.092-10.614 23.707-23.707 23.707s-23.707-10.615-23.707-23.707c0-1.547.158-3.053.44-4.516h-10.036c-15.239.001-13.546-19.193-13.546-19.193z"/><path fill="#FF7D08" d="M404.366 542.004c-51.043 0-92.57-44.567-92.57-99.346 0-25.439 5.877-40.871 19.057-50.031 11.854-8.24 27.607-10.025 50.814-10.324 3.772-.049 19.105-.061 22.699-.061 3.978 0 19.68.012 23.852.074 38.938.588 68.719 5.406 68.719 60.342-.001 54.779-41.527 99.346-92.571 99.346zm0-141.7c-3.569 0-18.787.01-22.464.059-38.555.498-52.044 4.08-52.044 42.295 0 44.82 33.424 81.284 74.508 81.284s74.508-36.463 74.508-81.284c0-36.342-10.852-41.676-50.925-42.281-3.657-.055-17.727-.073-23.583-.073zm224.654 141.7c-52.912 0-95.959-44.567-95.959-99.346 0-26.711 10.139-43.955 30.992-52.721 16.959-7.129 38.529-7.695 64.967-7.695 26.436 0 48.006.566 64.965 7.695 20.854 8.766 30.992 26.01 30.992 52.723 0 54.777-43.047 99.344-95.957 99.344zm0-141.7c-54.16 0-77.896 4.008-77.896 42.354 0 44.82 34.943 81.284 77.896 81.284 42.951 0 77.895-36.463 77.895-81.282-.001-38.348-23.737-42.356-77.895-42.356z"/><path fill="#FFBF1F" d="M290.363 524.529l-38.383 76.766h76.766zm451.563 0l-38.383 76.766h76.766z"/></g></svg>