<svg xmlns="http://www.w3.org/2000/svg" xmlns:xlink="http://www.w3.org/1999/xlink" width="1024" height="1024" viewBox="3 5 1024 1024"><circle fill="#22A1FF" cx="515" cy="517" r="512"/><defs><circle id="a" cx="515" cy="517" r="512"/></defs><clipPath id="b"><use xlink:href="#a" overflow="visible"/></clipPath><g clip-path="url(#b)"><path fill="#163663" d="M775.509 406.271c.002 4.03.93 20.767.988 16.772.125-8.351-.418 336.507-.418 336.507l-84.894-77.867c-3.573-.01 2.686 77.234-1.01 77.9-5.606 1.016-134.239-85.479-131.819-79.779 15.715 37.027-68.208-19.781-92.192 3.293-4.483 4.316-134.184 76.527-134.184 76.527-3.019.025.676-77.572-2.218-77.547 0 0-73.933 78.65-73.713 79.621-1.931-447.793-2.439-430.122-2.048-422.267-3.978-83.194 46.346-192.16 176.437-224.998l.752-30.365 162.49 24.959c148.54 36.581 181.538 159.649 181.829 297.244z"/><path fill="#FFE5B8" d="M687.976 783.939c-30.414 9.74-47.171 42.293-37.432 72.707l107.816 328.406c9.74 30.41 42.292 47.178 72.706 37.432 30.417-9.738 47.179-42.301 37.443-72.711L760.688 821.371c-9.741-30.41-42.296-47.17-72.712-37.432z"/><path fill="#FF7D08" d="M664.954 1023.463L815.383 976.4l-57.144-177.56c-13.004-40.338-60.564-62.512-100.914-49.512-40.345 12.996-62.519 56.24-49.52 96.588l57.149 177.547z"/><path fill="#FF7D08" d="M699.79 1244.635V880.656l34.573-17.277 33.267-19.447c0-75.887-49.129-113.578-125.008-113.578H406.614c-75.883 0-131.774 20.178-131.774 96.064l33.267 41.275 21.604 21.613v353.977l370.079 1.352z"/><path fill="#FFE5B8" d="M582.96 742.869c0 37.934-30.755 78.627-68.689 78.627-37.938 0-68.682-40.693-68.682-78.627V620.133c0-37.934 30.744 17.734 68.682 17.734 37.935 0 68.689-55.668 68.689-17.734v122.736zm-238.97 39.692c29.622 11.934 43.958 45.621 32.024 75.246l-131.5 319.658c-11.934 29.619-45.621 43.967-75.245 32.027-29.623-11.936-43.964-45.633-32.033-75.25l131.503-319.656c11.934-29.621 45.627-43.961 75.251-32.025z"/><path fill="#FF7D08" d="M347.843 1012.137l-146.592-57.918 71.577-161.926c15.91-39.281 64.964-57.924 104.258-42.016 39.288 15.906 58.245 60.654 42.338 99.947l-71.581 161.913z"/><path fill="#FFE5B8" d="M381.483 730.553c-.707 4.822-1.289 9.762-1.077 14.775 4.124 97.457 78.631 145.678 134.591 145.678 55.957 0 130.666-34.914 145.678-145.678.675-4.973-.371-9.953-1.075-14.775H381.483z"/><path fill="#EAA688" d="M445.831 645.166s70.97 26.613 136.395 6.652v68.754s-60.988 38.811-136.395 3.326v-78.732z"/><path fill="#F9F0CA" d="M722.72 424.303c-.888-.002-13.602.049-27.698.137l-.057-25.432c-.028-11.09-.201-32.317-.231-41.604-.158-74.876-82.868-141.976-187.266-141.741-104.441.207-189.009 60.273-188.785 164.729.026 9.424.929 6.979.948 16.145l.065 30.719c-17.279-.04-13.63-.952-14.738-.949-24.086.05-43.601 19.625-43.557 43.742.054 24.128 19.663 43.631 43.751 43.584.934-.004-3.896.87 14.814.781l.009 7.373c.228 107.812 78.346 185.576 186.143 185.359 107.797-.238 188.334-78.057 188.093-185.855l1.09-4.609c16.365.004 26.647-1.806 27.467-1.809 24.659-.042 44.706-21.424 44.657-46.078-.057-24.632-20.045-44.545-44.705-44.492z"/><circle fill="#26CAEF" cx="584.221" cy="439.912" r="21.624"/><path fill="#163663" d="M631.902 440.466H584.22c-1 0-19.709.159-20.613.448.1 3.986-1.01 11.53-1.01 22.838 0 12.861 10.427 23.287 23.287 23.287s23.287-10.426 23.287-23.287a23.33 23.33 0 0 0-.434-4.436h9.858c14.971.001 13.307-18.85 13.307-18.85z"/><circle fill="#26CAEF" cx="420.715" cy="439.912" r="21.624"/><path fill="#163663" d="M373.032 440.466h47.682c1.002 0 19.709.159 20.615.448-.1 3.986 1.01 11.53 1.01 22.838 0 12.861-10.428 23.287-23.289 23.287-12.859 0-23.285-10.426-23.285-23.287 0-1.518.155-2.998.434-4.436h-9.859c-14.972.001-13.308-18.85-13.308-18.85z"/><path fill="#FF617F" d="M559.136 581.9c-1.045-10.754-19.982-21.674-30.963-21.674-8.596 0-15.979 7.662-19.289 15.061-3.311-7.398-10.693-15.061-19.291-15.061-10.979 0-31.158 10.92-32.205 21.674h10.427c2.081 20.834 19.579 37.098 40.862 37.098 21.281 0 37.535-16.264 39.617-37.098h10.842z"/><path fill="#163663" d="M442.837 377.813c0 5.819-4.718 10.535-10.535 10.535h-34.376c-5.817 0-10.534-4.716-10.534-10.535 0-5.818 4.717-10.533 10.534-10.533h34.376c5.817 0 10.535 4.715 10.535 10.533z"/><path fill="#163663" d="M453.925 377.813c0 5.819-4.717 10.535-10.535 10.535h-34.375c-5.817 0-10.534-4.716-10.534-10.535 0-5.818 4.717-10.533 10.534-10.533h34.375c5.818 0 10.535 4.715 10.535 10.533z"/><path fill="#FFFDFE" d="M484.184 580.363h48.536s-4.978 15.424-25.305 15.004c-20.327-.414-23.231-15.004-23.231-15.004z"/><path fill="#FFAB8D" d="M422.122 521.898c0 9.188-7.449 16.635-16.633 16.635h-22.178c-9.188 0-16.635-7.447-16.635-16.635 0-9.185 7.447-16.632 16.635-16.632h22.178c9.184 0 16.633 7.447 16.633 16.632zm217.344-1.107c0 9.186-7.448 16.633-16.633 16.633h-22.178c-9.188 0-16.634-7.447-16.634-16.633 0-9.187 7.446-16.634 16.634-16.634h22.178c9.185 0 16.633 7.447 16.633 16.634z"/><path fill="#163663" d="M258.752 523.295l59.881-96.039v67.208l82.059-181.859 28.831 46.574 56.554-157.465c-18.267 12.179-109.458-54.501-165.226 26.614-73.188 106.456-62.099 294.967-62.099 294.967z"/><path fill="#2F61DD" d="M430.438 114.434l6.294.683 139.161 16.634s143.041 6.65 165.217 164.661l8.871 160.786 25.504 4.518s11.927-191.565-43.244-267.871C674.589 114.112 565.36 97.928 565.36 97.928L431.19 84.069l-.752 30.365z"/><path fill="#2F61DD" d="M282.04 403.535V318.15s1.107-139.722 150.81-179.643v-24.072s-155.246 11.876-179.643 198.171v135.285c0-4.435 28.833-44.356 28.833-44.356z"/><path opacity=".3" fill="#BA0F30" d="M462.235 276.454l125.312 182.863.542-78.076 90.371 138.048-3.328-68.746 36.547 64.328s29.985-.019 39.963-11.66c9.98-11.643-16.631-108.113-16.631-108.113s-71.521-116.427-76.512-121.417-68.193-33.266-68.193-33.266-56.551-34.929-61.541-33.265c-4.99 1.663-42.688-5.437-42.688-5.437l-23.842 74.741z"/><path fill="#163663" d="M427.308 172.22c0 4.99 161.893 242.836 160.229 246.165v-87.047L675.69 475.49v-69.858l68.747 117.536s27.164-196.263-22.176-278.32c-32.171-53.505-53.225-21.066-89.816-27.719S427.308 172.22 427.308 172.22z"/><path fill="#2F61DD" d="M472.22 241.526l115.316 176.859v-87.047l88.153 144.153v-69.859l102.014 177.417V451.736L653.087 299.375l.346 48.684-98.75-126.611-.045 64.851zm-218.448 197.93l90.625-144.707-.251 72.255 81.316-168.171.598 73.896 46.16-31.203-42.698 117.653-28.831-46.574-82.058 181.859v-67.208L254.85 527.668z"/><circle fill="#FF7D08" cx="288.578" cy="548.803" r="26.614"/><circle fill="#FF7D08" cx="728.81" cy="558.785" r="26.613"/></g></svg>