<svg xmlns="http://www.w3.org/2000/svg" xmlns:xlink="http://www.w3.org/1999/xlink" width="1024" height="1024" viewBox="3 5 1024 1024"><circle fill="#FFBF1F" cx="515" cy="517" r="512"/><defs><circle id="a" cx="515" cy="517" r="512"/></defs><clipPath id="b"><use xlink:href="#a" overflow="visible"/></clipPath><g clip-path="url(#b)"><path fill="#D8724A" d="M684.957 798.852c-30.062 9.627-46.627 41.803-36.998 71.865l106.568 324.611c9.627 30.057 41.803 46.631 71.865 36.998 30.068-9.627 46.635-41.812 37.01-71.869L756.83 835.852c-9.629-30.059-41.807-46.627-71.873-37z"/><path fill="#163663" d="M662.318 1026.068l148.688-46.518-56.598-165.97c-12.852-39.871-59.863-61.787-99.746-48.939-39.879 12.846-61.795 55.59-48.947 95.473l56.603 165.954z"/><path fill="#163663" d="M696.637 1254.219V894.451l34.172-17.078 32.881-19.225c0-75.008-48.561-112.264-123.562-112.264H406.849c-75.005 0-130.249 19.947-130.249 94.955l32.883 40.797L330.835 903v349.883l365.802 1.336z"/><path fill="#D8724A" d="M581.156 758.258c0 37.494-30.398 77.717-67.894 77.717-37.501 0-67.89-40.223-67.89-77.717V636.939c0-37.494 30.389 17.529 67.89 17.529 37.496 0 67.894-55.023 67.894-17.529v121.319zm-236.206 39.23c29.279 11.797 43.449 45.096 31.654 74.377l-129.979 315.963c-11.798 29.277-45.095 43.457-74.376 31.654-29.28-11.795-43.455-45.104-31.662-74.377l129.983-315.96c11.795-29.278 45.097-43.452 74.38-31.657z"/><path fill="#163663" d="M348.527 1014.756L203.629 957.51l70.981-150.4c15.727-38.828 64.213-57.256 103.052-41.529 38.835 15.723 57.572 59.953 41.848 98.791l-70.983 150.384z"/><path fill="#D8724A" d="M382.008 746.082c-.696 4.768-1.274 9.648-1.063 14.605 4.075 96.33 77.721 143.994 133.033 143.994 55.313 0 129.155-34.512 143.995-143.994.666-4.916-.367-9.838-1.064-14.605H382.008z"/><path fill="#893C1D" d="M445.613 667.164s70.149 26.307 134.817 6.576v67.959s-60.285 38.361-134.817 3.287v-77.822z"/><path fill="#163663" d="M805.902 425.383c-.811-15.223-10.037-27.979-22.93-34.029 19.578-3.496 33.938-21.085 32.85-41.455-1.045-19.422-15.801-34.838-34.371-37.42 11.355-7.576 18.555-20.735 17.775-35.363-1.201-22.027-20.016-38.937-42.059-37.755-1.916.107-3.781.38-5.625.758 8.098-7.772 12.918-18.87 12.264-30.964-1.184-22.037-20-38.941-42.035-37.766-6.855.379-13.197 2.447-18.674 5.8 2.477-5.579 3.744-11.794 3.393-18.319-1.178-22.021-20.002-38.936-42.041-37.75-10.596.562-19.98 5.238-26.768 12.371.697-3.337 1.025-6.79.838-10.346-1.174-22.039-20.01-38.938-42.041-37.768-13.365.727-24.809 7.951-31.518 18.43 0-.709.033-1.404-.002-2.119-1.186-22.048-20.01-38.945-42.041-37.766-19.116 1.027-34.361 15.35-37.29 33.502-6.669-14.369-21.568-23.986-38.364-23.091-22.042 1.187-38.942 20.009-37.768 42.046.215 3.848.99 7.545 2.205 11.018-7.538-11.562-20.833-18.914-35.612-18.124-22.038 1.184-38.937 20.005-37.751 42.036.256 4.996 1.483 9.715 3.396 14.035-7.316-5.676-16.613-8.876-26.591-8.341-22.046 1.185-38.936 20.012-37.761 42.044a39.728 39.728 0 0 0 10.476 24.896c-2.354-.303-4.779-.441-7.251-.291-22.04 1.172-38.94 20-37.752 42.035.767 14.195 8.867 26.235 20.426 32.711-.929-.02-1.847-.045-2.79.006-22.039 1.185-38.944 20.004-37.764 42.032 1.054 19.642 16.123 35.165 34.979 37.489-15.852 5.979-26.72 21.697-25.768 39.515 1.189 22.026 20 38.937 42.048 37.755 3.324-.183 6.51-.812 9.554-1.74-11.789 7.486-19.328 20.938-18.528 35.887 1.186 22.025 20.02 38.943 42.046 37.753 11.249-.605 21.15-5.826 28.002-13.706 43.919 47.51 106.07 76.93 178.094 76.782 70.578-.145 132.531-28.645 177.068-74.669 7.736 7.71 18.551 12.267 30.316 11.638 22.035-1.188 38.939-19.998 37.768-42.046-.414-7.615-2.977-14.588-7.006-20.46a39.864 39.864 0 0 0 16.842 2.798c22.048-1.199 38.941-20.019 37.761-42.049zm-316.36-303.369c-.332.02-.668.028-.999.05.096-.478.22-.948.296-1.429.216.467.465.917.703 1.379zm267.312 266.683c.107-.485.215-.974.32-1.464.596.318 1.162.697 1.785.988-.719.127-1.404.313-2.105.476z"/><path fill="#2F61DD" d="M806.51 424.866c-.824-15.333-10.117-28.186-23.107-34.285 19.73-3.513 34.193-21.236 33.092-41.747-1.053-19.562-15.914-35.096-34.625-37.701 11.441-7.626 18.691-20.882 17.91-35.604-1.209-22.194-20.166-39.23-42.357-38.047a40.101 40.101 0 0 0-5.678.771c8.164-7.82 13.018-19.018 12.361-31.189-1.199-22.199-20.152-39.228-42.346-38.043a40.133 40.133 0 0 0-18.809 5.851c2.494-5.628 3.773-11.888 3.416-18.458-1.182-22.179-20.139-39.223-42.35-38.024-10.67.563-20.119 5.276-26.963 12.462.707-3.359 1.045-6.843.85-10.426-1.188-22.189-20.16-39.224-42.348-38.039-13.465.736-24.988 8.006-31.738 18.566-.016-.715.031-1.415-.01-2.137-1.197-22.208-20.154-39.229-42.346-38.035-19.254 1.032-34.607 15.452-37.562 33.738-6.713-14.469-21.724-24.158-38.64-23.257-22.208 1.2-39.221 20.157-38.041 42.353.215 3.88.995 7.596 2.211 11.101-7.583-11.647-20.979-19.06-35.864-18.259-22.201 1.199-39.222 20.15-38.023 42.34.256 5.031 1.496 9.785 3.417 14.146-7.37-5.729-16.738-8.943-26.788-8.418-22.201 1.205-39.222 20.173-38.028 42.359a39.962 39.962 0 0 0 10.552 25.073c-2.372-.298-4.815-.443-7.312-.287-22.194 1.185-39.219 20.141-38.019 42.334.772 14.305 8.926 26.43 20.571 32.955-.937-.025-1.86-.046-2.812.004-22.194 1.194-39.221 20.147-38.036 42.334 1.062 19.789 16.239 35.431 35.228 37.768-15.958 6.032-26.909 21.851-25.949 39.797 1.196 22.187 20.146 39.221 42.357 38.03 3.239-.18 6.348-.787 9.334-1.684-.2-.029-.407-.029-.608-.062-12.169-2.004-21.484-12.426-22.152-24.761-.619-11.603 6.26-22.15 17.105-26.239a12.458 12.458 0 0 0 7.969-13.129 12.45 12.45 0 0 0-10.84-10.882 27.596 27.596 0 0 1-1.066-.156c-12.178-2.006-21.495-12.407-22.159-24.736-.778-14.606 10.479-27.128 25.044-27.909.598-.035 1.178-.016 1.85 0a12.447 12.447 0 0 0 12.264-9.187 12.46 12.46 0 0 0-5.929-14.134c-8.013-4.484-13.091-12.604-13.583-21.727-.383-7.07 2.019-13.871 6.75-19.148 4.733-5.271 11.24-8.379 18.418-8.763 1.41-.092 2.97-.019 4.765.21a12.453 12.453 0 0 0 12.618-6.664 12.453 12.453 0 0 0-1.913-14.139 26.498 26.498 0 0 1-6.944-16.512c-.78-14.609 10.466-27.148 25.068-27.934a26.469 26.469 0 0 1 5.729.311 26.507 26.507 0 0 1 11.925 5.24 12.48 12.48 0 0 0 15.31-.03 12.46 12.46 0 0 0 3.721-14.848c-1.347-3.033-2.108-6.164-2.271-9.335-.788-14.597 10.463-27.12 25.069-27.916a26.84 26.84 0 0 1 5.759.315c7.296 1.2 13.813 5.481 17.893 11.744a12.46 12.46 0 0 0 8.415 5.486 12.454 12.454 0 0 0 13.78-16.39 26.646 26.646 0 0 1-1.474-7.311c-.777-14.614 10.478-27.148 25.086-27.932 1.934-.107 3.871 0 5.755.312 8.644 1.426 16.014 7.038 19.722 15.023a12.455 12.455 0 0 0 9.271 7.043c1.205.199 2.467.221 3.724.045a12.453 12.453 0 0 0 10.592-10.349c1.973-12.222 12.389-21.572 24.766-22.233a26.607 26.607 0 0 1 5.773.311c12.172 2.004 21.48 12.426 22.143 24.697l-.004.461c-.008.402-.006.807-.008 1.221a12.451 12.451 0 0 0 9.061 11.77c.459.139.916.237 1.375.312a12.446 12.446 0 0 0 12.512-5.577c4.611-7.219 12.441-11.802 20.92-12.265a26.944 26.944 0 0 1 5.768.312c12.18 2.009 21.498 12.424 22.16 24.771.121 2.217-.062 4.468-.57 6.887a12.448 12.448 0 0 0 10.158 14.836c3.986.656 8.15-.654 11.049-3.704 4.709-4.942 11.014-7.863 17.768-8.223a26.904 26.904 0 0 1 5.781.312c12.172 2.006 21.484 12.423 22.145 24.767.223 4.177-.537 8.264-2.26 12.148a12.453 12.453 0 0 0 17.879 15.678c3.777-2.312 7.959-3.607 12.385-3.855a26.801 26.801 0 0 1 5.768.312c12.17 2.01 21.496 12.434 22.16 24.779.416 7.7-2.555 15.193-8.156 20.558a12.463 12.463 0 0 0-2.396 14.799 12.455 12.455 0 0 0 13.558 6.382 26.573 26.573 0 0 1 3.619-.503 26.828 26.828 0 0 1 5.764.314c12.178 2.006 21.502 12.427 22.174 24.767.498 9.432-3.918 18.211-11.824 23.471a12.458 12.458 0 1 0 5.191 22.702l.654.097c12.186 2.011 21.51 12.423 22.17 24.763.725 13.336-8.66 25.17-21.811 27.52a12.458 12.458 0 0 0-10.16 10.631 12.456 12.456 0 0 0 7.066 12.9 26.503 26.503 0 0 1 15.232 22.602c.783 14.607-10.477 27.139-25.033 27.934-.809.045-1.623.027-2.43-.01-.023.145-.004.285-.027.43l-.227 1.387c1.205.047 2.42.079 3.662.018 22.204-1.215 39.223-20.172 38.034-42.357zM486.833 119.342c.1-.485.222-.959.298-1.448.223.478.474.936.709 1.396-.33.019-.67.032-1.007.052z"/><path fill="#D8724A" d="M719.299 443.375c-.877-.003-13.443.047-27.377.135l-.057-25.14c-.027-10.961-.197-31.942-.229-41.121-.156-74.012-81.91-140.334-185.1-140.102-103.234.203-186.823 59.576-186.603 162.823.026 9.314.919 6.897.938 15.957l.063 30.364c-17.078-.04-13.471-.941-14.568-.939-23.807.05-43.096 19.398-43.052 43.237.053 23.849 19.436 43.125 43.245 43.079.923-.002-3.851.861 14.643.773l.01 7.287c.224 106.566 77.439 183.43 183.989 183.217 106.551-.236 186.155-77.154 185.918-183.707l1.076-4.557c16.176.004 26.34-1.783 27.15-1.787 24.373-.041 44.189-21.174 44.139-45.544-.052-24.346-19.808-44.029-44.185-43.975z"/><path fill="#163663" d="M439.365 348.099c0 5.751-4.662 10.413-10.413 10.413h-33.978c-5.751 0-10.413-4.662-10.413-10.413 0-5.752 4.662-10.413 10.413-10.413h33.978c5.751 0 10.413 4.661 10.413 10.413zm187.969-1.645c0 5.752-4.662 10.412-10.414 10.412h-33.977c-5.75 0-10.412-4.66-10.412-10.412 0-5.751 4.662-10.414 10.412-10.414h33.977c5.752 0 10.414 4.663 10.414 10.414z"/><path fill="#BC1D47" d="M557.607 599.148c-1.033-10.631-19.75-21.422-30.604-21.422-8.496 0-15.794 7.572-19.067 14.885-3.273-7.312-10.571-14.885-19.068-14.885-10.853 0-30.799 10.791-31.833 21.422h10.306c2.058 20.592 19.354 36.67 40.39 36.67 21.035 0 37.101-16.078 39.16-36.67h10.716z"/><path fill="#FFFDFE" d="M483.521 597.629h47.975s-4.92 15.244-25.011 14.832c-20.092-.412-22.964-14.832-22.964-14.832z"/><ellipse fill="#FFF" cx="401.711" cy="459.239" rx="78.206" ry="77.912"/><ellipse fill="#FFF" cx="611.326" cy="459.239" rx="78.207" ry="77.912"/><path fill="#2F61DD" d="M733.812 421.37h-45.615c-.48 0-.953.029-1.418.078-13.5-28.801-42.84-48.817-76.797-48.817-41.217 0-75.637 29.485-83.172 68.392-15.767-5.719-28.027-4.387-36.337-1.625-1.308.434-2.532.92-3.71 1.43-7.61-38.811-41.986-68.196-83.137-68.196-33.925 0-63.243 19.979-76.761 48.739h-43.778c-7.198 0-13.034 5.812-13.034 12.983s5.836 12.983 13.034 12.983h36.394a84.663 84.663 0 0 0-.577 9.7c0 46.54 38.007 84.403 84.723 84.403 45.786 0 83.182-36.376 84.652-81.644a27.602 27.602 0 0 1 8.53-4.24c8.205-2.447 17.909-1.21 28.503 3.541 1.107 45.59 38.648 82.343 84.67 82.343 46.715 0 84.723-37.863 84.723-84.403 0-3.282-.211-6.515-.576-9.7h39.684c7.197 0 13.033-5.812 13.033-12.983 0-7.173-5.836-12.984-13.034-12.984zM403.626 521.965c-35.937 0-65.173-29.126-65.173-64.928s29.236-64.929 65.173-64.929 65.172 29.127 65.172 64.929-29.235 64.928-65.172 64.928zm206.356 0c-35.936 0-65.172-29.126-65.172-64.928 0-1.376.732-6.606.363-6.84 3.441-32.598 31.191-58.089 64.809-58.089 35.938 0 65.174 29.127 65.174 64.929s-29.236 64.928-65.174 64.928z"/><path fill="#163663" d="M417.702 434.614c-11.467-3.076-23.207 2.578-28.193 12.888l-15.893-5.94s.809 35.5 31.466 40.054c13.297 1.98 26.331-4.213 29.815-17.188 3.481-12.99-4.232-26.334-17.195-29.814zm173.755-1.451c11.438-3.125 23.203 2.469 28.23 12.771l12.693-5.686s2.525 35.171-28.123 39.855c-13.273 2.048-26.334-4.094-29.877-17.047-3.542-12.981 4.108-26.352 17.077-29.893z"/><path fill="#2F61DD" d="M322.273 523.682c0 14.525-11.777 26.305-26.306 26.305s-26.306-11.779-26.306-26.305c0-14.531 11.777-26.306 26.306-26.306s26.306 11.775 26.306 26.306z"/><circle fill="#2F61DD" cx="719.052" cy="533.545" r="26.306"/></g></svg>