<svg xmlns="http://www.w3.org/2000/svg" xmlns:xlink="http://www.w3.org/1999/xlink" width="1024" height="1024" viewBox="3 5 1024 1024"><circle fill="#22A1FF" cx="515.001" cy="517" r="512"/><defs><circle id="a" cx="515" cy="517" r="512.001"/></defs><clipPath id="b"><use xlink:href="#a" overflow="visible"/></clipPath><g clip-path="url(#b)"><path fill="#FFE5B8" d="M698.63 799.469c-31.299 10.023-48.547 43.523-38.523 74.828l110.963 337.986c10.023 31.299 43.525 48.555 74.826 38.523 31.305-10.023 48.555-43.533 38.535-74.832L773.468 837.992c-10.03-31.299-43.533-48.549-74.838-38.523z"/><path fill="#FF7D08" d="M687.47 1084.699l154.818-48.436-71.342-221.461c-13.385-41.516-62.334-64.334-103.861-50.957-41.521 13.377-64.342 57.881-50.963 99.408l71.348 221.446z"/><path fill="#FF7D08" d="M710.79 1270.18V900.146l35.582-17.781 34.236-20.016c0-78.1-61.975-116.891-140.068-116.891H409.062c-78.098 0-135.621 20.768-135.621 98.867l34.238 42.48 22.234 22.242v364.305l380.877-3.172z"/><path fill="#FFE5B8" d="M590.55 757.199c0 39.041-31.65 80.92-70.691 80.92-39.047 0-70.688-41.879-70.688-80.92V630.883c0-39.041 31.641 18.252 70.688 18.252 39.041 0 70.691-57.293 70.691-18.252v126.316zm-245.942 40.85c30.486 12.283 45.24 46.953 32.959 77.441l-135.336 328.986c-12.283 30.482-46.953 45.248-77.441 32.959-30.488-12.281-45.246-46.963-32.967-77.445l135.34-328.982c12.281-30.483 46.957-45.242 77.445-32.959z"/><path fill="#FF7D08" d="M334.919 1083.334l-150.867-59.607 87.318-215.662c16.375-40.428 66.859-59.613 107.301-43.24 40.434 16.371 59.943 62.424 43.572 102.863l-87.324 215.646z"/><path fill="#FFE5B8" d="M417.433 744.521a104.927 104.927 0 0 0-1.107 15.209c0 57.592 46.686 104.279 104.279 104.279 57.59 0 104.279-46.688 104.279-104.279 0-5.166-.383-10.244-1.107-15.209H417.433z"/><path fill="#FFBF1F" d="M789.858 399.369c.002 4.146-.184 32.785-.125 28.674.131-8.594 2.379 315.094 2.379 315.094 0 1.832-203.172-132.549-203.172-132.549-11.463.006-23.078 114.111-34.758 114.072-36.795-.127-71.943-251.525-107.285-251.9-103.229-1.096-170.357 8.785-169.971 10.518 0 0 6.053-35.172 5.883-38.572-4.094-85.623-16.68-190.457 67.662-225.373 4.127-1.709-36.393-92.371 76.912-122.955 29.084-7.852 184.471-5.205 184.471-5.205 141.606-.314 177.704 166.587 178.004 308.196z"/><path fill="#EAA688" d="M449.421 656.646s74.182 27.389 141.516 6.848v70.758s-63.91 39.943-141.516 3.424v-81.03z"/><path fill="#F9F0CA" d="M734.388 429.34c-.914-.002-13.998.049-28.506.141l-.059-26.176c-.029-11.412 2.076-33.258 2.045-42.816-.229-107.496-87.508-168.943-195.012-168.701-107.49.212-194.523 62.03-194.293 169.534.025 9.699.955 30.008.977 39.439l.066 31.615c-17.783-.041-14.027-.979-15.168-.977-24.789.051-44.873 20.197-44.828 45.02.057 24.83 20.236 44.902 45.027 44.854.961-.002-4.01.896 15.248.805l.008 7.588c.234 110.959 80.633 190.988 191.574 190.766 110.941-.244 193.828-80.334 193.58-191.277l1.121-4.744c16.844.006 27.426-1.855 28.268-1.859 25.383-.043 46.012-22.049 45.961-47.422-.058-25.351-20.63-45.845-46.009-45.79z"/><path fill="#FF7D08" d="M395.091 221.152s-13.695-28.531 0-44.508c13.695-15.979 51.357-33.098 99.289 14.836 0 0-49.074-3.423-99.289 29.672z"/><circle fill="#2F61DD" cx="298.085" cy="489.346" r="17.119"/><path fill="#FFBF1F" d="M383.554 363.48c.461-.008.91-.021 1.369-.066l50-5.217c7.014-.742 12.117-7.012 11.381-14.025-.732-7.006-6.971-12.109-14.021-11.367l-50.006 5.203c-7.016.736-12.107 7.016-11.363 14.029.681 6.557 6.204 11.43 12.64 11.443z"/><path opacity=".3" fill="#BA0F30" d="M460.144 192.621s63.908 63.91 98.146 136.951c34.238 73.039 89.018 205.424 143.797 246.51 0 0 7.99-52.498 3.424-91.301-4.564-38.803-180.316-293.301-180.316-293.301s-46.792-7.988-65.051 1.141z"/><path fill="#FFBF1F" d="M489.815 185.773s43.953 25.879 86.734 107.277c22.133 42.111 67.209 139.684 82.457 164.936 44.49 73.678 70.223 122.336 124.109 120.377 0 0-3.424-252.215-17.119-277.322-13.695-25.109-139.232-112.984-142.656-114.125-3.424-1.143-116.406-36.521-116.406-36.521l-17.119 35.378z"/><path fill="#FFEE73" d="M502.368 143.547s77.482 70.078 131.244 186.025c0 0 68.475 188.305 157.264 224.008 0 0 4.795-228.574-8.9-282.213S747.737 110.451 634.753 91.051c0 0-150.645-10.271-199.717 2.281 0 0-54.781 17.119-74.182 45.65 0 0 71.899-53.638 141.514 4.565z"/><path fill="#FFBF1F" d="M638.177 190.338s35.822 48.963 66.193 131.244c15.658 42.424 86.734 143.799 86.734 143.799l-2.281-132.387-150.646-142.656z"/><path fill="#163663" d="M428.224 421.412c-11.941-3.203-24.164 2.684-29.355 13.418l-16.549-6.186s.842 36.965 32.764 41.703c13.844 2.062 27.418-4.385 31.043-17.895 3.626-13.522-4.407-27.417-17.903-31.04zm171.787-.371c11.908-3.254 24.16 2.57 29.393 13.299l13.219-5.92s2.629 36.621-29.283 41.498c-13.82 2.133-27.42-4.262-31.109-17.75-3.689-13.518 4.276-27.441 17.78-31.127z"/><path fill="#FF617F" d="M568.226 582.762c-1.078-11.07-20.566-22.307-31.865-22.307-8.846 0-16.445 7.885-19.854 15.5-3.408-7.615-11.006-15.5-19.854-15.5-11.299 0-32.068 11.236-33.145 22.307h10.73c2.143 21.441 20.152 38.18 42.055 38.18s38.631-16.738 40.771-38.18h11.162z"/><path fill="#FFFDFE" d="M491.085 581.18h49.955s-5.125 15.871-26.043 15.441c-20.922-.428-23.912-15.441-23.912-15.441z"/></g></svg>