<svg xmlns="http://www.w3.org/2000/svg" xmlns:xlink="http://www.w3.org/1999/xlink" width="1024" height="1024" viewBox="3 5 1024 1024"><circle fill="#EF6100" cx="515" cy="517" r="512"/><defs><circle id="a" cx="515" cy="517" r="512"/></defs><clipPath id="b"><use xlink:href="#a" overflow="visible"/></clipPath><g clip-path="url(#b)"><path fill="#E2C7BF" d="M399.721 165.922s92.188-59.438 221.977-3.639c9.705 3.824 80.059 46.311 80.059 160.113v116.447h45.205V300.562s6.939-105.402-97.365-171.031c0 0-163.146-89.625-308.098 23.047 0 0-67.918 42.582-64.289 184.375l-1.188 105.137 48.494-.82-1.002-116.873c0-.001-5.063-111.168 76.207-158.475z"/><path fill="#FFE5B8" d="M709.104 843.631c-33.27 10.656-51.6 46.262-40.945 79.535l117.938 359.23c10.654 33.268 46.262 51.607 79.531 40.945 33.271-10.652 51.607-46.268 40.957-79.535L788.643 884.58c-10.657-33.268-46.266-51.601-79.539-40.949z"/><path fill="#163663" d="M722.027 1331.803l33.57-281.65 100.495-29.998-49.856-131.818c-31.14-82.67-75.871-114.238-158.873-114.238H401.332c-83.008 0-144.145 22.074-144.145 105.084l36.391 45.152 23.631 23.639v387.203l404.818-3.374z"/><path fill="#FFE5B8" d="M594.23 774.449c0 41.494-33.643 86.006-75.137 86.006-41.5 0-75.129-44.512-75.129-86.006V640.191c0-41.496 33.629 19.398 75.129 19.398 41.494 0 75.137-60.895 75.137-19.398v134.258zm-261.402 67.676c32.402 13.053 48.084 49.902 35.031 82.309L224.016 1274.1c-13.055 32.4-49.904 48.092-82.309 35.031-32.404-13.055-48.09-49.914-35.039-82.312l143.846-349.664c13.054-32.397 49.91-48.087 82.314-35.03z"/><path fill="#163663" d="M358.92 1060.434L198.568 997.08l56.418-144.311c17.404-42.969 71.062-63.359 114.045-45.959 42.977 17.4 63.713 66.348 46.312 109.33l-56.423 144.294z"/><path fill="#FFE5B8" d="M410.23 785.232a111.451 111.451 0 0 0-1.178 16.164c0 61.211 49.621 110.836 110.834 110.836 61.211 0 110.836-49.625 110.836-110.836 0-5.49-.408-10.889-1.178-16.164H410.23z"/><path fill="#EAA688" d="M444.23 667.572s78.844 29.111 150.41 7.279v75.205s-67.928 42.453-150.41 3.639v-86.123z"/><path fill="#F9F0CA" d="M747.109 425.979c-.971-.004-14.877.053-30.299.15l-.061-27.82c-.031-12.131 2.205-71.74 2.172-81.898-.242-114.254-93.008-179.562-207.27-179.307-114.246.227-206.75 65.93-206.506 180.193.027 10.307 1.016 68.281 1.037 78.309l.07 33.602c-18.9-.043-14.908-1.041-16.121-1.039-26.348.055-47.693 21.467-47.645 47.85.059 26.393 21.508 47.727 47.857 47.674 1.021-.002-4.262.953 16.205.855l.01 8.064c.248 117.936 85.699 202.996 203.615 202.758 117.916-.26 206.012-85.385 205.75-203.301l1.191-5.043c17.9.006 29.148-1.975 30.045-1.977 26.975-.047 48.902-23.436 48.848-50.402-.058-26.946-21.923-48.727-48.898-48.668z"/><circle fill="#2F61DD" cx="283.381" cy="489.756" r="18.195"/><path fill="#163663" d="M374.223 380.238c.488-.006.967-.021 1.455-.07l53.143-5.545c7.453-.787 12.879-7.453 12.096-14.906-.777-7.445-7.408-12.871-14.902-12.082l-53.148 5.529c-7.459.785-12.869 7.459-12.078 14.912.723 6.969 6.594 12.149 13.434 12.162zm47.476 37.315c-12.691-3.404-25.684 2.852-31.201 14.262l-17.588-6.576s.895 39.287 34.822 44.326c14.715 2.191 29.141-4.66 32.996-19.02 3.854-14.373-4.683-29.143-19.029-32.992zm182.586-.395c12.658-3.457 25.678 2.732 31.24 14.135L649.576 425s2.793 38.924-31.125 44.107c-14.689 2.268-29.145-4.531-33.064-18.865-3.918-14.367 4.547-29.166 18.898-33.084z"/><path fill="#FF617F" d="M570.502 589.043c-1.145-11.764-21.857-23.707-33.867-23.707-9.402 0-17.48 8.379-21.102 16.473-3.623-8.094-11.699-16.473-21.102-16.473-12.01 0-34.086 11.943-35.229 23.707h11.404c2.277 22.789 21.42 40.582 44.697 40.582 23.279 0 41.061-17.793 43.336-40.582h11.863z"/><path fill="#FFFDFE" d="M488.514 587.361h53.094s-5.447 16.871-27.682 16.414c-22.237-.455-25.412-16.414-25.412-16.414z"/><path fill="#163663" d="M645.818 380.238a16.476 16.476 0 0 1-1.455-.07l-53.145-5.545c-7.453-.787-12.879-7.453-12.094-14.906.777-7.445 7.408-12.871 14.902-12.082l53.148 5.529c7.457.785 12.869 7.459 12.078 14.912-.725 6.969-6.594 12.149-13.434 12.162z"/><circle fill="#2F61DD" cx="744.316" cy="489.756" r="18.195"/><path fill="#FFE5B8" d="M367.016 773.58c-.77 5.277-1.41 10.678-1.178 16.166 4.51 106.605 86.01 159.354 147.225 159.354 61.213 0 142.932-38.195 159.354-159.354.738-5.443-.404-10.889-1.178-16.166H367.016z"/></g></svg>