<svg xmlns="http://www.w3.org/2000/svg" xmlns:xlink="http://www.w3.org/1999/xlink" width="1024" height="1024" viewBox="3 5 1024 1024"><circle fill="#FFBF1F" cx="515" cy="517" r="512"/><defs><circle id="a" cx="515" cy="517" r="512"/></defs><clipPath id="b"><use xlink:href="#a" overflow="visible"/></clipPath><g clip-path="url(#b)"><path fill="#D8724A" d="M693.825 786.461c-32.025 10.256-49.668 44.527-39.414 76.553l113.517 345.766c10.255 32.02 44.528 49.672 76.551 39.41 32.026-10.252 49.673-44.535 39.422-76.555L770.379 825.873c-10.254-32.019-44.531-49.666-76.554-39.412z"/><path fill="#61E9FF" d="M659.057 1029l158.379-82.02L767.8 802.148c-13.688-42.471-63.765-65.812-106.249-52.129-42.478 13.684-65.82 59.215-52.137 101.697L659.057 1029z"/><path fill="#61E9FF" d="M706.264 1271.51V888.289l36.398-18.189 35.026-20.477c0-79.898-51.728-119.582-131.617-119.582H397.587c-79.893 0-138.738 21.246-138.738 101.145l35.025 43.459 22.744 22.754v372.689l389.646 1.422z"/><path fill="#D8724A" d="M583.255 743.221c0 39.941-32.379 82.783-72.318 82.783-39.946 0-72.315-42.842-72.315-82.783V613.996c0-39.939 32.369 18.672 72.315 18.672 39.939 0 72.318-58.611 72.318-18.672v129.225zM331.652 785.01c31.188 12.564 46.283 48.033 33.719 79.223l-138.451 336.56c-12.567 31.186-48.035 46.289-79.226 33.717-31.188-12.564-46.285-48.041-33.726-79.225l138.456-336.559c12.565-31.183 48.038-46.283 79.228-33.716z"/><path fill="#61E9FF" d="M356.767 1067L202.424 934.156l54.304-138.9c16.753-41.359 68.401-60.984 109.771-44.236 41.367 16.748 61.323 63.861 44.574 105.232L356.767 1067z"/><path fill="#D8724A" d="M371.126 730.25c-.74 5.078-1.356 10.277-1.133 15.559 4.342 102.609 82.787 153.381 141.705 153.381 58.919 0 137.574-36.764 153.38-153.381.713-5.236-.389-10.48-1.133-15.559H371.126z"/><path fill="#893C1D" d="M440.044 646.189s74.722 28.02 143.605 7.006v72.385s-64.214 40.863-143.605 3.504v-82.895z"/><path fill="#D8724A" d="M730.402 407.814c-.935-.004-14.32.051-29.162.145l-.059-26.779c-.03-11.674-.21-92.4-.245-102.178-.163-78.836-87.249-159.482-197.165-159.234-109.963.219-199 73.459-198.766 183.438.027 9.922.979 65.723.999 75.373l.068 32.342c-18.192-.041-14.35-1-15.517-.998-25.36.051-45.906 20.662-45.86 46.055.058 25.402 20.703 45.938 46.065 45.887.982-.002-4.101.916 15.597.824l.01 7.762c.239 113.514 82.487 195.387 195.983 195.158 113.496-.252 198.289-82.186 198.036-195.682l1.147-4.852c17.231.004 28.057-1.902 28.918-1.904 25.964-.045 35.396-22.557 35.343-48.514-.058-25.934-9.425-46.899-35.392-46.843z"/><path fill="#163663" d="M432.223 376.379c0 6.127-4.967 11.09-11.091 11.09h-36.194c-6.124 0-11.09-4.963-11.09-11.09 0-6.125 4.966-11.092 11.09-11.092h36.194c6.124 0 11.091 4.967 11.091 11.092z"/><path fill="#BC1D47" d="M558.171 573.744c-1.101-11.324-21.038-22.822-32.597-22.822-9.051 0-16.824 8.068-20.311 15.857-3.486-7.789-11.26-15.857-20.311-15.857-11.56 0-32.808 11.498-33.908 22.822h10.977c2.191 21.934 20.617 39.057 43.023 39.057s39.52-17.123 41.711-39.057h11.416z"/><path fill="#FFFDFE" d="M479.257 572.125h51.104s-5.242 16.238-26.643 15.797c-21.404-.438-24.461-15.797-24.461-15.797z"/><path fill="#163663" d="M412.648 421.834c-12.213-3.277-24.719 2.746-30.031 13.727l-16.927-6.33s.859 37.814 33.517 42.666c14.162 2.107 28.047-4.486 31.76-18.307 3.707-13.836-4.509-28.051-18.319-31.756zm176.91-1.547c12.183-3.328 24.716 2.629 30.072 13.605l13.521-6.057s2.688 37.463-29.956 42.453c-14.141 2.182-28.053-4.361-31.825-18.158-3.774-13.827 4.376-28.073 18.188-31.843z"/><path fill="#2F61DD" d="M269.513 492.529l-49.035 79.393h92.233zm464.673 1.168l-42.03 79.393h86.396z"/><path fill="#163663" d="M630.701 376.379c0 6.127-4.967 11.09-11.092 11.09h-36.192c-6.126 0-11.092-4.963-11.092-11.09 0-6.125 4.966-11.092 11.092-11.092h36.192c6.125 0 11.092 4.967 11.092 11.092z"/><path fill="#BF694F" d="M396.114 155.277s88.731-57.209 213.656-3.504c9.34 3.684 77.056 44.574 77.056 154.113v112.082h43.508V284.871s6.683-101.451-93.711-164.619c0 0-157.033-86.268-296.55 22.182 0 0-65.372 40.986-61.879 177.463l-1.143 101.193 46.676-.785-.964-112.496c.001 0-4.872-106.998 73.351-152.532z"/></g></svg>