<svg xmlns="http://www.w3.org/2000/svg" xmlns:xlink="http://www.w3.org/1999/xlink" width="1024" height="1024" viewBox="3 5 1024 1024"><circle fill="#22A1FF" cx="515" cy="517" r="512"/><defs><circle id="a" cx="515" cy="517" r="512"/></defs><clipPath id="b"><use xlink:href="#a" overflow="visible"/></clipPath><g clip-path="url(#b)"><path fill="#D8724A" d="M705.019 804.521c-32.924 10.541-51.062 45.777-40.52 78.699l116.703 355.475c10.543 32.916 45.778 51.066 78.7 40.518 32.926-10.543 51.068-45.787 40.528-78.705L783.723 845.037c-10.543-32.916-45.783-51.058-78.704-40.516z"/><path fill="#FF7D08" d="M669.274 1020.49L832.1 969.547 781.071 820.65c-14.073-43.664-65.555-67.666-109.232-53.596-43.67 14.07-67.668 60.877-53.6 104.553l51.035 148.883z"/><path fill="#FF7D08" d="M717.808 1303.188V909.209l37.419-18.701 36.01-21.051c0-82.143-53.179-122.939-135.312-122.939h-255.46c-82.136 0-142.633 21.842-142.633 103.982l36.008 44.678 23.383 23.395v383.152l400.585 1.463z"/><path fill="#D8724A" d="M591.344 760.064c0 41.062-33.287 85.107-74.348 85.107-41.067 0-74.346-44.045-74.346-85.107V627.213c0-41.061 33.278 19.197 74.346 19.197 41.061 0 74.348-60.258 74.348-19.197v132.851zm-258.666 42.963c32.063 12.92 47.583 49.383 34.665 81.449l-142.338 346.006c-12.92 32.062-49.383 47.59-81.449 34.668-32.062-12.918-47.585-49.395-34.672-81.453l142.343-346.006c12.917-32.058 49.385-47.582 81.451-34.664z"/><path fill="#FF7D08" d="M358.498 1019.053l-158.676-62.689 55.827-142.801c17.225-42.52 70.321-62.699 112.852-45.479 42.529 17.217 63.047 65.654 45.828 108.186l-55.831 142.783z"/><path fill="#D8724A" d="M373.261 746.732c-.762 5.221-1.395 10.566-1.166 15.994 4.464 105.488 85.111 157.686 145.685 157.686 60.572 0 141.436-37.793 157.687-157.686.731-5.383-.4-10.773-1.165-15.994H373.261z"/><path fill="#893C1D" d="M444.113 660.311s76.819 28.809 147.637 7.203v74.418s-66.017 42.012-147.637 3.602v-85.223z"/><path fill="#D8724A" d="M742.624 415.242c-.961-.002-14.723.051-29.981.146l-.062-27.529c-.03-12.002-.215-58.984-.25-69.037-.17-81.049-89.699-153.678-202.701-153.424-113.051.225-204.587 89.248-204.346 202.312.028 10.199 1.006 7.553 1.027 17.475l.07 33.252c-18.703-.045-14.754-1.031-15.953-1.029-26.071.055-47.194 21.242-47.147 47.348.059 26.117 21.285 47.227 47.358 47.176 1.01-.002-4.215.943 16.035.846l.009 7.98c.247 116.701 84.804 200.871 201.486 200.639 116.682-.258 203.855-84.492 203.596-201.176l1.179-4.988c17.717.004 28.846-1.953 29.73-1.957 26.693-.045 36.389-23.188 36.336-49.877-.061-26.659-9.691-48.215-36.386-48.157z"/><path fill="#163663" d="M436.072 394.928c0 6.297-5.106 11.404-11.403 11.404H387.46c-6.297 0-11.402-5.107-11.402-11.404 0-6.299 5.105-11.402 11.402-11.402h37.209c6.297-.001 11.403 5.103 11.403 11.402z"/><path opacity=".3" fill="#63240E" d="M343.823 236.555s28.809 129.646 262.891 208.873l-15.613-62.99 120.665 137.783s5.286 15.018 34.747-16.682c29.462-31.703-32.982-154.709-32.982-154.709l-63.602-35.449-133.244-126.043-129.646-25.209-43.216 74.426z"/><path fill="#BC1D47" d="M565.557 585.83c-1.132-11.643-21.629-23.461-33.513-23.461-9.305 0-17.295 8.293-20.881 16.301-3.584-8.008-11.576-16.301-20.881-16.301-11.883 0-33.728 11.818-34.859 23.461h11.285c2.253 22.551 21.195 40.154 44.23 40.154s40.629-17.604 42.883-40.154h11.736z"/><path fill="#FFFDFE" d="M484.427 584.166h52.539s-5.391 16.693-27.392 16.24c-22.004-.449-25.147-16.24-25.147-16.24z"/><path fill="#163663" d="M415.948 441.658c-12.557-3.369-25.412 2.822-30.875 14.113l-17.402-6.506s.885 38.875 34.457 43.863c14.562 2.168 28.836-4.615 32.652-18.824 3.813-14.222-4.634-28.835-18.832-32.646zm181.875-1.59c12.527-3.422 25.411 2.703 30.918 13.986l13.899-6.227s2.765 38.516-30.798 43.645c-14.537 2.244-28.84-4.482-32.717-18.668-3.879-14.216 4.499-28.859 18.698-32.736z"/><path fill="#FFBF1F" d="M268.795 502.338l-50.413 81.621h94.824zm477.718 1.201l-43.211 81.621h88.823z"/><path fill="#163663" d="M414.657 71.561s-92.404 82.996-30.393 184.803c31.506 51.727 121.84 117.211 214.037 160.883l-36.008-153.639 208.852 273.668s67.148-246.227-38.41-393.697C651.115 29.551 498.677-25.664 414.657 71.561z"/><path fill="#163663" d="M306.382 418.438V351.23s3.85-86.422 66.265-127.232l4.801-103.225s-110.427 12.002-108.026 115.229v182.445l36.96-.009z"/><path fill="#2F61DD" d="M585.099 358.432s-176.443-88.822-164.44-201.65c0 0 2.052-64.07 79.22-36.008C526.284 130.375 713.53 348.83 713.53 348.83s-24.005-156.041-52.812-196.85c0 0 89.785 19.984 112.828 81.621 9.631 25.762 43.21 172.842-2.4 303.674L573.097 296.018l12.002 62.414z"/></g></svg>