<svg xmlns="http://www.w3.org/2000/svg" xmlns:xlink="http://www.w3.org/1999/xlink" width="1024" height="1024" viewBox="3 5 1024 1024"><circle fill="#FFBF1F" cx="515" cy="517" r="512"/><defs><circle id="a" cx="515" cy="517" r="512"/></defs><clipPath id="b"><use xlink:href="#a" overflow="visible"/></clipPath><g clip-path="url(#b)"><path fill="none" stroke="#163663" stroke-width="45" stroke-linecap="round" stroke-linejoin="round" stroke-miterlimit="10" d="M357.593 262.596s-30.893 383.871-20.87 513.783m106.519-513.783s-30.894 383.871-20.872 513.783m196.812-551.635s69.021 215.279 76.596 509.152M540.25 233.541s68.17 286.264 76.596 509.152"/><path fill="#D8724A" d="M699.811 786.193c-32.18 10.305-49.91 44.746-39.604 76.926l114.072 347.467c10.305 32.176 44.748 49.918 76.928 39.605 32.182-10.305 49.916-44.756 39.615-76.932L776.744 825.797c-10.306-32.176-44.752-49.91-76.933-39.604z"/><path fill="#61E9FF" d="M679.721 1047.996l159.16-49.795-59.879-175.545c-13.758-42.678-54.08-36.137-96.771-22.385-42.688 13.752-66.146 59.504-52.395 102.195l49.885 145.53z"/><path fill="#61E9FF" d="M712.311 1273.625V888.523l36.58-18.279 35.197-20.58c0-80.289-51.98-120.168-132.264-120.168H402.12c-80.288 0-139.423 21.35-139.423 101.641l35.197 43.672 22.857 22.865v374.523l391.56 1.428z"/><path fill="#D8724A" d="M588.699 742.74c0 40.135-32.539 83.188-72.674 83.188-40.142 0-72.67-43.053-72.67-83.188V612.881c0-40.137 32.528 18.762 72.67 18.762 40.135 0 72.674-58.898 72.674-18.762V742.74zM335.86 784.734c31.341 12.627 46.51 48.268 33.884 79.613L230.612 1202.56c-12.628 31.338-48.271 46.518-79.613 33.883-31.343-12.625-46.515-48.277-33.892-79.615l139.135-338.211c12.626-31.338 48.274-46.512 79.618-33.883z"/><path fill="#61E9FF" d="M341.097 1031.996l-135.101-97.383 54.57-139.582c16.835-41.561 68.735-61.287 110.31-44.453 41.569 16.828 61.626 64.174 44.794 105.748l-74.573 175.67z"/><path fill="#D8724A" d="M375.528 729.707c-.746 5.104-1.363 10.328-1.139 15.633 4.363 103.113 83.193 154.135 142.402 154.135 59.207 0 138.25-36.941 154.135-154.135.715-5.262-.393-10.529-1.139-15.633H375.528z"/><path fill="#893C1D" d="M444.785 645.23s75.088 28.158 144.311 7.041v72.742s-64.529 41.064-144.311 3.52V645.23z"/><path fill="#D8724A" d="M736.57 405.686c-.939-.004-14.391.051-29.307.145l-.059-26.91c-.029-11.732-.213-57.656-.246-67.482-.166-79.223-87.678-150.217-198.133-149.969-110.504.219-199.979 87.236-199.742 197.756.027 9.969.983 7.383 1.004 17.08l.068 32.502c-18.282-.043-14.421-1.006-15.594-1.004-25.483.053-46.131 20.764-46.085 46.283.058 25.525 20.805 46.16 46.291 46.109.987-.002-4.121.922 15.674.828l.009 7.801c.241 114.07 82.894 196.346 196.947 196.117 114.053-.252 199.264-82.588 199.01-196.643l1.15-4.877c17.318.006 28.197-1.91 29.062-1.914 26.092-.043 35.568-22.666 35.516-48.75-.057-26.061-9.471-47.131-35.565-47.072z"/><path fill="#163663" d="M436.923 385.826c0 6.158-4.99 11.146-11.146 11.146h-36.371c-6.154 0-11.146-4.988-11.146-11.146 0-6.154 4.991-11.145 11.146-11.145h36.371c6.156.001 11.146 4.991 11.146 11.145zm201.206-1.76c0 6.156-4.99 11.146-11.145 11.146h-36.371c-6.156 0-11.146-4.99-11.146-11.146 0-6.156 4.99-11.146 11.146-11.146h36.371c6.155 0 11.145 4.99 11.145 11.146z"/><path fill="#BC1D47" d="M563.492 572.43c-1.107-11.381-21.141-22.932-32.758-22.932-9.096 0-16.907 8.105-20.41 15.934-3.504-7.828-11.315-15.934-20.411-15.934-11.616 0-32.969 11.551-34.074 22.932h11.031c2.202 22.041 20.717 39.25 43.233 39.25 22.517 0 39.714-17.209 41.917-39.25h11.472z"/><path fill="#FFFDFE" d="M484.189 570.803h51.354s-5.266 16.318-26.774 15.875c-21.507-.44-24.58-15.875-24.58-15.875z"/><path fill="#163663" d="M417.254 431.506c-12.274-3.293-24.841 2.758-30.18 13.795l-17.011-6.361s.865 38 33.682 42.875c14.233 2.119 28.186-4.508 31.915-18.396 3.728-13.905-4.53-28.189-18.406-31.913zm177.779-1.555c12.244-3.346 24.838 2.643 30.219 13.674l13.588-6.088s2.701 37.646-30.104 42.66c-14.211 2.195-28.191-4.381-31.982-18.246-3.791-13.896 4.398-28.211 18.279-32z"/><path fill="#163663" d="M257.26 736.988c-12.688 0-23.127-10.121-23.446-22.879-5.145-205.691 26.63-367.359 27.986-374.141 12.338-61.32 47.299-109.695 91.248-126.277 29.321-11.064 58.927-6.912 83.357 11.684 10.312 7.85 12.308 22.572 4.458 32.885-7.852 10.311-22.572 12.303-32.884 4.457-11.418-8.693-24.326-10.416-38.365-5.117-28.511 10.758-52.77 46.711-61.8 91.598-.315 1.576-32.093 163.557-27.085 363.74.323 12.953-9.916 23.721-22.872 24.045-.198.003-.399.005-.597.005zm212.244-510.599c-7.305 0-14.502-3.4-19.086-9.791-24.053-33.529-61.667-26.053-63.259-25.721l.212-.047s-23.823-1.873-28.146-21.297c-4.321-19.424 17.593-24.434 17.593-24.434 2.807-.648 69.186-15.168 111.733 44.143 7.554 10.529 5.141 25.191-5.39 32.744a23.353 23.353 0 0 1-13.657 4.403zm58.603-32.893c-7.723 0-15.284-3.809-19.767-10.789-10.468-16.299-21.119-24.637-28.213-28.758-6.206-3.609-10.658-4.65-12.284-4.93-12.102-2.086-20.605-12.746-19.78-24.799.821-12.004 10.658-21.449 22.684-21.857a23.348 23.348 0 0 1 6.299.635c13.379 2.598 44.21 12.969 70.785 54.35 7.002 10.904 3.84 25.422-7.064 32.424a23.395 23.395 0 0 1-12.66 3.724zm73.778 6.242c-9.502 0-18.441-5.812-21.975-15.232-7.121-18.988-21.822-33.254-21.967-33.396-9.422-8.898-9.812-23.715-.914-33.139 8.898-9.422 23.785-9.811 33.207-.912 2.299 2.17 22.77 22.043 33.615 50.967 4.551 12.135-1.598 25.66-13.73 30.211a23.445 23.445 0 0 1-8.236 1.501zm173.558 554.123c-12.441 0-22.814-9.777-23.418-22.336-10.475-217.289-46.434-407.166-48.838-419.658-16.549-64.158-35.867-93.631-61.646-120.33-9.002-9.322-8.742-24.178.58-33.18 9.324-9.002 24.178-8.742 33.18.58 30.322 31.404 54.43 67.559 73.518 141.939.111.434.211.871.297 1.312.389 1.971 38.832 199.805 49.785 427.076.625 12.943-9.363 23.945-22.309 24.566-.383.022-.768.031-1.149.031z"/><path fill="#163663" d="M736.307 410.691h-59.836c-12.961 0-23.465-10.506-23.465-23.465 0-12.961 10.504-23.465 23.465-23.465h59.836c12.959 0 23.465 10.504 23.465 23.465-.001 12.96-10.506 23.465-23.465 23.465zm-59.862-66.875c-12.182 0-22.475-9.41-23.377-21.754-.947-12.922 8.766-24.168 21.688-25.113l48.105-3.52c12.963-.971 24.17 8.764 25.115 21.688.945 12.926-8.766 24.17-21.689 25.115l-48.104 3.52c-.583.045-1.163.064-1.738.064zm-7.019-63.349c-9.824 0-18.979-6.219-22.256-16.053-4.1-12.293 2.545-25.582 14.84-29.68l31.678-10.561c12.293-4.098 25.584 2.547 29.682 14.842 4.098 12.293-2.545 25.582-14.842 29.682l-31.678 10.559a23.453 23.453 0 0 1-7.424 1.211z"/></g></svg>