<svg xmlns="http://www.w3.org/2000/svg" xmlns:xlink="http://www.w3.org/1999/xlink" width="1024" height="1024" viewBox="3 5 1024 1024"><circle fill="#EF6100" cx="515" cy="517" r="512"/><defs><circle id="a" cx="515" cy="517" r="512"/></defs><clipPath id="b"><use xlink:href="#a" overflow="visible"/></clipPath><g clip-path="url(#b)"><path fill="#FFEE73" d="M818.281 643.25c0-17.102-6.594-33.422-18.078-45.662 10.189-11.912 15.854-27.115 15.854-43.266a66.807 66.807 0 0 0-14.002-40.899c10.418-12.033 16.227-27.398 16.227-43.584 0-16.207-5.801-31.568-16.207-43.586a66.767 66.767 0 0 0 13.982-40.896c0-19.797-8.861-38.396-23.74-50.961 6.768-10.621 10.4-22.955 10.4-35.746a66.573 66.573 0 0 0-34.695-58.529 66.731 66.731 0 0 0 3.57-21.506c0-35.732-28.248-64.992-63.586-66.625-2.799-34.219-31.543-61.211-66.473-61.211a66.886 66.886 0 0 0-21.535 3.568 67.26 67.26 0 0 0-18.871-24.344c-11.814-9.543-26.678-14.795-41.854-14.795-18.465 0-36.143 7.867-48.646 21.141-11.715-9.307-26.239-14.473-41.394-14.473-15.177 0-30.04 5.254-41.853 14.797a67.24 67.24 0 0 0-18.871 24.344 66.81 66.81 0 0 0-21.536-3.568c-34.929 0-63.673 26.992-66.473 61.211-35.337 1.633-63.585 30.893-63.585 66.625a66.767 66.767 0 0 0 3.569 21.506 66.573 66.573 0 0 0-34.695 58.529 66.37 66.37 0 0 0 10.382 35.707c-14.867 12.543-23.721 31.152-23.721 50.998 0 14.895 5.012 29.289 14.021 40.904a66.406 66.406 0 0 0-16.245 43.578c0 16.17 5.814 31.531 16.245 43.581-9.01 11.615-14.021 26.01-14.021 40.904 0 16.123 5.673 31.334 15.882 43.277-11.502 12.27-18.105 28.588-18.105 45.65 0 19.605 8.653 38.02 23.215 50.561-7.789 11.135-12.099 24.568-12.099 38.369 0 36.203 29.292 65.994 65.416 66.684 33.266 3.705 91.45 10.33 101.189 11.953 13.762 2.293 152.599 14.396 168.375 15.77l2.854.25 155.037-28.6 7.43-8.73a66.31 66.31 0 0 0 18.822 2.701c36.777 0 66.697-29.922 66.697-66.697 0-13.746-4.299-27.146-12.064-38.271 14.542-12.487 23.182-30.932 23.182-50.659zM288.042 763.305c-13.485 0-24.456-10.971-24.456-24.455 0-10.703 6.847-20.072 17.038-23.309l108.77-34.559-113.935-6.656c-12.892-.754-22.988-11.473-22.988-24.406 0-11.656 8.281-21.744 19.69-23.986l93.004-18.285-91.967-22.934c-10.895-2.717-18.505-12.473-18.505-23.723a24.466 24.466 0 0 1 14.703-22.428l47.83-20.854-48.867-18.288c-9.504-3.559-15.889-12.768-15.889-22.916 0-10.146 6.385-19.354 15.888-22.91l48.868-18.291-47.829-20.852a24.47 24.47 0 0 1-14.704-22.43c0-12.346 9.224-22.775 21.456-24.262l74.495-9.043-68.276-31.141c-8.709-3.971-14.335-12.707-14.335-22.26 0-13.475 10.952-24.438 24.424-24.455l60.113 1.732-44.92-38.801a24.457 24.457 0 0 1-8.493-18.512c0-13.484 10.972-24.457 24.456-24.457 4.453 0 8.805 1.207 12.587 3.486l67.754 40.84-38.382-69.176a24.44 24.44 0 0 1-3.053-11.832c0-13.486 10.971-24.457 24.455-24.457a24.464 24.464 0 0 1 20.312 10.832l63.203 93.879-25.088-110.355a24.753 24.753 0 0 1-.623-5.471c0-13.484 10.971-24.455 24.456-24.455 11.467 0 21.521 8.119 23.909 19.307l32.125 150.539 9.609-153.625c.803-12.836 11.52-22.891 24.396-22.891 13.484 0 24.455 10.971 24.455 24.455a24.73 24.73 0 0 1-.623 5.473L558.02 237.732l63.203-93.881a24.46 24.46 0 0 1 20.311-10.832c13.484 0 24.455 10.973 24.455 24.457a24.43 24.43 0 0 1-3.053 11.832l-38.381 69.176 67.754-40.84a24.375 24.375 0 0 1 12.586-3.484c13.486 0 24.455 10.971 24.455 24.455a24.46 24.46 0 0 1-8.492 18.514l-44.918 38.799 59.363-1.707.717-.025c13.486 0 24.457 10.971 24.457 24.455 0 8.803-4.783 16.969-12.48 21.311l-12.979 7.316 5.404 31.219 14.018 2.947c11.227 2.365 19.375 12.422 19.375 23.914 0 8.549-4.361 16.34-11.666 20.838l-12.174 7.498 2.652 15.33-.486 13.137 11.309 6.295c7.766 4.326 12.59 12.52 12.59 21.385 0 9.494-5.574 18.209-14.197 22.203l-11.754 5.443-1.068 29.002 11.73 6.195c8.059 4.258 13.064 12.549 13.064 21.639 0 9.414-5.262 17.834-13.732 21.982l-11.834 5.793v33.176l12.871 5.463a24.426 24.426 0 0 1 14.92 22.514c0 12.133-8.678 22.289-20.633 24.154l-12.939 2.02-10.342 32.742 17.781 7.453a24.414 24.414 0 0 1 15.016 22.561c0 13.484-10.971 24.455-24.455 24.455a24.324 24.324 0 0 1-13.229-3.895l-15.549-10.049-19.91 23.4-134.635 24.836c-58.675-5.113-153.351-13.625-162.251-15.109-13.019-2.17-89.292-10.689-104.53-12.385l-1.158-.129h-1.164z"/><path fill="#FFBF1F" d="M797.16 643.25c0-18.857-11.459-35.029-27.791-41.959v-6.018c15.139-7.41 25.566-22.959 25.566-40.951 0-17.494-9.859-32.674-24.32-40.315l.104-2.801c15.611-7.23 26.441-23.033 26.441-41.367 0-17.133-9.457-32.053-23.434-39.836l.088-2.406-.59-3.418c13.023-8.021 21.711-22.402 21.711-38.822 0-21.938-15.504-40.236-36.146-44.58l-.42-2.42c13.859-7.816 23.227-22.658 23.227-39.707 0-25.17-20.404-45.576-45.576-45.576-.453 0-.902.021-1.355.035 9.676-8.357 15.807-20.705 15.807-34.494 0-25.17-20.404-45.576-45.576-45.576a45.338 45.338 0 0 0-23.49 6.518 45.36 45.36 0 0 0 5.705-22.08c0-25.17-20.404-45.576-45.576-45.576-15.758 0-29.646 7.998-37.832 20.156a45.757 45.757 0 0 0 1.148-10.152c0-25.17-20.404-45.576-45.576-45.576-24.201 0-43.985 18.867-45.476 42.691-4.392-20.582-22.672-36.021-44.563-36.021-25.171 0-45.576 20.406-45.576 45.576 0 3.492.405 6.887 1.148 10.152-8.185-12.158-22.073-20.156-37.832-20.156-25.17 0-45.576 20.406-45.576 45.576a45.366 45.366 0 0 0 5.705 22.08 45.338 45.338 0 0 0-23.49-6.518c-25.171 0-45.576 20.406-45.576 45.576 0 13.787 6.132 26.137 15.807 34.494-.451-.014-.9-.035-1.355-.035-25.171 0-45.576 20.406-45.576 45.576 0 18.434 10.949 34.297 26.691 41.477-22.554 2.738-40.031 21.938-40.031 45.229 0 18.703 11.27 34.766 27.384 41.791-17.293 6.471-29.606 23.141-29.606 42.691 0 19.553 12.313 36.223 29.606 42.694-16.114 7.025-27.384 23.088-27.384 41.791 0 21.354 14.69 39.273 34.515 44.217-20.939 4.115-36.737 22.566-36.737 44.711 0 24.264 18.965 44.094 42.878 45.492-18.416 5.85-31.762 23.082-31.762 43.438 0 25.172 20.405 45.576 45.576 45.576 0 0 90.04 10.004 103.379 12.227 13.34 2.225 166.742 15.562 166.742 15.562l144.83-26.716 12.781-15.02a45.35 45.35 0 0 0 24.689 7.275c25.17 0 45.576-20.404 45.576-45.576 0-18.928-11.543-35.15-27.973-42.037l.592-1.869c21.808-3.402 38.499-22.261 38.499-45.023z"/><path fill="#FFE5B8" d="M692.992 785.5c-30.49 9.764-47.287 42.395-37.523 72.885l108.08 329.211c9.762 30.484 42.395 47.293 72.885 37.521 30.492-9.762 47.295-42.402 37.533-72.887L765.883 823.023c-9.766-30.484-42.401-47.287-72.891-37.523z"/><path fill="#61E9FF" d="M722.068 1106.992l112-138-69.531-168.555c-13.033-40.438-60.711-62.666-101.16-49.635-40.443 13.029-62.67 56.377-49.641 96.826l108.332 259.364z"/><path fill="#61E9FF" d="M704.836 1248.434v-364.87l34.656-17.318 33.348-19.496c0-76.072-60.365-113.855-136.43-113.855H410.942c-76.068 0-132.097 20.229-132.097 96.299l33.349 41.377 21.656 21.666v354.844l370.986 1.353z"/><path fill="#FFE5B8" d="M587.719 744.328c0 38.027-30.83 78.818-68.857 78.818-38.032 0-68.851-40.791-68.851-78.818V621.293c0-38.025 30.819 17.779 68.851 17.779 38.027 0 68.857-55.805 68.857-17.779v123.035zm-239.555 39.789c29.694 11.965 44.065 45.734 32.104 75.432L248.446 1179.99c-11.965 29.691-45.734 44.072-75.431 32.104-29.695-11.963-44.07-45.744-32.11-75.434l131.824-320.439c11.963-29.692 45.738-44.067 75.435-32.104z"/><path fill="#61E9FF" d="M314.076 1076.182l-178.008 8.811 140.76-291.119c15.95-39.377 65.124-58.066 104.513-42.117 39.385 15.945 58.388 60.803 42.441 100.191l-109.706 224.234z"/><path fill="#FFE5B8" d="M385.749 731.982c-.707 4.834-1.293 9.785-1.08 14.811 4.134 97.695 78.822 146.035 134.919 146.035 56.098 0 130.986-35 146.037-146.035.676-4.984-.373-9.977-1.08-14.811H385.749z"/><path fill="#EAA688" d="M450.254 646.389s71.142 26.678 136.728 6.668v68.92s-61.139 38.908-136.728 3.336v-78.924z"/><path fill="#F9F0CA" d="M716.703 424.984c-.889-.002-2.518.047-16.65.137l-.055-25.496c-.029-11.115-.201-32.395-.232-41.705-.158-75.059-83.072-142.322-187.724-142.086-104.697.205-189.471 60.42-189.248 165.131.026 9.445.931 6.994.951 16.184l.065 30.795c-17.32-.041-13.663-.955-14.774-.953-24.145.049-43.706 19.672-43.663 43.85.055 24.186 19.712 43.736 43.858 43.689.937-.002-3.904.873 14.851.783l.009 7.391c.228 108.078 78.538 186.029 186.599 185.812 108.061-.238 188.793-78.246 188.553-186.309l1.092-4.621c16.406.004 15.598-.698 16.418-.702 24.721-.041 44.816-22.586 44.766-47.303-.058-24.689-20.093-44.652-44.816-44.597z"/><circle fill="#26CAEF" cx="585.647" cy="440.63" r="21.677"/><path fill="#163663" d="M633.447 441.187h-47.799c-1.004 0-19.758.158-20.666.449.102 3.996-1.012 11.559-1.012 22.895 0 12.893 10.453 23.344 23.344 23.344 12.893 0 23.346-10.451 23.346-23.344 0-1.523-.158-3.008-.436-4.447h9.883c15.008-.001 13.34-18.897 13.34-18.897z"/><circle fill="#26CAEF" cx="425.077" cy="440.63" r="21.676"/><path fill="#163663" d="M377.278 441.187h47.799c1.004 0 19.757.158 20.664.449-.1 3.996 1.012 11.559 1.012 22.895 0 12.893-10.451 23.344-23.344 23.344-12.892 0-23.344-10.451-23.344-23.344 0-1.523.156-3.008.435-4.447h-9.884c-15.006-.001-13.338-18.897-13.338-18.897z"/><path fill="#FF617F" d="M563.836 582.967c-1.049-10.781-20.031-21.727-31.037-21.727-8.617 0-16.02 7.68-19.337 15.096-3.319-7.416-10.721-15.096-19.338-15.096-11.006 0-31.236 10.945-32.285 21.727h10.453c2.086 20.885 19.627 37.189 40.962 37.189 21.333 0 37.627-16.305 39.713-37.189h10.869z"/><path fill="#163663" d="M447.252 378.38c0 5.832-4.729 10.561-10.561 10.561h-34.46c-5.831 0-10.56-4.729-10.56-10.561 0-5.834 4.729-10.561 10.56-10.561h34.46c5.833.001 10.561 4.727 10.561 10.561z"/><path fill="#163663" d="M458.368 378.38c0 5.832-4.729 10.561-10.56 10.561h-34.46c-5.832 0-10.561-4.729-10.561-10.561 0-5.834 4.729-10.561 10.561-10.561h34.46c5.831.001 10.56 4.727 10.56 10.561zm157.849 0c0 5.832-4.729 10.561-10.561 10.561h-34.459c-5.832 0-10.561-4.729-10.561-10.561 0-5.834 4.729-10.561 10.561-10.561h34.459c5.832.001 10.561 4.727 10.561 10.561z"/><path fill="#FFFDFE" d="M488.7 581.426h48.656s-4.99 15.461-25.367 15.041c-20.377-.416-23.289-15.041-23.289-15.041z"/><path fill="#FFAB8D" d="M433.612 520.418c0 9.209-7.465 16.674-16.674 16.674h-22.232c-9.209 0-16.674-7.465-16.674-16.674s7.465-16.674 16.674-16.674h22.232c9.209 0 16.674 7.464 16.674 16.674zm213.429-1.111c0 9.209-7.465 16.674-16.674 16.674h-22.232c-9.209 0-16.674-7.465-16.674-16.674s7.465-16.676 16.674-16.676h22.232c9.209-.001 16.674 7.466 16.674 16.676z"/><path fill="#FFBF1F" d="M743.316 342.472l4.932-83.84-157.85-88.93s-3.484 4.104-7.65 10.557c-7.445-6.566-17.215-10.557-27.92-10.557-15.604 0-29.223 8.469-36.537 21.055.096-.596.191-1.193.266-1.797 3.047-24.865-14.639-47.494-39.507-50.543-24.865-3.049-47.496 14.641-50.545 39.506a45.797 45.797 0 0 0-.326 6.072 45.156 45.156 0 0 0-25.827-12.232c-24.865-3.047-47.496 14.641-50.544 39.508-1.506 12.295 2.062 24.039 9.055 33.145-.551-.088-1.103-.178-1.662-.246-24.867-3.049-47.497 14.641-50.545 39.506-2.054 16.766 5.324 32.504 17.966 41.92-21.175 1.543-39.004 17.852-41.685 39.725-3.047 24.865 14.642 47.496 39.508 50.543 24.867 3.047 47.497-14.641 50.545-39.506 2.056-16.766-5.323-32.504-17.965-41.92 21.173-1.543 39.003-17.854 41.684-39.723 1.507-12.295-2.062-24.041-9.056-33.145.553.086 1.104.178 1.662.246 24.868 3.047 47.498-14.639 50.547-39.506.25-2.045.347-4.07.325-6.074a45.162 45.162 0 0 0 25.826 12.232c18.78 2.303 36.276-7.225 45.034-22.734a42.532 42.532 0 0 0-.459 6.211c0 23.328 18.914 42.242 42.242 42.242a42.17 42.17 0 0 0 11.633-1.637 42.133 42.133 0 0 0-2.74 14.975c0 23.328 18.912 42.242 42.24 42.242a42.05 42.05 0 0 0 21.375-5.811 42.02 42.02 0 0 0-5.812 21.373c0 23.328 18.914 42.24 42.242 42.24a42.085 42.085 0 0 0 18.453-4.234 42.086 42.086 0 0 0-2.891 15.352c0 23.328 18.912 42.24 42.24 42.24 23.33 0 42.242-18.912 42.242-42.24-.001-15.375-8.216-28.826-20.496-36.215z"/><path fill="#FFEE73" d="M448.114 235.289a11.092 11.092 0 0 1-7.861-3.254c-13.938-13.939-20.934-29.014-20.796-44.807.104-12.008 4.461-21.941 8.671-28.76-8.373-7.701-13.632-16.975-15.676-27.684-5.248-27.484 8.088-42.67 8.895-43.777 3.619-4.961 16.135-17.162 21.09-13.545 4.951 3.611 6.044 10.545 2.449 15.504-.141.195-14.062 19.791-10.579 37.734 1.578 8.133 6.581 14.762 15.296 20.264a11.12 11.12 0 0 1 1.786 17.399c-.039.039-9.687 9.801-9.7 23.283-.012 9.533 4.795 19.178 14.285 28.666 4.342 4.34 4.342 11.379 0 15.723a11.092 11.092 0 0 1-7.86 3.254z"/><path fill="#BA0F30" d="M678.348 436.39c-15.24-7.041-16.775-24.623-18.262-35.045-19.232-1.639-34.619-8.359-45.844-20.045-12.205-12.705-16.307-28.27-17.656-38.342-26-4.918-40.191-21.258-47.678-34.875-4.014-7.305-6.475-14.514-7.967-20.24-.203.004-.406.004-.609.004-19.312.002-34.425-14.594-43.236-27.895-23.633 8.654-51.834-2.701-53.21-3.266l8.454-20.562-4.227 10.281 4.203-10.293c7.693 3.123 30.324 9.227 42.482.105l11.029-8.273 5.745 12.535c.13.281 14.604 30.795 34.733 24.1l13.434-4.48 1.16 14.113c.162 1.787 4.547 44.834 46.951 47.811l10.836.76-.51 10.852c-.004.129-.537 19.26 12.242 32.414 8.68 8.934 21.887 13.461 39.264 13.461.23 0 .461 0 .695-.002l11.635-.08-.453 11.629c-.004.15-.453 20.164 11.801 31.16 7.426 6.662 18.641 9.002 33.334 6.961.001-.001-18.477 21.015-48.346 7.212z" opacity=".3"/><path fill="#FFEE73" d="M722.682 433.156c-28.809 0-52.246-23.438-52.246-52.246 0-.467.006-.936.018-1.402a53.42 53.42 0 0 1-5.576.291c-28.809 0-52.246-23.438-52.246-52.246 0-1.975.113-3.941.334-5.891a52.341 52.341 0 0 1-5.891.332c-28.809 0-52.246-23.436-52.246-52.244 0-1.133.035-2.26.107-3.381-17.238-1.305-30.518-7.625-39.472-18.791-4.237-5.283-6.954-10.988-8.678-16.416-10.838 7.809-24.349 11.242-38.879 9.459-6.029-.738-11.792-2.418-17.137-4.969-3.321 10.623-9.771 19.984-18.729 26.984-7.355 5.748-15.848 9.473-24.8 10.986 2.651 7.789 3.534 16.139 2.507 24.533-2.429 19.811-15.275 36.307-32.771 43.988 7.334 10.908 10.694 24.26 9.053 37.654-3.716 30.299-31.39 51.928-61.692 48.219-5.485-.674-9.386-5.664-8.713-11.146.673-5.486 5.669-9.377 11.147-8.715 19.354 2.383 37.023-11.439 39.396-30.791 1.541-12.574-3.827-25.096-14.01-32.682a10.008 10.008 0 0 1-3.629-10.824 10.007 10.007 0 0 1 8.877-7.178c16.771-1.223 30.432-14.242 32.48-30.959 1.135-9.258-1.373-18.434-7.059-25.834a10.005 10.005 0 0 1 9.505-15.977l.159.027c.381.061.762.123 1.146.168 9.386 1.156 18.64-1.42 26.08-7.236 7.441-5.816 12.172-14.182 13.32-23.557.186-1.508.271-3.104.254-4.748a10.002 10.002 0 0 1 16.921-7.334c5.535 5.299 12.494 8.594 20.126 9.529 15.005 1.842 27.788-4.602 35.079-17.678a10.003 10.003 0 0 1 18.65 6.23c-.062.615-1.404 15.572 7.244 26.039 5.387 6.525 13.916 10.252 25.346 11.078 2.609.197 5.588-.539 8.16-1.275a10.003 10.003 0 0 1 10.117 2.848 10.003 10.003 0 0 1 1.99 10.318 32.107 32.107 0 0 0-2.092 11.428c0 17.773 14.463 32.236 32.238 32.236a32.188 32.188 0 0 0 16.303-4.43 10.003 10.003 0 0 1 13.694 13.694 32.19 32.19 0 0 0-4.43 16.303c0 17.775 14.461 32.236 32.236 32.236 4.938 0 9.672-1.086 14.076-3.229a9.995 9.995 0 0 1 11.16 1.645 10.003 10.003 0 0 1 2.535 10.992 32.063 32.063 0 0 0-2.203 11.713c0 17.775 14.461 32.236 32.236 32.236 5.525 0 10.004 4.479 10.004 10.006.005 5.526-4.474 10.007-9.999 10.007z"/><path fill="#BC1D47" d="M288.573 547.533l-46.689 75.59h87.818zm446.866-7.781l-40.017 75.59h82.26z"/></g></svg>