<svg xmlns="http://www.w3.org/2000/svg" xmlns:xlink="http://www.w3.org/1999/xlink" width="1024" height="1024" viewBox="3 5 1024 1024"><circle fill="#EF6100" cx="515" cy="517" r="512"/><defs><path id="a" d="M1027.002 517c0 282.77-229.232 512-512.004 512-282.768 0-512-229.23-512-512S232.23 5 514.998 5c282.772 0 512.004 229.23 512.004 512z"/></defs><clipPath id="b"><use xlink:href="#a" overflow="visible"/></clipPath><g clip-path="url(#b)"><path fill="#FFEE73" d="M814.697 765.621l-.084-44.527c-.129-61.113-.539-263.376-.541-266.832-.26-121.748-26.967-198.823-49.326-242.041-21.963-42.451-51.217-75.721-86.947-98.881-40.848-26.479-90.412-39.904-147.32-39.904-115.346 0-198.201 40.932-246.271 121.66-32.131 53.961-47.75 123.869-47.75 213.715 0 2.682-.111 213.996-.156 295.191l-.018 38.248c-.012 1.178-.025 11.059.014 11.881l.514 10.664 10.906.088c7.721.061 47.133.355 64.727.355l44.09-.273c97.205-.076 458.162.656 458.162.656zM396.223 147.644c35.85-19.256 81.02-29.02 134.256-29.02 48.041 0 89.334 10.979 122.74 32.634 29.062 18.841 53.082 46.338 71.393 81.728 20.062 38.78 44.031 108.663 44.273 221.341 0 3.303.379 188.957.453 226.14l.08 38.889-8.904.01L747.93 606.34l-37.996 18.977-.779.986c-7.057 8.908-20.172 32.293-32.854 54.904-8.281 14.773-18.383 32.787-22.297 38.238l-96.441.115c-64.658.076-131.1.16-193.48.211l-73.295-96.359-.693 96.607-8.609-.027.01-20.453c.043-81.656.15-288.035.15-290.728 0-81.479 13.541-143.822 41.391-190.6 18.152-30.492 42.777-54.232 73.186-70.567z"/><path fill="#FFBF1F" d="M791.479 455.44c0 4.107.578 287.615.578 287.615l-53.328.061-.568-90.354s-49.363 90.393-57.041 90.402c-96.012.105-217.234.26-314.436.338l-53.834-78.92-.406 79.191c-29.826.246-53.74-.439-53.566.338 0 0 .174-330.799.174-334.17 0-122.044 28.379-312.782 271.428-312.781 223.497 0 260.698 218.102 260.999 358.28z"/><path fill="#FFE5B8" d="M701.172 795.012c-30.986 9.924-48.059 43.086-38.135 74.07l109.84 334.572c9.924 30.98 43.086 48.064 74.074 38.135 30.984-9.924 48.062-43.094 38.143-74.076L775.248 833.146c-9.922-30.982-43.088-48.056-74.076-38.134z"/><path fill="#163663" d="M690.125 1077.359l153.252-47.945-70.623-219.223c-13.248-41.096-61.699-63.684-102.811-50.441-41.102 13.24-63.691 57.295-50.447 98.4l70.629 219.209z"/><path fill="#163663" d="M713.209 1260.965V894.674l35.221-17.602 33.893-19.814c0-77.311-61.35-115.709-138.654-115.709h-229.14c-77.311 0-134.25 20.557-134.25 97.867l33.893 42.051 22.01 22.02v360.621l377.027-3.143z"/><path fill="#FFE5B8" d="M594.184 753.17c0 38.646-31.332 80.102-69.977 80.102-38.652 0-69.973-41.455-69.973-80.102V628.131c0-38.648 31.32 18.066 69.973 18.066 38.645 0 69.977-56.715 69.977-18.066V753.17zm-243.455 40.435c30.176 12.16 44.783 46.48 32.623 76.66l-133.967 325.66c-12.158 30.176-46.477 44.791-76.658 32.627-30.178-12.158-44.789-46.488-32.631-76.662l133.969-325.658c12.158-30.173 46.486-44.785 76.664-32.627z"/><path fill="#163663" d="M341.137 1076.008l-149.344-59.004L278.23 803.52c16.209-40.018 66.184-59.01 106.217-42.801 40.023 16.203 59.338 61.793 43.129 101.822l-86.439 213.467z"/><path fill="#FFE5B8" d="M422.814 740.621a104.221 104.221 0 0 0-1.094 15.053c0 57.012 46.213 103.227 103.223 103.227 57.008 0 103.227-46.215 103.227-103.227 0-5.111-.379-10.139-1.098-15.053H422.814z"/><path fill="#EAA688" d="M454.48 653.633s73.434 27.113 140.086 6.777v70.043s-63.264 39.541-140.086 3.391v-80.211z"/><path fill="#F9F0CA" d="M736.568 428.624c-.904-.003-13.857.048-28.219.139l-.059-25.911c-.027-11.297 2.057-32.923 2.023-42.384-.225-106.41-86.621-167.235-193.039-166.994-106.404.209-192.559 61.403-192.33 167.819.029 9.601.947 29.704.969 39.041l.064 31.297c-17.604-.042-13.885-.971-15.016-.969-24.539.051-44.418 19.993-44.375 44.563.055 24.581 20.033 44.451 44.574 44.402.951-.002-3.971.887 15.092.797l.008 7.51c.232 109.84 79.818 189.062 189.639 188.84 109.822-.24 191.869-79.521 191.625-189.346l1.109-4.695c16.672.006 27.146-1.838 27.98-1.842 25.125-.041 45.547-21.824 45.496-46.943-.054-25.092-20.418-45.38-45.541-45.324z"/><path fill="#FFBF1F" d="M643.359 426.692c-.455-.006-.9-.02-1.354-.066l-49.496-5.162c-6.941-.735-11.994-6.939-11.264-13.883.723-6.936 6.898-11.988 13.879-11.254l49.498 5.152c6.947.729 11.986 6.943 11.25 13.888-.675 6.489-6.142 11.312-12.513 11.325z"/><path fill="#163663" d="M436.887 442.24c-11.82-3.171-23.922 2.655-29.061 13.282l-16.381-6.123s.834 36.59 32.436 41.283c13.705 2.041 27.139-4.342 30.729-17.716 3.587-13.386-4.364-27.139-17.723-30.726zm166.662.762c11.789-3.221 23.916 2.545 29.096 13.164l13.086-5.861s2.6 36.25-28.988 41.078c-13.682 2.112-27.143-4.218-30.797-17.569-3.649-13.38 4.236-27.163 17.603-30.812zm-78.676 183.416c34.242-1.412 60.857-30.285 59.459-64.52l-123.988 5.08c1.41 34.237 30.283 60.846 64.529 59.44z"/><path fill="#FFF" d="M582.207 580.686c1.625-5.973 2.383-12.273 2.018-21.385l-123.967 5.088c.359 9.086 1.621 15.32 3.729 21.135l118.22-4.838z"/><path fill="#FF617F" d="M527.414 626.414c-28.514 1.166-41.059-12.58-41.059-12.58 9.182-7.213 23.613-12.189 40-12.859 14.254-.588 29.885 2.09 39.465 7.057 0-.001-9.89 17.216-38.406 18.382z"/><path opacity=".3" fill="#BA0F30" d="M324.311 393.944h54.316l34.785-30.912v30.502h70.277l29.243-30.502v30.502h196.017l1.815-74.561-152.512-65.524-212.387 40.669-22.594 36.152 2.258 22.594"/><path fill="#FFBF1F" d="M474.035 172.804c-170.736 25.538-164.979 188.709-164.979 188.709h56.488l49.703-56.486 6.783 56.486h47.443l54.23-67.783-1.133 67.783h193.182s-3.104-131.979-112.287-177.12M388.15 430.081c.455-.006.9-.019 1.354-.065L439 424.852c6.941-.734 11.994-6.939 11.266-13.883-.725-6.936-6.9-11.988-13.881-11.254l-49.498 5.152c-6.947.729-11.986 6.943-11.25 13.888.674 6.49 6.142 11.314 12.513 11.326z"/><path fill="#FFEE73" d="M715.754 369.421H514.531l.879-52.667-42.137 52.667h-58.258l.139-45.897-46.035 45.897h-75.605s-3.287-80.963 58.584-144.535c0 0-34.979 58.677-34.979 123.07h44.85l66.932-61.429.145 59.17h36.627l69.715-80.641-.254 81.77h172.125c-2.049-29.75 1.717-50.084-27.082-111.817 52.146 53.449 48.191 134.412 48.191 134.412h-12.614z"/><path fill="#FFAB8D" d="M441.893 530.344c0 9.357-7.584 16.945-16.945 16.945h-22.596c-9.357 0-16.945-7.588-16.945-16.945 0-9.359 7.588-16.946 16.945-16.946h22.596c9.361 0 16.945 7.586 16.945 16.946zm208.996-1.131c0 9.359-7.584 16.947-16.945 16.947H611.35c-9.357 0-16.945-7.588-16.945-16.947 0-9.359 7.588-16.945 16.945-16.945h22.594c9.361 0 16.945 7.586 16.945 16.945z"/><circle fill="#163663" cx="303.99" cy="598.385" r="26.672"/><path fill="#163663" d="M281.838 527.654h42.93l-22.596 35.02zm430.42 2.26h42.931l-22.595 35.02z"/><circle fill="#163663" cx="733.283" cy="598.385" r="26.672"/></g></svg>