<svg xmlns="http://www.w3.org/2000/svg" xmlns:xlink="http://www.w3.org/1999/xlink" width="1024" height="1024" viewBox="3 5 1024 1024"><circle fill="#EF6100" cx="515" cy="517" r="512"/><defs><circle id="a" cx="515" cy="517" r="512"/></defs><clipPath id="b"><use xlink:href="#a" overflow="visible"/></clipPath><g clip-path="url(#b)"><path fill="#FFE5B8" d="M646.135 829.814c-31.139 9.973-48.291 43.295-38.32 74.433l110.373 336.196c9.973 31.133 43.295 48.298 74.434 38.319 31.137-9.97 48.297-43.303 38.328-74.436l-110.38-336.19c-9.97-31.134-43.299-48.292-74.435-38.322z"/><path fill="#163663" d="M635.033 1113.536l153.996-48.181-70.967-220.286c-13.309-41.296-62-63.994-103.309-50.688-41.301 13.305-64 57.574-50.693 98.881l70.973 220.274z"/><path fill="#163663" d="M680.934 1299.168V931.096l35.391-17.687v-17.64c0-77.687-27.592-118.543-105.27-118.543H380.801c-77.683 0-100.844 32.01-100.844 109.697v30.902l22.116 22.125v362.374l378.861-3.156z"/><path fill="#FFE5B8" d="M560.195 754.851c0 129.649-30.348 114.547-69.183 114.547-38.838 0-70.312-41.657-70.312-80.491V663.259c0-38.834 31.475 18.153 70.312 18.153 38.833 0 68.046-56.987 68.046-18.153l1.137 91.592z"/><path fill="#FFE5B8" d="M699.004 550.984c.404 115.331-82.691 199.015-198.026 199.423-115.337.407-199.019-82.689-199.425-198.021l-.739-210.139c-.41-115.32 82.706-193.812 198.036-194.216 115.341-.407 199.169 124.674 199.41 192.812l.744 210.141z"/><path fill="#FFE5B8" d="M348.643 497.63c.083 23.77 14.19 43.359-8.763 46.392-2.008.272-83.376.676-85.452.685-25.774.084-46.771-20.761-46.867-46.576-.088-25.795 20.762-46.787 46.537-46.871 2.136-.01 67.725-.117 69.775.152 22.882 2.961 24.69 22.552 24.77 46.218zm287.48-2.115c.082 24.269-14.164 44.375 9.301 47.307 1.996.257 85.141.088 87.211.076 26.385-.09 47.654-21.514 47.562-47.89-.096-26.345-21.512-47.63-47.9-47.532-2.123.006-69.121.378-71.213.663-23.338 3.192-25.049 23.203-24.961 47.376z"/><path fill="#163663" d="M495.014 639.062c44.482-.161 80.419-36.333 80.263-80.815l-161.083.569c.158 44.482 36.33 80.4 80.82 80.246z"/><path fill="#FFF" d="M571.627 582.521c2.391-7.666 3.678-15.814 3.635-27.636l-161.075.569c.038 11.818 1.376 19.959 3.818 27.607l153.622-.54z"/><path fill="#FF617F" d="M498.247 639.302c-37.045.135-52.633-18.311-52.633-18.311 12.255-8.911 31.213-14.671 52.518-14.745 18.517-.067 38.671 4.158 50.833 11.077 0 0-13.672 21.853-50.718 21.979z"/><path fill="#FF7D08" d="M368.514 393.531c-7.332.028-13.645-5.477-14.465-12.933-.875-7.968 4.871-15.145 12.844-16.018l42.637-4.688c7.953-.91 15.143 4.871 16.021 12.848.873 7.971-4.875 15.143-12.848 16.016l-42.637 4.693c-.521.059-1.039.082-1.552.082z"/><path fill="#EAA688" d="M713.83 473.196h16.166c11.598 0 21 9.402 21 21.001s-9.402 21.001-21 21.001H713.83v-42.002zM419.813 736.563s73.787 27.246 140.765 6.812v18.163s-63.572 28.38-140.765-7.946v-17.029z"/><path fill="#FF7D08" d="M614.877 392.847c7.332.028 13.646-5.475 14.465-12.932.875-7.969-4.871-15.143-12.846-16.018l-42.633-4.688c-7.955-.91-15.143 4.873-16.021 12.848-.875 7.971 4.873 15.143 12.846 16.018l42.637 4.691c.521.057 1.038.081 1.552.081z"/><path fill="#EAA688" d="M384.622 193.937s86.275-55.625 207.742-3.406c9.082 3.582 74.924 43.341 74.924 149.848v108.979h42.305V319.944s6.496-98.645-91.119-160.064c0 0-152.685-83.879-288.341 21.568 0 0-63.562 39.852-60.166 172.552l-1.11 98.394 45.383-.767-.938-109.38c-.001 0-4.739-104.037 71.32-148.31z"/><path fill="#FFE5B8" d="M350.748 831.809c30.325 12.218 45.001 46.705 32.784 77.031l-134.619 327.244c-12.218 30.321-46.704 45.008-77.03 32.783-30.326-12.216-45.006-46.713-32.793-77.034l134.623-327.239c12.216-30.322 46.707-45.002 77.035-32.785z"/><path fill="#163663" d="M341.11 1115.582l-150.069-59.29 86.855-214.52c16.289-40.214 66.506-59.298 106.732-43.013 40.22 16.285 59.626 62.093 43.341 102.318l-86.859 214.505z"/><path fill="#FFE5B8" d="M389.129 777.431a104.371 104.371 0 0 0-1.102 15.127c0 57.287 46.439 103.727 103.727 103.727 57.287 0 103.726-46.439 103.726-103.727 0-5.138-.379-10.189-1.102-15.127H389.129z"/><path fill="#EAA688" d="M271.939 476.602h-16.164c-11.599 0-21.001 9.403-21.001 21.002 0 11.598 9.402 21.001 21.001 21.001h16.164v-42.003zm134.253-316.6s-23.838 47.11 13.622 70.946l238.381 152.109s23.836 15.324 40.863 3.406c17.029-11.918 6.812-52.784 6.812-52.784L406.192 160.002z"/><path fill="#FFBF1F" d="M410.165 148.084s-21 27.243 35.188 64.701c75.462 50.306 204.328 137.923 204.328 137.923s44.271 25.539 90.246-15.325l83.434-76.624s-10.217-11.917-56.191-44.27c-5.908-4.158-188.434-128.84-188.434-128.84s-53.352-56.758-104.431-7.006c-4.406 4.29-64.708 66.035-64.14 69.441z"/><path fill="#FF7D08" d="M731.994 342.647c-24.975 28.38-63.543 19.724-78.641 9.593L418.629 194.745c-15.098-10.131-19.123-30.584-8.994-45.681 10.131-15.098 30.582-19.125 45.682-8.994 0 0 168.119 111.646 222.966 148.03 54.846 36.383 96.848 13.68 96.848 13.68l-43.137 40.867z"/><circle fill="#EAA688" cx="350.003" cy="489.194" r="11.919"/><circle fill="#EAA688" cx="385.195" cy="489.194" r="11.919"/><circle fill="#EAA688" cx="421.521" cy="489.194" r="11.919"/><circle fill="#EAA688" cx="368.166" cy="517.575" r="11.919"/><circle fill="#EAA688" cx="404.492" cy="517.575" r="11.919"/><circle fill="#EAA688" cx="566.245" cy="488.06" r="11.919"/><circle fill="#EAA688" cx="601.437" cy="488.06" r="11.919"/><circle fill="#EAA688" cx="637.763" cy="488.06" r="11.919"/><circle fill="#EAA688" cx="584.408" cy="516.438" r="11.92"/><circle fill="#EAA688" cx="620.733" cy="516.438" r="11.919"/><path fill="#163663" d="M412.436 428.181c0 7.994-6.479 14.473-14.473 14.473h-18.73c-7.993 0-14.473-6.479-14.473-14.473 0-7.992 6.479-14.473 14.473-14.473h18.73c7.994 0 14.473 6.48 14.473 14.473zm210.013 0c0 7.994-6.48 14.473-14.473 14.473h-18.73c-7.994 0-14.475-6.479-14.475-14.473 0-7.992 6.48-14.473 14.475-14.473h18.73c7.993 0 14.473 6.48 14.473 14.473z"/></g></svg>