<svg xmlns="http://www.w3.org/2000/svg" xmlns:xlink="http://www.w3.org/1999/xlink" width="1024" height="1024" viewBox="3 5 1024 1024"><circle fill="#22A1FF" cx="515.001" cy="517" r="512"/><defs><circle id="a" cx="515" cy="517" r="512.001"/></defs><clipPath id="b"><use xlink:href="#a" overflow="visible"/></clipPath><g clip-path="url(#b)"><circle fill="#2F61DD" cx="305.876" cy="486.593" r="16.64"/><path fill="#2F61DD" d="M806.842 754.732l-.084-43.727c-.123-60.008-.527-258.625-.529-262.018-.253-119.555-26.479-195.24-48.437-237.68-21.567-41.686-50.293-74.355-85.381-97.1-40.112-26.002-88.783-39.186-144.663-39.186-113.269 0-194.634 40.195-241.835 119.469-31.552 52.99-46.891 121.637-46.891 209.863 0 2.631-.109 210.137-.15 289.87l-.021 37.561c-.013 1.154-.026 10.857.014 11.664l.507 10.475 10.708.084c7.581.059 46.282.348 63.56.348l43.298-.266c95.453-.075 449.904.643 449.904.643zM395.91 147.894c35.202-18.91 79.56-28.496 131.838-28.496 47.172 0 87.722 10.781 120.525 32.045 28.54 18.502 52.127 45.502 70.106 80.256 19.704 38.082 43.241 106.703 43.475 217.35.002 3.244.373 185.553.447 222.067l.078 38.186-8.744.01-12.358-110.988-37.311 18.637-.766.969c-6.931 8.748-19.808 31.709-32.26 53.914-8.134 14.508-18.053 32.195-21.897 37.549l-94.701.111c-63.494.078-128.74.156-189.994.207l-71.975-94.621-.683 94.865c-3.12-.008-5.928-.018-8.452-.027l.009-20.082c.043-80.186.149-282.844.149-285.489 0-80.01 13.295-141.232 40.643-187.164 17.829-29.943 42.01-53.26 71.871-69.299z"/><path fill="#163663" d="M784.042 450.144c.002 4.031.57 282.428.57 282.428l-52.37.061-.556-88.725s-48.475 88.764-56.015 88.771c-94.282.104-213.319.256-308.77.332l-52.862-77.496-.4 77.762c-29.286.242-52.771-.43-52.601.332 0 0 .171-324.834.171-328.145 0-119.846 27.865-307.145 266.538-307.145 219.469.001 256.002 214.175 256.295 351.825z"/><path fill="#FFE5B8" d="M695.362 783.594c-30.427 9.744-47.19 42.309-37.446 72.736l107.862 328.543c9.742 30.424 42.308 47.197 72.734 37.447 30.43-9.744 47.197-42.318 37.458-72.742L768.106 821.041c-9.747-30.424-42.314-47.189-72.744-37.447z"/><path fill="#FF7D08" d="M684.515 1060.854l150.49-47.082L765.654 798.5c-13.009-40.355-60.589-62.537-100.955-49.533-40.361 13.004-62.544 56.266-49.539 96.631l69.355 215.256z"/><path fill="#FF7D08" d="M707.183 1241.15V881.461l34.586-17.285 33.281-19.457c0-75.918-60.243-113.623-136.151-113.623H413.886c-75.916 0-131.829 20.186-131.829 96.104l33.28 41.293 21.613 21.621v354.123l370.233-3.087z"/><path fill="#FFE5B8" d="M590.304 742.508c0 37.949-30.768 78.658-68.717 78.658-37.953 0-68.711-40.709-68.711-78.658V619.721c0-37.949 30.758 17.74 68.711 17.74 37.949 0 68.717-55.689 68.717-17.74v122.787zm-239.07 39.707c29.635 11.939 43.977 45.641 32.037 75.277l-131.554 319.791c-11.938 29.631-45.64 43.982-75.275 32.037-29.637-11.938-43.982-45.648-32.047-75.279l131.56-319.789c11.937-29.631 45.644-43.977 75.279-32.037z"/><path fill="#FF7D08" d="M341.815 1059.527l-146.65-57.941 84.878-209.635c15.917-39.299 64.991-57.947 104.304-42.033 39.302 15.914 58.268 60.68 42.353 99.988l-84.885 209.621z"/><path fill="#FFE5B8" d="M422.023 730.184a102.081 102.081 0 0 0-1.077 14.783c0 55.982 45.382 101.365 101.365 101.365 55.981 0 101.365-45.383 101.365-101.365 0-5.021-.373-9.957-1.076-14.783H422.023z"/><path fill="#EAA688" d="M453.118 644.764s72.108 26.625 137.561 6.656v68.779s-62.125 38.828-137.561 3.328v-78.763z"/><path fill="#F9F0CA" d="M730.12 423.81c-.888-.004-13.605.047-27.709.137l-.057-25.443c-.028-11.094 2.018-32.33 1.987-41.621-.221-104.493-85.06-164.221-189.561-163.987-104.485.207-189.086 60.299-188.861 164.797.023 9.428.928 29.168.947 38.338l.064 30.732c-17.285-.041-13.635-.953-14.744-.951-24.096.049-43.618 19.633-43.574 43.76.054 24.139 19.671 43.648 43.769 43.602.935-.002-3.897.871 14.82.783l.009 7.375c.229 107.859 78.379 185.652 186.221 185.436 107.841-.238 188.411-78.09 188.17-185.932l1.09-4.612c16.372.004 26.659-1.807 27.479-1.809 24.67-.043 44.725-21.432 44.675-46.098-.057-24.638-20.054-44.562-44.725-44.507z"/><path fill="#163663" d="M638.593 420.804c-.446-.006-.885-.02-1.33-.064l-48.604-5.07c-6.817-.721-11.779-6.814-11.062-13.633.71-6.811 6.774-11.771 13.629-11.051l48.607 5.059c6.821.717 11.771 6.82 11.047 13.637-.663 6.374-6.031 11.11-12.287 11.122zm-206.08 17.487c-11.605-3.113-23.489 2.607-28.535 13.043l-16.087-6.014s.82 35.93 31.849 40.539c13.458 2.004 26.651-4.264 30.176-17.395 3.524-13.146-4.284-26.652-17.403-30.173zm166.986-.36c11.576-3.164 23.484 2.498 28.572 12.926l12.849-5.756s2.554 35.598-28.462 40.338c-13.438 2.074-26.657-4.143-30.243-17.252-3.584-13.139 4.158-26.674 17.284-30.256zm-87.257 180.11c33.626-1.387 59.76-29.742 58.387-63.357l-121.752 4.988c1.385 33.619 29.734 59.748 63.365 58.369z"/><path fill="#FFF" d="M568.542 573.133c1.598-5.865 2.341-12.053 1.98-21l-121.734 4.996c.355 8.924 1.597 15.043 3.664 20.754l116.09-4.75z"/><path fill="#FF617F" d="M514.736 618.037c-28.001 1.143-40.315-12.354-40.315-12.354 9.013-7.082 23.183-11.973 39.278-12.627 13.995-.578 29.346 2.053 38.751 6.93 0 0-9.711 16.907-37.714 18.051z"/><path fill="#163663" d="M390.201 420.804c.446-.006.884-.02 1.329-.064l48.607-5.07c6.814-.721 11.775-6.814 11.059-13.633-.711-6.811-6.775-11.771-13.629-11.051l-48.608 5.059c-6.821.717-11.77 6.82-11.045 13.637.662 6.374 6.032 11.11 12.287 11.122z"/><path opacity=".3" fill="#BA0F30" d="M325.757 389.375h53.338l34.158-30.358v29.953h69.012l28.713-29.953v29.953h192.486l1.781-73.217-149.764-64.343-208.558 39.937-22.187 35.5 2.219 22.186"/><path fill="#163663" d="M472.319 172.601c-167.66 25.078-162.005 185.307-162.005 185.307h55.47l48.808-55.467 6.66 55.467h46.589l53.254-66.561-1.111 66.561h189.699s-3.049-129.6-110.262-173.928"/><path fill="#2F61DD" d="M709.683 365.673H512.088l.861-51.717-41.378 51.717h-57.209l.136-45.068-45.204 45.068h-74.242s-3.229-79.502 57.528-141.93c0 0-34.349 44.309-34.349 107.541h44.041l65.725-60.32.143 58.102h35.968l68.457-79.188-.246 80.297H701.34c-2.011-29.213 1.688-35.869-26.595-96.49 51.208 52.486 47.325 131.988 47.325 131.988h-12.387z"/><circle fill="#2F61DD" cx="715.229" cy="486.593" r="16.64"/><circle fill="#2F61DD" cx="316.971" cy="486.593" r="16.64"/></g></svg>