<svg xmlns="http://www.w3.org/2000/svg" xmlns:xlink="http://www.w3.org/1999/xlink" width="1024" height="1024" viewBox="3 5 1024 1024"><circle fill="#FFBF1F" cx="515" cy="517" r="512"/><defs><circle id="a" cx="515" cy="517" r="512"/></defs><clipPath id="b"><use xlink:href="#a" overflow="visible"/></clipPath><g clip-path="url(#b)"><path fill="#163663" d="M530.652 65.91l-1.291 3.631-.27-3.631C359.72 105.763 267.185 168.862 267.185 168.862v290.442l60.433-7.051 185.713-256.092 186.693 256.092 60.432 7.051V179.932c-.001 0-91.882-75.276-229.804-114.022z"/><path fill="#D8724A" d="M678.264 825.137c-30.363 9.723-47.092 42.219-37.367 72.58l107.631 327.846c9.723 30.359 42.219 47.098 72.582 37.369 30.365-9.723 47.098-42.229 37.377-72.588L750.852 862.502c-9.725-30.357-42.225-47.09-72.588-37.365z"/><path fill="#61E9FF" d="M667.438 1101.809l150.172-46.984-69.203-214.812c-12.98-40.271-60.461-62.406-100.744-49.43-40.273 12.977-62.408 56.145-49.432 96.424l69.207 214.802z"/><path fill="#61E9FF" d="M690.059 1281.723V922.795l34.512-17.248 33.211-19.416c0-75.754-60.117-113.383-135.865-113.383H397.383c-75.752 0-131.548 20.145-131.548 95.9l33.21 41.205 21.565 21.576V1284.8l369.449-3.077z"/><path fill="#D8724A" d="M573.426 784.135c0 37.869-30.701 78.492-68.57 78.492-37.873 0-68.566-40.623-68.566-78.492V661.611c0-37.869 30.693 17.703 68.566 17.703 37.869 0 68.57-55.572 68.57-17.703v122.524z"/><path fill="#FDEBDF" d="M729.197 471.916c16.035-.056 29.051 12.88 29.107 28.895.057 16.02-12.867 29.044-28.904 29.1-16.012.062-29.041-12.873-29.1-28.893-.056-16.019 12.88-29.049 28.897-29.102"/><path fill="#D8724A" d="M707.68 549.912c.395 112.465-80.637 194.07-193.107 194.469-112.469.396-194.074-80.635-194.471-193.102l-.719-204.919c-.148-41.341 2.699-106.65 41.168-129.604 37.161-22.173 52.059-61.517 156.793-61.517 107.832 0 140.203 47.096 160.514 71.955 28.992 35.482 28.994 88.735 29.096 117.797l.726 204.921z"/><path fill="#163663" d="M508.758 635.801c43.376-.156 78.421-35.43 78.269-78.808l-157.082.556c.155 43.376 35.429 78.402 78.813 78.252z"/><path fill="#FFF" d="M583.467 580.664c2.332-7.475 3.586-15.42 3.545-26.949l-157.072.557c.037 11.523 1.34 19.463 3.723 26.92l149.804-.528z"/><path fill="#FF617F" d="M511.911 636.035c-36.123.133-51.324-17.856-51.324-17.856 11.951-8.689 30.436-14.307 51.211-14.378 18.058-.064 37.71 4.055 49.572 10.802-.001 0-13.335 21.309-49.459 21.432z"/><path fill="#163663" d="M390.936 359.839c-7.15.028-13.307-5.338-14.105-12.609-.852-7.771 4.75-14.77 12.525-15.621l41.576-4.571c7.758-.889 14.766 4.75 15.623 12.527.852 7.773-4.752 14.768-12.527 15.619l-41.578 4.578a14.06 14.06 0 0 1-1.514.077z"/><path fill="#893C1D" d="M435.426 730.881s71.955 26.568 137.267 6.643v24.354s-61.992 27.674-137.267-7.748v-23.249z"/><path fill="#163663" d="M636.713 359.174c7.148.025 13.307-5.342 14.105-12.613.854-7.77-4.75-14.767-12.525-15.618l-41.576-4.57c-7.756-.89-14.766 4.749-15.623 12.526-.852 7.773 4.754 14.768 12.527 15.619l41.578 4.576c.508.057 1.014.08 1.514.08z"/><path fill="#D8724A" d="M334.866 823.758c29.572 11.916 43.882 45.545 31.97 75.119L235.562 1217.99c-11.915 29.568-45.544 43.889-75.118 31.971-29.572-11.914-43.887-45.553-31.978-75.121l131.278-319.11c11.913-29.57 45.548-43.884 75.122-31.972z"/><path fill="#61E9FF" d="M325.468 1100.482l-146.34-57.816 84.697-209.191c15.884-39.213 64.854-57.824 104.08-41.941 39.223 15.877 58.146 60.549 42.266 99.775l-84.703 209.173z"/><path fill="#D8724A" d="M405.504 771.84a102.04 102.04 0 0 0-1.074 14.75c0 55.865 45.285 101.15 101.15 101.15 55.863 0 101.148-45.285 101.148-101.15 0-5.01-.371-9.936-1.074-14.75h-200.15zm-23.982-278.385c.082 23.18 13.838 42.282-8.545 45.238-1.959.268-81.307.659-83.33.67-25.134.082-45.609-20.246-45.703-45.422-.085-25.152 20.246-45.625 45.381-45.707 2.083-.006 66.043-.114 68.043.151 22.312 2.887 24.076 21.992 24.154 45.07z"/><path fill="#893C1D" d="M318.901 472.949h-26.833c-11.31 0-20.479 9.17-20.479 20.48s9.169 20.479 20.479 20.479h26.833v-40.959z"/><path fill="#D8724A" d="M643.039 495.82c.082 23.664-13.812 43.272 9.07 46.131 1.947.252 83.025.087 85.047.076 25.727-.089 46.469-20.981 46.379-46.701-.094-25.689-20.979-46.447-46.711-46.352-2.07.006-67.404.369-69.443.648-22.758 3.112-24.426 22.625-24.342 46.198z"/><path fill="#893C1D" d="M708.854 477.377h26.834c11.311 0 20.479 9.17 20.479 20.48s-9.168 20.479-20.479 20.479h-26.834v-40.959z"/><path fill="#163663" d="M435.532 444.658c.043 12.545-10.107 22.764-22.65 22.807-12.551.043-22.771-10.098-22.812-22.646-.043-12.558 10.102-22.769 22.654-22.812 12.538-.042 22.761 10.09 22.808 22.651zm197.62-.576c.041 12.543-10.104 22.764-22.646 22.805-12.553.046-22.771-10.101-22.816-22.643-.045-12.562 10.104-22.77 22.654-22.812 12.545-.044 22.761 10.089 22.808 22.65zm12.174-301.788c0-23.999-102.969-4.642-122.877-.675-19.91-3.967-122.876-23.324-122.876.675 0 26.568-38.746 73.062-38.746 73.062s28.783-19.926 74.169 3.321l76.383 30.29s43.14-21.157 87.453-38.039c46.494-17.712 78.598 14.391 78.598 14.391s-32.104-56.457-32.104-83.025zM563.408 516.46H454.923s-30.996 0-39.852 35.425h68.633s15.744 1.73 25.461-14.99c9.718 16.721 25.46 14.99 25.46 14.99h68.635c-8.856-35.425-39.852-35.425-39.852-35.425zm-65.312 140.589l-17.713 35.424s26.568 13.285 53.136 2.215l-15.498-37.639h-19.925z"/><path fill="#2F61DD" d="M523.547 45.814C380.753 71.445 289.405 143.508 265.625 154.47v71.957c0-30.993 9.721-49.713 23.615-55.918 77.885-34.787 184.836-57.508 224.354-65.18 39.515 7.672 146.466 30.393 224.353 65.18 13.893 6.205 23.613 24.925 23.613 55.918V154.47c.001.001-198.656-109.62-238.013-108.656z"/></g></svg>