<svg xmlns="http://www.w3.org/2000/svg" xmlns:xlink="http://www.w3.org/1999/xlink" width="1024" height="1024" viewBox="3 5 1024 1024"><circle fill="#EF6100" cx="515" cy="517" r="512"/><defs><circle id="a" cx="515" cy="517" r="512"/></defs><clipPath id="b"><use xlink:href="#a" overflow="visible"/></clipPath><g clip-path="url(#b)"><path fill="#FFE5B8" d="M687.233 803.035c-30.31 9.673-47.032 42.083-37.36 72.392l107.082 327.248c9.674 30.305 42.084 47.037 72.393 37.358 30.309-9.673 47.035-42.091 37.367-72.395L759.628 840.395c-9.672-30.305-42.088-47.033-72.395-37.36z"/><path fill="#163663" d="M676.159 1079.105l149.896-46.736-68.845-214.423c-12.913-40.195-60.27-62.329-100.479-49.42-40.2 12.907-62.33 55.964-49.421 96.171l68.849 214.408z"/><path fill="#163663" d="M698.557 1258.656l.349-358.16 34.456-17.177 33.158-19.342c.073-75.595-59.877-113.2-135.465-113.273l-224.053-.219c-75.59-.074-131.285 19.974-131.359 95.568l33.099 41.15 21.499 21.548-.345 352.616 368.661-2.711z"/><path fill="#FFE5B8" d="M344.568 801.326c29.5 11.919 43.745 45.49 31.83 74.988l-131.305 318.303c-11.919 29.495-45.491 43.752-74.988 31.828-29.497-11.915-43.75-45.496-31.836-74.989l131.307-318.301c11.918-29.493 45.495-43.745 74.992-31.829z"/><path fill="#163663" d="M334.923 1077.451l-145.972-57.838 84.72-208.661c15.888-39.114 64.771-57.637 103.898-41.751 39.122 15.883 57.964 60.477 42.077 99.604l-84.723 208.646z"/><path fill="#FFE5B8" d="M415.107 749.587a101.445 101.445 0 0 0-1.087 14.719c-.054 55.743 45.091 100.978 100.835 101.033 55.744.054 100.979-34.046 101.032-89.79.005-4.999-.36-20.961-1.058-25.767l-199.722-.195z"/><path fill="#EAA688" d="M414.134 726.396s136.949 15.535 202.143-4.284l-.018 61.859s-91.986 67.008-202.142 3.181l.017-60.756z"/><path fill="#FFE5B8" d="M746.232 588.977c0 114.86-105.439 186.472-235.502 186.472-130.064 0-235.502-71.611-235.502-186.472 0-114.864 105.438-186.474 235.502-186.474 130.063 0 235.502 71.609 235.502 186.474z"/><path fill="#FDEBDF" d="M723.071 454.996c15.575-.039 28.205 12.537 28.243 28.094.042 15.558-12.523 28.197-28.101 28.236-15.553.045-28.196-12.532-28.234-28.09-.043-15.562 12.535-28.205 28.092-28.24"/><path fill="#FFE5B8" d="M701.021 530.733c.277 109.24-78.506 188.425-187.751 188.707-109.244.278-188.43-78.507-188.708-187.747l-11.258-199.04c-.281-109.229 89.27-183.497 198.508-183.774C621.063 148.6 711.1 267.152 711.264 331.691l-10.243 199.042z"/><path fill="#FFE5B8" d="M376.743 479.88c.058 22.514 13.401 41.081-8.343 43.931-1.903.258-78.974.564-80.939.573-24.413.056-44.282-19.71-44.349-44.163-.058-24.43 19.709-44.295 44.12-44.352 2.026-.005 64.151-.051 66.094.211 21.669 2.826 23.363 21.385 23.417 43.8zm265.846-1.744c.056 22.985-13.456 42.018 8.766 44.815 1.89.247 80.646.163 82.606.154 24.99-.062 45.158-20.334 45.093-45.316-.067-24.951-20.332-45.135-45.327-45.068-2.01.006-65.471.295-67.451.565-22.108 3.001-23.748 21.952-23.687 44.85z"/><path fill="#EAA688" d="M314.864 459.902l-26.062-.025c-10.986-.011-19.901 8.887-19.911 19.873-.014 10.984 8.887 19.9 19.872 19.911l26.062.026.039-39.785zm393.82.383l26.062.024c10.988.011 19.883 8.926 19.872 19.911-.01 10.985-8.923 19.884-19.911 19.873l-26.062-.025.039-39.783z"/><path fill="#FFBF1F" d="M717.04 250.48h-1.996c0-124.691-94.651-193.824-211.411-193.824-116.758 0-211.412 69.133-211.412 193.824v132.057l219.916-43.01 204.903 43.01V250.48z"/><path fill="#FFEE73" d="M724.021 382.537h-15.957V260.065h-.995v-9.585c0-56.517-20.384-103.902-58.947-137.033-36.229-31.128-87.544-48.271-144.489-48.271-56.942 0-108.258 17.144-144.489 48.271-38.561 33.131-58.944 80.517-58.944 137.033v132.057h-15.954V250.48c0-61.856 22.44-113.832 64.897-150.31 39.057-33.555 93.922-52.034 154.49-52.034 60.57 0 115.435 18.479 154.49 52.034 40.493 34.79 62.78 83.68 64.757 141.79h1.142v140.577z"/><path fill="#FFEE73" d="M382.97 382.537h-13.964V201.492c0-40.205 14.423-78.396 41.707-110.446 20.489-24.071 40.835-36.159 41.688-36.661l6.73 13.062-3.366-6.531 3.372 6.527c-.192.114-19.465 11.627-38.41 34.002-25.055 29.595-37.758 63.256-37.758 100.047v181.045zm259.277 0h-13.96V201.492c0-36.791-12.705-70.452-37.76-100.047-18.943-22.375-38.216-33.888-38.41-34.002l6.734-13.059c.857.502 21.203 12.59 41.692 36.661 27.284 32.05 41.703 70.241 41.703 110.446v181.046z"/><path fill="#163663" d="M581.991 206.166c0 17.814-13.771 32.257-30.755 32.257h-82.008c-16.986 0-30.756-14.442-30.756-32.257v-6.451c0-17.815 13.77-32.258 30.756-32.258h82.008c16.984 0 30.755 14.442 30.755 32.258v6.451z"/><path fill="#FFFEFD" d="M613.957 596.293c0 26.725-21.664 48.391-48.391 48.391H449.429c-26.728 0-48.391-21.666-48.391-48.391 0-26.725 21.663-48.391 48.391-48.391h116.138c26.726 0 48.39 21.666 48.39 48.391z"/><path fill="#EAA688" d="M507.854 738.411c-32.432 0-61.404-20.562-72.09-51.166a8.601 8.601 0 0 1 5.286-10.957c4.487-1.565 9.391.8 10.955 5.285 8.277 23.706 30.723 39.634 55.849 39.634a59.06 59.06 0 0 0 54.496-36.121c1.85-4.375 6.897-6.425 11.272-4.573a8.6 8.6 0 0 1 4.571 11.273 76.227 76.227 0 0 1-70.339 46.625z"/><circle fill="#EAA688" cx="646.609" cy="545.546" r="11.381"/><circle fill="#EAA688" cx="703.985" cy="543.396" r="11.382"/><circle fill="#EAA688" cx="674.564" cy="563.825" r="11.381"/><circle fill="#EAA688" cx="674.564" cy="525.117" r="11.381"/><circle fill="#EAA688" cx="320.809" cy="545.546" r="11.381"/><circle fill="#EAA688" cx="378.188" cy="543.396" r="11.381"/><path fill="#EAA688" d="M360.147 563.825c0 6.287-5.097 11.382-11.381 11.382-6.29 0-11.382-5.095-11.382-11.382s5.092-11.382 11.382-11.382c6.285 0 11.381 5.095 11.381 11.382zm0-38.708c0 6.286-5.097 11.381-11.381 11.381-6.29 0-11.382-5.095-11.382-11.381 0-6.287 5.092-11.384 11.382-11.384 6.285 0 11.381 5.097 11.381 11.384z"/><defs><path id="c" d="M613.957 596.293c0 26.725-21.664 48.391-48.391 48.391H449.429c-26.728 0-48.391-21.666-48.391-48.391 0-26.725 21.663-48.391 48.391-48.391h116.138c26.726 0 48.39 21.666 48.39 48.391z"/></defs><clipPath id="d"><use xlink:href="#c" overflow="visible"/></clipPath><g clip-path="url(#d)"><path fill="#CCC" d="M629.357 596.479a7.526 7.526 0 0 1-7.528 7.526H389.577a7.526 7.526 0 1 1 0-15.052h232.252a7.526 7.526 0 0 1 7.528 7.526z"/></g><path fill="#EAA688" d="M320.762 396.484s19.354 34.406 58.063 15.053c0 0 60.214-38.709 122.577-38.709 62.365 0 125.801 34.414 136.557 40.859 18.106 10.852 52.686 2.151 67.74-19.354 0 0-84.944-63.44-182.791-66.666-109.804-3.619-202.146 68.817-202.146 68.817z"/><path fill="#163663" d="M396.313 454.713c-.287 1.639-.464 3.317-.46 5.04.037 15.751 12.854 28.492 28.608 28.452 15.739-.038 28.492-12.852 28.453-28.598-.004-1.672-.181-3.303-.462-4.895h-56.139zm161.288 1.074a28.57 28.57 0 0 0-.46 5.041c.038 15.751 12.854 28.492 28.606 28.452 15.741-.038 28.493-12.853 28.456-28.599-.005-1.672-.182-3.301-.461-4.895h-56.141z"/><path fill="#FF7D08" d="M650.863 444.869c0 7.721-6.259 13.979-13.979 13.979H368.072c-7.72 0-13.979-6.258-13.979-13.979 0-7.719 6.259-13.979 13.979-13.979h268.812c7.72.001 13.979 6.26 13.979 13.979zM279.746 413.79v22.579h44.619l-.377-38.809zm455.362-3.228v22.583h-44.619l.38-38.811z"/><path fill="#163663" d="M258.253 398.91l23.962-42.105s52.283-85.479 219.037-88.705c166.756-3.227 227.51 82.254 227.51 82.254l35.812 43.408-66.04-4.702-183.269-49.995-74.296 4.836-94.111 45.159-88.605 9.85z"/><path fill="#61E9FF" d="M270.906 413.252c-6.909 0-12.558-5.422-12.653-12.19-.099-6.828 5.487-12.442 12.478-12.539 34.326-.472 90.502-29.554 94.607-31.704 3.903-2.288 35.869-20.35 86.071-28.799 48.175-8.11 123.119-8.522 206.653 35.511 3.533 1.646 55.426 25.39 95.917 19.739 6.907-.965 13.332 3.732 14.321 10.492.988 6.761-3.82 13.023-10.741 13.99-49.517 6.91-108.354-20.917-110.83-22.105l-.448-.225c-34.185-18.054-69.6-29.634-105.266-34.42-28.45-3.818-57.151-3.352-85.309 1.389-47.734 8.035-77.146 25.513-77.436 25.689l-.59.334c-2.63 1.398-64.871 34.263-106.593 34.838h-.181z"/></g></svg>