<svg xmlns="http://www.w3.org/2000/svg" xmlns:xlink="http://www.w3.org/1999/xlink" width="1024" height="1024" viewBox="3 5 1024 1024"><circle fill="#FFBF1F" cx="515" cy="517" r="512"/><defs><circle id="a" cx="515" cy="517" r="512"/></defs><clipPath id="b"><use xlink:href="#a" overflow="visible"/></clipPath><g clip-path="url(#b)"><path fill="#FFE5B8" d="M705.312 783.088c-31.164 9.947-48.357 43.27-38.414 74.432l110.098 336.461c9.947 31.156 43.27 48.361 74.432 38.41 31.162-9.945 48.359-43.277 38.42-74.434L779.744 821.5c-9.943-31.158-43.271-48.355-74.432-38.412z"/><path fill="#61E9FF" d="M671.213 987.43l154.115-48.051-48.07-140.959c-13.275-41.326-61.965-64.084-103.307-50.812-41.332 13.271-64.084 57.541-50.812 98.877l48.074 140.945z"/><path fill="#61E9FF" d="M715.818 1248.129l.357-368.242 35.428-17.66 34.09-19.887c.076-77.723-61.562-116.387-139.275-116.461l-230.362-.227c-77.719-.076-134.982 20.535-135.059 98.258l34.03 42.309 22.104 22.156-.354 362.543 379.041-2.789z"/><path fill="#FFE5B8" d="M348.458 781.332c30.329 12.252 44.976 46.771 32.725 77.098L246.18 1185.695c-12.253 30.324-46.77 44.984-77.098 32.725-30.328-12.25-44.982-46.777-32.732-77.1l135.004-327.264c12.253-30.322 46.775-44.976 77.104-32.724z"/><path fill="#61E9FF" d="M354.439 997.086l-137.588-59.467 63.256-146.391c16.335-40.215 66.595-59.26 106.823-42.926 40.224 16.33 59.594 62.18 43.262 102.406l-75.753 146.378z"/><path fill="#FFE5B8" d="M425.525 705.422a104.255 104.255 0 0 0-1.118 15.133c-.056 57.312 46.361 103.82 103.673 103.877 57.314.057 103.822-35.004 103.877-92.318.006-5.139-.369-21.551-1.086-26.492l-205.346-.2z"/><path fill="#EAA688" d="M424.524 671.578s140.804 15.971 207.833-4.406l-.018 63.602s-94.576 68.895-207.832 3.27l.017-62.466z"/><path fill="#FFE5B8" d="M749.32 531.424c0 118.096-100.865 191.721-225.289 191.721-124.423 0-225.288-73.625-225.288-191.721 0-118.097 100.864-180.364 225.288-180.364S749.32 413.327 749.32 531.424z"/><path fill="#FDEBDF" d="M742.16 405.029c16.012-.041 28.998 12.89 29.039 28.885.041 15.996-12.877 28.99-28.893 29.031-15.992.046-28.99-12.885-29.031-28.88-.045-16 12.889-28.999 28.885-29.036"/><path fill="#FFE5B8" d="M719.488 482.9c.285 112.314-80.717 182.371-193.037 182.662-112.32.285-193.735-69.359-194.021-181.676l-11.575-159.215c-.288-112.303 91.784-188.663 204.098-188.947 112.326-.288 204.898 53.457 205.064 119.815L719.488 482.9z"/><path fill="#FFE5B8" d="M386.082 430.613c.059 23.148 13.778 42.238-8.58 45.168-1.955.267-81.195.582-83.216.59-25.101.057-45.529-20.266-45.599-45.406-.06-25.117 20.264-45.543 45.364-45.601 2.082-.005 65.955-.052 67.952.218 22.281 2.905 24.022 21.984 24.079 45.031zm273.33-1.791c.057 23.633-13.838 43.199 9.01 46.076 1.943.253 82.916.166 84.934.158 25.693-.062 46.428-20.907 46.361-46.592-.068-25.654-20.904-46.406-46.602-46.337-2.068.005-67.314.304-69.352.581-22.73 3.087-24.415 22.571-24.351 46.114z"/><path fill="#EAA688" d="M322.459 410.075l-26.797-.026c-11.295-.012-20.461 9.137-20.472 20.432-.013 11.293 9.137 20.461 20.433 20.473l26.796.026.04-40.905zm404.906.393l26.797.024c11.297.012 20.443 9.177 20.432 20.473-.012 11.295-9.174 20.443-20.471 20.432l-26.797-.024.039-40.905zM421.504 171.807s86.315-55.651 207.839-3.407c9.086 3.583 74.957 43.362 74.957 149.917v63.601h42.326v-84.044s6.498-98.689-91.162-160.139c0 0-152.757-83.918-288.476 21.579 0 0-59.05 39.87-55.651 172.632l-1.111 53.011 40.862-.768-.938-64.001s-4.74-104.088 71.354-148.381z"/><circle fill="#FCFAF0" cx="435.934" cy="231.834" r="22.998"/><path fill="#22A1FF" d="M495.217 377.82c-4.855-5.546-11.795-8.6-19.54-8.6H354.162c-7.719 0-14.695 3.043-19.642 8.568-4.947 5.527-7.202 12.797-6.349 20.47l6.34 57.058c1.7 15.303 15.61 27.754 31.008 27.754h96.529c15.335 0 29.46-12.366 31.487-27.565l7.623-57.18c1.025-7.677-1.085-14.96-5.941-20.505z"/><path fill="#FFF" d="M480.014 391.191c-1.124-1.285-2.82-1.963-4.906-1.963H353.592c-2.144 0-3.924.723-5.149 2.092-1.225 1.369-1.747 3.219-1.511 5.35l6.34 57.059c.608 5.469 6.175 10.451 11.679 10.451h96.528c5.644 0 11.462-5.092 12.208-10.688l7.624-57.179c.276-2.067-.173-3.839-1.297-5.122z"/><path fill="#22A1FF" d="M711.006 377.82c-4.855-5.546-11.795-8.6-19.539-8.6H569.951c-7.719 0-14.695 3.043-19.643 8.568-4.947 5.527-7.201 12.797-6.348 20.47l6.34 57.058c1.699 15.303 15.609 27.754 31.008 27.754h96.529c15.334 0 29.459-12.366 31.486-27.565l7.625-57.18c1.023-7.677-1.087-14.96-5.942-20.505z"/><path fill="#FFF" d="M695.803 391.191c-1.123-1.285-2.82-1.963-4.904-1.963H569.383c-2.145 0-3.926.723-5.15 2.092s-1.746 3.219-1.51 5.35l6.34 57.059c.607 5.469 6.174 10.451 11.678 10.451h96.529c5.643 0 11.461-5.092 12.207-10.688l7.623-57.179c.277-2.067-.172-3.839-1.297-5.122z"/><path fill="#163663" d="M434.359 424.957c.038 11.49-9.26 20.85-20.744 20.887-11.496.039-20.857-9.25-20.896-20.744-.04-11.5 9.252-20.854 20.748-20.892 11.485-.036 20.848 9.245 20.892 20.749zm207.28.02c.039 11.489-9.258 20.85-20.744 20.885-11.494.041-20.855-9.249-20.895-20.742-.039-11.499 9.254-20.854 20.748-20.891 11.486-.037 20.848 9.245 20.891 20.748z"/><path fill="#22A1FF" d="M496.75 433.675l-9.54-12.72c21.475-16.108 39.836-15.115 51.458-11.443 12.459 3.936 19.717 11.572 20.502 12.432l-11.682 10.785c-.053-.057-5.398-5.642-14.227-8.244-11.556-3.403-23.84-.313-36.511 9.19z"/><path fill="#163663" d="M672.943 558.304s-35.492 17.608-51.609-7.666c-1.719-2.692-3.332-5.681-4.801-8.993-6.865-15.489-20.213-21.813-40.129-21.944H463.207c-19.915.131-30.906 6.493-37.858 21.944-1.973 4.384-6.98 8.922-6.98 8.922-18.269 20.928-53.971 6.6-53.971 6.6l-68.9-22.713 23.539 154.145c4.636 21.094 21.215 48.516 26.847 53.215 24.98 20.855 92.49 59.709 132.66 80.049 32.222 16.312 61.353 14.828 97.478-3.289 38.891-19.508 95.295-56.098 124.521-76.76 6.377-4.506 27.67-21.477 32.914-57.701.676-4.668 18.607-154.199 18.607-154.199l-79.121 28.39z"/><path fill="#FFE5B8" d="M413.16 578.876h72.683s38.615-1.136 41.453-31.8c0 0 5.68 31.8 41.453 31.8h69.844l-24.984 60.757s-9.084 40.885-49.969 40.885h-86.88s-42.588-.57-47.699-46.562l-15.901-55.08z"/><path fill="#163663" d="M519.264 660.303c39.086-.139 70.666-31.924 70.529-71.01l-141.545.502c.138 39.084 31.922 70.643 71.016 70.508z"/><path fill="#FFF" d="M586.584 610.621c2.102-6.734 3.232-13.895 3.195-24.283l-141.538.502c.034 10.383 1.209 17.537 3.355 24.258l134.988-.477z"/><path fill="#FF617F" d="M522.104 660.514c-32.551.119-46.248-16.09-46.248-16.09 10.769-7.83 27.426-12.893 46.148-12.957 16.271-.057 33.98 3.654 44.668 9.734 0 0-12.016 19.201-44.568 19.313z"/><path fill="#163663" d="M393.156 360.172c-7.334.028-13.65-5.477-14.47-12.937-.876-7.973 4.871-15.153 12.85-16.027l42.655-4.688c7.958-.912 15.15 4.873 16.029 12.852.874 7.975-4.877 15.15-12.853 16.024l-42.657 4.696c-.521.057-1.041.08-1.554.08zm252.156-.684c7.336.027 13.652-5.479 14.473-12.938.875-7.973-4.873-15.151-12.852-16.024l-42.654-4.689c-7.957-.912-15.148 4.873-16.029 12.853-.873 7.975 4.877 15.149 12.854 16.024l42.658 4.693c.519.06 1.037.081 1.55.081z"/></g></svg>