<svg xmlns="http://www.w3.org/2000/svg" xmlns:xlink="http://www.w3.org/1999/xlink" width="1024" height="1024" viewBox="3 5 1024 1024"><circle fill="#EF6100" cx="515" cy="517" r="512"/><defs><circle id="a" cx="515" cy="517" r="512"/></defs><clipPath id="b"><use xlink:href="#a" overflow="visible"/></clipPath><g clip-path="url(#b)"><path fill="#FFBF1F" d="M782.141 407.756c.002 4.141.953 21.34 1.014 17.236.129-8.582-.43 345.814-.43 345.814l-87.242-80.021c-3.672-.008 2.762 79.371-1.035 80.059-5.762 1.041-137.953-87.846-135.467-81.986 16.148 38.051-70.095-20.328-94.744 3.385-4.606 4.43-137.894 78.645-137.894 78.645-3.104.023.692-79.723-2.281-79.695 0 0-75.976 80.828-75.752 81.822-1.983-460.178-2.506-442.018-2.104-433.945-4.088-85.498 47.627-197.477 181.316-231.225l.772-31.205 166.986 25.652c152.65 37.591 186.56 164.063 186.861 305.464z"/><path fill="#FFE5B8" d="M692.186 795.869c-31.256 10.012-48.479 43.463-38.469 74.719l110.799 337.49c10.01 31.254 43.463 48.482 74.719 38.467 31.26-10.006 48.484-43.469 38.479-74.721L766.908 834.338c-10.01-31.252-43.467-48.479-74.722-38.469z"/><path fill="#163663" d="M658.25 1057l154.588-104.453-48.445-141.365c-13.363-41.453-62.24-64.238-103.707-50.881-41.461 13.355-64.246 57.797-50.889 99.262L658.25 1057z"/><path fill="#163663" d="M704.326 1269.309V895.262l35.529-17.754 34.188-19.988c0-77.984-50.488-116.719-128.467-116.719H403.04c-77.98 0-135.418 20.736-135.418 98.725l34.188 42.416 22.2 22.209v363.77l380.316 1.388z"/><path fill="#FFE5B8" d="M584.264 753.664c0 38.984-31.605 80.803-70.587 80.803-38.989 0-70.584-41.818-70.584-80.803V627.533c0-38.982 31.595 18.225 70.584 18.225 38.982 0 70.587-57.207 70.587-18.225v126.131zm-245.581 40.789c30.441 12.264 45.175 46.883 32.911 77.326l-135.138 328.504c-12.265 30.439-46.884 45.184-77.327 32.91-30.442-12.264-45.179-46.891-32.919-77.328l135.141-328.502c12.265-30.437 46.889-45.175 77.332-32.91z"/><path fill="#163663" d="M363.196 1047L212.548 940.029l53.004-135.574c16.352-40.369 66.762-59.525 107.143-43.178 40.375 16.348 59.856 62.33 43.508 102.713L363.196 1047z"/><path fill="#FFE5B8" d="M377.212 741.004c-.724 4.957-1.324 10.033-1.106 15.188C380.344 856.344 456.912 905.9 514.419 905.9c57.508 0 134.282-35.883 149.709-149.709.693-5.111-.381-10.23-1.105-15.188H377.212z"/><path fill="#EAA688" d="M443.341 653.258s72.932 27.35 140.167 6.838v70.654s-62.676 39.885-140.167 3.418v-80.91z"/><path fill="#F9F0CA" d="M727.889 426.287c-.912-.004-13.977.049-28.465.141l-.057-26.137c-.029-11.396-.207-33.211-.238-42.754-.162-76.947-85.16-145.904-192.446-145.662-107.331.213-194.236 61.939-194.007 169.285.026 9.686.954 7.172.975 16.592l.066 31.566c-17.756-.039-14.006-.977-15.146-.975-24.751.051-44.806 20.168-44.761 44.953.056 24.795 20.207 44.838 44.961 44.787.96-.002-4.002.896 15.225.805l.009 7.576c.234 110.797 80.514 190.709 191.293 190.486 110.779-.244 193.542-80.217 193.294-190.996l1.121-4.736c16.818.004 27.385-1.855 28.225-1.857 25.342-.045 45.945-22.018 45.893-47.354-.058-25.312-20.599-45.777-45.942-45.72z"/><path fill="#FF617F" d="M559.779 588.244c-1.074-11.053-20.533-22.275-31.816-22.275-8.834 0-16.422 7.875-19.824 15.479-3.402-7.604-10.99-15.479-19.825-15.479-11.282 0-32.021 11.223-33.096 22.275h10.715c2.139 21.408 20.121 38.123 41.992 38.123 21.87 0 38.575-16.715 40.713-38.123h11.141z"/><path fill="#FFFDFE" d="M482.754 586.664h49.88s-5.117 15.85-26.005 15.42c-20.889-.428-23.875-15.42-23.875-15.42z"/><path fill="#FFBF1F" d="M251.089 528.016l61.536-98.695v69.066l84.328-186.889 29.63 47.861 58.118-161.818c-18.773 12.516-112.487-56.012-169.797 27.35-75.211 109.398-63.815 303.125-63.815 303.125z"/><path fill="#FFEE73" d="M427.523 107.844l6.47.703 143.009 17.094S724 132.477 746.789 294.856l9.117 165.234 26.211 4.645s8.727-194.432-44.443-275.281C669 85.025 588.971 90.883 588.971 90.883L428.295 76.639l-.772 31.205z"/><path fill="#FFEE73" d="M275.02 404.943v-87.748s1.14-143.586 154.981-184.611v-24.74s-159.54 12.205-184.61 203.654v139.027c0-4.559 29.629-45.582 29.629-45.582z"/><path opacity=".3" fill="#BA0F30" d="M460.199 274.346l128.78 187.924.557-80.236L682.404 523.9l-3.418-70.648 37.557 66.109s30.814-.021 41.07-11.984c10.256-11.965-17.094-111.104-17.094-111.104s-73.498-119.648-78.627-124.777c-5.127-5.127-70.08-34.184-70.08-34.184s-58.115-35.895-63.242-34.186-43.869-5.586-43.869-5.586l-24.502 76.806z"/><path fill="#FFBF1F" d="M424.306 167.23c0 5.129 166.37 249.553 164.661 252.975V330.75l90.592 148.141V407.1l70.65 120.785s27.914-201.691-22.791-286.018c-33.061-54.986-54.697-21.648-92.301-28.486-37.603-6.834-210.811-46.151-210.811-46.151z"/><path fill="#FFEE73" d="M470.459 238.453l118.508 181.752V330.75l90.592 148.141V407.1l104.836 182.322V454.479L656.332 297.902l.354 50.032-101.481-130.116-.047 66.647zM245.972 441.859l93.13-148.713-.259 74.258 83.567-172.826.614 75.942 47.435-32.067-43.876 120.906-29.629-47.861-84.329 186.889V429.32l-65.548 103.192z"/><path fill="#F9F8F7" d="M392.302 542.43c-43.043 0-78.061-47.947-78.061-92.875 0-38.193 23.786-53.58 78.061-53.58s78.061 15.387 78.061 53.58c0 44.927-35.017 92.875-78.061 92.875zm227.915 0c-43.043 0-78.061-47.947-78.061-92.875 0-38.193 23.787-53.58 78.061-53.58s78.061 15.387 78.061 53.58c-.001 44.927-35.018 92.875-78.061 92.875z"/><path fill="#FF7D08" d="M686.016 396.377c-17.217-7.234-39.047-7.811-65.799-7.811s-48.584.576-65.799 7.811c-16.092 6.762-25.922 18.471-29.766 35.535a40.447 40.447 0 0 0-19.533-5.057 40.48 40.48 0 0 0-17.504 4.008c-4.008-16.494-13.756-27.863-29.515-34.486-17.216-7.234-39.047-7.811-65.799-7.811s-48.584.576-65.8 7.811c-21.286 8.945-31.634 26.527-31.634 53.746 0 55.609 43.709 100.852 97.434 100.852 52.769 0 95.87-43.646 97.389-97.895 3.628-4.199 9.421-6.852 15.429-6.852 7.432 0 14.509 4.049 17.615 10.074l.23-.117c3.039 52.797 45.494 94.789 97.252 94.789 53.725 0 97.434-45.242 97.434-100.852 0-27.218-10.347-44.8-31.634-53.745zM392.302 531.602c-43.043 0-78.061-36.551-78.061-81.479 0-38.193 23.786-42.184 78.061-42.184s78.061 3.99 78.061 42.184c0 44.928-35.017 81.479-78.061 81.479zm227.915 0c-43.043 0-78.061-36.551-78.061-81.479 0-38.193 23.787-42.184 78.061-42.184s78.061 3.99 78.061 42.184c-.001 44.928-35.018 81.479-78.061 81.479z"/><path fill="#163663" d="M415.145 432.312c-11.922-3.199-24.128 2.68-29.313 13.398l-16.521-6.176s.84 36.908 32.714 41.643c13.824 2.059 27.377-4.379 30.999-17.869 3.619-13.503-4.401-27.376-17.879-30.996zm181.791-.369c11.893-3.25 24.125 2.566 29.352 13.277l13.197-5.91s2.625 36.566-29.24 41.436c-13.801 2.131-27.379-4.256-31.062-17.723-3.683-13.498 4.27-27.398 17.753-31.08z"/><circle fill="#163663" cx="289.522" cy="545.412" r="25.071"/><circle fill="#163663" cx="732.816" cy="547.691" r="25.07"/></g></svg>