<svg xmlns="http://www.w3.org/2000/svg" xmlns:xlink="http://www.w3.org/1999/xlink" width="1024" height="1024" viewBox="3 5 1024 1024"><circle fill="#EF6100" cx="515" cy="517" r="512"/><defs><circle id="a" cx="515" cy="517" r="512"/></defs><clipPath id="b"><use xlink:href="#a" overflow="visible"/></clipPath><g clip-path="url(#b)"><path fill="#163663" d="M447.635 726.715H732.73s135.418-182.936 102.158-353.992c-33.262-171.057-444.272-21.381-444.272-21.381l57.019 375.373z"/><path fill="#163663" d="M476.145 723.15l-175.808-1.188s-194.814-232.826-19.006-553.557c60.341-110.082 216.197-90.281 216.197-90.281s16.63 161.555 16.63 171.057c0 9.505-38.013 473.969-38.013 473.969z"/><path fill="#D8724A" d="M708.295 798.887c-32.582 10.434-50.533 45.303-40.1 77.887l115.496 351.799c10.434 32.576 45.307 50.539 77.887 40.1 32.584-10.434 50.539-45.314 40.109-77.893l-115.5-351.795c-10.437-32.577-45.31-50.532-77.892-40.098z"/><path fill="#61E9FF" d="M672.92 1012.623l161.145-50.416-50.502-147.359c-13.93-43.211-64.879-66.963-108.102-53.039-43.221 13.924-66.973 60.246-53.049 103.471l50.508 147.343z"/><path fill="#61E9FF" d="M720.951 1292.398V902.492l37.035-18.508 35.637-20.834c0-81.293-52.631-121.668-133.914-121.668H406.89c-81.289 0-141.162 21.615-141.162 102.908l35.637 44.217 23.143 23.15v379.193l396.443 1.448z"/><path fill="#D8724A" d="M595.797 754.891c0 40.637-32.945 84.227-73.582 84.227-40.64 0-73.574-43.59-73.574-84.227V623.412c0-40.637 32.934 18.996 73.574 18.996 40.637 0 73.582-59.633 73.582-18.996v131.479zm-255.992 42.517c31.731 12.785 47.088 48.871 34.305 80.607l-140.867 342.432c-12.784 31.729-48.871 47.098-80.605 34.305-31.734-12.783-47.096-48.881-34.314-80.607l140.87-342.43c12.783-31.729 48.876-47.09 80.611-34.307z"/><path fill="#61E9FF" d="M365.356 1011.201l-157.033-62.043 55.25-141.322c17.043-42.082 69.591-62.051 111.685-45.01 42.086 17.041 62.395 64.975 45.353 107.066l-55.255 141.309z"/><path fill="#D8724A" d="M379.967 741.695c-.756 5.166-1.381 10.457-1.152 15.828 4.418 104.4 84.23 156.057 144.177 156.057 59.945 0 139.975-37.402 156.057-156.057.723-5.328-.398-10.662-1.152-15.828h-297.93z"/><path fill="#893C1D" d="M450.088 656.168s76.025 28.51 146.111 7.125v73.65s-65.334 41.578-146.111 3.564v-84.339z"/><path fill="#D8724A" d="M745.514 413.631c-.951-.002-14.57.053-29.672.146l-.061-27.244c-.031-11.879-.217-58.375-.248-68.324-.17-80.211-88.771-152.09-200.605-151.838-111.883.221-202.473 88.324-202.233 200.221.028 10.096.995 7.475 1.016 17.295l.07 32.906c-18.51-.043-14.601-1.02-15.789-1.018-25.802.053-46.706 21.023-46.659 46.859.058 25.846 21.064 46.738 46.869 46.688.999-.002-4.174.934 15.869.838l.009 7.896c.244 115.494 83.927 198.797 199.404 198.564 115.476-.256 201.748-83.617 201.49-199.096l1.168-4.938c17.531.006 28.547-1.934 29.424-1.936 26.416-.047 36.012-22.949 35.959-49.361-.062-26.383-9.595-47.715-36.011-47.658z"/><path fill="#163663" d="M442.127 393.527c0 6.232-5.053 11.285-11.284 11.285h-36.825c-6.232 0-11.285-5.053-11.285-11.285s5.053-11.285 11.285-11.285h36.825c6.232 0 11.284 5.053 11.284 11.285z"/><path fill="#BC1D47" d="M570.275 582.457c-1.121-11.521-21.404-23.219-33.168-23.219-9.207 0-17.117 8.207-20.662 16.133-3.547-7.926-11.457-16.133-20.666-16.133-11.763 0-33.379 11.697-34.499 23.219h11.169c2.229 22.316 20.973 39.738 43.773 39.738 22.797 0 40.209-17.422 42.439-39.738h11.614z"/><path fill="#FFFDFE" d="M489.985 580.809h51.992s-5.33 16.521-27.107 16.074c-21.774-.445-24.885-16.074-24.885-16.074z"/><path opacity=".3" fill="#63240E" d="M461.954 218.619s45.137 217.371 305.271 283.297c0 0 19.008-23.162 20.787-44.543 1.783-21.381-308.24-281.516-308.24-281.516l-17.818 42.762z"/><path fill="#163663" d="M422.215 439.775c-12.43-3.334-25.153 2.793-30.557 13.967l-17.225-6.439s.877 38.475 34.104 43.408c14.41 2.146 28.537-4.564 32.312-18.627 3.776-14.074-4.587-28.539-18.634-32.309zm179.994-1.574c12.396-3.387 25.148 2.676 30.596 13.842l13.758-6.162s2.736 38.117-30.479 43.193c-14.387 2.223-28.541-4.436-32.381-18.475-3.838-14.068 4.451-28.562 18.506-32.398z"/><path fill="#163663" d="M469.018 156.527s16.631 244.705 318.097 328.525h38.27l9.504-109.953S806.379 63.87 547.418 35.361c-66.123-7.279-65.333 42.764-65.333 42.764l-13.067 78.402z"/><path fill="#163663" d="M313.78 416.793s157.613-63.076 164.74-257.891c0 0-90.279-40.389-121.164 21.383-30.885 61.77-89.53 114.274-43.576 236.508z"/><path fill="#2F61DD" d="M629.275 54.896s-78.406-19.01-71.279 55.836 65.338 274.43 282.746 313.635c0 0-8.316-283.931-211.467-369.471zM326.471 721.963s-121.165-180.559-87.904-327.857c0 0 38.012-258.961 237.578-249.457l5.939-66.523s-131.855-49.891-219.76 104.535c0 0-171.056 289.846 28.509 541.68l35.638-2.378z"/><path fill="#2F61DD" d="M805.191 398.855s11.879 141.359-102.16 326.67h46.328s106.91-146.109 87.904-319.541l-32.072-7.129z"/><path fill="#FFBF1F" d="M276.58 499.826l-40.389 80.778h80.777zm471.592 1.19l-40.389 80.775h80.778z"/></g></svg>