<svg xmlns="http://www.w3.org/2000/svg" xmlns:xlink="http://www.w3.org/1999/xlink" width="1024" height="1024" viewBox="3 5 1024 1024"><circle fill="#22A1FF" cx="515" cy="517" r="512"/><defs><circle id="a" cx="515" cy="517" r="512"/></defs><clipPath id="b"><use xlink:href="#a" overflow="visible"/></clipPath><g clip-path="url(#b)"><path fill="#D8724A" d="M682.129 794.031c-27.43 8.785-42.541 38.139-33.758 65.568l97.229 296.154c8.783 27.426 38.139 42.545 65.566 33.756 27.431-8.781 42.546-38.145 33.766-65.57L747.7 827.789c-8.784-27.426-38.143-42.541-65.571-33.758z"/><path fill="#163663" d="M652.35 973.961l135.654-42.441-42.514-124.051c-11.725-36.377-54.615-56.371-91.004-44.65-36.383 11.721-56.377 50.719-44.656 87.105l42.52 124.037z"/><path fill="#163663" d="M692.783 1209.484V881.25l31.176-15.58 30-17.539c0-68.434-44.305-102.424-112.732-102.424h-212.83c-68.43 0-118.833 18.197-118.833 86.633l30 37.223 19.481 19.488v319.215l333.738 1.218z"/><path fill="#D8724A" d="M587.424 756.996c0 34.209-27.732 70.904-61.941 70.904-34.215 0-61.939-36.695-61.939-70.904V646.312c0-34.209 27.725 15.992 61.939 15.992 34.209 0 61.941-50.201 61.941-15.992v110.684zm-215.502 35.793c26.713 10.762 39.643 41.141 28.881 67.855l-118.586 288.27c-10.763 26.711-41.142 39.648-67.856 28.879-26.714-10.762-39.646-41.148-28.887-67.857l118.589-288.268c10.761-26.709 41.145-39.643 67.859-28.879z"/><path fill="#163663" d="M393.434 972.766l-132.197-52.23 46.512-118.971c14.349-35.424 58.585-52.234 94.019-37.889 35.432 14.346 52.525 54.697 38.18 90.133l-46.514 118.957z"/><path fill="#D8724A" d="M405.732 745.887c-.635 4.35-1.162 8.803-.971 13.326 3.719 87.887 70.908 131.373 121.373 131.373s117.834-31.488 131.373-131.373c.609-4.486-.334-8.977-.971-13.326H405.732z"/><path fill="#893C1D" d="M463.762 673.887s64 24 123 6v62s-55 35-123 3v-71z"/><path fill="#163663" d="M411.194 565.066c-4.059 0-11.612 0-37.722-28.555-11.982-13.104-25.168-29.4-31.353-38.746-.864-1.305-1.796-2.713-2.582-4.215-6.011-5.152-12.765-18.934-21.264-61.324-5.501-27.441-9.688-57.471-10.153-66.088-.442-8.27 1.336-16.373 5.084-23.549-6.661-7.594-10.645-17.25-11.198-27.557-.759-14.184 5.287-27.875 15.854-36.98a45.767 45.767 0 0 1-2.496-12.619c-.655-12.141 3.458-23.809 11.581-32.855a45.674 45.674 0 0 1 11.496-9.244 46.332 46.332 0 0 1-.165-2.137c-1.327-24.879 17.686-46.232 42.479-47.852 1.93-6.119 5.158-11.771 9.555-16.668 8.122-9.045 19.281-14.387 31.423-15.037a45.536 45.536 0 0 1 9.7.506c7.453-13.662 21.562-22.832 37.529-23.691a45.285 45.285 0 0 1 2.454-.066c6.903 0 13.755 1.619 19.954 4.648 7.659-6.842 17.41-10.932 27.797-11.49a45.007 45.007 0 0 1 2.447-.064 45.423 45.423 0 0 1 34.996 16.404 45.238 45.238 0 0 1 13.824-2.168c16.881 0 32.273 9.514 40.092 23.992a46.917 46.917 0 0 1 2.57-.211c.82-.043 1.641-.064 2.457-.064 20.928 0 38.736 14.23 43.949 33.742 21.439 2.793 38.32 20.545 39.51 42.699a45.398 45.398 0 0 1-.217 7.543c13.656 7.445 22.852 21.598 23.721 37.539a45.219 45.219 0 0 1-2.742 18.119c8.135 7.92 13.139 18.705 13.756 30.193a45.473 45.473 0 0 1-11.197 32.395 45.292 45.292 0 0 1 4.615 17.707c.631 11.764-3.279 40.746-8.719 64.605-10.32 45.277-21.307 54.695-30.098 56.527-.42.166-.863.324-1.332.471-.988.309-2.348.691-4.16 1.17-3.176.84-7.426 1.895-11.533 2.914-2.541.631-5.133 1.273-7.459 1.863-1.9 3.303-5.037 6.666-10.229 6.666-.928 0-3.826-.18-6.445-2.221l-6.324 1.703 2.572-7.209c-.518-1.514-.871-3.324-.986-5.486-.09-1.672.145-6.99 6.219-9.826 2.338-8.947 2.996-19.355 1.869-23.604l-.424.002a45.428 45.428 0 0 1-16.164-2.971c-33.002 28.824-75.338 44.668-119.99 44.76h-.402c-45.035 0-87.359-16.082-120.004-45.439a45.67 45.67 0 0 1-11.381 3.164c2.285 9.254 13.923 29.451 19.269 38.729 3.995 6.936 7.446 12.924 9.552 17.391 14.48 30.721 14.979 40.412 10.945 46.771-2.302 3.631-6.14 5.713-10.53 5.713z"/><path fill="#4360D6" d="M521.615 121.482c13.561 0 25.375 7.592 31.363 18.848a35.436 35.436 0 0 1 15.535-4.561 35.63 35.63 0 0 1 1.922-.051c16.051 0 29.715 10.68 34.062 25.471a35.383 35.383 0 0 1 11.057-1.754c18.812 0 34.346 14.682 35.43 33.455a36.435 36.435 0 0 1 2.598-.096c18.865 0 34.434 14.768 35.447 33.617a35.38 35.38 0 0 1-1.727 12.986c13.977 4.203 24.395 16.809 25.229 32.105.387 7.242-1.496 14.348-5.184 20.389 9.307 6.029 15.572 16.277 16.199 27.916.646 12.094-4.898 23.26-14.006 30.189a35.444 35.444 0 0 1 7.424 19.906c1.016 18.951-13.059 109.004-31.744 110.943.074.613-19.799 5.199-28.736 7.605 4.332-12.139 8.703-41.568-4.197-41.568a7.69 7.69 0 0 0-.475.014c-.645.033-1.279.051-1.912.051a35.177 35.177 0 0 1-17.926-4.873c-31.889 30.062-73.568 46.57-118.248 46.662h-.383c-45.181 0-86.879-16.842-118.368-47.611-5.179 3.408-11.183 5.396-17.549 5.74-19.679 1.062 15.986 52.326 24.308 69.979 13.237 28.084 14.458 38.221 9.46 38.221-12.627 0-64.947-64.711-63.458-68.219-13.729-4.352-28.814-106.133-29.63-121.248-.491-9.18 2.523-17.863 8.072-24.562a35.447 35.447 0 0 1-14.186-26.541c-.754-14.078 6.842-26.711 18.456-33.07a35.403 35.403 0 0 1-5.098-16.531c-.511-9.473 2.698-18.578 9.036-25.637 4.234-4.715 9.525-8.141 15.396-10.045a35.535 35.535 0 0 1-1.521-8.547c-1.043-19.553 14.013-36.316 33.562-37.367a35.711 35.711 0 0 1 6.997.31c.721-7.49 3.801-14.539 8.928-20.25 6.338-7.059 15.047-11.225 24.52-11.734a36.3 36.3 0 0 1 1.946-.051c4.572 0 8.966.869 13.061 2.496 4.089-14.121 16.749-24.797 32.224-25.631a37.528 37.528 0 0 1 1.917-.051c7.989 0 15.601 2.725 21.715 7.459 6.169-8.254 15.817-13.738 26.572-14.316a38.363 38.363 0 0 1 1.912-.048m134.869 366.971c-1.125 3.152-2.248 5.137-3.064 5.137-.617 0-1.059-1.129-1.197-3.742-.01-.18 1.664-.696 4.261-1.395M521.615 101.482h-.007a55.28 55.28 0 0 0-31.827 10.068 55.37 55.37 0 0 0-18.364-3.162c-.987 0-1.989.027-2.976.08-17.151.922-32.539 9.693-42.178 23.143a57.546 57.546 0 0 0-5.067.043c-14.809.795-28.42 7.309-38.327 18.342a55.603 55.603 0 0 0-9.297 14.186c-25.794 4.787-45.026 27.318-45.357 53.859a55.71 55.71 0 0 0-8.71 7.855c-9.908 11.035-14.925 25.268-14.125 40.076a55.658 55.658 0 0 0 1.239 9.041 55.907 55.907 0 0 0-7.412 10.148 55.305 55.305 0 0 0-7.186 30.404c.554 10.324 3.93 20.111 9.619 28.412a55.622 55.622 0 0 0-3.505 22.689c.493 9.135 4.663 39.236 10.334 67.523 3.303 16.477 6.644 29.984 9.93 40.152 3.089 9.557 6.844 18.889 12.999 25.141.832 1.457 1.676 2.732 2.383 3.801 6.435 9.725 20.024 26.537 32.313 39.977 24.217 26.484 35.211 31.805 45.101 31.805 7.769 0 14.862-3.871 18.976-10.357 5.766-9.092 3.74-19.535 1.331-27.617-2.184-7.326-6.003-16.736-11.676-28.773-2.28-4.838-5.827-10.992-9.933-18.119-3.486-6.049-7.357-12.768-10.693-19.133 32.461 24.436 72.196 37.672 114.145 37.672h.383c45.188-.092 88.107-15.471 122.262-43.561 1.564.404 3.145.74 4.738 1.008a72.529 72.529 0 0 1-1.133 8.182c-5.697 4.641-7.627 11.283-7.342 16.555a34.21 34.21 0 0 0 .521 4.467l-7.959 22.303 20.91-5.629c2.74 1.094 5.461 1.527 7.695 1.527 3.172 0 10.529-.842 16.316-7.885 1.246-.311 2.52-.625 3.779-.938 4.146-1.029 8.434-2.094 11.684-2.953 1.98-.523 3.436-.934 4.578-1.291.572-.178 1.088-.35 1.568-.521 15.336-4.055 22.654-20.828 25.191-26.645 4.131-9.469 7.982-21.971 11.443-37.156 5.705-25.027 9.639-54.617 8.955-67.367a55.457 55.457 0 0 0-3.123-15.664 55.457 55.457 0 0 0 9.705-34.428c-.639-11.889-5.125-23.156-12.521-32.197a55.153 55.153 0 0 0 1.508-16.107c-.939-17.229-9.838-32.732-23.424-42.363a55.764 55.764 0 0 0-.08-2.74c-1.332-24.793-18.787-45.068-41.863-50.867-8.141-20.49-28.092-34.883-51.221-35.031a55.767 55.767 0 0 0-11.984-12.471c-9.713-7.357-21.297-11.246-33.496-11.246-1 0-2.011.027-3.004.08a54.978 54.978 0 0 0-7.567.945c-10.154-9.663-23.757-15.263-38.249-15.263z"/><path fill="#D8724A" d="M713.459 469.715c-.801-.004-12.266.043-24.979.123l-.051-22.936c-.025-10-.18-29.143-.209-37.518-.141-67.523-74.73-128.033-168.875-127.822-94.185.188-170.446 54.354-170.245 148.553.023 8.498.838 6.293.855 14.559l.059 27.701c-15.582-.035-12.291-.857-13.291-.855-21.721.045-39.318 17.697-39.279 39.447.049 21.758 17.732 39.346 39.455 39.303.842-.002-3.513.785 13.359.705l.008 6.648c.205 97.227 70.652 167.352 167.863 167.156 97.211-.215 169.838-70.393 169.621-167.604l.982-4.156c14.76.004 24.031-1.629 24.77-1.631 22.238-.039 40.316-19.32 40.271-41.553-.05-22.212-18.074-40.169-40.314-40.12z"/><path fill="#163663" d="M458.062 422.789a9.5 9.5 0 0 1-9.5 9.5h-31a9.5 9.5 0 0 1-9.5-9.5c0-5.246 4.254-9.5 9.5-9.5h31a9.5 9.5 0 0 1 9.5 9.5zm161.493-1.5c0 5.246-4.254 9.5-9.5 9.5h-31c-5.246 0-9.5-4.254-9.5-9.5a9.5 9.5 0 0 1 9.5-9.5h31a9.5 9.5 0 0 1 9.5 9.5z"/><path fill="#BC1D47" d="M565.939 601.836c-.943-9.699-18.02-19.547-27.92-19.547-7.752 0-14.41 6.91-17.396 13.582-2.986-6.672-9.645-13.582-17.396-13.582-9.9 0-28.1 9.848-29.043 19.547h9.402c1.877 18.787 17.658 33.453 36.85 33.453s33.85-14.666 35.727-33.453h9.776z"/><path fill="#FFFDFE" d="M498.348 600.449h43.771s-4.49 13.908-22.82 13.531c-18.332-.375-20.951-13.531-20.951-13.531z"/><circle fill="#FFBF1F" cx="327.234" cy="551.982" r="24"/><circle fill="#FFBF1F" cx="713.234" cy="551.982" r="24"/><path fill="#163663" d="M442.297 471.723c-10.461-2.807-21.172 2.352-25.723 11.758l-17.498-.422s1.059 29.527 31.707 31.543c12.238.807 24.023-3.842 27.203-15.68 3.176-11.85-3.861-24.026-15.689-27.199zm138.676 0c10.463-2.807 21.174 2.352 25.723 11.758l17.5-.422s-1.061 29.527-31.709 31.543c-12.238.807-24.023-3.842-27.201-15.68-3.179-11.85 3.86-24.026 15.687-27.199z"/></g></svg>