<svg xmlns="http://www.w3.org/2000/svg" xmlns:xlink="http://www.w3.org/1999/xlink" width="1024" height="1024" viewBox="3 5 1024 1024"><circle fill="#EF6100" cx="515" cy="517" r="512"/><defs><path id="a" d="M1027 517c0 280.561-229.23 513-512 513S3 797.561 3 517 232.23 9 515 9s512 227.439 512 508z"/></defs><clipPath id="b"><use xlink:href="#a" overflow="visible"/></clipPath><g clip-path="url(#b)"><path fill="#FFE5B8" d="M338.904 826.853c30.752 8.174 49.047 39.743 40.879 70.493l-90.903 332.187c-8.168 30.751-39.726 49.062-70.484 40.882-30.758-8.18-49.049-39.739-40.886-70.488l90.897-332.184c8.178-30.757 39.739-49.063 70.497-40.89z"/><path fill="#163663" d="M363.536 1102.112l-147.758-39.534 58.244-217.604c10.927-40.788 52.849-65.01 93.644-54.089 40.801 10.915 65.021 52.849 54.105 93.646l-58.235 217.581z"/><path fill="#FFE5B8" d="M650.967 824.272c-30.307 9.706-47.002 42.14-37.297 72.445l107.426 327.22c9.707 30.302 42.139 47.008 72.447 37.297 30.305-9.705 47.006-42.146 37.305-72.448L723.416 861.57c-9.705-30.301-42.145-47.002-72.449-37.298z"/><path fill="#163663" d="M640.16 1100.418l149.887-46.893-69.072-214.405c-12.955-40.193-60.346-62.285-100.551-49.334-40.197 12.95-62.291 56.037-49.34 96.241l69.076 214.391z"/><path fill="#163663" d="M684.836 1283.305V925.06l34.447-17.214v-17.169c0-75.612-26.855-115.378-102.459-115.378H392.719c-75.609 0-98.151 31.155-98.151 106.769v30.078l21.525 21.533v352.698l368.743-3.072z"/><path fill="#FFE5B8" d="M568.426 753.52c0 37.798-30.643 111.488-68.439 111.488-37.801 0-68.436-73.69-68.436-111.488v-89.146c0-37.797 30.635 17.67 68.436 17.67 37.797 0 68.439-55.467 68.439-17.67v89.146z"/><path fill="#FFF" d="M517.719 901.387c0 9.514-7.715 17.223-17.223 17.223-9.506 0-17.221-7.709-17.221-17.223 0-9.511 7.715-17.216 17.221-17.216 9.508 0 17.223 7.705 17.223 17.216zm0 51.666c0 9.504-7.715 17.215-17.223 17.215-9.506 0-17.221-7.711-17.221-17.215 0-9.514 7.715-17.225 17.221-17.225 9.508 0 17.223 7.711 17.223 17.225z"/><path fill="#FDEBDF" d="M723.9 475.04c16.004-.055 28.996 12.855 29.051 28.841.059 15.987-12.84 28.987-28.848 29.044-15.982.062-28.986-12.85-29.043-28.837-.058-15.989 12.854-28.995 28.84-29.048"/><path fill="#FFE5B8" d="M702.424 552.888c.395 112.252-80.482 193.7-192.738 194.099-112.256.396-193.704-80.481-194.101-192.733l-.719-204.528c-.398-112.241 80.497-188.638 192.749-189.03 112.262-.396 193.852 121.345 194.084 187.664l.725 204.528z"/><path fill="#FFE5B8" d="M368.047 500.959c.082 23.135 13.812 42.2-8.528 45.15-1.954.268-81.15.659-83.17.669-25.086.082-45.521-20.207-45.616-45.335-.085-25.104 20.208-45.537 45.295-45.619 2.079-.007 65.917-.115 67.913.149 22.27 2.883 24.03 21.952 24.106 44.986zm273.174-2.06c.082 23.62-13.785 43.189 9.055 46.043 1.941.251 82.867.086 84.881.075 25.682-.089 46.383-20.94 46.293-46.612-.094-25.64-20.938-46.358-46.621-46.264-2.066.007-67.275.369-69.312.647-22.714 3.108-24.38 22.584-24.296 46.111z"/><path fill="#163663" d="M508.197 638.696c36.521-.132 66.031-29.832 65.9-66.355l-132.262.467c.13 36.522 29.831 66.013 66.362 65.888z"/><path fill="#FFF" d="M571.102 592.271c1.963-6.293 3.02-12.984 2.984-22.69l-132.256.467c.031 9.704 1.129 16.388 3.137 22.668l126.135-.445z"/><path fill="#FF617F" d="M510.85 638.893c-30.416.11-43.215-15.034-43.215-15.034 10.062-7.317 25.627-12.047 43.119-12.107 15.207-.055 31.754 3.414 41.74 9.096 0-.001-11.226 17.941-41.644 18.045z"/><path fill="#EAA688" d="M305.547 478.282h-26.781c-11.289 0-20.44 9.151-20.44 20.439 0 11.289 9.151 20.441 20.44 20.441h26.781v-40.88zm400.26-1.105h26.781c11.289 0 20.441 9.152 20.441 20.44s-9.152 20.44-20.441 20.44h-26.781v-40.88zM430.688 733.512s71.818 26.518 137.008 6.63v17.678s-61.875 27.622-137.008-7.734v-16.574z"/><path fill="#61E9FF" d="M497.561 865.008l-59.868-105.946-7.033-12.447-81.648 118.393h24.842zm2.13 0l68.612-118.602 79.931 118.602z"/><path fill="#FFBF1F" d="M795.002 453.048L777.43 275.284s-4.527-87.41-86.656-122.238c0 0-120.398-58.375-143.27-64.612-72.922-19.888-96.125 53.034-96.125 53.034l3.314 30.594c21.361 4.027 45.268 1.043 61.689 10.673l49.875 104.456s22.127 108.15 96.48 108.15c2.775 0 24.18.06 27.031-.139 0 0-11.914 56.262-11.801 87.964.113 31.716 27.566 21.301 27.566 21.301l-.141-50.438 89.61-.981z"/><path fill="#FFBF1F" d="M224.876 455.258l20.886-179.974s1.212-98.459 83.341-133.287c0 0 34.218-14.18 57.087-20.417 72.924-19.888 82.867 41.985 82.867 41.985l7.734 12.916c-23.201-4.266-44.195-4.076-50.641 17.302l-27.777 137.603s-11.078 63.955-85.432 63.955c-2.773 0 20.017.06 17.166-.139 0 0 .865 56.262.752 87.964-.113 31.716-27.566 21.301-27.566 21.301l.14-48.229-78.557-.98z"/><path d="M621.055 381.888c.381.174.732.333 1.076.488l-1.076-.488zm-.36-.164c.113.053.234.106.359.164l-.359-.164zm1.436.652zm-1.893-.859l.457.207c-.172-.078-.324-.148-.457-.207zm0 0l-.559-.254c.001 0 .214.096.559.254zm161.854-61.575h-6.629l-140.316-3.865s-66.648 2.174-67.754-67.434c-.035-2.224-.141-4.075-.303-5.615l.537-55.322c-2.445-48.447-26.85-68.628-59.836-62.057-32.98 6.576-34.961 50.951-34.961 50.951 34.898-6.404 50.008 25.235 50.008 25.235l28.951 58.829-.059.17 33.146 77.339s16.572 34.803 34.803 43.089h169.043l-6.63-61.32zm-159.36 62.707l.107.051-.107-.051zm4.237 1.926l.299.136-.299-.136zm-.254-.115l.254.115c-.078-.035-.166-.074-.254-.115zm-3.875-1.76c.699.316 1.432.648 2.115.96l-2.115-.96zm4.719 2.144c.265.12.298.135 0 0zm-.291-.133l.291.133-.291-.133zm-1.456-.66c.332.149.635.288.902.409a103.99 103.99 0 0 0-.902-.409zm-.857-.391c.316.145.602.272.857.391l-.857-.391zm-304.877-1.772c-.381.174-.731.333-1.076.488l1.076-.488zm.36-.164c-.113.053-.234.106-.36.164l.36-.164zm-1.436.652zm1.894-.859c-.156.069-.309.14-.458.207.172-.078.325-.148.458-.207zm0 0l.558-.254s-.214.096-.558.254zm-80.551-63.266l66.748.035s66.647-.035 67.753-69.643c.035-2.224.141-4.075.303-5.615l-.539-33.225c2.445-48.447 26.852-68.628 59.838-62.057 32.979 6.576 34.961 28.854 34.961 28.854-34.9-6.404-44.482 25.235-44.482 25.235l-29.896 141.827c-.791 2.447-13.26 37.6-40.429 37.6l-121.99-.033 7.733-62.978zm78.055 64.398l-.106.051.106-.051zm-4.236 1.926l-.298.136.298-.136zm.254-.115l-.254.115c.079-.035.166-.074.254-.115zm3.876-1.76c-.699.316-1.433.648-2.116.96l2.116-.96zm-4.72 2.144c-.265.12-.299.135 0 0zm.292-.133l-.292.133.292-.133zm1.455-.66c-.332.149-.636.288-.903.409.253-.115.544-.248.903-.409zm.857-.391c-.316.145-.601.272-.856.391l.856-.391z" fill="#FF7D08"/><path fill="#FFDE55" d="M250.182 253.187l122.75-31.061s9.943-93.916 83.971-64.084l12.506 18.559-14.715-42.867s-18.783-24.307-55.244-16.572c-36.462 7.734-82.867 29.832-82.867 29.832s-57.455 3.314-66.401 106.193z"/><path fill="#163663" d="M431.391 441.205c.043 12.521-10.09 22.72-22.605 22.763-12.527.044-22.729-10.078-22.771-22.604-.043-12.532 10.084-22.726 22.611-22.768 12.515-.041 22.718 10.072 22.765 22.609zm198.066-.576c.041 12.521-10.086 22.722-22.605 22.764-12.527.044-22.727-10.083-22.771-22.603-.045-12.537 10.084-22.725 22.611-22.769 12.521-.042 22.718 10.072 22.765 22.608z"/><path fill="#2695F9" d="M700.775 382.517l-18.904-.146-14.984-.115-112.18-.855c-13.029-.104-26.139 9.799-26.266 26.473l.033.328-35.172-.271.055-.335c.127-16.676-12.83-26.77-25.863-26.876l-112.176-.854-14.989-.117-18.895-.148c-7.566-.061-9.678 6.194-9.737 13.924-.063 7.749 1.958 14.033 9.522 14.082l4.23.041c.473 12.34 11.169 73.445 11.169 73.445 3.448 19.017 20.192 22.821 28.827 22.884l90.665.697c15.314.12 24.521-10.483 27.572-26.795l7.059-51.298 40.016.305 6.26 51.406c2.811 16.348 11.861 27.09 27.17 27.211l90.656.696c8.641.067 25.459-3.477 29.18-22.45 0 0 11.627-60.935 12.305-73.264l4.232.041c7.547.048 9.682-6.196 9.74-13.934.061-7.736-1.974-14.017-9.525-14.075zm-234.636 88.888c-3.385 16.652-16.99 17.881-24.904 17.822l-66.539-.52c-7.912-.055-19.554-.15-22.995-19.853l-7.368-57.591c-.813-8.596 2.94-13.688 14.443-13.455l94.66-.376c15.543.64 19.449 12.04 19.387 20.14l-6.684 53.833zM677.4 413.82l-8.275 57.478c-3.725 19.65-15.369 19.557-23.283 19.496l-66.555-.51c-7.898-.061-21.488-1.508-24.615-18.196l-5.85-53.925c.053-8.104 4.135-18.346 19.693-18.738l94.66-.384c11.507-.056 15.153 6.201 14.225 14.779z"/></g></svg>