<svg xmlns="http://www.w3.org/2000/svg" xmlns:xlink="http://www.w3.org/1999/xlink" width="1030" height="1034" viewBox="0 0 1030 1034"><ellipse fill="#EF6100" cx="515" cy="517.998" rx="512" ry="511.002"/><defs><ellipse id="a" cx="515" cy="516.002" rx="512" ry="511.002"/></defs><clipPath id="b"><use xlink:href="#a" overflow="visible"/></clipPath><g clip-path="url(#b)"><path fill="#FFE5B8" d="M339.223 827.399c30.127 11.519 45.181 45.243 33.646 75.311l-127.301 324.507c-11.535 30.064-45.317 45.108-75.449 33.582-30.131-11.525-45.184-45.239-33.653-75.304L263.761 860.99c11.546-30.071 45.329-45.11 75.462-33.591z"/><path fill="#163663" d="M334.51 1107.003l-144.72-55.609 82.077-212.711c15.395-39.872 60.258-59.752 100.213-44.392 39.963 15.353 59.881 60.141 44.495 100.022l-82.065 212.69z"/><path fill="#FFE5B8" d="M656.596 820.402c-30.727 9.821-47.652 42.64-37.812 73.306L727.7 1224.815c9.84 30.662 42.721 47.566 73.447 37.74 30.727-9.819 47.66-42.647 37.824-73.31L730.049 858.143c-9.838-30.662-42.727-47.56-73.453-37.741z"/><path fill="#163663" d="M645.641 1099.828l151.961-47.449-70.027-216.954c-13.133-40.669-61.18-63.025-101.943-49.919-40.756 13.104-63.154 56.703-50.023 97.385l70.032 216.937z"/><path fill="#163663" d="M690.936 1284.888V922.387l34.924-17.419v-17.373c0-76.51-27.227-116.749-103.879-116.749H394.769c-76.657 0-99.512 31.525-99.512 108.037v30.436l21.823 21.79v356.889l373.856-3.11z"/><path fill="#FFE5B8" d="M572.912 748.808c0 38.247-31.066 112.814-69.388 112.814-38.325 0-69.384-74.567-69.384-112.814v-90.204c0-38.247 31.059 17.88 69.384 17.88 38.322 0 69.388-56.127 69.388-17.88v90.204z"/><path fill="#FFF" d="M521.502 898.432c0 9.627-7.821 17.428-17.461 17.428-9.637 0-17.459-7.801-17.459-17.428 0-9.624 7.822-17.42 17.459-17.42 9.64 0 17.461 7.796 17.461 17.42zm0 52.28c0 9.617-7.821 17.42-17.461 17.42-9.637 0-17.459-7.803-17.459-17.42 0-9.626 7.822-17.429 17.459-17.429 9.64 0 17.461 7.803 17.461 17.429z"/><path fill="#FDEBDF" d="M730.541 467.019c16.227-.055 29.398 13.009 29.453 29.184.061 16.178-13.018 29.332-29.248 29.39-16.203.061-29.387-13.002-29.445-29.181-.059-16.18 13.033-29.339 29.24-29.393"/><path fill="#FFE5B8" d="M708.766 545.793c.4 113.584-81.598 196.001-195.409 196.405-113.812.4-196.389-81.438-196.791-195.024l-.729-206.959c-.405-113.575 81.614-190.878 195.421-191.277 113.818-.4 196.539 122.788 196.775 189.895l.733 206.96z"/><path fill="#FFE5B8" d="M369.756 493.246c.082 23.409 14.003 42.702-8.647 45.688-1.981.271-82.275.667-84.322.676-25.434.083-46.153-20.447-46.248-45.873-.087-25.403 20.487-46.078 45.921-46.162 2.108-.008 66.831-.116 68.855.151 22.579 2.917 24.363 22.212 24.441 45.52zm276.961-2.084c.082 23.901-13.977 43.704 9.178 46.588 1.971.256 84.018.088 86.059.079 26.037-.09 47.025-21.189 46.934-47.167-.094-25.945-21.227-46.908-47.268-46.812-2.094.006-68.207.372-70.271.653-23.029 3.144-24.718 22.852-24.632 46.659z"/><path fill="#F7DCB5" d="M405.26 198.62s52.637-3.519 72.812 74.907c21.284 82.734 89.617 122.982 204.998 136.398V333.9S417.582 174.023 407.5 182.966c-10.082 8.945-2.24 15.654-2.24 15.654z"/><path fill="#163663" d="M511.847 632.62c37.03-.133 66.948-30.187 66.815-67.145l-134.095.474c.132 36.956 30.244 66.797 67.28 66.671z"/><path fill="#FFF" d="M575.625 585.643c1.99-6.367 3.061-13.138 3.025-22.96l-134.089.474c.033 9.818 1.146 16.581 3.181 22.936l127.883-.45z"/><path fill="#FF617F" d="M514.538 632.818c-30.837.112-43.813-15.212-43.813-15.212 10.201-7.404 25.982-12.19 43.717-12.252 15.417-.056 32.194 3.455 42.319 9.204-.001.001-11.384 18.156-42.223 18.26z"/><path fill="#FF7D08" d="M391.822 387.369c-7.234.027-13.465-5.394-14.272-12.737-.864-7.848 4.806-14.916 12.674-15.776l42.072-4.616c7.85-.896 14.942 4.797 15.81 12.652.862 7.851-4.81 14.915-12.677 15.775l-42.074 4.62c-.515.058-1.026.082-1.533.082z"/><path fill="#163663" d="M433.978 432.782c.043 12.67-10.229 22.99-22.919 23.033-12.702.045-23.045-10.199-23.087-22.872-.044-12.681 10.223-22.994 22.924-23.038 12.689-.043 23.034 10.192 23.082 22.877zm191.848-.583c.041 12.671-10.225 22.99-22.918 23.035-12.701.045-23.041-10.203-23.086-22.872-.045-12.686 10.223-22.995 22.924-23.04 12.695-.042 23.035 10.193 23.08 22.877z"/><path fill="#FFBF1F" d="M770.25 266.008s6.648-62.583-62.092-101.332c0 0-208.877-91.417-232.78-93.933-60.037-6.32-76.46 42.298-76.46 42.298l-13.101 29.673-46.97 28.127c-61.723 29.985-60.858 79.476-60.858 79.476l.22 197.09 27.061.541.103 39.09s25.786 10.358 25.671-21.733l-.604-171.008.546-21.279c-.095-26.64 63.091-102.691 121.95-68.239l90.893 91.163s31.633 31.254 78.775 45.708c2.689.824 58.121 21.304 61.012 21.104 0 0 .242 69.228.357 101.308.115 32.089 27.947 21.552 27.947 21.552l-.141-40.974 29.289.024-.445-68.817 29.275 8.387.352-118.226z"/><path fill="#FF7D08" d="M740.623 375.847l-57.008-13.093 1.213 34.849 56.785 11.776zM330.884 420.63l-52.714.187-.092-25.053 52.719-.185zm-52.959-68.42l52.72-.19.09 25.045-52.72.19zm130.854-154.754s2.009-49.375 35.445-56.029c33.443-6.649 57.552 20.856 72.989 67.267 5.582 16.764 21.387 81.969 21.387 81.969l-82.481-78.852s-18.254-19.539-47.34-14.355zm312.805 60.112c-59.725-20.12-70.031-54.937-70.031-54.937-6.668-22.62-26.932-66.195-39.611-79.191l-64.57-25.94s42.305 33.247 68.812 123.186c0 0 12.566 55.14 83.191 72.314l71.354 17.179-.43-39.089-48.715-13.522z"/><path fill="#EAA688" d="M306.39 472.535h-27.153c-11.446 0-20.725 9.26-20.725 20.683 0 11.425 9.278 20.684 20.725 20.684h27.153v-41.367zm406.926 0h27.152c11.447 0 20.725 9.26 20.725 20.683 0 11.425-9.277 20.684-20.725 20.684h-27.152v-41.367zM433.265 728.562s72.813 26.832 138.905 6.707v17.89s-62.731 27.951-138.905-7.826v-16.771z"/><path fill="#61E9FF" d="M501.064 861.622l-60.697-107.207-7.13-12.594-82.78 119.801h25.185zm2.161 0l69.562-120.012 81.039 120.012z"/><path fill="#FF7D08" d="M626.84 390.049c7.234.027 13.465-5.393 14.273-12.737.863-7.848-4.807-14.915-12.676-15.776l-42.07-4.616c-7.85-.896-14.943 4.799-15.811 12.653-.861 7.85 4.811 14.913 12.678 15.775l42.074 4.621c.514.056 1.026.08 1.532.08z"/></g></svg>