<svg xmlns="http://www.w3.org/2000/svg" xmlns:xlink="http://www.w3.org/1999/xlink" width="1024" height="1024" viewBox="3 5 1024 1024"><circle fill="#22A1FF" cx="515" cy="517" r="512"/><defs><circle id="a" cx="515" cy="517" r="512"/></defs><clipPath id="b"><use xlink:href="#a" overflow="visible"/></clipPath><g clip-path="url(#b)"><path fill="#FFE5B8" d="M682.785 828.058c-30.553 9.784-47.385 42.484-37.602 73.038l108.309 329.902c9.785 30.549 42.482 47.393 73.037 37.603 30.555-9.784 47.393-42.493 37.611-73.042L755.828 865.66c-9.783-30.549-42.488-47.387-73.043-37.602z"/><path fill="#FF7D08" d="M671.893 1106.467l151.113-47.277-69.637-216.163c-13.061-40.522-60.84-62.797-101.375-49.738-40.527 13.057-62.801 56.496-49.744 97.029l69.643 216.149z"/><path fill="#FF7D08" d="M694.654 1287.51V926.329l34.729-17.355 33.42-19.538c0-76.231-60.494-114.095-136.719-114.095H400.143c-76.229 0-132.375 20.271-132.375 96.503l33.419 41.464 21.701 21.711v355.589l371.766-3.098z"/><path fill="#FFE5B8" d="M577.291 753.382c0 38.107-30.895 112.402-69.001 112.402-38.111 0-68.996-74.295-68.996-112.402v-89.876c0-38.106 30.885 17.814 68.996 17.814 38.107 0 69.001-55.921 69.001-17.814v89.876z"/><path fill="#FDEBDF" d="M734.039 472.621c16.135-.057 29.232 12.96 29.289 29.075.059 16.12-12.945 29.227-29.086 29.283-16.111.062-29.223-12.954-29.279-29.074-.059-16.119 12.959-29.232 29.076-29.284"/><path fill="#FFE5B8" d="M712.387 551.106c.398 113.171-81.143 195.287-194.318 195.689-113.175.398-195.292-81.142-195.691-194.314l-.725-206.205c-.402-113.158 81.157-190.182 194.328-190.578 140.58 0 195.441 122.338 195.676 189.201l.73 206.207z"/><path fill="#FFE5B8" d="M375.27 498.751c.082 23.325 13.924 42.547-8.6 45.521-1.969.27-81.815.664-83.851.675-25.292.083-45.896-20.373-45.99-45.707-.086-25.31 20.373-45.911 45.666-45.993 2.096-.007 66.457-.115 68.47.152 22.453 2.905 24.227 22.129 24.305 45.352zm275.414-2.076c.08 23.813-13.898 43.545 9.127 46.421 1.959.253 83.547.087 85.578.076 25.891-.089 46.762-21.112 46.672-46.995-.094-25.85-21.109-46.738-47.004-46.643-2.084.008-67.828.373-69.881.653-22.899 3.131-24.578 22.767-24.492 46.488z"/><path fill="#163663" d="M382.516 393.259c-7.195.028-13.391-5.372-14.193-12.689-.859-7.818 4.777-14.861 12.604-15.719l41.836-4.6c7.807-.895 14.859 4.78 15.723 12.606.857 7.821-4.783 14.86-12.605 15.717l-41.84 4.606c-.513.057-1.023.079-1.525.079zm43.762 45.25c.043 12.623-10.172 22.905-22.791 22.949-12.631.043-22.916-10.161-22.957-22.789-.045-12.636 10.164-22.912 22.795-22.955 12.619-.041 22.906 10.154 22.953 22.795zm205.544-.581c.041 12.623-10.168 22.907-22.789 22.948-12.631.047-22.914-10.164-22.959-22.785-.045-12.641 10.166-22.912 22.797-22.955 12.623-.044 22.904 10.153 22.951 22.792z"/><path fill="#EAA688" d="M312.257 478.116h-27.001c-11.381 0-20.608 9.228-20.608 20.608 0 11.382 9.228 20.608 20.608 20.608h27.001v-41.216zm404.653 0h27.002c11.381 0 20.607 9.228 20.607 20.608 0 11.382-9.227 20.608-20.607 20.608H716.91v-41.216zM438.424 733.211s72.406 26.734 138.128 6.684v17.823s-62.38 27.849-138.128-7.798v-16.709z"/><path fill="#163663" d="M629.836 395.931c7.195.025 13.389-5.374 14.193-12.691.859-7.818-4.779-14.859-12.605-15.717l-41.836-4.6c-7.805-.895-14.857 4.78-15.721 12.605-.857 7.822 4.783 14.86 12.605 15.718l41.84 4.604c.512.059 1.02.081 1.524.081z"/><path fill="#FFE5B8" d="M337.232 826.672c29.758 11.99 44.159 45.831 32.17 75.59l-132.098 321.115c-11.989 29.755-45.829 44.166-75.589 32.172-29.758-11.988-44.163-45.84-32.178-75.592L261.64 858.844c11.988-29.755 45.834-44.16 75.592-32.172z"/><path fill="#FF7D08" d="M327.776 1105.133l-147.259-58.18 85.229-210.504c15.984-39.46 65.261-58.188 104.735-42.206 39.467 15.979 58.51 60.93 42.529 100.401l-85.234 210.489z"/><path fill="#FFE5B8" d="M408.315 774.427a102.485 102.485 0 0 0-1.082 14.843c0 56.215 45.57 101.785 101.785 101.785 56.214 0 101.785-45.57 101.785-101.785 0-5.041-.373-9.997-1.082-14.843H408.315zm20.723-210.602v40.427h.746c0 40.568 40.705 80.137 90.919 80.137 50.215 0 90.922-40.684 90.922-81.251h.744v-39.312H429.038z"/><path fill="#163663" d="M520.686 653.1c38.336-.137 69.311-31.312 69.176-69.647l-138.83.491c.135 38.335 31.31 69.288 69.654 69.156z"/><path fill="#FFF" d="M586.715 604.371c2.061-6.605 3.17-13.628 3.133-23.816l-138.822.491c.033 10.185 1.186 17.201 3.291 23.794l132.398-.469z"/><path fill="#FF617F" d="M523.471 653.307c-31.927.117-45.361-15.779-45.361-15.779 10.562-7.681 26.9-12.646 45.261-12.709 15.961-.057 33.33 3.584 43.812 9.547.001-.001-11.785 18.832-43.712 18.941z"/><path fill="#EAA688" d="M405.864 199.595s84.66-54.584 203.851-3.342c8.912 3.514 73.521 42.53 73.521 147.041v106.939h41.514v-126.99s6.373-96.797-89.414-157.066c0 0-149.826-82.309-282.942 21.164 0 0-57.916 39.105-54.583 169.32l-1.09 96.553 40.078-.753-.92-107.331s-4.65-102.092 69.985-145.535z"/><circle fill="#FCFAF0" cx="420.016" cy="258.471" r="22.557"/></g></svg>