<svg xmlns="http://www.w3.org/2000/svg" xmlns:xlink="http://www.w3.org/1999/xlink" width="1024" height="1024" viewBox="3 5 1024 1024"><circle fill="#FFBF1F" cx="515" cy="517" r="512"/><defs><circle id="a" cx="515" cy="517" r="512"/></defs><clipPath id="b"><use xlink:href="#a" overflow="visible"/></clipPath><g clip-path="url(#b)"><path fill="#163663" d="M677.836 751.938c-.217 0-.432-.003-.65-.009-13.326-.353-23.842-11.44-23.49-24.767 6.209-234.614-16.566-442.911-16.797-444.989-1.473-13.247 8.074-25.182 21.32-26.654 13.244-1.469 25.182 8.07 26.656 21.318.234 2.109 23.377 213.535 17.076 451.604-.346 13.107-11.084 23.497-24.115 23.497zm-66.176.354c-12.887 0-23.58-10.178-24.1-23.167l-18.012-448.296c-.535-13.318 9.826-24.551 23.145-25.085 13.34-.532 24.551 9.829 25.086 23.147l18.014 448.295c.535 13.319-9.828 24.551-23.148 25.085-.329.014-.661.021-.985.021zm-278.687-.354c-12.488 0-23.062-9.622-24.039-22.28-9.207-119.364 17.939-438.679 19.1-452.214 1.137-13.279 12.807-23.108 26.109-21.986 13.281 1.139 23.123 12.828 21.986 26.109-.281 3.275-27.973 328.916-19.066 444.378 1.025 13.29-8.918 24.896-22.207 25.921-.631.048-1.26.072-1.883.072zm64.05-.719c-.406 0-.814-.01-1.223-.03-13.312-.663-23.568-11.995-22.904-25.307l22.301-447.223c.664-13.314 12.018-23.593 25.307-22.904 13.314.662 23.568 11.994 22.904 25.307l-22.301 447.223c-.642 12.903-11.308 22.934-24.084 22.934z"/><path fill="#D8724A" d="M669.229 802.246c-29.422 9.422-45.631 40.911-36.209 70.333l104.297 317.689c9.422 29.418 40.912 45.639 70.334 36.21 29.424-9.422 45.639-40.92 36.221-70.338L739.57 838.456c-9.425-29.418-40.916-45.632-70.341-36.21z"/><path fill="#61E9FF" d="M658.738 1070.348l145.52-45.527-67.059-208.16c-12.578-39.021-58.588-60.472-97.623-47.896-39.025 12.572-60.475 54.404-47.9 93.437l67.062 208.146z"/><path fill="#61E9FF" d="M680.658 1244.688V896.879l33.445-16.713 32.182-18.814c0-73.409-58.256-109.871-131.656-109.871H397.051c-73.406 0-127.475 19.521-127.475 92.93l32.182 39.93 20.898 20.907v342.424l358.002-2.984z"/><path fill="#D8724A" d="M567.641 762.516c0 36.696-29.75 76.06-66.447 76.06-36.701 0-66.441-39.363-66.441-76.06V643.787c0-36.696 29.74 17.154 66.441 17.154 36.697 0 66.447-53.851 66.447-17.154v118.729z"/><path fill="#FDEBDF" d="M718.586 459.968c15.539-.055 28.15 12.48 28.205 28 .057 15.522-12.469 28.144-28.01 28.198-15.514.061-28.139-12.475-28.195-27.997-.057-15.523 12.478-28.15 28-28.201"/><path fill="#D8724A" d="M697.734 535.548c.383 108.98-78.139 188.058-187.123 188.444-108.986.384-188.062-78.138-188.449-187.12l-.695-198.57c-.145-40.061 8.953-76.405 29.164-104.135 24.699-33.887 61.174-81.064 162.664-81.064 104.49 0 135.859 45.637 155.543 69.727 28.092 34.383 28.094 85.986 28.193 114.146l.703 198.572z"/><path fill="#163663" d="M504.975 618.777c42.033-.153 75.994-34.333 75.844-76.368l-152.213.539c.148 42.032 34.328 75.974 76.369 75.829z"/><path fill="#FFF" d="M577.371 565.347c2.258-7.242 3.473-14.941 3.436-26.113l-152.209.539c.037 11.166 1.299 18.859 3.609 26.086l145.164-.512z"/><path fill="#FF617F" d="M508.029 619.003c-35.004.129-49.734-17.303-49.734-17.303 11.58-8.421 29.494-13.863 49.625-13.934 17.5-.062 36.543 3.929 48.037 10.468 0 0-12.922 20.65-47.928 20.769z"/><path fill="#163663" d="M390.803 351.362c-6.928.027-12.895-5.172-13.668-12.219-.826-7.529 4.604-14.312 12.137-15.137l40.289-4.43c7.516-.861 14.309 4.604 15.141 12.14.822 7.532-4.607 14.31-12.143 15.136l-40.289 4.435c-.493.055-.983.075-1.467.075z"/><path fill="#893C1D" d="M433.914 710.91s69.727 25.745 133.016 6.437v23.6s-60.07 26.817-133.016-7.509V710.91z"/><path fill="#163663" d="M628.967 350.718c6.928.025 12.895-5.176 13.668-12.221.826-7.53-4.602-14.311-12.139-15.136l-40.287-4.429c-7.516-.861-14.307 4.603-15.139 12.139-.826 7.532 4.607 14.311 12.139 15.135l40.291 4.434c.49.056.98.078 1.467.078z"/><path fill="#D8724A" d="M336.471 800.911c28.654 11.546 42.521 44.134 30.979 72.791L240.24 1182.93c-11.543 28.652-44.131 42.531-72.789 30.98-28.656-11.544-42.529-44.143-30.986-72.793l127.209-309.226c11.545-28.652 44.138-42.524 72.797-30.98z"/><path fill="#61E9FF" d="M327.363 1069.063l-141.809-56.026 82.076-202.71c15.391-38 62.844-56.035 100.855-40.644 38.006 15.387 56.344 58.674 40.955 96.684l-82.077 202.696z"/><path fill="#D8724A" d="M404.92 750.601a98.495 98.495 0 0 0-1.041 14.293c0 54.135 43.883 98.017 98.016 98.017s98.018-43.882 98.018-98.017c0-4.854-.361-9.627-1.041-14.293H404.92z"/><path fill="#163663" d="M263.744 747.764c-13.051.001-23.789-10.411-24.117-23.532-5.25-209.925 26.357-375.893 29.061-389.647 7.809-54.53 34.268-94.835 72.662-110.642 31.793-13.089 67.105-7.598 96.877 15.066 10.607 8.074 12.66 23.217 4.588 33.823-8.074 10.606-23.217 12.659-33.824 4.586-16.01-12.187-33.506-15.327-49.264-8.838-22.293 9.178-38.088 35.927-43.33 73.388-.064.463-.143.926-.236 1.385-.334 1.678-33.5 170.739-28.275 379.672.334 13.326-10.199 24.399-23.525 24.732a25.5 25.5 0 0 1-.617.007zm209.233-508.326c-7.514 0-14.916-3.498-19.631-10.068-25.238-35.184-64.701-27.332-66.365-26.979l.213-.048s-23.01-.556-28.802-18.145 17.949-28.891 17.949-28.891c2.918-.673 71.965-15.78 116.229 45.925 7.77 10.832 5.289 25.911-5.543 33.681a24.035 24.035 0 0 1-14.05 4.525zm61.152-34.325c-7.943 0-15.723-3.917-20.332-11.097-10.961-17.067-22.123-25.802-29.559-30.123-6.525-3.793-11.221-4.889-12.936-5.185-12.451-2.145-21.199-13.111-20.352-25.509.846-12.35 10.967-22.065 23.336-22.483a24.12 24.12 0 0 1 6.48.655c13.906 2.698 45.98 13.48 73.648 56.56 7.201 11.216 3.949 26.148-7.268 33.352a24.014 24.014 0 0 1-13.017 3.83zm76.986 6.515c-9.771 0-18.967-5.978-22.602-15.668-7.459-19.894-22.854-34.828-23.01-34.977-9.689-9.152-10.09-24.395-.938-34.086 9.154-9.688 24.463-10.094 34.156-.939 2.391 2.258 23.697 22.943 34.988 53.053 4.682 12.482-1.643 26.394-14.123 31.074a24.073 24.073 0 0 1-8.471 1.543zm132.186 541.501c-.67 0-1.346-.027-2.027-.084-13.283-1.104-23.158-12.769-22.053-26.053 16.127-193.996-11.979-382.799-14.402-398.509-18.5-72.018-27.301-99.652-52.072-125.305-9.258-9.591-8.988-24.871.602-34.129 9.588-9.261 24.869-8.992 34.127.6 34.377 35.602 45.719 75.217 64.389 147.955.18.713.332 1.434.449 2.16 1.326 8.225 32.256 203.812 15.014 411.227-1.051 12.604-11.603 22.138-24.027 22.138z"/><path fill="#D8724A" d="M381.682 480.84c.076 22.462 13.408 40.973-8.283 43.837-1.896.26-78.787.639-80.746.648-24.355.08-44.197-19.618-44.287-44.014-.084-24.373 19.619-44.212 43.975-44.291 2.018-.007 63.996-.111 65.934.146 21.621 2.798 23.33 21.311 23.407 43.674z"/><path fill="#893C1D" d="M321 460.97h-26.002c-10.959 0-19.844 8.885-19.844 19.846 0 10.959 8.885 19.844 19.844 19.844H321v-39.69z"/><path fill="#D8724A" d="M635.098 483.132c.078 22.932-13.385 41.932 8.789 44.702 1.885.243 80.453.083 82.41.073 24.932-.086 45.031-20.331 44.943-45.255-.092-24.893-20.328-45.008-45.264-44.915-2.006.006-65.316.357-67.291.628-22.054 3.015-23.669 21.923-23.587 44.767z"/><path fill="#893C1D" d="M698.873 465.261h26.002c10.961 0 19.844 8.885 19.844 19.845s-8.883 19.845-19.844 19.845h-26.002v-39.69z"/><path fill="#163663" d="M434.018 433.555c.041 12.156-9.795 22.058-21.949 22.1-12.162.042-22.066-9.784-22.105-21.944-.041-12.168 9.789-22.064 21.951-22.105 12.151-.042 22.056 9.776 22.103 21.949zm194.716-.56c.041 12.156-9.791 22.061-21.945 22.1-12.162.045-22.066-9.788-22.109-21.941-.043-12.174 9.791-22.064 21.953-22.106 12.156-.043 22.056 9.777 22.101 21.947z"/></g></svg>