<svg xmlns="http://www.w3.org/2000/svg" xmlns:xlink="http://www.w3.org/1999/xlink" width="1024" height="1024" viewBox="3 5 1024 1024"><circle fill="#FFBF1F" cx="515" cy="517" r="512.001"/><defs><circle id="a" cx="515.001" cy="517" r="512"/></defs><clipPath id="b"><use xlink:href="#a" overflow="visible"/></clipPath><g clip-path="url(#b)"><path fill="#163663" d="M676.617 1295.368V925.691l46.518-17.602v-17.555c0-77.309-27.459-117.967-104.759-117.967H389.237c-77.307 0-100.354 31.854-100.354 109.165v30.754l43.474 22.016v360.617l344.26.249z"/><path fill="#FFBF1F" d="M507.846 950.559c-56.151 0-101.673 45.52-101.673 101.672 0 56.153 45.521 101.674 101.673 101.674s101.673-45.521 101.673-101.674c0-56.153-45.521-101.672-101.673-101.672zm0 168.606c-36.967 0-66.936-29.967-66.936-66.935 0-36.966 29.969-66.934 66.936-66.934s66.935 29.967 66.935 66.934-29.969 66.935-66.935 66.935z"/><path fill="#D8724A" d="M644.572 821.065c-28.979 14.789-40.479 50.271-25.692 79.251l162.346 312.479c14.791 28.978 50.271 40.488 79.252 25.692 28.982-14.788 40.486-50.277 25.7-79.255l-162.35-312.475c-14.788-28.976-50.273-40.482-79.256-25.692z"/><path fill="#163663" d="M700.658 1090.202l122.05-60.731-105.042-204.965c-19.7-38.422-57.606-56.29-96.041-36.594l-2.259 3.39c-38.428 19.692-43.451 55.518-23.755 93.95l105.047 204.95z"/><path fill="#FFBF1F" d="M673.205 1037.122l122.008-58.745 13.557 22.594-124.267 62.133z"/><path fill="#D8724A" d="M359.048 821.065c28.981 14.789 40.481 50.271 25.691 79.251l-162.346 312.479c-14.787 28.978-50.27 40.488-79.249 25.693-28.981-14.789-40.486-50.278-25.701-79.256l162.349-312.475c14.787-28.976 50.276-40.481 79.256-25.692z"/><path fill="#163663" d="M302.964 1090.202l-122.052-60.731 105.045-204.965c19.697-38.422 57.603-56.29 96.04-36.594l2.26 3.39c38.426 19.693 43.448 55.518 23.753 93.95l-105.046 204.95z"/><path fill="#FFBF1F" d="M330.416 1037.122l-122.007-58.745-13.557 22.594 124.267 62.133zm71.749-265.48c-2.261 8.277-2.347 16.987-2.347 25.983 0 54.281 45.133 98.283 99.413 98.283 54.281 0 98.283-44.002 98.283-98.283a98.345 98.345 0 0 0-3.479-25.983h-191.87z"/><path fill="#D8724A" d="M574.54 771.764c0 107.284-77.061 93.729-84.664 92.528h2.26c-38.65 0-69.971-23.739-69.971-80.101V659.153c0-38.646 31.32 18.065 69.971 18.065 38.646 0 81.274-56.712 81.274-18.065l1.13 112.611z"/><path fill="#D8724A" d="M699.117 545.163c.404 114.771-82.289 198.05-197.063 198.456-114.777.405-198.055-82.288-198.459-197.061l-.734-209.12c-.408-114.761 82.305-192.872 197.075-193.274 114.783-.405 198.205 124.069 198.443 191.878l.738 209.121z"/><path fill="#D8724A" d="M350.458 492.068c.081 23.654 14.121 43.148-8.723 46.164-1.997.273-82.971.674-85.036.685-25.65.083-46.545-20.661-46.64-46.353-.088-25.668 20.661-46.56 46.312-46.645 2.124-.008 67.396-.117 69.437.154 22.77 2.948 24.57 22.444 24.65 45.995zm286.086-2.105c.081 24.15-14.095 44.16 9.255 47.076 1.985.257 84.728.088 86.788.077 26.258-.091 47.424-21.41 47.331-47.658-.096-26.216-21.406-47.399-47.668-47.303-2.111.007-68.786.378-70.867.662-23.225 3.177-24.926 23.089-24.839 47.146z"/><path fill="#163663" d="M368.348 392.279c-8.618.033-16.041-6.436-17.003-15.201-1.028-9.368 5.729-17.805 15.104-18.833l50.123-5.509c9.354-1.072 17.802 5.727 18.834 15.102 1.028 9.372-5.729 17.803-15.103 18.83l-50.129 5.517c-.612.068-1.222.094-1.826.094z"/><path fill="#893C1D" d="M713.875 467.752h16.085c11.544 0 20.899 9.357 20.899 20.899s-9.355 20.899-20.899 20.899h-16.085v-41.798zM421.283 729.843s86.985 22.594 153.638 2.26v32.762s-76.819 31.631-153.638-4.521v-30.501z"/><path fill="#163663" d="M616.698 393.736c8.62.033 16.043-6.437 17.007-15.203 1.029-9.368-5.725-17.804-15.1-18.832l-50.123-5.51c-9.351-1.07-17.803 5.729-18.838 15.104-1.026 9.371 5.73 17.802 15.104 18.83l50.126 5.516c.613.068 1.222.095 1.824.095z"/><path fill="#EAA688" d="M386.262 189.846s85.856-55.355 206.735-3.389c9.038 3.564 74.561 43.13 74.561 149.12v108.451h42.099V315.242s6.465-98.165-90.677-159.287c0 0-151.947-83.473-286.943 21.464 0 0-63.254 39.659-59.874 171.715l-1.105 97.917 45.163-.764-.934-108.849c-.001 0-4.716-103.534 70.975-147.592z"/><path fill="#893C1D" d="M274.125 471.142h-16.086c-11.543 0-20.9 9.357-20.9 20.899 0 11.541 9.357 20.899 20.9 20.899h16.086v-41.798z"/><circle fill="#FFC299" cx="389.316" cy="238.258" r="22.875"/><path fill="#AF543F" d="M386.262 189.846s85.856-55.355 206.735-3.389c9.038 3.564 74.561 43.13 74.561 149.12v108.451h42.099V315.242s6.465-98.165-90.677-159.287c0 0-151.947-83.473-286.943 21.464 0 0-63.254 39.659-59.874 171.715l-1.105 97.917 45.163-.764-.934-108.849c-.001 0-4.716-103.534 70.975-147.592z"/><path fill="#D8724A" d="M404.784 575.844h63.125s33.536-.986 36.001-27.618c0 0 4.931 27.618 36.002 27.618h60.657l-21.697 52.767s-7.891 35.508-43.399 35.508h-75.452s-36.988-.496-41.428-40.439l-13.809-47.836z"/><path fill="#163663" d="M496.935 646.563c33.946-.123 61.373-27.729 61.253-61.673l-122.93.436c.119 33.945 27.723 61.353 61.677 61.237z"/><path fill="#FFF" d="M555.401 603.414c1.824-5.85 2.807-12.068 2.776-21.09l-122.924.436c.028 9.018 1.05 15.23 2.914 21.068l117.234-.414z"/><path fill="#FF617F" d="M499.401 646.745c-28.271.104-40.166-13.975-40.166-13.975 9.353-6.799 23.818-11.194 40.078-11.252 14.132-.05 29.513 3.174 38.794 8.453 0 .001-10.434 16.676-38.706 16.774z"/><path fill="#163663" d="M415.651 435.574c-.028 12.803-10.445 23.174-23.242 23.146-12.81-.025-23.181-10.432-23.152-23.238.024-12.813 10.437-23.18 23.242-23.15 12.8.026 23.175 10.424 23.152 23.242zm194.893.594c-.026 12.802-10.438 23.174-23.238 23.148-12.808-.027-23.18-10.438-23.155-23.238.026-12.818 10.438-23.18 23.246-23.152 12.802.026 23.171 10.426 23.147 23.242z"/></g></svg>