<svg xmlns="http://www.w3.org/2000/svg" xmlns:xlink="http://www.w3.org/1999/xlink" width="1024" height="1024" viewBox="3 5 1024 1024"><circle fill="#FFBF1F" cx="515" cy="517" r="512"/><defs><circle id="a" cx="515" cy="517" r="512"/></defs><clipPath id="b"><use xlink:href="#a" overflow="visible"/></clipPath><g clip-path="url(#b)"><path fill="#163663" d="M507.229 99.227c-228.83 0-217.211 143.709-217.211 143.709V464.94l37.948-6.988 184.039-253.78 185.007 253.78 37.945 6.988V253.906S747.921 99.227 507.229 99.227z"/><path fill="#D8724A" d="M675.448 827.469c-30.09 9.637-46.665 41.84-37.029 71.928l106.661 324.887c9.635 30.086 41.836 46.674 71.926 37.031 30.092-9.635 46.674-41.846 37.04-71.932L747.381 864.5c-9.636-30.084-41.843-46.666-71.933-37.031z"/><path fill="#61E9FF" d="M664.721 1101.645l148.814-46.557-68.578-212.879c-12.861-39.904-59.914-61.84-99.832-48.98-39.912 12.857-61.847 55.639-48.989 95.555l68.585 212.861z"/><path fill="#61E9FF" d="M687.137 1279.936v-355.69l34.201-17.092 32.909-19.24c0-75.072-59.571-112.359-134.639-112.359H397.101c-75.067 0-130.36 19.961-130.36 95.035l32.91 40.834 21.371 21.381v350.184l366.115-3.053z"/><path fill="#D8724A" d="M571.557 786.84c0 37.527-30.423 77.783-67.951 77.783-37.532 0-67.948-40.256-67.948-77.783V665.42c0-37.527 30.416 17.543 67.948 17.543 37.528 0 67.951-55.072 67.951-17.543v121.42z"/><path fill="#FDEBDF" d="M725.922 477.436c15.89-.055 28.789 12.764 28.845 28.635.058 15.873-12.749 28.78-28.643 28.836-15.868.062-28.78-12.756-28.835-28.63-.059-15.877 12.762-28.789 28.633-28.841"/><path fill="#D8724A" d="M704.599 554.729c.393 111.449-79.907 192.318-191.364 192.715-111.456.393-192.322-79.908-192.717-191.36l-.713-203.069c-.146-40.969 2.676-105.689 40.797-128.435 36.825-21.973 51.59-60.963 155.377-60.963 106.861 0 138.94 46.671 159.067 71.306 28.73 35.162 28.732 87.936 28.833 116.735l.72 203.071z"/><path fill="#163663" d="M507.474 639.844c42.985-.156 77.714-35.111 77.562-78.098l-155.665.551c.152 42.984 35.108 77.693 78.103 77.547z"/><path fill="#FFF" d="M581.507 585.203c2.312-7.408 3.555-15.281 3.515-26.707l-155.656.552c.035 11.42 1.327 19.287 3.689 26.679l148.452-.524z"/><path fill="#FF617F" d="M510.596 640.074c-35.797.131-50.861-17.694-50.861-17.694 11.844-8.612 30.16-14.179 50.749-14.249 17.896-.064 37.371 4.018 49.126 10.703-.001 0-13.214 21.117-49.014 21.24z"/><path fill="#163663" d="M390.712 366.369c-7.084.027-13.186-5.29-13.977-12.496-.847-7.7 4.705-14.635 12.413-15.48l41.199-4.529c7.688-.879 14.634 4.709 15.482 12.415.844 7.703-4.71 14.634-12.414 15.479l-41.203 4.534c-.501.056-1.003.077-1.5.077z"/><path fill="#893C1D" d="M434.8 734.064s71.306 26.328 136.03 6.582v24.135s-61.433 27.426-136.03-7.68v-23.037z"/><path fill="#163663" d="M634.273 365.709c7.085.027 13.187-5.291 13.977-12.496.847-7.701-4.707-14.635-12.411-15.479l-41.2-4.529c-7.688-.881-14.634 4.708-15.482 12.413-.845 7.703 4.709 14.635 12.414 15.48l41.202 4.533c.503.057 1.004.078 1.5.078z"/><path fill="#D8724A" d="M335.147 826.105c29.307 11.807 43.489 45.133 31.683 74.439l-130.091 316.234c-11.808 29.303-45.134 43.494-74.44 31.684-29.305-11.807-43.49-45.143-31.688-74.443l130.095-316.232c11.805-29.301 45.135-43.488 74.441-31.682z"/><path fill="#61E9FF" d="M325.836 1100.334l-145.02-57.297 83.932-207.305c15.742-38.859 64.27-57.303 103.143-41.564 38.867 15.736 57.619 60.004 41.882 98.877l-83.937 207.289z"/><path fill="#D8724A" d="M405.148 774.654a101.217 101.217 0 0 0-1.064 14.617c0 55.359 44.879 100.238 100.237 100.238 55.361 0 100.237-44.879 100.237-100.238 0-4.965-.366-9.846-1.064-14.617H405.148zm-23.765-275.873c.082 22.97 13.712 41.9-8.469 44.828-1.939.267-80.571.655-82.577.665-24.905.081-45.196-20.063-45.29-45.013-.084-24.924 20.062-45.211 44.971-45.293 2.066-.008 65.447-.115 67.431.148 22.111 2.863 23.856 21.794 23.934 44.665z"/><path fill="#893C1D" d="M319.329 478.46h-26.592c-11.208 0-20.296 9.087-20.296 20.294 0 11.209 9.088 20.295 20.296 20.295h26.592V478.46z"/><path fill="#D8724A" d="M640.542 501.124c.081 23.452-13.687 42.882 8.987 45.715 1.931.249 82.278.085 84.28.075 25.495-.088 46.052-20.791 45.961-46.279-.093-25.457-20.787-46.029-46.289-45.935-2.052.007-66.795.366-68.817.644-22.553 3.084-24.206 22.42-24.122 45.78z"/><path fill="#893C1D" d="M705.763 482.848h26.592c11.208 0 20.296 9.087 20.296 20.295s-9.088 20.295-20.296 20.295h-26.592v-40.59z"/><path fill="#163663" d="M434.907 450.424c.041 12.432-10.019 22.559-22.446 22.6-12.438.045-22.565-10.006-22.607-22.441-.044-12.443 10.011-22.563 22.449-22.605 12.426-.042 22.557 9.999 22.604 22.446zm195.837-.572c.04 12.432-10.013 22.56-22.441 22.602-12.44.044-22.566-10.012-22.611-22.441-.044-12.447 10.012-22.563 22.45-22.605 12.431-.045 22.556 9.997 22.602 22.444zm12.065-277.125c0-23.783-102.039-26.541-121.769-22.608-19.729-3.933-154.679 20.767-154.679 44.549 0 26.328-5.484 28.522-5.484 28.522s42.581-21.934 73.499-7.679l75.693 19.046s42.752.975 86.665-15.756c46.074-17.552 77.888 14.262 77.888 14.262s-31.813-34.008-31.813-60.336z"/><path fill="#D8724A" d="M302.532 189.188l70.21 75.694-15.359 15.357-64.174-69.111c0 .001 4.388-16.454 9.323-21.94z"/></g></svg>