<svg xmlns="http://www.w3.org/2000/svg" xmlns:xlink="http://www.w3.org/1999/xlink" width="96" height="96" viewBox="0 0 96 96"><ellipse fill="#FB4343" cx="-262.118" cy="162.585" rx="48" ry="43.74"/><path fill="#BE1616" d="M-297.546 176.32l37.805 29.956s45.623-2.375 45.572-45.655l-11.087-8.078-72.29 23.777z"/><path fill="#880D0D" d="M-227.383 155.169h2.336-7.206v1.228h-.007v-1.182h-8.708l-9.053-8.961c-3.428-2.714-7.787 0-7.787 0l-.295.274c-.639.268-1.031.51-1.031.51l-1.285.719a4.315 4.315 0 0 0-2.777.333l-.818.308-15.422 9.293-.123-.004h-11.96v-.321h-4.836v8.562l-1.895 9.427 3.898 3.453h4.292c.641.156 1.25.014 1.25.014-.012 0-.021-.003-.033-.003.971-.206 1.697-.995 1.697-1.944v-1.908h4.549l4.109 5.507s2.441 3.408 9.295 1.58c.328-.005.664-.053.994-.154l.503-.167c-.547.754-.725 1.719-.39 2.641l.072.202c.579 1.598 2.469 2.468 4.224 1.94l.024-.018.041-.028c.246-.172 1.242-.855 2.676-1.833l.164.2c.9 1.178 2.679 1.468 3.971.646.147-.093.282-.198.403-.312l.034-.02c.762-.483 1.182-1.246 1.215-2.032.965.812 2.447.938 3.568.227.053-.035.101-.073.152-.108.097-.048.193-.099.285-.157.969-.613 1.389-1.679 1.16-2.668.901.4 2.006.358 2.886-.202.35-.222.626-.505.829-.819.557-.598.784-1.386.637-2.144a3.072 3.072 0 0 0 2.635-.299c.231-.146.432-.32.598-.512 1.155-.849 1.408-2.377.547-3.504v-.075c-.024-.028-.048-.058-.075-.086.147-.028.292-.053.432-.074l.091-.016h4.892v1.999c0 .945.723 1.733 1.692 1.94-.009.002-.017.004-.029.004 0 0 .61.141 1.251-.013h9.939s5.145-13.382-.446-20.247c-5.59-6.862-2.69 7.366-2.69 7.366l-.475-8.562z"/><defs><ellipse id="a" cx="-261.929" cy="162.889" rx="38.382" ry="34.974"/></defs><clipPath id="b"><use xlink:href="#a" overflow="visible"/></clipPath><g clip-path="url(#b)"><path fill="#30A269" d="M-236.877 172.054c0 1.101.984 1.997 2.194 1.997s2.194-.896 2.194-1.997v-11.698c0-1.103-.984-1.997-2.194-1.997s-2.194.895-2.194 1.997v11.698z"/><path fill="#80D2A9" d="M-232.503 171.858v-19.315h9.576v21.441l-5.796-.002h-5.959c1.59 0 2.051-1.241 2.179-2.124z"/><path fill="#219058" d="M-232.503 170.076h-1.548v1.527s.102 2.395-1.162 2.395c0 0 2.724.647 2.724-2.268l-.014-1.654z"/><path fill="#3F829A" d="M-287.396 174.248c0 1.105-.981 1.999-2.191 1.999-1.212 0-2.194-.894-2.194-1.999v-11.693c0-1.103.981-1.999 2.194-1.999 1.21 0 2.191.896 2.191 1.999v11.693z"/><path fill="#FFC97C" d="M-232.511 152.59h-8.706l-9.055-8.962c-3.428-2.715-7.785 0-7.785 0l-5.914 5.488 4.386 1.298-18.14 10.961c-1.752.527-2.705 2.249-2.129 3.847l.075.201c.577 1.6 2.466 2.468 4.221 1.94l1.678-.536c-1.755.527-2.708 2.25-2.131 3.847l.075.202c.576 1.6 2.468 2.467 4.221 1.939l1.502-.494c-1.388.69-2.085 2.208-1.572 3.628l.075.202c.576 1.597 2.466 2.467 4.221 1.939l.506-.167a2.812 2.812 0 0 0-.393 2.641l.075.2c.577 1.6 2.467 2.467 4.222 1.941 0 0 19-13.1 20.868-13.559a16.67 16.67 0 0 1 1.391-.275h8.308V152.59z"/><path fill="#F3B475" d="M-232.455 153.771h-9.723l-9.417-9.358c-3.428-2.714-7.787 0-7.787 0l-7.001 3.901 5.836 3.282-18.139 10.96c-1.752.527-2.708 2.249-2.128 3.849l.074.2c.576 1.6 2.469 2.467 4.221 1.942l1.679-.539c-1.756.527-2.71 2.25-2.131 3.848l.075.201c.576 1.6 2.468 2.468 4.221 1.94l1.504-.494c-1.393.691-2.087 2.208-1.574 3.627l.073.202c.579 1.6 2.471 2.467 4.224 1.939l.504-.167c-.547.754-.726 1.718-.39 2.641l.072.202c.579 1.598 2.471 2.467 4.224 1.94 0 0 19-13.101 20.868-13.558.492-.12.959-.211 1.391-.276h9.325v-16.282z"/><path fill="#FFDEC6" d="M-255.638 159.055c.521-.092 1.685-.481 2.15-.775 1.815-1.14 2.271-3.407 1.018-5.062l-5.808-6.61c-1.167-1.54-3.401-2.006-5.168-1.143l-.815.308-15.424 9.293-.123-.005h-14.151v16.286h10.607l4.105 5.51s2.859 3.996 11.085 1.017l16.823-12.015-4.299-6.804z"/><path fill="#FFC898" d="M-263.608 146.632l-19.424 11.76s-6.504 2.523-3.594 8.875l7.891 10.58s2.857 3.998 11.083 1.02l16.823-12.013-12.779-20.222z"/><path fill="#F3B475" d="M-253.632 159.473c-3.399-.615-5.391-8.714-5.391-8.714l-19.663 11.798c-1.752.527-2.708 2.249-2.128 3.849l.074.2c.576 1.6 2.469 2.467 4.221 1.942l1.679-.539c-1.756.527-2.71 2.25-2.131 3.848l.075.201c.576 1.6 2.468 2.468 4.221 1.94l1.504-.494c-1.393.691-2.087 2.208-1.574 3.627l.073.202c.579 1.6 2.471 2.467 4.224 1.939l.504-.167c-.547.754-.726 1.718-.39 2.641l.072.202c.579 1.598 2.471 2.467 4.224 1.94 0 0 19-13.101 20.868-13.558 3.12-.764 5.121-.283 5.121-.283l-15.583-10.574z"/><path fill="#D79458" d="M-266.564 155.229l6.997 5.26s2.615 1.821 5.268.167c0 0 2.485-1.384-.22-5-3.23-4.323-4.503-4.897-4.503-4.897l-7.542 4.47z"/><path fill="#FFC898" d="M-279.298 156.054h-14.663v16.283l14.663.002c1.704 0 3.088-1.261 3.088-2.813v-10.657c.001-1.554-1.384-2.815-3.088-2.815z"/><path fill="#DA8C57" d="M-271.501 158.216l-7.184 4.341c-1.752.527-2.708 2.249-2.128 3.849l.074.2c.576 1.6 2.469 2.467 4.221 1.942l1.679-.539c-1.756.527-2.71 2.25-2.131 3.848l.075.201c.576 1.6 2.468 2.468 4.221 1.94l1.504-.494c-1.393.691-2.087 2.208-1.574 3.627l.073.202c.579 1.6 2.471 2.467 4.224 1.939l.504-.167c-.547.754-.726 1.718-.39 2.641l.072.202c.579 1.598 2.471 2.467 4.224 1.94 0 0 4.142-2.856 8.747-5.945l-16.211-19.727z"/><path fill="#FFC898" d="M-253.632 159.473c-1.815 1.142-4.304.727-5.555-.928l-5.81-6.61c-1.254-1.654-.796-3.922 1.018-5.063 1.815-1.143 4.303-.726 5.554.927l5.811 6.612c1.253 1.651.798 3.919-1.018 5.062z"/><path fill="#CB8953" d="M-243.523 169.444v-.075c-.899-1.178-2.679-1.468-3.971-.646-.955.606-1.376 1.647-1.169 2.625l-.917-1.197c-.902-1.178-2.679-1.468-3.971-.646-1.22.773-1.571 2.259-.851 3.412-.96-.861-2.486-1.006-3.631-.276-1.278.811-1.604 2.405-.735 3.578-.936-1.039-2.604-1.265-3.836-.483-1.292.822-1.666 2.315-1.217 3.619l.868 3.787s3.417-2.477 4.708-3.298c1.102-.698 1.705-.225 1.239-1.318l.219.288c.9 1.178 2.679 1.468 3.971.646 1.218-.773 1.569-2.258.852-3.411.959.861 2.485 1.004 3.628.279 1.138-.724 1.521-2.065.983-3.18a3.074 3.074 0 0 0 3.118-.086c1.295-.819 1.613-2.438.712-3.618z"/><path fill="#FFDCBA" d="M-242.925 173.923c-1.292.822-3.069.532-3.971-.646v-.074c-.9-1.178-.583-2.799.709-3.619 1.292-.821 3.071-.531 3.971.646v.074c.901 1.178.582 2.8-.709 3.619z"/><path fill="#FFC898" d="M-243.362 174.32c-1.292.822-3.068.532-3.97-.646v-.074c-.899-1.178-.581-2.799.708-3.619 1.295-.821 3.072-.531 3.974.646v.075c.899 1.178.58 2.799-.712 3.618z"/><path fill="#FFDCBA" d="M-247.171 177.21c-1.292.821-3.071.531-3.973-.646l-1.953-2.555c-.902-1.178-.583-2.799.709-3.618 1.292-.821 3.071-.531 3.97.646l1.955 2.558c.9 1.176.585 2.796-.708 3.615z"/><path fill="#FFC898" d="M-247.463 177.583c-1.292.822-3.069.532-3.971-.646l-1.955-2.555c-.899-1.18-.583-2.799.711-3.621 1.292-.819 3.069-.531 3.971.648l1.953 2.555c.902 1.179.584 2.8-.709 3.619z"/><path fill="#FFDCBA" d="M-251.508 180.452c-1.292.821-3.069.532-3.971-.646l-1.955-2.558c-.9-1.178-.582-2.797.711-3.618 1.292-.819 3.069-.529 3.968.648l1.955 2.555c.902 1.179.585 2.8-.708 3.619z"/><path fill="#FFC898" d="M-251.942 180.716c-1.292.821-3.072.534-3.971-.646l-1.955-2.556c-.902-1.177-.583-2.799.708-3.618 1.292-.821 3.069-.531 3.971.646l1.956 2.557c.899 1.178.584 2.797-.709 3.617z"/><path fill="#FFDCBA" d="M-256.728 182.524c-1.292.821-3.069.531-3.971-.646l-1.307-1.597c-.899-1.178-.583-2.799.708-3.618 1.292-.822 3.072-.532 3.974.646l1.306 1.597c.901 1.177.583 2.799-.71 3.618z"/><path fill="#FFC898" d="M-257.164 182.855c-1.292.819-3.069.532-3.969-.646l-1.309-1.598c-.899-1.18-.583-2.799.709-3.618 1.292-.821 3.071-.533 3.971.646l1.309 1.597c.899 1.179.584 2.8-.711 3.619z"/><path fill="#25A8DF" d="M-291.767 174.055V154.74h-9.576v21.441h11.755c-1.59.001-2.051-1.243-2.179-2.126z"/><path fill="#F3B475" d="M-291.767 156.062h1.762v16.274h-1.762z"/><path fill="#166C83" d="M-291.767 172.337h1.618v1.463s-.434 2.396 1.089 2.396c0 0-2.722.647-2.722-2.268l.015-1.591z"/><path fill="#E19963" d="M-234.116 153.771h1.661v16.283h-1.661z"/><path fill="#44C6F3" d="M-301.343 154.74h9.562v8.562h-9.562z"/><path fill="#91E9BB" d="M-232.455 152.543h9.561v8.56h-9.561z"/></g><path fill="#0BD1F1" d="M-106.54 164.122c0 26.462-21.49 47.915-48 47.915s-48-21.453-48-47.915c0-26.46 21.49-47.913 48-47.913s48 21.45 48 47.913z"/><path fill="#0F94C3" d="M-182.612 187.699l21.818 24.338s45.825 5.373 54.253-43.894l-16.437-20.574-59.634 40.13z"/><path fill="#02668D" d="M-125.152 146.68h-54.485a4.024 4.024 0 0 0-4.028 4.021v35.359a4.024 4.024 0 0 0 4.028 4.021h54.485a4.025 4.025 0 0 0 4.029-4.021v-35.359a4.024 4.024 0 0 0-4.029-4.021z"/><path fill="#AC8F6C" d="M-123.493 183.697a4.024 4.024 0 0 1-4.029 4.021h-54.485a4.025 4.025 0 0 1-4.028-4.021v-32.996a4.025 4.025 0 0 1 4.028-4.021h54.485a4.025 4.025 0 0 1 4.029 4.021v32.996z"/><path fill="#F8EAD3" d="M-123.493 181.331a4.025 4.025 0 0 1-4.029 4.022h-54.485a4.025 4.025 0 0 1-4.028-4.022v-32.996a4.024 4.024 0 0 1 4.028-4.021h54.485c2.226 0 4.029 1.8 4.029 4.021v32.996z"/><path fill="#FFB220" d="M-186.035 155.666h62.542v17.971h-62.542z"/><path fill="#E1D1B6" d="M-185.956 176.578h62.463v2.024h-62.463zm0-25.055h62.463v2.024h-62.463z"/><path fill="#E79614" d="M-186.035 156.138h62.542v.842h-62.542z"/><path fill="#FFF6E8" d="M-186.903 153.3h63.885v2.94h-63.885z"/><path fill="#E79614" d="M-186.035 173.028h62.542v.841h-62.542z"/><path fill="#FFF6E8" d="M-186.903 173.637h63.885v2.941h-63.885z"/><path fill="#9A8D7A" d="M-147.107 176.578c4.069-2.442 6.793-6.892 6.793-11.979 0-4.611-2.239-8.7-5.689-11.243h-16.609c-3.45 2.543-5.692 6.632-5.692 11.243 0 5.088 2.727 9.537 6.796 11.979h14.401z"/><ellipse fill="#FFF6E8" cx="-154.499" cy="164.702" rx="12.45" ry="12.428"/><ellipse fill="#676798" cx="-154.748" cy="164.794" rx="8.249" ry="8.234"/><ellipse fill="#46467B" cx="-154.748" cy="164.794" rx="6.412" ry="6.398"/><ellipse fill="#2F2F5D" cx="-154.748" cy="164.794" rx="4.806" ry="4.796"/><ellipse fill="#19193E" cx="-154.747" cy="164.794" rx="2.372" ry="2.367"/><circle fill="#FFF6E8" cx="-151.9" cy="161.438" r="1.875"/><circle fill="#FFF6E8" cx="-156.718" cy="167.848" r=".888"/><path fill="#2F2F5D" d="M-129.723 148.91c0 .633-.513 1.144-1.145 1.144h-5.692a1.145 1.145 0 0 1-1.148-1.144v-2.27c0-.633.514-1.146 1.148-1.146h5.692c.631 0 1.145.513 1.145 1.146v2.27z"/><path fill="#46467B" d="M-129.723 149.382c0 .634-.513 1.146-1.145 1.146h-5.692a1.146 1.146 0 0 1-1.148-1.146v-2.269c0-.632.514-1.145 1.148-1.145h5.692c.631 0 1.145.513 1.145 1.145v2.269z"/><path fill="#676798" d="M-136.294 146.441h1.106l1.2 3.612h-2.307a.672.672 0 0 1-.673-.672v-2.269a.673.673 0 0 1 .674-.671z"/><path fill="#FFF6E8" d="M-168.979 144.313v-1.458a.669.669 0 0 0-.67-.669h-5.053a.67.67 0 0 0-.672.669v1.458h6.395z"/><path fill="#E1D1B6" d="M-175.374 143.783h6.396v.53h-6.396z"/><circle fill="#F1C437" cx="48" cy="48" r="48"/><path fill="#CB9928" d="M33.062 76.227L50.76 96c1.398-.181 35.987-2.502 44.592-39.154 0 0-18.898-25.044-19.855-24.564-.958.48-42.435 43.945-42.435 43.945z"/><path fill-rule="evenodd" clip-rule="evenodd" fill="#8B7C22" d="M48.796 83.881v.002-.002zM83.402 47.51l-.05-22.625-24.364.049.002 1.113h-1.361v.049l-12.522-.026-.912.014-.039-.097-4.038.061h-.788l.002-1.116-24.367-.046-.047 22.624 1.482.004c3.698 0 7.288-.88 10.528-2.561l-.056 1.02.135-.053-.012 7.507h.065c.272 3.71 1.482 7.339 3.517 10.546l-.009 5.168.048.003-.005 2.131.157.002a9.698 9.698 0 0 0 6.912 7.979 4.179 4.179 0 0 0 4.036 3.011l1.893.005a5.942 5.942 0 0 0 5.173 3.048h.013a5.943 5.943 0 0 0 5.171-3.029l2.112.006a4.228 4.228 0 0 0 4.05-3.043c3.58-1.1 6.234-4.211 6.797-7.891h.16l.006-1.709-.008-1.441h-.039l.008-3.516c1.629-2.377 3.506-5.931 4.06-10.238l.164.002.013-8.575.123.046-.041-.986a22.8 22.8 0 0 0 10.549 2.57l1.482-.006z"/><path fill="#F49537" d="M21.575 34.435h.255-.255z"/><path fill="#FFF" d="M54.321 46.445c0-.041 0-.084.007-.128v.249c-.007-.039-.007-.083-.007-.121zm-.571 19.777l-.002.267h-.006c.006-.088.006-.177.008-.267z"/><path fill="#9A8478" d="M47.845 63.318h5.907v2.897h-5.907z"/><path fill="#FFF" d="M53.75 66.222c-.002.091-.002.18-.008.267l-5.899-.012v-.268l5.907.013z"/><path fill="#713811" d="M47.708 69.259c-.01 4.877 3.938 8.838 8.81 8.848a8.618 8.618 0 0 0 1.904-.202v.036a2.948 2.948 0 0 1-2.953 2.937l-15.203-.031a2.931 2.931 0 0 1-2.936-2.882c.443.071.904.108 1.369.108 4.877.011 8.84-3.937 8.85-8.813h.059v-.307h.039l-.003.307h.064z"/><path fill="#FFF" d="M47.799 68.952h.039v.386h-.039z"/><path fill="#FFF" d="M47.8 69.338l.007-2.861h.036l-.007 2.861z"/><path fill="#FB4343" d="M43.012 68.466l-.022 10.835a4.769 4.769 0 0 0 9.539.016l.021-10.832-9.538-.019z"/><path fill="#FFF" d="M47.804 66.209h.039v.268h-.039zm.003-2.897h.039v2.897h-.039zm-.003 2.897v.268l-4.93-.01c-.007-.084-.007-.176-.007-.268l4.937.01z"/><path fill="#9A8478" d="M42.868 66.197l.008-2.897 4.937.014-.008 2.897z"/><path fill="#DA2D2D" d="M42.875 78.492s4.26-1.572 4.925-4.541c0 0 1.571 3.871 4.732 4.161v-8.27l-8.26-3.038s-1.533 6.812-1.465 7.134.068 4.554.068 4.554z"/><path fill="#FBB158" d="M59.613 51.239c0-.11.002-1.962.014-4.586-.002-.021-1.653-4.449-3.109-9.08V24.389H38.961v17.553h.398c-1.345 4.685-2.698 8.566-2.7 8.721-.012 6.601-.021 11.948-6.618 11.936l-.08.056c.005.015.015.024.026.04l-.012 5.772c.285-2.979 2.862-5.3 5.996-5.294h.391l11.438.022 11.362.022h.396c3.317.008 6.005 2.63 6.001 5.86h.009l.013-5.793c-.001.001-5.979-5.558-5.968-12.045z"/><path fill-rule="evenodd" clip-rule="evenodd" fill="#FFE5C6" d="M65.605 69.001c.008-3.232-2.682-5.854-6-5.86h-.395l-11.363-.022-11.434-.023h-.391c-3.134-.008-5.714 2.314-5.996 5.294l-.003.834.058.003a8.831 8.831 0 0 0 8.833 8.846c4.417.008 8.083-3.122 8.843-7.253.75 4.135 4.44 7.281 8.901 7.287.67.002 1.955-.202 1.955-.202a8.826 8.826 0 0 0 6.943-8.609h.061v-.294h-.012z"/><path fill="#FFF" d="M42.867 66.199c0 .092 0 .184.007.268h-.007v-.268z"/><path fill-rule="evenodd" clip-rule="evenodd" fill="#F49537" d="M41.867 50.595c-.014 6.601-5.181 11.94-11.777 11.927l-.079.055c-2.187-3.296-3.559-7.172-3.78-11.29l-.039.532.027-14.185c5.369-4.117 8.828-5.955 8.843-13.245l6.767-.1.039.1c-.008.589-.001 25.897-.001 26.206z"/><circle fill="#B9721D" cx="34.676" cy="48.15" r="5.295"/><path fill="#481200" d="M34.735 43.579a4.405 4.405 0 0 0-4.415 4.397v.006a4.403 4.403 0 0 0 4.398 4.403c.105 0 .205-.008.311-.015a4.401 4.401 0 0 0-.294-8.791z"/><path fill="#F49537" d="M53.76 59.5l-.003 1.702-10.837-.021.005-1.7c.004-3.001 2.433-5.437 5.427-5.432 2.994.007 5.412 2.452 5.408 5.451zm7.914-35.061l-7.485-.012c-.003 1.527.126 26.622.126 26.727-.016 6.482 4.879 11.857 11.316 12.054 2.387-3.383 4.135-7.524 4.387-11.838h.037l.028-13.948c-5.138-4.152-8.423-5.861-8.409-12.983z"/><circle fill="#D7AD81" cx="55.921" cy="69.141" r="1.233"/><path fill="#D7AD81" d="M62.576 69.152a1.233 1.233 0 1 1-2.466-.002 1.233 1.233 0 0 1 2.466.002z"/><circle fill="#D7AD81" cx="58.871" cy="73.091" r="1.232"/><circle fill="#D7AD81" cx="35.213" cy="69.1" r="1.232"/><circle fill="#D7AD81" cx="40.636" cy="69.111" r="1.234"/><path fill="#D7AD81" d="M39.396 73.052a1.231 1.231 0 1 1-2.464-.006 1.231 1.231 0 1 1 2.464.006z"/><path fill="#FFF0E0" d="M36.681 46.766a1.869 1.869 0 0 1-1.866 1.869 1.868 1.868 0 0 1 0-3.735 1.867 1.867 0 0 1 1.866 1.866z"/><path fill="#B9721D" d="M30.024 24.335l-3.558 12.403-.275 6.728s10.895-4.054 11.405-19.131h-7.572z"/><path fill="#481200" d="M27.332 23.135l-13.886-.026-.043 22.766a22.661 22.661 0 0 0 13.894-4.699c5.407-4.148 8.9-10.678 8.915-18.022l-8.88-.019z"/><path fill="#713811" d="M42.964 59.994c-.024.21-.039 1.389-.039 1.605l-.005 1.702 10.836.022.003-1.703c0-.224-.016-1.409-.041-1.627H42.964z"/><path fill="#D7B99D" d="M41.85 63.131a8.25 8.25 0 0 0 1.169 3.859c1.119 1.828 2.879 2.997 4.824 3.204l.068.006c.167.019.342.025.552.027h.012c2.166 0 4.202-1.202 5.446-3.218a8.23 8.23 0 0 0 1.187-3.879H41.85z"/><path fill="#5A2E0D" d="M49.441 63.054l-1.567-.005-4.971-.01c.05 1.22.407 2.344.978 3.281.89 1.453 2.312 2.456 3.942 2.632h.039c.154.02.309.024.466.027 1.834.003 3.467-1.044 4.455-2.64a6.855 6.855 0 0 0 .99-3.279l-4.332-.006z"/><path d="M44.639 65.521s.468 1.198 1.615 1.669v-1.461s.364-1.834-1.408-1.834h-.574c0 .001.081 1.037.367 1.626z"/><circle fill="#B9721D" cx="62.047" cy="48.15" r="5.295"/><path d="M51.896 65.521s-.471 1.198-1.615 1.669v-1.461s-.367-1.834 1.406-1.834h.572c.001.001-.076 1.037-.363 1.626z"/><path fill="#481200" d="M62.053 43.581a4.403 4.403 0 0 1 4.416 4.396v.006a4.404 4.404 0 0 1-4.399 4.403c-.104 0-.204-.008-.311-.015a4.4 4.4 0 0 1 .294-8.79z"/><path fill="#FFF0E0" d="M60.107 46.766a1.868 1.868 0 1 0 3.734 0 1.868 1.868 0 0 0-3.734 0z"/><path fill="#B9721D" d="M66.27 24.335l3.559 12.403.274 6.728s-10.895-4.054-11.405-19.131h7.572z"/><path fill="#481200" d="M68.962 23.135l13.886-.026.047 22.766a22.66 22.66 0 0 1-13.896-4.699c-5.407-4.148-8.9-10.678-8.915-18.021l8.878-.02z"/><path fill="#FFE5C6" d="M43.848 30.303l.003-5.94 8.377.014-.002 5.943a4.195 4.195 0 0 1-4.198 4.196c-2.314-.004-4.185-1.895-4.18-4.213z"/><path fill="#92461C" d="M42.964 61.73h10.793v1.208H42.964z"/></svg>