<svg id="Layer_1" data-name="Layer 1" xmlns="http://www.w3.org/2000/svg" viewBox="0 0 96 96"><defs><style>.cls-1{fill:#00e28b}.cls-2{fill:#02ad63}.cls-3{fill:#00724f}.cls-4{fill:#280800}.cls-5{fill:#fc9}.cls-6{fill:#ffeac0}.cls-7{fill:#f9ece4}.cls-8{fill:#707c76}</style></defs><title>desenhos</title><circle class="cls-1" cx="48" cy="48" r="47.64" transform="rotate(-.16 50.064 50.204)"/><path class="cls-2" d="M11.59 38.21l15.92 25.88-.28 15.68 13.9 15.36s31.4 5.34 47.49-22.13a47.86 47.86 0 0 0 7-25.16L82.57 24 61.89 47.18z"/><path class="cls-3" d="M86.34 34.75a14.89 14.89 0 1 0-29.59 2.38 28.28 28.28 0 0 0-15.57 0 14.89 14.89 0 1 0-16.35 12.41 28.19 28.19 0 0 0-4.18 14.81 20.81 20.81 0 0 0 2.89 11.16A27 27 0 0 0 41 89a26.82 26.82 0 0 0 8.64 1.36 24 24 0 0 0 8-1.32A27.31 27.31 0 0 0 75.31 74a8.5 8.5 0 0 0 .32-.9 22.19 22.19 0 0 0 1.63-8.72 28.18 28.18 0 0 0-4.18-14.81 14.89 14.89 0 0 0 13.26-14.82z"/><circle class="cls-4" cx="25.25" cy="32.28" r="14.89"/><circle class="cls-4" cx="70.22" cy="32.28" r="14.89"/><path class="cls-4" d="M76.06 61.89c0 15.64-12.68 21.72-28.32 21.72s-28.32-6.08-28.32-21.72a28.32 28.32 0 1 1 56.64 0z"/><path class="cls-5" d="M74.1 71.51a6.7 6.7 0 0 0-.11-6c-1.53-2.75-5-3.88-8.55-3.1a20.13 20.13 0 0 0 1-6.48c0-8.48-5-15.36-11.24-15.36-3.16 0-5.69 1.78-7.42 4.65-1.73-2.87-4.26-4.65-7.42-4.65-6.21 0-11.24 6.88-11.24 15.36a20.12 20.12 0 0 0 1 6.48c-3.55-.78-7 .35-8.55 3.1a6.71 6.71 0 0 0-.1 6c.7 1.61 7 16.07 26.77 16.07 18.77 0 25.19-14.84 25.72-16z"/><path class="cls-6" d="M23.64 70.64c1.5 3.46 7.72 17.28 24.73 17.28C64.76 87.92 71 73.12 72 70.67l.05-.11a4.46 4.46 0 0 0 0-3.95 4.86 4.86 0 0 0-4.41-2.19 7.92 7.92 0 0 0-1.71.19l-3.88.86 1.28-3.76a17.8 17.8 0 0 0 .93-5.76c0-7.12-4.12-13.13-9-13.13a6.54 6.54 0 0 0-5.5 3.57l-1.91 3.18-1.92-3.18a6.54 6.54 0 0 0-5.5-3.57c-4.88 0-9 6-9 13.13a17.82 17.82 0 0 0 .93 5.76l1.28 3.76-3.88-.86a7.93 7.93 0 0 0-1.76-.2 4.86 4.86 0 0 0-4.41 2.19 4.45 4.45 0 0 0-.05 3.9z"/><ellipse class="cls-5" cx="47.86" cy="69.37" rx="6.73" ry="4.08"/><ellipse class="cls-4" cx="47.86" cy="67.45" rx="6.73" ry="4.08"/><ellipse class="cls-7" cx="47.81" cy="66.06" rx="2.87" ry="1.26"/><ellipse class="cls-5" cx="55.76" cy="57.62" rx="4.56" ry="6.96"/><ellipse class="cls-4" cx="55.76" cy="55.45" rx="4.56" ry="6.96"/><ellipse class="cls-7" cx="55.7" cy="52.67" rx="1.91" ry="1.97"/><ellipse class="cls-5" cx="39.29" cy="57.62" rx="4.56" ry="6.96"/><ellipse class="cls-4" cx="39.29" cy="55.45" rx="4.56" ry="6.96"/><ellipse class="cls-7" cx="39.23" cy="52.67" rx="1.91" ry="1.97"/><path class="cls-8" d="M47.74 34.22C64 34.22 75.53 46.59 76 61.78v.11a28.32 28.32 0 1 0-56.64 0v-.11c.64-15.19 12.1-27.56 28.38-27.56z"/><path class="cls-8" d="M25 17.83c8.22 0 14.89 7.1 14.89 15.32 0 1.09.22.53.22-.87a14.89 14.89 0 0 0-29.41-3.16c1.76-6.27 7.51-11.29 14.3-11.29zm45.45 0c-8.22 0-14.89 7.1-14.89 15.32 0 1.09-.22.53-.22-.87a14.89 14.89 0 0 1 29.44-3.17c-1.78-6.26-7.5-11.28-14.33-11.28z"/></svg>