<svg id="Layer_1" xmlns="http://www.w3.org/2000/svg" viewBox="0 0 96 96"><style>.st0{fill:#e565e5}.st1{fill:#cd47d1}.st2{opacity:.8;fill:#821b9b}.st3{fill:#91859e}.st4{fill:#213b3f}.st5{fill:#fff}</style><title>filmes</title><circle class="st0" cx="47.9" cy="48.1" r="47.6"/><path class="st1" d="M19 76.9l10.9 15.2s25.2 11.6 48.8-7.7c0 0 13.6-10.8 16.3-28.6L67 14.2S20 30.6 19.6 31.3 19 76.9 19 76.9z"/><path class="st2" d="M75.7 37.9H31l42.8-12.1c.7-.2 1.1-.9.9-1.6l-1.8-6.5c0-.2-.1-.3-.2-.4l-.4-1.5c-.2-.7-.9-1.1-1.5-.9L47 21.6h-.1l-19.5 5.5h-6.6c-.7 0-1.3.6-1.3 1.3v1l-1.5.5c-.7.2-1.1.9-.9 1.6L19 38c0 .2.1.3.2.4l.2.6v37.6c0 1.4.5 1.9 1.9 1.9h54.4c1.4 0 1.9-.5 1.9-1.9V39.8c0-1.4-.5-1.9-1.9-1.9z"/><path class="st3" d="M74.7 21.8c.2.7-.2 1.4-.9 1.6L21.2 38.2c-.7.2-1.4-.2-1.6-.9l-1.8-6.5c-.2-.7.2-1.4.9-1.6l52.6-14.8c.7-.2 1.4.2 1.6.9l1.8 6.5zm2.9 51.5c0 1.4-.5 1.9-1.9 1.9H21.3c-1.4 0-1.9-.5-1.9-1.9V41.1c0-1.4 1.1-2.5 2.5-2.5H75c1.4 0 2.5 1.1 2.5 2.5v32.2z"/><path class="st4" d="M21.3 35.4h54.4c1 0 1.9.9 1.9 1.9v33.5c0 1-.9 1.9-1.9 1.9H21.3c-1 0-1.9-.9-1.9-1.9V37.3c0-1 .8-1.9 1.9-1.9z"/><path class="st5" d="M19.4 59.1h58.2v1.8H19.4zm0-11.8h58.2v1.5H19.4z"/><path class="st5" d="M31.4 60.6h1.5v7.2h-1.5zm15.8 0h1.5v7.2h-1.5zm15.2 0h1.5v7.2h-1.5z"/><path class="st5" d="M19.4 67.3h58.2v1.8H19.4z"/><path class="st4" d="M74.1 19.9c.2.7-.2 1.4-.9 1.6L20.6 36.3c-.7.2-1.4-.2-1.6-.9l-1.8-6.5c-.2-.7.2-1.3.8-1.6l52.7-14.8c.7-.2 1.4.2 1.6.9l1.8 6.5z"/><path class="st5" d="M36.6 31.9l-6.9 1.8 3.1-10.6 7-1.9zM50.5 28l-6.9 1.7 3.2-10.5 6.9-1.9zm13.9-3.8l-7 1.7 3.2-10.5 7-1.9zm-24 21.5h-6.3l-3.8-10.3h6.3zm14.6 0h-6.3l-3.8-10.3h6.3zm13.9 0h-6.3l-3.8-10.3h6.3z"/><path class="st4" d="M20.7 24.7H27c.7 0 1.3.6 1.3 1.3v15.5c0 .7-.6 1.3-1.3 1.3h-6.3c-.7 0-1.3-.6-1.3-1.3V25.9c0-.7.6-1.2 1.3-1.2z"/><circle class="st3" cx="23.4" cy="29.7" r="1.6"/></svg>