<svg xmlns="http://www.w3.org/2000/svg" width="96" height="96" viewBox="0 0 96 96"><ellipse fill="#FF7C07" cx="48.169" cy="47.979" rx="47.938" ry="47.981"/><path fill="#E14E0D" d="M20.938 79.089l11.595 14.432s8.355 2.09 10.958 2.164c1.627.046 18.253 2.965 34.482-9.904 8.946-7.093 17.425-19.017 18.258-38.871L73.464 18.743 20.938 79.089z"/><path fill="#EED7A7" d="M75.261 52.16V22.235a5.366 5.366 0 0 0-5.367-5.368H23.997a5.367 5.367 0 0 0-5.366 5.368V52.16h56.63z"/><path fill="#D2B279" d="M75.261 53.106V23.183a5.368 5.368 0 0 0-5.367-5.369H23.997a5.369 5.369 0 0 0-5.366 5.369v29.923h56.63z"/><path fill="#FFF8EF" d="M75.261 61.158V31.234a5.365 5.365 0 0 0-5.367-5.368H23.997a5.366 5.366 0 0 0-5.366 5.368v29.924h56.63z"/><path fill="#EED7A7" d="M75.261 62.105V32.182a5.367 5.367 0 0 0-5.367-5.369H23.997a5.367 5.367 0 0 0-5.366 5.369v29.924h56.63z"/><path fill="#3E3428" d="M21.024 32.815h15.231v19.019H21.024z"/><path fill="#534B42" d="M22.524 35.854h12.303v8.215H22.524z"/><path fill="#18130C" d="M21.024 50.253h15.231v1.581H21.024z"/><path fill="#FFF8EF" d="M21.024 51.834h15.231v.947H21.024z"/><path fill="#18130C" d="M21.024 32.815h15.231v3.039H21.024z"/><path fill="#D2B279" d="M18.729 56.37v16.531a5.27 5.27 0 0 0 5.266 5.271h45.901a5.269 5.269 0 0 0 5.265-5.271V56.37H18.729z"/><path fill="#EED7A7" d="M18.729 55.423v16.531a5.27 5.27 0 0 0 5.266 5.271h45.901a5.27 5.27 0 0 0 5.265-5.271V55.423H18.729z"/><path fill="#FFF8EF" d="M18.729 55.897v7.059a5.268 5.268 0 0 0 5.266 5.269h45.901a5.267 5.267 0 0 0 5.265-5.269v-7.059H18.729zm19.893 16.775h17.42v2.211h-17.42z"/><path fill="#A28C70" d="M38.622 69.673h17.42v2.999h-17.42z"/><path fill="#A7957D" d="M38.622 69.673h17.42v.79h-17.42z"/><path fill="#151312" d="M21.024 32.815h15.231v.784H21.024z"/><path fill="#3E3428" d="M39.007 32.815h15.229v19.019H39.007z"/><path fill="#534B42" d="M40.505 35.854h12.304v8.215H40.505z"/><path fill="#18130C" d="M39.007 50.253h15.229v1.581H39.007z"/><path fill="#FFF8EF" d="M39.007 51.834h15.229v.947H39.007z"/><path fill="#18130C" d="M39.007 32.815h15.229v3.039H39.007z"/><path fill="#3E3428" d="M56.514 32.815h15.231v19.019H56.514z"/><path fill="#534B42" d="M58.014 35.854h12.302v8.215H58.014z"/><path fill="#18130C" d="M56.514 50.253h15.231v1.581H56.514z"/><path fill="#E1CFBB" d="M26.073 56.254c-2.348 0-4.259 1.665-4.259 3.709 0 2.046 1.912 3.711 4.259 3.711s4.259-1.665 4.259-3.711c.001-2.044-1.911-3.709-4.259-3.709z"/><path fill="#FFF8EF" d="M56.514 51.834h15.231v.947H56.514z"/><path fill="#D23030" d="M27.886 56.649a4.263 4.263 0 0 0-1.813-.396c-.657 0-1.274.143-1.813.396l-1.972 1.419v1.422c0 1.786 1.695 3.236 3.785 3.236 2.089 0 3.785-1.45 3.785-3.236v-1.422l-1.972-1.419z"/><path fill="#18130C" d="M56.514 32.815h15.231v3.039H56.514z"/><ellipse fill="#FB4343" cx="26.073" cy="58.068" rx="3.785" ry="3.236"/><path fill="#F67676" d="M25.991 58.938c-.925-.002-1.757-.335-2.348-.87h-.883c0 1.526 1.447 2.765 3.231 2.765 1.786 0 3.233-1.238 3.233-2.765h-.884c-.589.536-1.422.87-2.349.87z"/><path fill="#EED7A7" d="M68.696 65.858H24.72c-2.786 0-5.044-2.736-5.044-5.525v1.423a5.046 5.046 0 0 0 5.044 5.049h43.977c2.79 0 5.048-2.26 5.048-5.049v-1.423c-.001 2.789-2.259 5.525-5.049 5.525z"/><path fill="#D2B279" d="M78.95 61.265h-3.427v-2.843h3.35l.002-.03 1.421-18.226 2.83.222-1.417 18.181a2.764 2.764 0 0 1-2.759 2.696z"/><circle fill="#FB4343" cx="81.58" cy="36.071" r="5.06"/><circle fill="#FFC1C1" cx="81.989" cy="32.88" r="1.542"/><path fill="#D23030" d="M81.594 39.547a5.204 5.204 0 0 1-5.026-3.871 5.152 5.152 0 0 0-.047.65 5.062 5.062 0 0 0 5.059 5.066 5.063 5.063 0 0 0 5.025-5.654 5.206 5.206 0 0 1-5.011 3.809z"/><path fill="#A7957D" d="M79.509 50.253h.666-.666zm-4.348 8.169h.914v2.883h-.914z"/><path fill="#7B2604" d="M87.338 38.438a5.063 5.063 0 0 0-5.062-5.064 5.062 5.062 0 0 0-5.058 5.064c0 .052.004.101.006.151 0 .037-.006.071-.006.106a5.064 5.064 0 0 0 3.693 4.874l-1.339 17.189-.002.034h-3.614V24.604a5.368 5.368 0 0 0-5.366-5.371H24.693a5.369 5.369 0 0 0-5.364 5.371v39.869h.099v10.794a5.267 5.267 0 0 0 5.266 5.271h45.898a5.269 5.269 0 0 0 5.267-5.271V64.473h.1v-.8h.813v-.041h2.877c1.5 0 2.725-1.205 2.759-2.698l1.354-17.397a5.066 5.066 0 0 0 3.576-4.842c0-.039-.007-.077-.007-.116 0-.045.007-.093.007-.141z"/><path fill="#EED7A7" d="M75.261 52.16V22.235a5.366 5.366 0 0 0-5.367-5.368H23.997a5.367 5.367 0 0 0-5.366 5.368V52.16h56.63z"/><path fill="#D2B279" d="M75.261 53.106V23.183a5.368 5.368 0 0 0-5.367-5.369H23.997a5.369 5.369 0 0 0-5.366 5.369v29.923h56.63z"/><path fill="#FFF8EF" d="M75.261 61.158V31.234a5.365 5.365 0 0 0-5.367-5.368H23.997a5.366 5.366 0 0 0-5.366 5.368v29.924h56.63z"/><path fill="#EED7A7" d="M75.261 62.105V32.182a5.367 5.367 0 0 0-5.367-5.369H23.997a5.367 5.367 0 0 0-5.366 5.369v29.924h56.63z"/><path fill="#4B3F33" d="M21.024 32.815h15.231v19.019H21.024z"/><path fill="#18130C" d="M21.024 50.253h15.231v1.581H21.024z"/><path fill="#FFF8EF" d="M21.024 51.834h15.231v.947H21.024z"/><path fill="#D2B279" d="M18.729 56.37v16.531a5.27 5.27 0 0 0 5.266 5.271h45.901a5.269 5.269 0 0 0 5.265-5.271V56.37H18.729z"/><path fill="#EED7A7" d="M18.729 55.423v16.531a5.27 5.27 0 0 0 5.266 5.271h45.901a5.27 5.27 0 0 0 5.265-5.271V55.423H18.729z"/><path fill="#FFF8EF" d="M18.729 55.897v7.059a5.268 5.268 0 0 0 5.266 5.269h45.901a5.267 5.267 0 0 0 5.265-5.269v-7.059H18.729zm19.893 16.775h17.42v2.211h-17.42z"/><path fill="#A28C70" d="M38.622 69.673h17.42v2.999h-17.42z"/><path fill="#715D46" d="M38.622 69.673h17.42v.79h-17.42z"/><path fill="#4B3F33" d="M21.024 32.815h15.231v.784H21.024zm17.983 0h15.229v.784H39.007z"/><path fill="#4B3F33" d="M39.007 32.815h15.229v19.019H39.007z"/><path fill="#18130C" d="M39.007 50.253h15.229v1.581H39.007z"/><path fill="#FFF8EF" d="M39.007 51.834h15.229v.947H39.007z"/><path fill="#4B3F33" d="M56.514 32.815h15.231v19.019H56.514z"/><path fill="#18130C" d="M56.514 50.253h15.231v1.581H56.514z"/><path fill="#E1CFBB" d="M26.073 56.254c-2.348 0-4.259 1.665-4.259 3.709 0 2.046 1.912 3.711 4.259 3.711s4.259-1.665 4.259-3.711c.001-2.044-1.911-3.709-4.259-3.709z"/><path fill="#FFF8EF" d="M56.514 51.834h15.231v.947H56.514z"/><path fill="#D23030" d="M27.886 56.649a4.263 4.263 0 0 0-1.813-.396c-.657 0-1.274.143-1.813.396l-1.972 1.419v1.422c0 1.786 1.695 3.236 3.785 3.236 2.089 0 3.785-1.45 3.785-3.236v-1.422l-1.972-1.419z"/><ellipse fill="#FB4343" cx="26.073" cy="58.068" rx="3.785" ry="3.236"/><path fill="#F67676" d="M25.991 58.938c-.925-.002-1.757-.335-2.348-.87h-.883c0 1.526 1.447 2.765 3.231 2.765 1.786 0 3.233-1.238 3.233-2.765h-.884c-.589.536-1.422.87-2.349.87z"/><path fill="#EED7A7" d="M68.696 65.858H24.72c-2.786 0-5.044-2.736-5.044-5.525v1.423a5.046 5.046 0 0 0 5.044 5.049h43.977c2.79 0 5.048-2.26 5.048-5.049v-1.423c-.001 2.789-2.259 5.525-5.049 5.525z"/><path fill="#D2B279" d="M78.95 61.265h-3.427v-2.843h3.35l.002-.03 1.421-18.226 2.83.222-1.417 18.181a2.764 2.764 0 0 1-2.759 2.696z"/><circle fill="#FFCD02" cx="81.58" cy="36.071" r="5.06"/><circle fill="#FFEEA4" cx="81.749" cy="33.604" r="1.542"/><path fill="#FF9E03" d="M81.594 39.547a5.204 5.204 0 0 1-5.026-3.871 5.152 5.152 0 0 0-.047.65 5.062 5.062 0 0 0 5.059 5.066 5.063 5.063 0 0 0 5.025-5.654 5.206 5.206 0 0 1-5.011 3.809z"/><path fill="#A7957D" d="M79.509 50.253h.666-.666zm-4.348 8.169h.914v2.883h-.914z"/><path fill="#4B3F33" d="M39.007 32.815h15.229v.784H39.007zm17.507 0h15.231v.784H56.514z"/><path fill="#D0D2D3" d="M67.284 40.531c-.101-.23-.129-.458-.087-.604h-6.106c.041.147.016.374-.086.604a1.123 1.123 0 0 1-.348.46h6.974a1.13 1.13 0 0 1-.347-.46z"/><path fill="#EC1B23" d="M66.239 48.644h-4.125l-.912-7.652h5.949z"/><path fill="#FFF" d="M63.966 36.792h.524v3.135h-.524z"/><path fill="#55E162" d="M50.389 43.677c0-2.066-1.047-3.81-2.486-4.381l.002-.049c0-.654-.458-1.188-1.023-1.188-.568 0-1.026.534-1.026 1.188l.002.049c-1.44.571-2.487 2.315-2.487 4.381 0 2.07 1.055 3.817 2.502 4.383.084.558.501.983 1.009.983.506 0 .922-.426 1.006-.983 1.446-.566 2.501-2.313 2.501-4.383z"/><path opacity=".3" fill="#FFF" d="M40.505 34.392h12.304v8.214H40.505z"/><path fill-rule="evenodd" clip-rule="evenodd" fill="#FFCD02" d="M27.241 40.191v-.106a1.837 1.837 0 1 1 3.672.061l-.005.106-3.667-.061zm3.092 2.833a3.034 3.034 0 0 0-1.263-5.766 3.034 3.034 0 0 0-1.338 5.778l-.041 2.104.688.422-.019 1.131-.708.683-.012.7 1.561 1.082 1.037-1.039.095-5.095z"/><path opacity=".3" fill="#FFF" d="M22.524 34.392h12.303v8.214H22.524z"/><path d="M39.022 30.375h15.232v3.038H39.022zm-17.968.061h15.231v3.039H21.054zm35.484 0h15.231v3.039H56.538z"/><path opacity=".3" fill="#FFF" d="M57.841 34.392h12.303v8.214H57.841z"/></svg>