<svg xmlns="http://www.w3.org/2000/svg" width="96" height="96" viewBox="0 0 96 96"><ellipse fill="#FCBA10" cx="48" cy="48" rx="48.39" ry="48.396"/><path opacity=".7" fill="#CC811D" d="M9.423 60.395L32.546 94s20.504 6.416 36.611-2.369c0 0 17.327-7.078 24.403-27.82L74.526 36.722 9.423 60.395z"/><path fill="#32CBFF" d="M23.375 37.716h38.966v22.678H23.375z"/><path fill="#32CBFF" d="M67.617 32.753c0 10.477-10.451 18.969-23.343 18.969h-2.446c-12.893 0-23.344-8.493-23.344-18.969 0-10.478 5.062-18.971 17.955-18.971h13.223c12.893.001 17.955 8.494 17.955 18.971z"/><path fill="#1F86DB" d="M74.51 46.054a1.89 1.89 0 0 1-1.891 1.889H13.704a1.89 1.89 0 0 1 0-3.78h58.915a1.891 1.891 0 0 1 1.891 1.891z"/><path fill="#1C48A9" d="M76.715 60.395c.034-.33.053-.666.053-1.004V42.768c0-5.203-4.219-9.422-9.422-9.422-5.205 0-9.424 4.219-9.424 9.422v16.623c0 .338.02.674.055 1.004h18.738zm-48.554 0c.035-.33.054-.666.054-1.004V42.768c0-5.203-4.219-9.422-9.423-9.422s-9.423 4.219-9.423 9.422v16.623c0 .338.019.674.054 1.004h18.738zm35.872 14.396L74.77 88.457s2.441-1.463 5.613-4.637L69.157 69.91l-5.124 4.881z"/><circle opacity=".5" fill="#FFF" cx="55.857" cy="57.343" r="17.448"/><path opacity=".8" fill="#FFF" d="M39.372 51.627a17.415 17.415 0 0 0-.963 5.717c0 9.637 7.812 17.447 17.448 17.447.383 0 .762-.016 1.138-.041L39.372 51.627zm31.569 14.475a17.338 17.338 0 0 0 2.365-8.758c0-9.637-7.812-17.449-17.449-17.449-1.538 0-3.027.205-4.448.579l19.532 25.628zM47.917 41.81a17.524 17.524 0 0 0-5.558 4.478l20.579 27.001a17.459 17.459 0 0 0 5.787-4.178L47.917 41.81z"/><path fill="#1C48A9" d="M53.783 36.966c-11.86 0-21.475 9.614-21.475 21.475s9.615 21.475 21.475 21.475 21.475-9.613 21.475-21.475c0-11.86-9.614-21.475-21.475-21.475zm0 37.46c-8.828 0-15.984-7.156-15.984-15.984s7.156-15.984 15.984-15.984 15.984 7.156 15.984 15.984-7.156 15.984-15.984 15.984z"/><path fill="#1F86DB" d="M55.735 35.991c-11.86 0-21.475 9.614-21.475 21.474 0 11.861 9.615 21.475 21.475 21.475s21.476-9.613 21.476-21.475c0-11.86-9.615-21.474-21.476-21.474zm0 37.458c-8.828 0-15.984-7.156-15.984-15.984s7.156-15.984 15.984-15.984 15.984 7.156 15.984 15.984c.001 8.828-7.156 15.984-15.984 15.984z"/></svg>