<svg xmlns="http://www.w3.org/2000/svg" width="96" height="96" viewBox="0 0 96 96"><path fill="#FCBA10" d="M96 47.919c0 26.462-21.491 47.918-47.998 47.918C21.491 95.837 0 74.381 0 47.919 0 21.456 21.491 0 48.002 0 74.509 0 96 21.456 96 47.919z"/><path opacity=".7" fill="#CC811D" d="M23.559 78.634l15.008 16.188s12.83 4.832 33.164-5.073c0 0 22.02-11.499 24.207-38.418l-30.34-29.962-20.656-6.766-11.11 12.007-.833 10.867-9.44 41.157z"/><path fill="#FFF" d="M35.935 39.489h-7.732v-9.628c0-10.798 8.802-19.584 19.62-19.584 10.817 0 19.62 8.786 19.62 19.584v8.665h-7.731v-8.665c0-6.543-5.332-11.866-11.888-11.866-6.555 0-11.888 5.323-11.888 11.866l-.001 9.628z"/><path fill="#A1D6E2" d="M63.623 38.526v-8.904c0-8.578-6.992-15.558-15.587-15.558-8.595 0-15.586 6.979-15.586 15.558v9.867h3.485v-9.628c0-6.543 5.333-11.866 11.888-11.866 6.556 0 11.888 5.323 11.888 11.866v8.665h3.912z"/><path fill="#32CBFF" d="M74.57 75.109c0 1.812-1.569 3.281-3.506 3.281H25.853c-1.936 0-3.505-1.47-3.505-3.281V40.976c0-1.813 1.569-3.283 3.505-3.283h45.211c1.937 0 3.506 1.47 3.506 3.283v34.133z"/><path fill="#1C48A9" d="M71.064 75.009H25.853c-1.936 0-3.505-1.47-3.505-3.282v4.834c0 1.812 1.569 3.28 3.505 3.28h45.211c1.937 0 3.506-1.47 3.506-3.28v-4.834c0 1.812-1.569 3.282-3.506 3.282z"/><path fill="#FFF" d="M28.771 50.261l4.897-7.384a2.121 2.121 0 0 1 2.977-.59c.045.03.081.07.124.104l.327.149 26.216 18.272a10.433 10.433 0 0 1 6.9-2.136c5.837.315 10.321 5.413 9.999 11.363-.321 5.95-5.332 10.535-11.17 10.221-5.834-.315-10.319-5.411-9.998-11.364.039-.729.149-1.437.324-2.117L40.64 53.604l-2.357 3.556a2.123 2.123 0 0 1-2.978.592c-.98-.675-1.236-2.033-.573-3.034l2.384-3.593-2.555-1.798-2.239 3.378a2.122 2.122 0 0 1-2.977.591 2.21 2.21 0 0 1-.574-3.035zm40.588 24.18c2.688.145 4.996-1.969 5.145-4.709s-1.917-5.09-4.605-5.234-4.996 1.968-5.146 4.708c-.149 2.741 1.918 5.09 4.606 5.235z"/><path fill="#A1D6E2" d="M32.757 44.202l28.021 19.271s-1.084 1.189-1.408 3.309l-28.468-19.8 1.855-2.78z"/><path fill="#A1D6E2" d="M33.201 47.746l-3.712 5.679s1.669 1.017 2.832-.721l2.239-3.378-1.359-1.58zm6.012 4.39l-3.712 5.679s1.669 1.017 2.832-.721l2.239-3.377-1.359-1.581zm24.099 8.676l2.446 1.631s5.04-2.686 8.876.322c4.52 3.545 2.604 10.073 1.465 10.998l2.409 1.567s5.164-8.216-.969-14.015c-6.793-6.422-14.227-.503-14.227-.503zm10.379 11.334a4.838 4.838 0 0 1-4.019 2.138 4.836 4.836 0 0 1-4.842-4.832c0-1.001.304-1.933.826-2.702l-2.408-1.617a7.684 7.684 0 0 0-1.324 4.319c0 4.263 3.478 7.731 7.748 7.731a7.75 7.75 0 0 0 6.427-3.42l-2.408-1.617z"/></svg>