<svg xmlns="http://www.w3.org/2000/svg" width="1030" height="1034" viewBox="0 0 1030 1034"><path fill="#FCBA10" d="M1027.146 516.996c0 284.391-229.304 514.975-512.121 514.975-282.865 0-512.17-230.584-512.17-514.975C2.855 232.61 232.16 2.029 515.025 2.029c282.817 0 512.121 230.581 512.121 514.967z"/><path fill="#CC811D" d="M187.081 777.824l154.968 220.715s224.702 109.061 492.445-78.76c0 0 147.341-102.502 184.308-308.268L837.944 331.198 187.081 777.824z" opacity=".7"/><path fill="none" d="M763.489 366.187l41.888 19.891c23.246 13.243 32.548 22.742 32.548 44.711v404.198c0 21.969-16.636 39.781-37.188 39.781H217.438c-20.561 0-37.248-17.812-37.248-39.781V430.788c0-21.969 4.651-39.729 37.248-54.681l38.794-19.842"/><path fill="none" d="M180.19 473.897l76.606 43.099 211.94 119.244s35.696 26.484 77.544-1.664l215.662-139.651 75.981-49.231"/><path fill="#1C48A9" d="M829.01 281.634h-623.5c-21.976 0-39.816 19.038-39.816 42.52v445.771c0 23.484 17.841 42.523 39.816 42.523h623.5c21.975 0 39.758-19.039 39.758-42.523V324.154c0-23.482-17.784-42.52-39.758-42.52z"/><path fill="#32CBFF" d="M839.946 320.496c-5.946-6.993-16.413-7.784-23.35-1.811L546.039 551.848l-.646.578c-14.577 13.957-29.207 20.729-43.509 20.035-21.716-1.01-37.273-18.654-37.354-18.756l-246.895-237.19c-6.613-6.349-17.096-6.115-23.431.54-6.306 6.652-6.069 17.196.544 23.54l184.135 176.807L245.26 701.785c-5.389 7.436-3.758 17.857 3.637 23.273a16.364 16.364 0 0 0 9.731 3.195 16.53 16.53 0 0 0 13.409-6.848l131.021-180.797 36.931 35.461c4.267 4.727 26.796 27.885 59.875 29.639 1.371.072 2.723.107 4.081.107 22.264 0 43.765-9.729 63.969-28.961l47.907-41.277 134.665 185.828a16.538 16.538 0 0 0 13.407 6.848c3.386 0 6.796-1.033 9.74-3.195 7.391-5.416 9.025-15.838 3.638-23.273L641.053 513.831l197.104-169.858c6.946-5.98 7.753-16.493 1.789-23.477z"/><path fill="#FFF" d="M508.332 973.117c-252.076 0-457.155-206.182-457.155-459.611S256.256 53.898 508.332 53.898c252.075 0 457.155 206.18 457.155 459.608-.001 253.43-205.081 459.611-457.155 459.611zm0-903.639c-243.529 0-441.658 199.191-441.658 444.028 0 244.838 198.128 444.031 441.658 444.031 243.529 0 441.657-199.193 441.657-444.031-.001-244.837-198.129-444.028-441.657-444.028z"/><path fill="#FFF" d="M508.336 658.059c-79.279 0-143.78-64.846-143.78-144.553 0-79.704 64.5-144.55 143.78-144.55s143.774 64.846 143.774 144.55c0 79.707-64.494 144.553-143.774 144.553zm0-273.523c-70.734 0-128.282 57.857-128.282 128.97 0 71.115 57.547 128.973 128.282 128.973 70.735 0 128.276-57.857 128.276-128.973 0-71.112-57.541-128.97-128.276-128.97z"/><path fill="#FFF" d="M508.332 822.916c-169.699 0-307.756-138.801-307.756-309.41 0-170.608 138.058-309.408 307.756-309.408 169.698 0 307.755 138.8 307.755 309.408 0 170.609-138.058 309.41-307.755 309.41zm0-603.238c-161.153 0-292.261 131.812-292.261 293.828 0 162.02 131.108 293.83 292.261 293.83s292.259-131.811 292.259-293.83c0-162.017-131.107-293.828-292.259-293.828z"/><path fill="#FFF" d="M530.921 487.398l309.603-282.326-44.477-42.145-65.288-40.746-210.73 356.788a38.378 38.378 0 0 1 10.892 8.429z"/><ellipse fill="#FFF" cx="501.536" cy="513.612" rx="25.181" ry="25.319"/><path fill="#FFF" d="M500.583 777.824h15.498v193.883h-15.498zm0-716.136h15.498v205.46h-15.498zM53.168 511.505h192.847v15.579H53.168zm705.963 0h204.364v15.579H759.131z"/></svg>