<svg xmlns="http://www.w3.org/2000/svg" width="96" height="96" viewBox="0 0 96 96"><path fill="#FCBA10" d="M96 48c0 26.508-21.49 48-47.998 48C21.491 96 0 74.508 0 48 0 21.493 21.491 0 48.002 0 74.51 0 96 21.493 96 48z"/><path opacity=".7" fill="#CC811D" d="M12.961 73.846l5.514 11.779s22.916 20.653 53.74 3.227c0 0 15.977-6.454 22.431-29.688L82.923 26.17 12.961 73.846z"/><path fill="#32CBFF" d="M83.831 73.26a.908.908 0 0 1-.908.909h-69.51a.909.909 0 0 1-.909-.909V27.078c0-.501.407-.908.909-.908h69.51c.502 0 .908.407.908.908V73.26z"/><path fill="#1C48A9" d="M83.831 71.897a.908.908 0 0 1-.908.908h-69.51a.909.909 0 0 1-.909-.908V25.716c0-.502.407-.908.909-.908h69.51c.502 0 .908.406.908.908v46.181z"/><path fill="#A1D6E2" d="M47.811 69.97l-31.851.048a1.107 1.107 0 0 1-1.107-1.107V27.583c0-.611.496-1.107 1.107-1.107h28.473c1.994 0 3.378.422 3.378 4.438V69.97z"/><path fill="#FFF" d="M47.811 68.456s-.173-2.981-3.833-2.981H15.96a1.107 1.107 0 0 1-1.107-1.107V23.04c0-.61.496-1.106 1.107-1.106h28.473c1.994 0 3.378.421 3.378 2.924v43.598z"/><path fill="#A1D6E2" d="M47.791 69.97l32.76.048c.611 0 1.107-.496 1.107-1.107V27.583c0-.612-.496-1.107-1.107-1.107H51.169c-1.993 0-3.378.422-3.378 4.438V69.97z"/><path fill="#D3EDF4" d="M38.809 35.443l-3.994-1.936-3.994 1.936V21.646h7.988z"/><path fill="#FFF" d="M47.791 68.285s.174-2.98 3.833-2.98h28.927c.612 0 1.107-.495 1.107-1.107V22.87c0-.611-.495-1.107-1.107-1.107H51.17c-1.994 0-3.379.422-3.379 2.925v43.597z"/><path fill="#D3EDF4" d="M51.424 21.763h-.254c-1.994 0-3.379.422-3.379 2.925v43.598s.176-2.859 3.633-2.971V21.763z"/><path fill="#32CBFF" d="M43.7 31.742c0 .502-.376.908-.84.908h-22.7c-.464 0-.84-.406-.84-.908s.376-.908.84-.908h22.7c.464 0 .84.406.84.908zm0 6.057c0 .502-.376.908-.84.908h-22.7c-.464 0-.84-.407-.84-.908 0-.501.376-.908.84-.908h22.7c.464 0 .84.407.84.908zm0 6.208c0 .502-.376.908-.84.908h-22.7c-.464 0-.84-.406-.84-.908s.376-.908.84-.908h22.7c.464 0 .84.406.84.908zm0 6.056c0 .502-.376.908-.84.908h-22.7c-.464 0-.84-.406-.84-.908s.376-.909.84-.909h22.7c.464 0 .84.408.84.909zm0 6.36c0 .501-.376.908-.84.908h-22.7c-.464 0-.84-.407-.84-.908 0-.502.376-.909.84-.909h22.7c.464 0 .84.407.84.909zm33.923-24.681c0 .502-.377.908-.841.908h-22.7c-.464 0-.841-.406-.841-.908s.377-.908.841-.908h22.7c.464 0 .841.406.841.908zm0 6.057c0 .502-.377.908-.841.908h-22.7c-.464 0-.841-.406-.841-.908 0-.501.377-.908.841-.908l22.7-.001c.464 0 .841.407.841.909zm0 6.208c0 .502-.377.908-.841.908h-22.7c-.464 0-.841-.406-.841-.908s.377-.908.841-.908h22.7c.464 0 .841.406.841.908zm0 6.056c0 .502-.377.908-.841.908h-22.7c-.464 0-.841-.406-.841-.908s.377-.909.841-.909h22.7c.464 0 .841.408.841.909zm0 6.36c0 .501-.377.908-.841.908h-22.7c-.464 0-.841-.407-.841-.908 0-.502.377-.909.841-.909h22.7c.464 0 .841.407.841.909z"/><path fill="#FCBA10" d="M39.777 34.959l-3.994-1.937-3.994 1.937V21.646h7.988z"/></svg>