<svg xmlns="http://www.w3.org/2000/svg" width="1022.879" height="1022.879" viewBox="0 0 1022.879 1022.879"><circle fill="#B1B2AD" cx="506.176" cy="850.694" r="161.477"/><path fill="#F9EB87" d="M661.846 841.811c0 86.803-70.37 157.171-157.173 157.171-86.8 0-157.17-70.368-157.17-157.171 0-86.804 70.37-157.175 157.17-157.175 86.803 0 157.173 70.371 157.173 157.175z"/><path fill="#FFD400" d="M663.12 822.986c0 86.803-70.364 157.171-157.169 157.171-86.804 0-157.172-70.368-157.172-157.171 0-86.8 70.368-157.171 157.172-157.171 86.805 0 157.169 70.372 157.169 157.171z"/><path fill="#F9EB6B" d="M504.526 963.329c-73.901 0-134.024-60.122-134.024-134.022s60.123-134.024 134.024-134.024c73.9 0 134.019 60.124 134.019 134.024s-60.118 134.022-134.019 134.022zm0-252.71c-65.447 0-118.691 53.242-118.691 118.688 0 65.444 53.245 118.687 118.691 118.687 65.444 0 118.688-53.242 118.688-118.687 0-65.446-53.244-118.688-118.688-118.688z"/><path fill="#F2AC0F" d="M504.526 956.939c-73.901 0-134.024-60.122-134.024-134.022 0-73.902 60.123-134.023 134.024-134.023 73.9 0 134.019 60.121 134.019 134.023 0 73.9-60.118 134.022-134.019 134.022zm0-252.712c-65.447 0-118.691 53.244-118.691 118.69 0 65.447 53.245 118.69 118.691 118.69 65.444 0 118.688-53.243 118.688-118.69 0-65.446-53.244-118.69-118.688-118.69z"/><circle fill="#F9EB6B" cx="504.764" cy="830.614" r="87.911"/><circle fill="#F2AC0F" cx="504.764" cy="820.489" r="87.911"/><path fill="#F9EB6B" d="M519.379 860.411v-97.683h-22.191l-31.641 23.37 5.67 19.254 21.339-14.874v69.933H478.32v22.753h56.597v-22.753z"/><path fill="#FFD400" d="M519.379 852.838v-97.686h-22.191l-31.641 23.367 5.67 19.256 21.339-14.873v69.936H478.32v22.751h56.597v-22.751z"/><path fill="#FFF" d="M628.992 671.734c-5.837 24.796-27.662 42.524-52.906 43.438 24.322 6.82 41.357 29.2 41.196 54.663 5.848-24.787 27.681-42.528 52.924-43.429-24.323-6.833-41.364-29.197-41.214-54.672z"/><path d="M789.549 864.423s-33.618-31.076-59.782-12.339l-41.625 29.82s33.622 31.074 59.783 12.334l41.624-29.815zm-42.641-106.992s22.332 45.896-3.569 64.934l-41.207 30.274s-22.326-45.891 3.57-64.926l41.206-30.282zm120.098 43.684s-36.958-27.008-60.794-5.393l-37.923 34.41s36.964 27 60.801 5.382l37.916-34.399zm-54.423-102.012s27.456 43.02 3.915 64.906l-37.45 34.815s-27.457-43.021-3.911-64.901l37.446-34.82zm124.462 13.892s-43.639-13.831-59.35 14.246l-24.997 44.683s43.64 13.838 59.356-14.251l24.991-44.678zm-83.624-81.184s39.725 32.044 24.376 60.274l-24.42 44.928s-39.725-32.037-24.372-60.276l24.416-44.926zm128.918-19.434s-45.651-3.527-54.554 27.391l-14.168 49.206s45.642 3.532 54.55-27.396l14.172-49.201zm-99.543-61.287s45.973 22.16 37.461 53.146l-13.55 49.309s-45.981-22.151-37.459-53.148l13.548-49.307zm125.147-38.104s-45.774.704-51.784 32.316l-9.562 50.298s45.782-.699 51.785-32.313l9.561-50.301zm-104.591-52.322s47.825 17.807 42.207 49.453l-8.926 50.346s-47.834-17.808-42.214-49.451l8.933-50.348zM225.651 864.473s34.691-29.867 60.181-10.224l40.548 31.267s-34.697 29.874-60.181 10.222l-40.548-31.265zm46.383-105.421s-23.933 45.082 1.281 65.017l40.117 31.708s23.929-45.076-1.285-65.013l-40.113-31.712zM150.47 798.475s37.887-25.687 60.949-3.245l36.689 35.722s-37.893 25.685-60.958 3.239l-36.68-35.716zm57.984-100.034s-28.952 42.028-6.198 64.73l36.202 36.114s28.954-42.028 6.194-64.725l-36.198-36.119zm-124.873 9.503s44.098-12.283 58.812 16.327l23.41 45.538s-44.102 12.289-58.82-16.33l-23.402-45.535zm86.43-78.187s-40.826 30.627-26.482 59.379l22.824 45.758s40.826-30.618 26.476-59.377l-22.818-45.76zm-128.15-23.965s45.745-1.915 53.553 29.299l12.426 49.674s-45.74 1.921-53.552-29.301l-12.427-49.672zM143.5 548.051s-46.726 20.531-39.309 51.798l11.805 49.751s46.733-20.52 39.305-51.795L143.5 548.051zM19.772 505.564s45.721 2.313 50.616 34.118l7.782 50.605s-45.728-2.315-50.615-34.117l-7.783-50.606zm106.368-48.606s-48.419 16.109-43.922 47.938l7.15 50.625s48.429-16.109 43.93-47.932l-7.158-50.631z" fill="#B1B2AD"/><path fill="#FFF" d="M426.58 889.145c-3.876 16.457-18.359 28.223-35.11 28.828 16.138 4.524 27.445 19.378 27.339 36.277 3.88-16.452 18.369-28.225 35.122-28.822-16.141-4.535-27.451-19.376-27.351-36.283z"/><path d="M789.549 853.605s-33.618-31.072-59.782-12.337l-41.625 29.818s33.622 31.076 59.783 12.335l41.624-29.816zm-42.641-106.99s22.332 45.896-3.569 64.933l-41.207 30.274s-22.326-45.89 3.57-64.926l41.206-30.281zm120.098 43.68s-36.958-27.006-60.794-5.39l-37.923 34.409s36.964 27.001 60.801 5.382l37.916-34.401zm-54.423-102.009s27.456 43.018 3.915 64.903l-37.45 34.815s-27.457-43.021-3.911-64.901l37.446-34.817zm124.462 13.891s-43.639-13.831-59.35 14.245l-24.997 44.686s43.64 13.837 59.356-14.25l24.991-44.681zm-83.624-81.186s39.725 32.048 24.376 60.278l-24.42 44.926s-39.725-32.037-24.372-60.276l24.416-44.928zm128.918-19.431s-45.651-3.526-54.554 27.391l-14.168 49.204s45.642 3.534 54.55-27.395l14.172-49.2zm-99.543-61.288s45.973 22.164 37.461 53.149l-13.55 49.303s-45.981-22.148-37.459-53.147l13.548-49.305zm125.147-38.105s-45.774.704-51.784 32.32l-9.562 50.298s45.782-.703 51.785-32.315l9.561-50.303zm-104.591-52.319s47.825 17.803 42.207 49.455l-8.926 50.34s-47.834-17.806-42.214-49.45l8.933-50.345zM225.651 853.657s34.691-29.871 60.181-10.226l40.548 31.265s-34.697 29.874-60.181 10.224l-40.548-31.263zm46.383-105.423s-23.933 45.079 1.281 65.015l40.117 31.709s23.929-45.073-1.285-65.014l-40.113-31.71zM150.47 787.657s37.887-25.688 60.949-3.248l36.689 35.726s-37.893 25.683-60.958 3.24l-36.68-35.718zm57.984-100.031s-28.952 42.028-6.198 64.729l36.202 36.113s28.954-42.029 6.194-64.728l-36.198-36.114zm-124.873 9.499s44.098-12.283 58.812 16.33l23.41 45.535s-44.102 12.29-58.82-16.33l-23.402-45.535zm86.43-78.187s-40.826 30.626-26.482 59.381l22.824 45.757s40.826-30.621 26.476-59.38l-22.818-45.758zm-128.15-23.963s45.745-1.912 53.553 29.297l12.426 49.674s-45.74 1.923-53.552-29.298l-12.427-49.673zM143.5 537.232s-46.726 20.534-39.309 51.799l11.805 49.75s46.733-20.517 39.305-51.794L143.5 537.232zM19.772 494.745s45.721 2.315 50.616 34.121l7.782 50.604s-45.728-2.314-50.615-34.12l-7.783-50.605zm106.368-48.602s-48.419 16.109-43.922 47.936l7.15 50.623s48.429-16.109 43.93-47.932l-7.158-50.627z" fill="#A6D845"/><path fill="#B2B1B1" d="M928.375 428.451l-22.541-.125c.592-105.701-40.016-205.305-114.341-280.465C717.169 72.7 618.027 30.982 512.325 30.393c-105.661-.615-205.305 40.012-280.466 114.336-75.16 74.324-116.878 173.469-117.469 279.17l-22.541-.127c.625-111.721 44.72-216.512 124.161-295.069C295.452 50.145 400.765 7.204 512.452 7.851c111.72.625 216.512 44.719 295.07 124.161C886.079 211.453 929 316.731 928.375 428.451z"/></svg>