<svg xmlns="http://www.w3.org/2000/svg" width="96" height="96" viewBox="0 0 96 96"><path fill="#FCBA10" d="M96 48c0 26.508-21.491 48-47.997 48C21.492 96 0 74.508 0 48S21.492 0 48.003 0C74.509 0 96 21.492 96 48z"/><path opacity=".7" fill="#CC811D" d="M14.359 72.878l15.493 19.523s26.144 11.296 48.737-7.745c0 0 15.17-10.327 16.783-30.012L85.205 28.342l-28.371 23.35-16.336-23.577s-10.324 8.779-10.969 9.748c-.645.968-15.17 35.015-15.17 35.015z"/><path fill="#1C48A9" d="M26.903 14.83l2.527-1.547 3.214 5.252-2.527 1.546zm18.344-6.072l2.964.007-.016 6.156-2.964-.007zM62.79 20.03l-2.372-1.776 3.688-4.929 2.373 1.776z"/><path fill="#FFF" d="M80.774 27.237l-27.146-3.056c-.568-.064-.823.301-.565.812l2.125 4.223c.256.51.126 1.249-.292 1.64l-3.458 3.233c-.417.392-.561 1.134-.317 1.652l2.492 5.31c.244.518.102 1.261-.317 1.652l-3.446 3.224c-.419.391-.547 1.127-.285 1.635l2.912 5.667c.262.509.134 1.244-.285 1.636l-3.456 3.234c-.418.391-.562 1.134-.318 1.652l2.492 5.311c.244.518.101 1.261-.318 1.652l-3.262 3.051c-.417.392-.294.763.274.827l27.934 3.145c3.015.34 5.273-.365 5.749-4.584l4.073-36.167c.416-3.703.237-5.206-4.586-5.749zm-36.098 26.13c.291-.492.206-1.234-.188-1.648l-4.393-4.616c-.394-.414-.479-1.155-.188-1.647l2.405-4.08c.291-.493.218-1.247-.162-1.675l-3.888-4.391c-.38-.429-.453-1.182-.162-1.675l2.397-4.067c.292-.494.209-1.239-.181-1.656l-3.196-3.415c-.392-.417-1.172-.678-1.736-.58l-23.187 4.07c-4.78.839-5.876 2.615-5.066 7.224l5.058 28.806.877 4.992c.81 4.608 2.445 5.905 7.225 5.066l9.861-1.731 12.483-2.19c.564-.1 1.262-.583 1.553-1.076l2.302-3.904c.291-.492.219-1.246-.161-1.674l-3.89-4.393c-.378-.429-.452-1.182-.161-1.675l2.398-4.065z"/><circle fill="#32CBFF" cx="25.339" cy="48.631" r="9.891"/><circle fill="#1C48A9" cx="24.77" cy="45.952" r="4.487"/><path fill="#1C48A9" d="M29.894 48.886a5.76 5.76 0 0 1-9.098 1.492c-1.569 1.282-2.376 2.64-2.376 2.64a8.232 8.232 0 0 0 14.674-2.011c.001.001-1.237-1.28-3.2-2.121zm47.885-2.802a1.558 1.558 0 0 1-1.725 1.375L58.83 45.521a1.56 1.56 0 0 1 .35-3.1l17.224 1.94a1.557 1.557 0 0 1 1.375 1.723zm-.756 6.716a1.56 1.56 0 0 1-1.726 1.376l-17.225-1.939a1.56 1.56 0 1 1 .35-3.1l17.224 1.939a1.56 1.56 0 0 1 1.377 1.724zm-.757 6.718a1.56 1.56 0 0 1-1.725 1.376l-17.223-1.94a1.56 1.56 0 1 1 .349-3.1l17.223 1.939a1.56 1.56 0 0 1 1.376 1.725zm-8.82 21.779l-2.526 1.547-3.214-5.25 2.526-1.546zm-18.344 6.069l-2.963-.008.016-6.155 2.963.008zM31.56 76.09l2.376 1.775-3.687 4.93-2.374-1.775z"/></svg>