<svg xmlns="http://www.w3.org/2000/svg" width="1030" height="1034" viewBox="0 0 1030 1034"><path fill="#FCBA10" d="M1027.983 517.002c0 284.418-229.675 515.027-512.954 515.027-283.332 0-513.013-230.609-513.013-515.027S231.697 1.971 515.029 1.971c283.28 0 512.954 230.612 512.954 515.031z"/><path opacity=".7" fill="#CC811D" d="M196.879 865.303l113.829 124.655s230.138 110.546 473.319-32.287c0 0 220.13-125.363 240.703-404.003L755.679 273.194l-214.655 138.9-132.01-40.214-51.739 32.896-160.396 460.527z"/><path fill="#1F86DB" d="M805.857 386.059l-41.958-19.894-1.552-.05v128.813l76.11-49.241v-14.908c.001-21.967-9.316-31.472-32.6-44.72z"/><path fill="#FFF" d="M257.355 261.925V504.9l-.98-3.481 212.288 134.828s35.754 26.493 77.667-1.656l216.018-139.664V261.924H257.355z"/><path fill="#1F86DB" d="M255.808 356.248l-38.859 19.838c-32.646 14.963-37.306 32.727-37.306 54.693v43.109l76.732 43.113.98-1.713V356.299l-1.547-.051z"/><g fill="none"><path d="M763.899 366.165l41.958 19.894c23.283 13.248 32.601 22.754 32.601 44.721v404.244c0 21.975-16.664 39.787-37.254 39.787H216.948c-20.59 0-37.306-17.812-37.306-39.787V430.78c0-21.967 4.659-39.73 37.306-54.693l38.859-19.838"/><path d="M179.643 473.889l76.732 43.113 212.288 119.246s35.754 26.493 77.667-1.656l216.018-139.664 76.11-49.241"/><path d="M257.355 515.289V220.374h504.993v275.021"/></g><path fill="#1C48A9" d="M838.458 445.687v389.336c0 21.975-16.664 39.787-37.254 39.787H216.948c-20.59 0-37.306-17.812-37.306-39.787v-381.91l289.021 183.135s35.754 26.493 77.667-1.656l292.128-188.905zM223.087 276.078l-21.777 23.098-47.8-45.39 21.777-23.105z"/><path fill="#FFF" d="M355.278 190.646l-30.312 9.218-19.083-63.216 30.316-9.212z"/><path fill="#1C48A9" d="M522.258 165.555l-31.675-.087.161-66.049 31.677.085zm275.686 110.523l21.773 23.098 47.795-45.39-21.774-23.105z"/><path fill="#FFF" d="M665.743 190.646l30.317 9.218 19.08-63.216-30.317-9.212z"/><path fill="#1C48A9" d="M270.726 699.521h33.207v99.116h-33.207z"/><path fill="#32CBFF" d="M251.372 683.086v135.453l43.302-26.172 43.778 24.255V669.64z"/><path fill="#1C48A9" d="M374.501 644.416c2.237-5.356 2.081-11.261-.426-16.211-2.501-4.941-7.165-8.547-12.794-9.881l-18.908-4.505c-4.648-1.104-11.778-5.762-14.673-9.586l-11.752-15.531c-3.74-4.929-9.267-7.76-15.169-7.76-5.236 0-10.192 2.2-13.946 6.198l-13.339 14.191c-3.285 3.489-10.864 7.36-15.613 7.964l-19.272 2.454c-5.739.73-10.757 3.814-13.772 8.461-3.013 4.651-3.789 10.51-2.133 16.079l5.567 18.677c1.37 4.605.921 13.137-.929 17.559l-7.518 17.987c-2.244 5.347-2.093 11.26.413 16.201 2.507 4.948 7.175 8.551 12.793 9.885l18.908 4.504c4.648 1.105 11.783 5.768 14.678 9.586l11.754 15.532c3.735 4.934 9.268 7.767 15.169 7.767 5.234 0 10.19-2.209 13.95-6.206l13.334-14.185c3.284-3.491 10.869-7.36 15.609-7.97l19.28-2.449c5.734-.736 10.753-3.82 13.765-8.467 3.017-4.65 3.794-10.504 2.142-16.073l-5.572-18.68c-1.37-4.6-.915-13.133.93-17.557l7.524-17.984z"/><path fill="#FCBA10" d="M363.363 695.351c1.95 6.555-1.975 12.618-8.742 13.482l-19.271 2.454c-6.761.863-16.113 5.636-20.786 10.606l-13.34 14.191c-4.674 4.971-11.874 4.586-15.997-.861l-11.753-15.531c-4.123-5.438-12.92-11.189-19.544-12.768l-18.907-4.503c-6.63-1.572-9.905-8.025-7.262-14.33l7.524-17.981c2.632-6.308 3.192-16.829 1.242-23.383l-5.573-18.681c-1.955-6.557 1.977-12.623 8.736-13.48l19.277-2.46c6.76-.858 16.112-5.631 20.791-10.606l13.335-14.187c4.674-4.972 11.87-4.584 15.996.857l11.754 15.532c4.118 5.44 12.92 11.192 19.549 12.765l18.903 4.504c6.634 1.574 9.897 8.024 7.26 14.334l-7.519 17.986c-2.638 6.306-3.192 16.824-1.242 23.377l5.569 18.683z"/><path fill="#1C48A9" d="M304.453 707.779c-24.871 4.826-49.013-11.561-53.817-36.527-4.812-24.958 11.509-49.198 36.379-54.022 24.871-4.829 49.013 11.555 53.823 36.52 4.806 24.965-11.511 49.2-36.385 54.029zm-15.093-78.341c-18.16 3.519-30.074 21.226-26.568 39.456 3.517 18.229 21.151 30.2 39.312 26.675 18.159-3.524 30.083-21.228 26.566-39.463-3.506-18.232-21.146-30.193-39.31-26.668z"/><path fill="#32CBFF" d="M591.198 402.488c0 50.494-40.775 91.437-91.086 91.437-50.301 0-91.081-40.943-91.081-91.437 0-50.5 40.78-91.437 91.081-91.437 50.311 0 91.086 40.937 91.086 91.437z"/><path fill="#1C48A9" d="M540.555 377.171c0 22.906-18.497 41.482-41.316 41.482-22.824 0-41.327-18.576-41.327-41.482s18.503-41.479 41.327-41.479c22.819 0 41.316 18.573 41.316 41.479z"/><path fill="#1C48A9" d="M541.024 412.094c-9.73 12.651-24.94 20.836-42.096 20.836-17.572 0-33.11-8.597-42.795-21.795-16.281 9.161-25.766 20.239-25.766 20.239 11.747 26.76 38.407 45.442 69.4 45.442 28.982 0 54.155-16.318 66.914-40.299.002 0-9.179-13.629-25.657-24.423z"/><path fill="#32CBFF" d="M405.574 532.012h193.169v27.697H405.574z"/></svg>