<svg xmlns="http://www.w3.org/2000/svg" width="1375.723" height="386" viewBox="0 0 1375.723 386"><path opacity=".25" d="M1360.33 276.481c-2.848-16.157-11.807-30.226-25.224-39.617a61.717 61.717 0 0 0-9.993-5.694 61.69 61.69 0 0 0 9.117-6.926c24.932-22.88 26.604-61.776 3.701-86.73a145.542 145.542 0 0 0-4.378-4.573c-27.94-27.939-65.086-43.324-104.601-43.324-58.287 0-108.791 33.895-132.881 83-3.396-25.116-22.034-45.451-46.273-51.358 15.459-5.486 26.58-20.217 26.58-37.533v-1.243c0-.211-.028-.414-.031-.624.003-.21.031-.413.031-.624V79.99c0-21.978-17.881-39.856-39.856-39.856-21.98 0-39.861 17.878-39.861 39.856v1.245c0 .211.028.414.031.624-.003.21-.031.413-.031.624v1.243c0 16.955 10.659 31.431 25.617 37.18-12.347 2.673-23.312 9.072-31.673 17.955-7.165-16.328-21.236-28.965-38.499-34.183-1.427-32.583-28.382-58.654-61.314-58.654-33.062 0-60.102 26.281-61.326 59.051-5.775 1.882-11.156 4.627-16.04 8.037-6.277-4.652-13.376-8.13-21.059-9.961-4.508-1.553-12.536-3.581-23.786-3.581-15.645 0-32.16 3.789-49.274 11.291-11.045-9.333-24.191-14.601-37.346-14.601-22.671 0-42.491 12.365-53.118 30.694-11.057-16.223-29.678-26.898-50.747-26.898-15.635 0-29.767 5.006-40.522 13.845-17.082-11.194-35.288-16.335-56.836-16.335-62.116 0-115.046 39.958-134.522 95.507-.345-.662-.688-1.327-1.044-1.971-6.927-12.549-16.219-22.75-27.025-30.078a55.694 55.694 0 0 0 7.379-5.897c11.908-11.275 18.711-26.513 19.152-42.881.452-16.389-5.506-31.973-16.781-43.879-37.923-40.04-91.626-45.178-134.177-45.178-98.854 0-179.278 80.425-179.278 179.281 0 98.854 80.425 179.276 179.278 179.276 63.283 0 115.827-28.082 147.953-79.07a106.293 106.293 0 0 0 6.146-11.212c20.659 53.28 72.433 91.173 132.919 91.173 23.147 0 44.172-5.582 60.714-15.778 10.231 9.341 22.945 14.53 36.645 14.53 21.599 0 40.615-11.223 51.555-28.134 10.807 17.574 30.21 29.32 52.311 29.32 33.839 0 61.37-27.532 61.37-61.368V253.63c.008-.588 0-1.278-.035-2.146-.316-7.66.479-20.817 9.345-22.872 2.704-.629 9.946-1.362 21.461-1.362 1.327 0 2.396.01 3.178.015l.974.01c13.842 0 26.629-4.594 36.927-12.333 4.4 2.854 9.167 5.19 14.245 6.849v104.814c0 33.836 27.529 61.368 61.367 61.368 33.842 0 61.373-27.531 61.373-61.368V222.182c8.078-2.449 15.445-6.539 21.741-11.856v112.54c0 33.839 27.525 61.368 61.368 61.368 33.839 0 61.368-27.529 61.368-61.368v-19.271c24.308 48.499 74.47 81.887 132.311 81.887 48.231 0 93.548-23.605 121.233-63.145 9.391-13.415 12.991-29.701 10.141-45.856zm-879.593-16.584c-10.916 0-19.795-8.879-19.795-19.799 0-10.913 8.879-19.795 19.795-19.795 10.919 0 19.801 8.882 19.801 19.795 0 10.92-8.882 19.799-19.801 19.799zM212.935 147.751l-.711-.005c-.436-.021-.874-.03-1.31-.03-33.95 0-61.573 27.623-61.573 61.577 0 16.638 6.636 31.761 17.399 42.855-17.594-9.595-29.562-28.267-29.562-49.68 0-31.178 25.365-56.543 56.54-56.543 1.167 0 2.379-.018 3.639-.038l.573-.008c1.174-.018 2.4-.039 3.685-.039 4.89 0 10.317.347 17.135 1.933a9869.18 9869.18 0 0 1-5.815-.022zm1036.71 104.188c-4.735 6.764-12.473 10.802-20.691 10.802-13.894 0-25.194-11.301-25.194-25.194 0-13.894 11.301-25.194 25.194-25.194 6.732 0 13.052 2.612 17.718 7.277.29.295.578.59.851.886a61.364 61.364 0 0 0 20.063 14.469 61.285 61.285 0 0 0-17.941 16.954z"/><path fill="#231F20" d="M681.961 364.322c-33.839 0-61.368-27.532-61.368-61.368v-163.58c0-33.837 27.529-61.368 61.368-61.368 13.154 0 26.301 5.269 37.346 14.601 17.114-7.501 33.63-11.291 49.274-11.291 11.25 0 19.278 2.027 23.786 3.581 27.18 6.478 47.462 33.032 47.462 62.549 0 33.954-27.623 61.577-61.576 61.577l-.974-.01c-.782-.005-1.851-.015-3.178-.015-11.515 0-18.757.733-21.461 1.362-8.866 2.055-9.661 15.212-9.345 22.872.035.868.043 1.558.035 2.146v67.576c.001 33.836-27.53 61.368-61.369 61.368zm0-243.292c-10.114 0-18.344 8.229-18.344 18.344v163.58c0 10.114 8.229 18.344 18.344 18.344 10.117 0 18.347-8.23 18.347-18.344V234.97c-1.423-34.601 14.9-60.1 42.613-66.522 7.066-1.64 17.561-2.475 31.181-2.475 1.485 0 2.679.01 3.468.018l.856.008c10.058 0 18.38-8.324 18.38-18.553 0-9.462-6.914-19.169-14.798-20.781l-2.146-.501-1.492-.581c-.152-.061-18.939-6.916-53.448 12.228l-16.88 9.366-11.13-15.772c-4.312-6.108-10.46-10.375-14.951-10.375z"/><path fill="#231F20" d="M480.737 364.383c-78.592 0-142.531-63.94-142.531-142.537 0-78.592 63.939-142.534 142.531-142.534 21.548 0 39.754 5.141 56.836 16.335 10.756-8.838 24.888-13.844 40.522-13.844 33.842 0 61.374 27.528 61.374 61.37v158.594c0 33.842-27.532 61.368-61.374 61.368-13.699 0-26.413-5.189-36.645-14.529-16.541 10.195-37.565 15.777-60.713 15.777zm0-242.047c-54.869 0-99.508 44.641-99.508 99.51 0 54.872 44.639 99.513 99.508 99.513 20.865 0 38.69-6.554 47.689-17.529l21.713-26.495 14.432 31.066c1.639 3.521 6.232 11.711 13.524 11.711 10.117 0 18.349-8.228 18.349-18.345V143.173c0-10.117-8.231-18.347-18.349-18.347-8.296 0-14.687 3.489-17.097 9.333l-11.963 29.016-22.746-21.624c-14.732-14.008-27.077-19.215-45.552-19.215zm0 162.332c-34.639 0-62.819-28.181-62.819-62.822 0-34.639 28.181-62.819 62.819-62.819 34.641 0 62.824 28.181 62.824 62.819.001 34.641-28.183 62.822-62.824 62.822zm0-82.618c-10.916 0-19.795 8.882-19.795 19.796 0 10.919 8.879 19.798 19.795 19.798 10.919 0 19.801-8.879 19.801-19.798 0-10.913-8.882-19.796-19.801-19.796z"/><path fill="#231F20" d="M193.719 363.492c-98.854 0-179.278-80.423-179.278-179.276C14.44 85.36 94.865 4.935 193.719 4.935c42.551 0 96.254 5.139 134.177 45.178 11.275 11.907 17.233 27.491 16.781 43.879-.441 16.369-7.244 31.606-19.152 42.881a55.613 55.613 0 0 1-7.379 5.897c10.807 7.328 20.099 17.529 27.025 30.078 15.525 28.135 20.463 73.544-3.499 111.572-32.126 50.99-84.67 79.072-147.953 79.072zm0-315.534c-75.132 0-136.254 61.124-136.254 136.258 0 75.128 61.122 136.251 136.254 136.251 47.972 0 87.589-20.946 111.552-58.984 14.532-23.06 11.345-51.335 2.231-67.846-7.235-13.109-19.04-20.934-31.578-20.934-19.847 0-55.708-.15-63.174-.181l-2.362-.03c-9.987.28-18.023 8.492-18.023 18.548 0 10.226 8.322 18.55 18.55 18.55.627 0 1.376-.059 2.355-.186l1.421-.184 1.432.006c8.459.036 24.688.096 39.703.137l39.171.097-21.104 33.003c-17.039 26.643-45.51 41.315-80.174 41.315-54.9 0-99.563-44.664-99.563-99.563 0-54.9 44.663-99.566 99.563-99.566.958 0 1.95-.018 2.982-.033l.338-.005c1.623-.023 3.065-.046 4.576-.046 14.409 0 33.149 1.94 62.87 16.317 7.474 3.613 16.944 7.761 23.862 7.761 3.095 0 5.365-.901 7.597-3.01 3.612-3.422 5.592-7.853 5.721-12.813.14-4.986-1.592-9.516-5.009-13.122-26.639-28.129-69.007-31.74-102.937-31.74zm7.896 79.631c-1.284 0-2.511.021-3.685.039l-.573.007c-1.26.021-2.472.038-3.639.038-31.175 0-56.54 25.365-56.54 56.543 0 21.412 11.968 40.085 29.562 49.68-10.764-11.095-17.399-26.217-17.399-42.855 0-33.954 27.623-61.577 61.573-61.577.436 0 .874.01 1.31.03l.711.005 5.815.022c-6.817-1.586-12.245-1.932-17.135-1.932z"/><linearGradient id="a" gradientUnits="userSpaceOnUse" x1="730.211" y1="354.879" x2="730.211" y2="123.302"><stop offset="0" stop-color="#eb820d"/><stop offset=".961" stop-color="#ffe838"/></linearGradient><path fill="url(#a)" d="M786.314 103.098c-.298-.071-9.005-2.057-22.24-2.057-12.33 0-32.955 7.16-49.589 23.292-2.923-18.739-19.49-27.305-32.524-27.305-21.976 0-39.856 17.881-39.856 39.856v163.58c0 21.976 17.881 39.856 39.856 39.856 21.978 0 39.858-17.88 39.858-39.856v-67.808c.016-.268 0-.583-.018-1.031-.474-11.525 1.107-38.947 25.975-44.709 5.333-1.238 14.686-1.92 26.325-1.92 1.446 0 2.603.01 3.351.016l.801.008c22.092 0 40.064-17.97 40.064-40.063 0-18.957-13.456-38.07-32.003-41.859z"/><linearGradient id="b" gradientUnits="userSpaceOnUse" x1="186.385" y1="328.348" x2="186.385" y2="-10.434"><stop offset="0" stop-color="#00a7ff"/><stop offset="1" stop-color="#f4faff"/></linearGradient><path fill="url(#b)" d="M275.924 148.699c-21.728 0-62.675-.178-64.405-.186l-.115-.008a6.092 6.092 0 0 0-.489-.02c-22.089 0-40.062 17.972-40.062 40.062 0 22.092 17.973 40.062 40.062 40.062 1.566 0 3.201-.112 5.119-.362 8.466.036 24.707.097 39.736.135-16.583 25.932-42.868 31.394-62.051 31.394-43.036 0-78.052-35.015-78.052-78.054 0-43.037 35.011-78.055 78.052-78.055 1.167 0 2.384-.018 3.646-.036 1.35-.022 2.766-.045 4.25-.045 11.971 0 27.692 1.683 53.502 14.168 10.135 4.902 22.006 9.911 33.23 9.911 8.617 0 16.149-2.995 22.388-8.907 7.733-7.318 12.151-17.208 12.438-27.853.295-10.644-3.576-20.763-10.896-28.489-32.281-34.086-80.316-38.461-118.558-38.461-86.992 0-157.767 70.774-157.767 157.767s70.774 157.767 157.767 157.767c55.624 0 101.708-24.514 129.754-69.027 19.286-30.608 15.334-67.113 2.864-89.709-11.078-20.071-29.922-32.054-50.413-32.054z"/><linearGradient id="c" gradientUnits="userSpaceOnUse" x1="488.838" y1="354.881" x2="488.838" y2="123.3"><stop offset="0" stop-color="#eb820d"/><stop offset=".961" stop-color="#ffe838"/></linearGradient><path fill="url(#c)" d="M578.096 100.824c-17.175 0-31.259 8.762-36.983 22.645-18.73-17.807-36.478-25.138-60.375-25.138-66.73 0-121.02 54.295-121.02 121.025 0 66.731 54.289 121.025 121.02 121.025 27.583 0 51.229-9.421 64.327-25.408 7.069 15.214 19.177 24.16 33.031 24.16 21.981 0 39.861-17.88 39.861-39.855V140.683c0-21.978-17.88-39.859-39.861-39.859zm-97.359 77.222c22.78 0 41.312 18.532 41.312 41.31 0 22.78-18.532 41.311-41.312 41.311-22.774 0-41.308-18.53-41.308-41.311.001-22.778 18.534-41.31 41.308-41.31z"/><linearGradient id="d" gradientUnits="userSpaceOnUse" x1="183.805" y1="36.895" x2="183.805" y2="254.035"><stop offset="0" stop-color="#f4faff"/><stop offset=".133" stop-color="#f4faff" stop-opacity="0"/><stop offset=".98" stop-color="#f4faff"/></linearGradient><path opacity=".3" fill="url(#d)" d="M263.47 148.699c-21.73 0-50.221-.178-51.951-.186l-.115-.008a6.092 6.092 0 0 0-.489-.02c-22.089 0-40.062 17.972-40.062 40.062 0 22.092 17.973 40.062 40.062 40.062 1.566 0 3.201-.112 5.119-.362 8.466.036 24.707.097 39.736.135-16.583 25.932-42.868 31.394-62.051 31.394-43.036 0-78.052-35.015-78.052-78.054 0-43.037 35.011-78.055 78.052-78.055 1.167 0 2.384-.018 3.646-.036 1.35-.022 2.766-.045 4.25-.045 11.971 0 27.692 1.683 53.502 14.168 10.135 4.902 22.006 9.911 33.23 9.911 8.617 0 16.149-2.995 22.388-8.907 7.733-7.318 12.151-17.208 12.438-27.853.295-10.644-3.576-20.763-10.896-28.489-32.281-34.086-80.316-38.461-118.558-38.461-86.992 0-149.381 70.779-150.293 157.767-.86 81.859 63.301 142.822 150.293 142.822 55.624 0 90.479-23.597 112.315-54.083 21.069-29.411 22.807-67.113 10.336-89.709-11.076-20.07-32.41-32.053-52.9-32.053z"/><path fill="#231F20" d="M890.792 369.72c-33.838 0-61.367-27.532-61.367-61.368V203.538c-24.558-8.023-42.347-31.147-42.347-58.351 0-27.218 17.812-50.355 42.388-58.366 1.225-32.769 28.265-59.051 61.326-59.051 32.933 0 59.888 26.07 61.314 58.653 25.224 7.625 43.648 31.082 43.648 58.763 0 27.659-18.394 51.104-43.59 58.743v104.422c.001 33.837-27.53 61.369-61.372 61.369zm-42.347-242.88c-10.113 0-18.343 8.23-18.343 18.347s8.229 18.344 18.343 18.344h24.003v144.821c0 10.114 8.23 18.344 18.344 18.344s18.35-8.23 18.35-18.344V163.531h25.245c10.114 0 18.344-8.228 18.344-18.344s-8.229-18.347-18.344-18.347h-25.245V89.139c0-10.114-8.235-18.344-18.35-18.344-10.113 0-18.344 8.23-18.344 18.344v37.702h-24.003z"/><path fill="#231F20" d="M1035.274 365.981c-33.843 0-61.368-27.528-61.368-61.367v-141.99c0-33.839 27.525-61.37 61.368-61.37 33.839 0 61.368 27.531 61.368 61.37v141.99c.001 33.839-27.529 61.367-61.368 61.367zm0-221.703c-10.114 0-18.344 8.23-18.344 18.347v141.99c0 10.114 8.229 18.344 18.344 18.344s18.344-8.23 18.344-18.344v-141.99c0-10.117-8.229-18.347-18.344-18.347z"/><path fill="#231F20" d="M1036.522 126.188c-33.483 0-60.721-27.237-60.721-60.716V64.23c0-33.48 27.237-60.719 60.721-60.719 33.48 0 60.716 27.239 60.716 60.719v1.242c0 33.479-27.235 60.716-60.716 60.716zm0-80.957c-10.479 0-19.002 8.523-19.002 18.999v1.242c0 10.475 8.523 18.997 19.002 18.997 10.474 0 18.996-8.521 18.996-18.997V64.23c.001-10.476-8.522-18.999-18.996-18.999zm192.431 321.998c-81.569 0-147.931-66.364-147.931-147.935 0-81.568 66.361-147.93 147.931-147.93 39.515 0 76.66 15.385 104.601 43.324a142.375 142.375 0 0 1 4.378 4.574c22.903 24.954 21.23 63.851-3.701 86.729a61.881 61.881 0 0 1-9.117 6.926 61.6 61.6 0 0 1 9.993 5.694c13.417 9.391 22.376 23.46 25.224 39.617 2.85 16.154-.75 32.441-10.144 45.855-27.686 39.542-73.002 63.146-121.234 63.146zm0-252.84c-57.847 0-104.906 47.062-104.906 104.906 0 57.849 47.06 104.912 104.906 104.912 34.205 0 66.351-16.748 85.991-44.799 2.799-4 3.87-8.867 3.018-13.702-.853-4.838-3.527-9.045-7.527-11.846a18.21 18.21 0 0 0-10.489-3.321 18.385 18.385 0 0 0-15.054 7.823c-12.785 18.258-33.695 29.151-55.938 29.151-37.616 0-68.218-30.602-68.218-68.218 0-37.615 30.602-68.218 68.218-68.218 18.225 0 35.349 7.089 48.221 19.958a84.72 84.72 0 0 1 2.037 2.129 18.407 18.407 0 0 0 13.539 5.954c4.598 0 8.999-1.711 12.391-4.825 7.455-6.84 7.955-18.467 1.118-25.92a104.012 104.012 0 0 0-3.122-3.254c-19.82-19.822-46.162-30.73-74.185-30.73zm0 79.712c-13.894 0-25.194 11.301-25.194 25.194s11.301 25.194 25.194 25.194c8.219 0 15.956-4.039 20.691-10.802a61.293 61.293 0 0 1 17.94-16.954 61.354 61.354 0 0 1-20.063-14.469c-.272-.295-.561-.59-.851-.886-4.665-4.665-10.984-7.277-17.717-7.277z"/><linearGradient id="e" gradientUnits="userSpaceOnUse" x1="891.416" y1="357.488" x2="891.416" y2="125.91"><stop offset="0" stop-color="#eb820d"/><stop offset=".961" stop-color="#ffe838"/></linearGradient><path fill="url(#e)" d="M934.387 105.446h-3.733v-16.19c0-21.975-17.881-39.855-39.861-39.855-21.975 0-39.855 17.88-39.855 39.855v16.19h-2.491c-21.976 0-39.855 17.88-39.855 39.858s17.88 39.856 39.855 39.856h2.491v123.307c0 21.978 17.881 39.858 39.855 39.858 21.98 0 39.861-17.881 39.861-39.858V185.16h3.733c21.975 0 39.856-17.878 39.856-39.856s-17.882-39.858-39.856-39.858z"/><linearGradient id="f" gradientUnits="userSpaceOnUse" x1="1035.274" y1="328.348" x2="1035.274" y2="-10.435"><stop offset="0" stop-color="#00a7ff"/><stop offset="1" stop-color="#f4faff"/></linearGradient><path fill="url(#f)" d="M1035.274 120.276c-21.976 0-39.856 17.88-39.856 39.859v141.989c0 21.975 17.881 39.856 39.856 39.856s39.856-17.881 39.856-39.856V160.135c.001-21.979-17.88-39.859-39.856-39.859z"/><linearGradient id="g" gradientUnits="userSpaceOnUse" x1="1221.147" y1="328.348" x2="1221.147" y2="-10.434"><stop offset="0" stop-color="#00a7ff"/><stop offset="1" stop-color="#f4faff"/></linearGradient><path fill="url(#g)" d="M1322.772 233.746c-6.736-4.716-14.627-7.209-22.827-7.209-13.011 0-25.229 6.355-32.68 17-8.759 12.508-23.08 19.974-38.312 19.974-25.756 0-46.707-20.952-46.707-46.706s20.976-45.644 46.707-46.706c19.01-.784 33.956 14.629 34.417 15.131a39.972 39.972 0 0 0 29.38 12.91 39.748 39.748 0 0 0 26.936-10.488c16.189-14.858 17.28-40.121 2.425-56.313a131.011 131.011 0 0 0-3.77-3.929c-23.874-23.877-55.623-37.024-89.388-37.024-69.708 0-126.418 56.71-126.418 126.42 0 69.709 56.71 126.421 126.418 126.421 41.216 0 79.95-20.175 103.613-53.971 12.604-18.005 8.208-42.908-9.794-55.51z"/><linearGradient id="h" gradientUnits="userSpaceOnUse" x1="493.691" y1="194.527" x2="493.691" y2="296.516"><stop offset=".182" stop-color="#f4faff" stop-opacity=".182"/><stop offset=".98" stop-color="#f4faff"/></linearGradient><path opacity=".3" fill="url(#h)" d="M578.096 100.824c-17.175 0-31.259 8.762-36.983 22.645-18.73-17.807-36.478-25.138-60.375-25.138-66.73 0-115.246 51.932-111.059 118.535 4.197 66.644 54.02 106.077 111.059 106.077 27.583 0 51.229-14.403 64.327-30.389 7.069 15.212 19.177 26.65 33.031 26.65 21.981 0 39.861-20.371 39.861-42.347V140.683c0-21.978-17.88-39.859-39.861-39.859zm-97.359 77.222c22.78 0 41.312 18.532 41.312 41.31 0 22.78-18.532 41.311-41.312 41.311-22.774 0-41.308-18.53-41.308-41.311.001-22.778 18.534-41.31 41.308-41.31z"/><linearGradient id="i" gradientUnits="userSpaceOnUse" x1="730.211" y1="194.528" x2="730.211" y2="296.515"><stop offset=".182" stop-color="#f4faff" stop-opacity=".182"/><stop offset=".98" stop-color="#f4faff"/></linearGradient><path opacity=".3" fill="url(#i)" d="M786.314 105.706c-.298-.072-9.005-2.058-22.24-2.058-12.33 0-31.651 4.553-49.589 18.077-6.834-14.828-19.49-24.697-32.524-24.697-21.976 0-39.856 17.881-39.856 39.856v148.633c0 21.975 17.881 39.856 39.856 39.856 21.978 0 34.878-17.881 34.878-39.856v-52.86c.015-.268 0-.583-.021-1.031-.474-11.525 6.091-38.947 30.958-44.709 5.333-1.238 14.686-1.92 26.325-1.92 1.446 0 2.603.01 3.351.016l.801.008c22.092 0 40.064-17.97 40.064-40.063 0-18.958-13.456-35.463-32.003-39.252z"/><linearGradient id="j" gradientUnits="userSpaceOnUse" x1="891.416" y1="197.135" x2="891.416" y2="299.123"><stop offset=".182" stop-color="#f4faff" stop-opacity=".182"/><stop offset=".98" stop-color="#f4faff"/></linearGradient><path opacity=".3" fill="url(#j)" d="M934.387 105.446h-3.733v-16.19c0-21.975-17.881-39.855-39.861-39.855-21.975 0-39.855 17.88-39.855 39.855v16.19h-2.491c-21.976 0-39.855 17.88-39.855 39.858s17.88 39.856 39.855 39.856h2.491v103.378c0 21.978 17.881 44.839 39.855 44.839 21.98 0 39.861-22.862 39.861-44.839V185.16h3.733c21.975 0 39.856-17.878 39.856-39.856s-17.882-39.858-39.856-39.858z"/><linearGradient id="k" gradientUnits="userSpaceOnUse" x1="1035.274" y1="129.064" x2="1035.274" y2="315.995"><stop offset="0" stop-color="#f4faff"/><stop offset=".113" stop-color="#f4faff" stop-opacity=".118"/><stop offset=".98" stop-color="#f4faff"/></linearGradient><path opacity=".3" fill="url(#k)" d="M1035.274 120.276c-21.976 0-39.856 17.88-39.856 39.859v127.042c0 21.978 17.881 39.856 39.856 39.856s39.856-17.878 39.856-39.856V160.135c.001-21.979-17.88-39.859-39.856-39.859z"/><linearGradient id="l" gradientUnits="userSpaceOnUse" x1="1221.293" y1="134.047" x2="1221.293" y2="305.948"><stop offset="0" stop-color="#f4faff"/><stop offset=".128" stop-color="#f4faff" stop-opacity=".128"/><stop offset=".98" stop-color="#f4faff"/></linearGradient><path opacity=".3" fill="url(#l)" d="M1315.301 228.762c-6.732-4.715-7.155-2.225-15.355-2.225-13.011 0-25.229 6.355-32.68 17-8.759 12.508-23.08 19.974-38.312 19.974-25.756 0-46.707-20.952-46.707-46.706s20.951-46.706 46.707-46.706c12.478 0 24.201 4.849 33.009 13.659.477.479.947.97 1.408 1.472a39.972 39.972 0 0 0 29.38 12.91 39.748 39.748 0 0 0 26.936-10.488c16.189-14.858 17.28-40.121 2.425-56.313a131.011 131.011 0 0 0-3.77-3.929c-23.874-23.877-55.623-37.024-89.388-37.024-69.708 0-118.944 54.22-118.944 123.93 0 69.71 56.018 113.966 118.944 113.966 41.216 0 72.475-12.704 96.142-46.497 12.6-18.008 8.208-40.418-9.795-53.023z"/><linearGradient id="m" gradientUnits="userSpaceOnUse" x1="1036.52" y1="153.973" x2="1036.52" y2="-10.507"><stop offset="0" stop-color="#00a7ff"/><stop offset="1" stop-color="#f4faff"/></linearGradient><path fill="url(#m)" d="M1036.522 21.881c-21.98 0-39.861 17.878-39.861 39.856v1.245c0 21.976 17.881 39.856 39.861 39.856 21.976 0 39.856-17.881 39.856-39.856v-1.245c.001-21.978-17.88-39.856-39.856-39.856z"/><linearGradient id="n" gradientUnits="userSpaceOnUse" x1="1037.115" y1="28.179" x2="1037.115" y2="79.487"><stop offset="0" stop-color="#f4faff"/><stop offset=".143" stop-color="#f4faff" stop-opacity=".148"/><stop offset=".7" stop-color="#f4faff" stop-opacity=".5"/></linearGradient><path opacity=".6" fill="url(#n)" d="M1071.367 57.446c0 18.917-15.335 34.254-34.255 34.254-18.915 0-34.248-15.336-34.248-34.254 0-18.915 15.333-34.249 34.248-34.249 18.92 0 34.255 15.335 34.255 34.249z"/></svg>