<svg xmlns="http://www.w3.org/2000/svg" width="586.5" height="210.833" viewBox="0 0 586.5 210.833"><g fill="#EFEFEF"><path d="M215.044 100.774c-8.734 0-15.842 7.106-15.842 15.845 0 8.733 7.107 15.842 15.842 15.842 8.736 0 15.844-7.107 15.844-15.842.001-8.739-7.108-15.845-15.844-15.845zm0 24.392c-4.186 0-7.592-3.404-7.592-7.592 0-4.189 3.406-7.595 7.592-7.595 4.187 0 7.594 3.408 7.594 7.595 0 4.185-3.407 7.592-7.594 7.592z"/><path d="M542.704 116.333a23.816 23.816 0 0 0-3.834-2.187 23.769 23.769 0 0 0 3.496-2.653c9.562-8.775 10.203-23.693 1.422-33.265a56.897 56.897 0 0 0-1.683-1.754C531.39 65.76 517.144 59.86 501.991 59.86c-22.354 0-41.722 12.999-50.961 31.832-.847-6.256-4.156-11.736-8.922-15.434 5.684-4.25 9.368-11.031 9.368-18.658v-.479c0-12.84-10.444-23.286-23.284-23.286-12.841 0-23.287 10.446-23.287 23.286v.479c0 7.412 3.485 14.021 8.899 18.289a24.037 24.037 0 0 0-3.223 2.855c-2.748-6.262-8.146-11.109-14.766-13.109-.548-12.496-10.886-22.494-23.515-22.494-12.682 0-23.051 10.079-23.52 22.646a23.418 23.418 0 0 0-6.16 3.086c-2.402-1.787-5.123-3.123-8.068-3.824-1.729-.598-4.809-1.375-9.121-1.375-6 0-12.334 1.455-18.897 4.33-4.233-3.578-9.276-5.6-14.321-5.6-8.694 0-16.296 4.742-20.371 11.771-4.239-6.221-11.381-10.314-19.462-10.314-5.996 0-11.415 1.92-15.541 5.309-6.551-4.293-13.533-6.264-21.797-6.264-23.822 0-44.121 15.324-51.591 36.629-.132-.254-.264-.51-.4-.757-2.656-4.812-6.219-8.725-10.365-11.534a21.421 21.421 0 0 0 2.831-2.263c4.568-4.323 7.176-10.167 7.344-16.444a23.363 23.363 0 0 0-6.435-16.828c-14.543-15.356-35.14-17.327-51.458-17.328-37.912 0-68.755 30.844-68.755 68.755 0 37.912 30.843 68.756 68.755 68.756 24.269 0 44.42-10.77 56.742-30.324a40.55 40.55 0 0 0 2.357-4.301c7.923 20.434 27.778 34.967 50.976 34.967 8.876 0 16.94-2.143 23.284-6.051 3.925 3.582 8.8 5.572 14.054 5.572 8.284 0 15.576-4.305 19.772-10.791 4.144 6.74 11.584 11.244 20.061 11.244 12.979 0 23.535-10.56 23.535-23.535v-25.916c.004-.225 0-.488-.014-.822-.121-2.938.184-7.982 3.584-8.771 1.037-.24 3.813-.521 8.229-.521.51 0 .92.004 1.219.008l.373.002c5.31 0 10.207-1.769 14.152-4.735a23.36 23.36 0 0 0 5.473 2.633v40.197c0 12.977 10.56 23.535 23.535 23.535 12.979 0 23.537-10.56 23.537-23.535v-40.049a23.493 23.493 0 0 0 8.338-4.548v43.16c0 12.979 10.56 23.535 23.535 23.535s23.535-10.56 23.535-23.535v-7.392c9.322 18.599 28.561 31.402 50.742 31.402 18.496 0 35.877-9.053 46.494-24.215 7.447-10.627 4.853-25.33-5.777-32.773zM412.905 56.646v-.477c0-8.428 6.856-15.286 15.287-15.286 8.428 0 15.284 6.858 15.284 15.286v.478c0 7.353-5.217 13.504-12.143 14.958-2.146.457-5.479.29-6.607-.083-6.763-1.577-11.821-7.642-11.821-14.876zm-258.174 79.572c-10.756 17.07-28.43 26.473-49.762 26.473-33.362 0-60.505-27.143-60.505-60.506 0-33.361 27.143-60.505 60.505-60.505 14.666 0 33.088 1.679 45.468 14.75a15.174 15.174 0 0 1 4.179 10.926 15.18 15.18 0 0 1-4.77 10.685c-2.393 2.267-5.281 3.416-8.586 3.416-4.305 0-8.857-1.922-12.744-3.801-9.898-4.789-15.928-5.435-20.519-5.435-.569 0-1.112.009-1.63.019-.484.006-.951.014-1.398.014-16.507 0-29.934 13.43-29.934 29.935 0 16.508 13.429 29.937 29.934 29.937 7.356 0 17.438-2.094 23.797-12.039a9830.2 9830.2 0 0 1-15.239-.053 14.96 14.96 0 0 1-1.963.141c-8.472 0-15.364-6.893-15.364-15.366 0-8.472 6.893-15.365 15.364-15.365.062 0 .126.005.188.009l.044.004c.664.002 16.367.07 24.7.07 7.858 0 15.085 4.596 19.334 12.292 4.782 8.66 6.297 22.659-1.099 34.399zm-60.107-14.026c-6.748-3.68-11.337-10.84-11.337-19.053 0-11.957 9.727-21.685 21.684-21.685.446 0 .91-.006 1.39-.014l.226-.004c.45-.007.92-.014 1.412-.014 1.875 0 3.957.133 6.572.74l-2.195-.008-.308-.002a9.346 9.346 0 0 0-.502-.014c-13.021 0-23.614 10.595-23.614 23.615-.002 6.387 2.544 12.185 6.672 16.439zm173.044 25.075c0 8.43-6.857 15.285-15.287 15.285-5.313 0-9.957-3.43-12.668-9.264-5.023 6.129-14.092 9.742-24.67 9.742-25.592 0-46.412-20.82-46.412-46.414 0-25.593 20.82-46.414 46.412-46.414 9.165 0 15.971 2.811 23.154 9.639 2.195-5.323 7.597-8.684 14.184-8.684 8.43 0 15.287 6.856 15.287 15.286v60.824zm61.168-43.821c-.287-.002-.729-.007-1.285-.007-4.463 0-8.051.262-10.096.734-9.537 2.211-10.146 12.729-9.963 17.146.008.174.014.295.008.396v26.004c0 8.43-6.857 15.285-15.286 15.285-8.428 0-15.285-6.855-15.285-15.285V84.987c0-8.429 6.857-15.286 15.285-15.286 4.999 0 11.353 3.286 12.474 10.473 6.38-6.188 14.289-8.932 19.019-8.932 5.076 0 8.416.76 8.529.787 1.789.364 3.442 1.114 4.934 2.129a23.42 23.42 0 0 0-4.641 14.014c0 4.931 1.539 9.502 4.141 13.287a15.191 15.191 0 0 1-7.523 1.987h-.311zm60.186-.943h-1.433v47.289c0 8.428-6.856 15.285-15.287 15.285-8.428 0-15.285-6.857-15.285-15.285v-47.289h-.954c-2.354 0-4.576-.551-6.568-1.506a15.334 15.334 0 0 1-6.609-6.076 15.158 15.158 0 0 1-.379-14.726c.127-.247.269-.485.406-.726.063-.108.131-.217.197-.325a15.19 15.19 0 0 1 1.625-2.147c.057-.064.114-.129.174-.193a15.362 15.362 0 0 1 3.049-2.518 15.179 15.179 0 0 1 8.109-2.354h.955v-6.209c0-8.429 6.854-15.286 15.284-15.286 8.431 0 15.287 6.857 15.287 15.286v6.209h1.433c8.428 0 15.284 6.856 15.284 15.286 0 8.429-6.86 15.285-15.288 15.285zm53.977 45.857c0 8.429-6.855 15.283-15.283 15.283-8.43 0-15.285-6.854-15.285-15.283V93.906c0-6.242 3.765-11.613 9.138-13.984a23.203 23.203 0 0 0 12.649.172c5.183 2.449 8.781 7.712 8.781 13.812v54.454zm98.728-4.935a48.55 48.55 0 0 1-39.735 20.697c-26.732 0-48.48-21.748-48.48-48.482s21.748-48.482 48.48-48.482c12.949 0 25.125 5.041 34.28 14.197.486.486.959.979 1.445 1.508 5.697 6.209 5.279 15.896-.93 21.596a15.247 15.247 0 0 1-10.33 4.021 15.336 15.336 0 0 1-11.268-4.951c-.179-.191-5.908-6.104-13.199-5.803-9.869.406-17.912 8.035-17.912 17.912 0 9.879 8.035 17.914 17.912 17.914a17.955 17.955 0 0 0 14.692-7.662 15.306 15.306 0 0 1 12.533-6.52c3.146 0 6.17.957 8.754 2.766 6.906 4.834 8.592 14.383 3.758 21.289zm-24.92-27.813a23.481 23.481 0 0 0-6.881 6.503 9.7 9.7 0 0 1-7.936 4.143c-5.328 0-9.662-4.334-9.662-9.662s4.334-9.663 9.662-9.663c2.582 0 5.006 1.002 6.795 2.792.111.111.223.227.326.34a23.575 23.575 0 0 0 7.696 5.547z"/></g></svg>