<svg xmlns="http://www.w3.org/2000/svg" xmlns:xlink="http://www.w3.org/1999/xlink" width="96" height="96" viewBox="0 0 96 96"><ellipse fill="#FB4343" cx="-262.118" cy="162.585" rx="48" ry="43.74"/><path fill="#BE1616" d="M-297.546 176.32l37.805 29.956s45.623-2.375 45.572-45.655l-11.087-8.078-72.29 23.777z"/><path fill="#880D0D" d="M-227.383 155.169h2.336-7.206v1.228h-.007v-1.182h-8.708l-9.053-8.961c-3.428-2.714-7.787 0-7.787 0l-.295.274c-.639.268-1.031.51-1.031.51l-1.285.719a4.315 4.315 0 0 0-2.777.333l-.818.308-15.422 9.293-.123-.004h-11.96v-.321h-4.836v8.562l-1.895 9.427 3.898 3.453h4.292c.641.156 1.25.014 1.25.014-.012 0-.021-.003-.033-.003.971-.206 1.697-.995 1.697-1.944v-1.908h4.549l4.109 5.507s2.441 3.408 9.295 1.58c.328-.005.664-.053.994-.154l.503-.167c-.547.754-.725 1.719-.39 2.641l.072.202c.579 1.598 2.469 2.468 4.224 1.94l.024-.018.041-.028c.246-.172 1.242-.855 2.676-1.833l.164.2c.9 1.178 2.679 1.468 3.971.646.147-.093.282-.198.403-.312l.034-.02c.762-.483 1.182-1.246 1.215-2.032.965.812 2.447.938 3.568.227.053-.035.101-.073.152-.108.097-.048.193-.099.285-.157.969-.613 1.389-1.679 1.16-2.668.901.4 2.006.358 2.886-.202.35-.222.626-.505.829-.819.557-.598.784-1.386.637-2.144a3.072 3.072 0 0 0 2.635-.299c.231-.146.432-.32.598-.512 1.155-.849 1.408-2.377.547-3.504v-.075c-.024-.028-.048-.058-.075-.086.147-.028.292-.053.432-.074l.091-.016h4.892v1.999c0 .945.723 1.733 1.692 1.94-.009.002-.017.004-.029.004 0 0 .61.141 1.251-.013h9.939s5.145-13.382-.446-20.247c-5.59-6.862-2.69 7.366-2.69 7.366l-.475-8.562z"/><defs><ellipse id="a" cx="-261.929" cy="162.889" rx="38.382" ry="34.974"/></defs><clipPath id="b"><use xlink:href="#a" overflow="visible"/></clipPath><g clip-path="url(#b)"><path fill="#30A269" d="M-236.877 172.054c0 1.101.984 1.997 2.194 1.997s2.194-.896 2.194-1.997v-11.698c0-1.103-.984-1.997-2.194-1.997s-2.194.895-2.194 1.997v11.698z"/><path fill="#80D2A9" d="M-232.503 171.858v-19.315h9.576v21.441l-5.796-.002h-5.959c1.59 0 2.051-1.241 2.179-2.124z"/><path fill="#219058" d="M-232.503 170.076h-1.548v1.527s.102 2.395-1.162 2.395c0 0 2.724.647 2.724-2.268l-.014-1.654z"/><path fill="#3F829A" d="M-287.396 174.248c0 1.105-.981 1.999-2.191 1.999-1.212 0-2.194-.894-2.194-1.999v-11.693c0-1.103.981-1.999 2.194-1.999 1.21 0 2.191.896 2.191 1.999v11.693z"/><path fill="#FFC97C" d="M-232.511 152.59h-8.706l-9.055-8.962c-3.428-2.715-7.785 0-7.785 0l-5.914 5.488 4.386 1.298-18.14 10.961c-1.752.527-2.705 2.249-2.129 3.847l.075.201c.577 1.6 2.466 2.468 4.221 1.94l1.678-.536c-1.755.527-2.708 2.25-2.131 3.847l.075.202c.576 1.6 2.468 2.467 4.221 1.939l1.502-.494c-1.388.69-2.085 2.208-1.572 3.628l.075.202c.576 1.597 2.466 2.467 4.221 1.939l.506-.167a2.812 2.812 0 0 0-.393 2.641l.075.2c.577 1.6 2.467 2.467 4.222 1.941 0 0 19-13.1 20.868-13.559a16.67 16.67 0 0 1 1.391-.275h8.308V152.59z"/><path fill="#F3B475" d="M-232.455 153.771h-9.723l-9.417-9.358c-3.428-2.714-7.787 0-7.787 0l-7.001 3.901 5.836 3.282-18.139 10.96c-1.752.527-2.708 2.249-2.128 3.849l.074.2c.576 1.6 2.469 2.467 4.221 1.942l1.679-.539c-1.756.527-2.71 2.25-2.131 3.848l.075.201c.576 1.6 2.468 2.468 4.221 1.94l1.504-.494c-1.393.691-2.087 2.208-1.574 3.627l.073.202c.579 1.6 2.471 2.467 4.224 1.939l.504-.167c-.547.754-.726 1.718-.39 2.641l.072.202c.579 1.598 2.471 2.467 4.224 1.94 0 0 19-13.101 20.868-13.558.492-.12.959-.211 1.391-.276h9.325v-16.282z"/><path fill="#FFDEC6" d="M-255.638 159.055c.521-.092 1.685-.481 2.15-.775 1.815-1.14 2.271-3.407 1.018-5.062l-5.808-6.61c-1.167-1.54-3.401-2.006-5.168-1.143l-.815.308-15.424 9.293-.123-.005h-14.151v16.286h10.607l4.105 5.51s2.859 3.996 11.085 1.017l16.823-12.015-4.299-6.804z"/><path fill="#FFC898" d="M-263.608 146.632l-19.424 11.76s-6.504 2.523-3.594 8.875l7.891 10.58s2.857 3.998 11.083 1.02l16.823-12.013-12.779-20.222z"/><path fill="#F3B475" d="M-253.632 159.473c-3.399-.615-5.391-8.714-5.391-8.714l-19.663 11.798c-1.752.527-2.708 2.249-2.128 3.849l.074.2c.576 1.6 2.469 2.467 4.221 1.942l1.679-.539c-1.756.527-2.71 2.25-2.131 3.848l.075.201c.576 1.6 2.468 2.468 4.221 1.94l1.504-.494c-1.393.691-2.087 2.208-1.574 3.627l.073.202c.579 1.6 2.471 2.467 4.224 1.939l.504-.167c-.547.754-.726 1.718-.39 2.641l.072.202c.579 1.598 2.471 2.467 4.224 1.94 0 0 19-13.101 20.868-13.558 3.12-.764 5.121-.283 5.121-.283l-15.583-10.574z"/><path fill="#D79458" d="M-266.564 155.229l6.997 5.26s2.615 1.821 5.268.167c0 0 2.485-1.384-.22-5-3.23-4.323-4.503-4.897-4.503-4.897l-7.542 4.47z"/><path fill="#FFC898" d="M-279.298 156.054h-14.663v16.283l14.663.002c1.704 0 3.088-1.261 3.088-2.813v-10.657c.001-1.554-1.384-2.815-3.088-2.815z"/><path fill="#DA8C57" d="M-271.501 158.216l-7.184 4.341c-1.752.527-2.708 2.249-2.128 3.849l.074.2c.576 1.6 2.469 2.467 4.221 1.942l1.679-.539c-1.756.527-2.71 2.25-2.131 3.848l.075.201c.576 1.6 2.468 2.468 4.221 1.94l1.504-.494c-1.393.691-2.087 2.208-1.574 3.627l.073.202c.579 1.6 2.471 2.467 4.224 1.939l.504-.167c-.547.754-.726 1.718-.39 2.641l.072.202c.579 1.598 2.471 2.467 4.224 1.94 0 0 4.142-2.856 8.747-5.945l-16.211-19.727z"/><path fill="#FFC898" d="M-253.632 159.473c-1.815 1.142-4.304.727-5.555-.928l-5.81-6.61c-1.254-1.654-.796-3.922 1.018-5.063 1.815-1.143 4.303-.726 5.554.927l5.811 6.612c1.253 1.651.798 3.919-1.018 5.062z"/><path fill="#CB8953" d="M-243.523 169.444v-.075c-.899-1.178-2.679-1.468-3.971-.646-.955.606-1.376 1.647-1.169 2.625l-.917-1.197c-.902-1.178-2.679-1.468-3.971-.646-1.22.773-1.571 2.259-.851 3.412-.96-.861-2.486-1.006-3.631-.276-1.278.811-1.604 2.405-.735 3.578-.936-1.039-2.604-1.265-3.836-.483-1.292.822-1.666 2.315-1.217 3.619l.868 3.787s3.417-2.477 4.708-3.298c1.102-.698 1.705-.225 1.239-1.318l.219.288c.9 1.178 2.679 1.468 3.971.646 1.218-.773 1.569-2.258.852-3.411.959.861 2.485 1.004 3.628.279 1.138-.724 1.521-2.065.983-3.18a3.074 3.074 0 0 0 3.118-.086c1.295-.819 1.613-2.438.712-3.618z"/><path fill="#FFDCBA" d="M-242.925 173.923c-1.292.822-3.069.532-3.971-.646v-.074c-.9-1.178-.583-2.799.709-3.619 1.292-.821 3.071-.531 3.971.646v.074c.901 1.178.582 2.8-.709 3.619z"/><path fill="#FFC898" d="M-243.362 174.32c-1.292.822-3.068.532-3.97-.646v-.074c-.899-1.178-.581-2.799.708-3.619 1.295-.821 3.072-.531 3.974.646v.075c.899 1.178.58 2.799-.712 3.618z"/><path fill="#FFDCBA" d="M-247.171 177.21c-1.292.821-3.071.531-3.973-.646l-1.953-2.555c-.902-1.178-.583-2.799.709-3.618 1.292-.821 3.071-.531 3.97.646l1.955 2.558c.9 1.176.585 2.796-.708 3.615z"/><path fill="#FFC898" d="M-247.463 177.583c-1.292.822-3.069.532-3.971-.646l-1.955-2.555c-.899-1.18-.583-2.799.711-3.621 1.292-.819 3.069-.531 3.971.648l1.953 2.555c.902 1.179.584 2.8-.709 3.619z"/><path fill="#FFDCBA" d="M-251.508 180.452c-1.292.821-3.069.532-3.971-.646l-1.955-2.558c-.9-1.178-.582-2.797.711-3.618 1.292-.819 3.069-.529 3.968.648l1.955 2.555c.902 1.179.585 2.8-.708 3.619z"/><path fill="#FFC898" d="M-251.942 180.716c-1.292.821-3.072.534-3.971-.646l-1.955-2.556c-.902-1.177-.583-2.799.708-3.618 1.292-.821 3.069-.531 3.971.646l1.956 2.557c.899 1.178.584 2.797-.709 3.617z"/><path fill="#FFDCBA" d="M-256.728 182.524c-1.292.821-3.069.531-3.971-.646l-1.307-1.597c-.899-1.178-.583-2.799.708-3.618 1.292-.822 3.072-.532 3.974.646l1.306 1.597c.901 1.177.583 2.799-.71 3.618z"/><path fill="#FFC898" d="M-257.164 182.855c-1.292.819-3.069.532-3.969-.646l-1.309-1.598c-.899-1.18-.583-2.799.709-3.618 1.292-.821 3.071-.533 3.971.646l1.309 1.597c.899 1.179.584 2.8-.711 3.619z"/><path fill="#25A8DF" d="M-291.767 174.055V154.74h-9.576v21.441h11.755c-1.59.001-2.051-1.243-2.179-2.126z"/><path fill="#F3B475" d="M-291.767 156.062h1.762v16.274h-1.762z"/><path fill="#166C83" d="M-291.767 172.337h1.618v1.463s-.434 2.396 1.089 2.396c0 0-2.722.647-2.722-2.268l.015-1.591z"/><path fill="#E19963" d="M-234.116 153.771h1.661v16.283h-1.661z"/><path fill="#44C6F3" d="M-301.343 154.74h9.562v8.562h-9.562z"/><path fill="#91E9BB" d="M-232.455 152.543h9.561v8.56h-9.561z"/></g><path fill="#0BD1F1" d="M96 47.913c0 26.462-21.49 47.915-48 47.915S0 74.375 0 47.913C0 21.453 21.49 0 48 0s48 21.45 48 47.913z"/><path fill="#0F94C3" d="M19.928 71.49l21.818 24.338s45.826 5.373 54.253-43.894L79.563 31.36 19.928 71.49z"/><path fill="#02668D" d="M77.389 30.471H22.903a4.024 4.024 0 0 0-4.028 4.021v35.359a4.024 4.024 0 0 0 4.028 4.021h54.485a4.025 4.025 0 0 0 4.029-4.021V34.492a4.023 4.023 0 0 0-4.028-4.021z"/><path fill="#AC8F6C" d="M79.047 67.488a4.024 4.024 0 0 1-4.028 4.021H20.533a4.025 4.025 0 0 1-4.028-4.021V34.492a4.025 4.025 0 0 1 4.028-4.021h54.485a4.024 4.024 0 0 1 4.028 4.021v32.996z"/><path fill="#F8EAD3" d="M79.047 65.122a4.024 4.024 0 0 1-4.028 4.022H20.533a4.025 4.025 0 0 1-4.028-4.022V32.126a4.024 4.024 0 0 1 4.028-4.021h54.485c2.226 0 4.028 1.8 4.028 4.021v32.996z"/><path fill="#FFB220" d="M16.505 39.457h62.542v17.971H16.505z"/><path fill="#E1D1B6" d="M16.584 60.369h62.462v2.024H16.584zm0-25.055h62.462v2.024H16.584z"/><path fill="#E79614" d="M16.505 39.929h62.542v.842H16.505z"/><path fill="#FFF6E8" d="M15.637 37.091h63.885v2.94H15.637z"/><path fill="#E79614" d="M16.505 56.819h62.542v.841H16.505z"/><path fill="#FFF6E8" d="M15.637 57.428h63.885v2.941H15.637z"/><path fill="#9A8D7A" d="M55.434 60.369c4.068-2.442 6.793-6.892 6.793-11.979 0-4.611-2.239-8.7-5.689-11.243H39.929c-3.45 2.543-5.692 6.632-5.692 11.243 0 5.088 2.727 9.537 6.796 11.979h14.401z"/><ellipse fill="#FFF6E8" cx="48.041" cy="48.493" rx="12.45" ry="12.428"/><ellipse fill="#676798" cx="47.792" cy="48.585" rx="8.249" ry="8.234"/><ellipse fill="#46467B" cx="47.792" cy="48.585" rx="6.411" ry="6.398"/><ellipse fill="#2F2F5D" cx="47.792" cy="48.585" rx="4.806" ry="4.796"/><ellipse fill="#19193E" cx="47.793" cy="48.585" rx="2.373" ry="2.367"/><circle fill="#FFF6E8" cx="50.64" cy="45.229" r="1.875"/><circle fill="#FFF6E8" cx="45.822" cy="51.639" r=".888"/><path fill="#2F2F5D" d="M72.817 32.701c0 .633-.513 1.144-1.145 1.144H65.98a1.144 1.144 0 0 1-1.147-1.144v-2.27c0-.633.514-1.146 1.147-1.146h5.692c.632 0 1.145.513 1.145 1.146v2.27z"/><path fill="#46467B" d="M72.817 33.173c0 .634-.513 1.146-1.145 1.146H65.98a1.145 1.145 0 0 1-1.147-1.146v-2.269c0-.632.514-1.145 1.147-1.145h5.692c.632 0 1.145.513 1.145 1.145v2.269z"/><path fill="#676798" d="M66.246 30.232h1.106l1.2 3.612h-2.307a.673.673 0 0 1-.674-.672v-2.269a.674.674 0 0 1 .675-.671z"/><path fill="#FFF6E8" d="M33.562 28.104v-1.458a.669.669 0 0 0-.67-.669h-5.053a.67.67 0 0 0-.672.669v1.458h6.395z"/><path fill="#E1D1B6" d="M27.166 27.574h6.396v.53h-6.396z"/></svg>