<svg xmlns="http://www.w3.org/2000/svg" xmlns:xlink="http://www.w3.org/1999/xlink" width="96" height="96" viewBox="0 0 96 96"><ellipse fill="#55E162" cx="-260.125" cy="41.738" rx="48" ry="47.969"/><path fill="#21C330" d="M-290.305 62.592l32.595 27.174s34.792-.936 44.172-36.398l-26.701-25.27-50.066 34.494z"/><path fill="#0D8D10" d="M-228.531 50.399h-6.666v-1.892h6.487v-2.971h-2.162v-2.881h2.131c-1.116-16.158-14.632-23.936-31.153-23.936-4.453 0-8.682.571-12.515 1.714v28.074h7.667v1.892h-7.667v9.741h-18.24c.249 2.857 2.577 4.593 4.438 4.593h53.203c1.889 0 4.258-1.779 4.453-4.701h.015v-2.747h.009c1.495 0 3.245-1.542 3.245-3.442-.001-1.902-1.751-3.444-3.245-3.444z"/><path fill="#FFB220" d="M-230.163 55.008h-62.133v2.863h.012c.196 2.925 2.565 4.701 4.453 4.701h53.203c1.886 0 4.255-1.776 4.45-4.701h.015v-2.863z"/><path fill="#FFD278" d="M-292.296 55.008h62.133v2.231h-62.133z"/><path fill="#5F2707" d="M-226.909 51.681c0 1.902-1.75 3.443-3.243 3.443h-62.697c-1.495 0-3.243-1.541-3.243-3.443 0-1.9 1.748-3.442 3.243-3.442h62.697c1.493-.001 3.243 1.541 3.243 3.442z"/><path fill="#F1C437" d="M-292.67 45.537h62.337v2.701h-62.337z"/><path fill="#21C330" d="M-292.67 43.375h62.337v2.971h-62.337z"/><path fill="#FFD278" d="M-230.361 40.497c-1.116-16.158-14.634-23.938-31.153-23.938-16.522 0-30.04 7.78-31.156 23.938h62.309z"/><path fill="#D54242" d="M-289.066 40.134h56.571v3.781h-56.571z"/><path fill="#3E1703" d="M-227.35 50.062c-.615-1.087-1.77-1.824-2.801-1.824h-62.697c-1.034 0-2.189.737-2.804 1.824h12.621l2.794 3.24 14.955-3.24h6.574l14.945 3.24 3.252-3.24h13.161z"/><path fill="#F1C437" d="M-286.723 47.698l3.424 3.781 19.097-3.781z"/><path fill="#FFB220" d="M-233.061 39.955c-1.021-13.734-13.366-20.346-28.453-20.346-15.089 0-27.433 6.611-28.454 20.346h56.907z"/><path fill="#F1C437" d="M-235.737 47.698l-5.044 3.781-18.556-3.781z"/><path fill="#FFD278" d="M-282.573 36.696a.848.848 0 1 1-1.358-1.019l1.165-1.548a.852.852 0 0 1 1.19-.166c.374.28.451.813.169 1.186l-1.166 1.547zm10.986 0a.847.847 0 0 1-1.188.169.846.846 0 0 1-.168-1.188l1.164-1.548a.854.854 0 0 1 1.191-.166c.374.28.451.813.169 1.186l-1.168 1.547zm-3.626-4.003a.85.85 0 0 1-1.359-1.02l1.167-1.546a.85.85 0 0 1 1.36 1.019l-1.168 1.547zm7.968-3.606a.85.85 0 0 1-1.359-1.02l1.164-1.546a.85.85 0 0 1 1.36 1.02l-1.165 1.546zm-10.832 0a.85.85 0 0 1-1.359-1.02l1.167-1.546a.848.848 0 0 1 1.189-.168.847.847 0 0 1 .169 1.188l-1.166 1.546zm35.09 7.41a.855.855 0 0 0 1.191.168.849.849 0 0 0 .169-1.188l-1.167-1.547a.849.849 0 0 0-1.357 1.02l1.164 1.547zm-10.458-.002a.849.849 0 0 0 1.357-1.02l-1.164-1.547a.852.852 0 0 0-1.191-.167.846.846 0 0 0-.169 1.186l1.167 1.548zm3.626-4.006a.848.848 0 0 0 1.356-1.019l-1.164-1.547a.849.849 0 1 0-1.36 1.019l1.168 1.547zm-12.792 1.938a.847.847 0 0 0 1.188.166.843.843 0 0 0 .169-1.185l-1.165-1.548a.853.853 0 0 0-1.191-.168.848.848 0 0 0-.168 1.188l1.167 1.547zm5.027-5.34a.85.85 0 0 0 1.359-1.02l-1.167-1.546a.847.847 0 0 0-1.188-.168.847.847 0 0 0-.169 1.188l1.165 1.546zm10.104-1.621a.847.847 0 0 0 1.188.166.845.845 0 0 0 .171-1.185l-1.167-1.547a.851.851 0 0 0-1.188-.168.846.846 0 0 0-.171 1.188l1.167 1.546z"/><ellipse fill="#046EC5" cx="47.861" cy="47.868" rx="47.861" ry="47.867"/><path fill="#025192" d="M19.909 71.265l21.995 24.561S88.306 101.234 96 51.976L75.146 28.703 19.909 71.265z"/><path fill="#A4621A" d="M75.812 54.033a5.356 5.356 0 0 1-5.355 5.356H23.849a5.358 5.358 0 0 1-5.358-5.356V33.089c0-2.959 2.399 4.092 5.358 4.092h46.608c2.957 0 5.355-7.051 5.355-4.092v20.944z"/><path fill="#043A5F" d="M73.763 30.567H23.375c-2.959 0-3.467.507-3.467 3.466v13.382c0 .298.029.586.077.87a5.163 5.163 0 0 0-.077.869v21.414c0 2.96.981 3.467 3.94 3.467H73.29c2.959 0 3.94-.507 3.94-3.467V49.154a5.39 5.39 0 0 0-.077-.869c.046-.283.077-.571.077-.87V34.034c.001-2.96-.508-3.467-3.467-3.467z"/><path fill="#BA6D22" d="M75.812 68.679c0 2.959-.98 3.467-3.939 3.467H22.431c-2.959 0-3.94-.508-3.94-3.467V47.264a5.358 5.358 0 0 1 5.358-5.358h46.608a5.357 5.357 0 0 1 5.355 5.358v21.415z"/><path fill="#F49537" d="M75.812 65.845c0 2.959-.98 3.467-3.939 3.467H22.431c-2.959 0-3.94-.508-3.94-3.467V44.43a5.36 5.36 0 0 1 5.358-5.36h46.608c2.957 0 5.355 2.4 5.355 5.36v21.415z"/><path fill="#BA6D22" d="M75.812 47.889a5.355 5.355 0 0 1-5.355 5.357H23.849a5.356 5.356 0 0 1-5.358-5.357V36.394a5.358 5.358 0 0 1 5.358-5.356h46.608c2.957 0 5.355 2.4 5.355 5.356v11.495z"/><path fill-rule="evenodd" clip-rule="evenodd" fill="#FFAB5F" d="M39.83 25.134c0-.741.601-1.34 1.342-1.34h10.625c.741 0 1.342.6 1.342 1.34v3.069H39.83v-3.069zm32.517 3.07H56.443v-6.143c0-.737 0-2.284-1.812-2.284H38.414c-.74 0-1.812 1.073-1.812 1.813v6.613H21.959c-2.959 0-3.469.508-3.469 3.467v14.8a5.357 5.357 0 0 0 5.358 5.357h46.608a5.355 5.355 0 0 0 5.355-5.357v-14.8c.001-2.959-.505-3.466-3.464-3.466z"/><path fill="#FFAB5F" d="M75.812 45.525a5.356 5.356 0 0 1-5.355 5.358H23.849a5.358 5.358 0 0 1-5.358-5.358V32.144c0-2.959.51-3.467 3.469-3.467h50.387c2.959 0 3.466.508 3.466 3.467v13.381z"/><path fill="#F49537" d="M75.812 45.525a5.356 5.356 0 0 1-5.355 5.358H23.849a5.358 5.358 0 0 1-5.358-5.358V34.979c0-2.96.51-3.467 3.469-3.467h50.387c2.959 0 3.466.507 3.466 3.467v10.546z"/><path fill="#BA6D22" d="M39.83 30.093v-4.489c0-.737.601-1.339 1.342-1.339h10.625c.741 0 1.342.602 1.342 1.339v4.489h3.306v-7.087c0-.738 0-2.284-1.812-2.284H38.414c-.74 0-1.812 1.072-1.812 1.812v7.558h3.228z"/><path fill="#F49537" d="M54.631 20.723H38.414c-.74 0-1.812 1.072-1.812 1.812v.945c0-.741 1.072-1.812 1.812-1.812h16.217c1.812 0 1.812 1.545 1.812 2.284v-.945c0-.739 0-2.284-1.812-2.284z"/><path fill="#BA6D22" d="M44.875 52.302v3.738c0 .764.618 1.383 1.382 1.383h3.574c.762 0 1.383-.619 1.383-1.383v-3.738h-6.339z"/><path fill="#EC8E1F" d="M50.412 55.016c0 .555-.45 1.005-1.008 1.005h-2.721c-.555 0-1.004-.45-1.004-1.005v-7.307c0-.555.449-1.005 1.004-1.005h2.721c.558 0 1.008.45 1.008 1.005v7.307z"/><path fill="#FFED87" d="M50.412 53.595c0 .556-.45 1.008-1.008 1.008h-2.721a1.006 1.006 0 0 1-1.004-1.008v-6.24c0-.555.449-1.007 1.004-1.007h2.721c.558 0 1.008.452 1.008 1.007v6.24z"/><path fill="#BA6D22" d="M26.837 27.428h3.781v4.084h-3.781z"/><path fill="#955516" d="M26.837 31.512h3.781v20.316h-3.781z"/><path fill="#B66924" d="M26.837 51.869h3.781v.944h-3.781z"/><path fill="#F49537" d="M26.837 27.428h3.781v.776h-3.781z"/><path fill="#BA6D22" d="M26.878 52.302h3.779v17.01h-3.779z"/><path fill="#92511C" d="M26.878 52.34h3.779v.945h-3.779z"/><path fill="#955516" d="M26.837 69.312h3.781v2.834h-3.781z"/><path fill="#BA6D22" d="M61.325 27.428h3.778v4.084h-3.778z"/><path fill="#955516" d="M61.325 31.512h3.778v20.316h-3.778z"/><path fill="#B66924" d="M61.325 51.869h3.778v.944h-3.778z"/><path fill="#F49537" d="M61.325 27.428h3.778v.776h-3.778z"/><path fill="#BA6D22" d="M61.325 52.302h3.778v17.01h-3.778z"/><path fill="#92511C" d="M61.325 52.34h3.778v.945h-3.778z"/><path fill="#955516" d="M61.325 69.312h3.778v2.834h-3.778z"/><path fill="#F1C437" d="M49.404 46.995h-2.721c-.555 0-1.004.45-1.004 1.005v5.768c0 .556.449 1.005 1.004 1.005h2.721c.558 0 1.008-.449 1.008-1.005V48c0-.555-.45-1.005-1.008-1.005z"/><ellipse fill="#FB4343" cx="-262.118" cy="162.585" rx="48" ry="43.74"/><path fill="#BE1616" d="M-297.546 176.32l37.805 29.956s45.623-2.375 45.572-45.655l-11.087-8.078-72.29 23.777z"/><path fill="#880D0D" d="M-227.383 155.169h2.336-7.206v1.228h-.007v-1.182h-8.708l-9.053-8.961c-3.428-2.714-7.787 0-7.787 0l-.295.274c-.639.268-1.031.51-1.031.51l-1.285.719a4.315 4.315 0 0 0-2.777.333l-.818.308-15.422 9.293-.123-.004h-11.96v-.321h-4.836v8.562l-1.895 9.427 3.898 3.453h4.292c.641.156 1.25.014 1.25.014-.012 0-.021-.003-.033-.003.971-.206 1.697-.995 1.697-1.944v-1.908h4.549l4.109 5.507s2.441 3.408 9.295 1.58c.328-.005.664-.053.994-.154l.503-.167c-.547.754-.725 1.719-.39 2.641l.072.202c.579 1.598 2.469 2.468 4.224 1.94l.024-.018.041-.028c.246-.172 1.242-.855 2.676-1.833l.164.2c.9 1.178 2.679 1.468 3.971.646.147-.093.282-.198.403-.312l.034-.02c.762-.483 1.182-1.246 1.215-2.032.965.812 2.447.938 3.568.227.053-.035.101-.073.152-.108.097-.048.193-.099.285-.157.969-.613 1.389-1.679 1.16-2.668.901.4 2.006.358 2.886-.202.35-.222.626-.505.829-.819.557-.598.784-1.386.637-2.144a3.072 3.072 0 0 0 2.635-.299c.231-.146.432-.32.598-.512 1.155-.849 1.408-2.377.547-3.504v-.075c-.024-.028-.048-.058-.075-.086.147-.028.292-.053.432-.074l.091-.016h4.892v1.999c0 .945.723 1.733 1.692 1.94-.009.002-.017.004-.029.004 0 0 .61.141 1.251-.013h9.939s5.145-13.382-.446-20.247c-5.59-6.862-2.69 7.366-2.69 7.366l-.475-8.562z"/><defs><ellipse id="a" cx="-261.929" cy="162.889" rx="38.382" ry="34.974"/></defs><clipPath id="b"><use xlink:href="#a" overflow="visible"/></clipPath><g clip-path="url(#b)"><path fill="#30A269" d="M-236.877 172.054c0 1.101.984 1.997 2.194 1.997s2.194-.896 2.194-1.997v-11.698c0-1.103-.984-1.997-2.194-1.997s-2.194.895-2.194 1.997v11.698z"/><path fill="#80D2A9" d="M-232.503 171.858v-19.315h9.576v21.441l-5.796-.002h-5.959c1.59 0 2.051-1.241 2.179-2.124z"/><path fill="#219058" d="M-232.503 170.076h-1.548v1.527s.102 2.395-1.162 2.395c0 0 2.724.647 2.724-2.268l-.014-1.654z"/><path fill="#3F829A" d="M-287.396 174.248c0 1.105-.981 1.999-2.191 1.999-1.212 0-2.194-.894-2.194-1.999v-11.693c0-1.103.981-1.999 2.194-1.999 1.21 0 2.191.896 2.191 1.999v11.693z"/><path fill="#FFC97C" d="M-232.511 152.59h-8.706l-9.055-8.962c-3.428-2.715-7.785 0-7.785 0l-5.914 5.488 4.386 1.298-18.14 10.961c-1.752.527-2.705 2.249-2.129 3.847l.075.201c.577 1.6 2.466 2.468 4.221 1.94l1.678-.536c-1.755.527-2.708 2.25-2.131 3.847l.075.202c.576 1.6 2.468 2.467 4.221 1.939l1.502-.494c-1.388.69-2.085 2.208-1.572 3.628l.075.202c.576 1.597 2.466 2.467 4.221 1.939l.506-.167a2.812 2.812 0 0 0-.393 2.641l.075.2c.577 1.6 2.467 2.467 4.222 1.941 0 0 19-13.1 20.868-13.559a16.67 16.67 0 0 1 1.391-.275h8.308V152.59z"/><path fill="#F3B475" d="M-232.455 153.771h-9.723l-9.417-9.358c-3.428-2.714-7.787 0-7.787 0l-7.001 3.901 5.836 3.282-18.139 10.96c-1.752.527-2.708 2.249-2.128 3.849l.074.2c.576 1.6 2.469 2.467 4.221 1.942l1.679-.539c-1.756.527-2.71 2.25-2.131 3.848l.075.201c.576 1.6 2.468 2.468 4.221 1.94l1.504-.494c-1.393.691-2.087 2.208-1.574 3.627l.073.202c.579 1.6 2.471 2.467 4.224 1.939l.504-.167c-.547.754-.726 1.718-.39 2.641l.072.202c.579 1.598 2.471 2.467 4.224 1.94 0 0 19-13.101 20.868-13.558.492-.12.959-.211 1.391-.276h9.325v-16.282z"/><path fill="#FFDEC6" d="M-255.638 159.055c.521-.092 1.685-.481 2.15-.775 1.815-1.14 2.271-3.407 1.018-5.062l-5.808-6.61c-1.167-1.54-3.401-2.006-5.168-1.143l-.815.308-15.424 9.293-.123-.005h-14.151v16.286h10.607l4.105 5.51s2.859 3.996 11.085 1.017l16.823-12.015-4.299-6.804z"/><path fill="#FFC898" d="M-263.608 146.632l-19.424 11.76s-6.504 2.523-3.594 8.875l7.891 10.58s2.857 3.998 11.083 1.02l16.823-12.013-12.779-20.222z"/><path fill="#F3B475" d="M-253.632 159.473c-3.399-.615-5.391-8.714-5.391-8.714l-19.663 11.798c-1.752.527-2.708 2.249-2.128 3.849l.074.2c.576 1.6 2.469 2.467 4.221 1.942l1.679-.539c-1.756.527-2.71 2.25-2.131 3.848l.075.201c.576 1.6 2.468 2.468 4.221 1.94l1.504-.494c-1.393.691-2.087 2.208-1.574 3.627l.073.202c.579 1.6 2.471 2.467 4.224 1.939l.504-.167c-.547.754-.726 1.718-.39 2.641l.072.202c.579 1.598 2.471 2.467 4.224 1.94 0 0 19-13.101 20.868-13.558 3.12-.764 5.121-.283 5.121-.283l-15.583-10.574z"/><path fill="#D79458" d="M-266.564 155.229l6.997 5.26s2.615 1.821 5.268.167c0 0 2.485-1.384-.22-5-3.23-4.323-4.503-4.897-4.503-4.897l-7.542 4.47z"/><path fill="#FFC898" d="M-279.298 156.054h-14.663v16.283l14.663.002c1.704 0 3.088-1.261 3.088-2.813v-10.657c.001-1.554-1.384-2.815-3.088-2.815z"/><path fill="#DA8C57" d="M-271.501 158.216l-7.184 4.341c-1.752.527-2.708 2.249-2.128 3.849l.074.2c.576 1.6 2.469 2.467 4.221 1.942l1.679-.539c-1.756.527-2.71 2.25-2.131 3.848l.075.201c.576 1.6 2.468 2.468 4.221 1.94l1.504-.494c-1.393.691-2.087 2.208-1.574 3.627l.073.202c.579 1.6 2.471 2.467 4.224 1.939l.504-.167c-.547.754-.726 1.718-.39 2.641l.072.202c.579 1.598 2.471 2.467 4.224 1.94 0 0 4.142-2.856 8.747-5.945l-16.211-19.727z"/><path fill="#FFC898" d="M-253.632 159.473c-1.815 1.142-4.304.727-5.555-.928l-5.81-6.61c-1.254-1.654-.796-3.922 1.018-5.063 1.815-1.143 4.303-.726 5.554.927l5.811 6.612c1.253 1.651.798 3.919-1.018 5.062z"/><path fill="#CB8953" d="M-243.523 169.444v-.075c-.899-1.178-2.679-1.468-3.971-.646-.955.606-1.376 1.647-1.169 2.625l-.917-1.197c-.902-1.178-2.679-1.468-3.971-.646-1.22.773-1.571 2.259-.851 3.412-.96-.861-2.486-1.006-3.631-.276-1.278.811-1.604 2.405-.735 3.578-.936-1.039-2.604-1.265-3.836-.483-1.292.822-1.666 2.315-1.217 3.619l.868 3.787s3.417-2.477 4.708-3.298c1.102-.698 1.705-.225 1.239-1.318l.219.288c.9 1.178 2.679 1.468 3.971.646 1.218-.773 1.569-2.258.852-3.411.959.861 2.485 1.004 3.628.279 1.138-.724 1.521-2.065.983-3.18a3.074 3.074 0 0 0 3.118-.086c1.295-.819 1.613-2.438.712-3.618z"/><path fill="#FFDCBA" d="M-242.925 173.923c-1.292.822-3.069.532-3.971-.646v-.074c-.9-1.178-.583-2.799.709-3.619 1.292-.821 3.071-.531 3.971.646v.074c.901 1.178.582 2.8-.709 3.619z"/><path fill="#FFC898" d="M-243.362 174.32c-1.292.822-3.068.532-3.97-.646v-.074c-.899-1.178-.581-2.799.708-3.619 1.295-.821 3.072-.531 3.974.646v.075c.899 1.178.58 2.799-.712 3.618z"/><path fill="#FFDCBA" d="M-247.171 177.21c-1.292.821-3.071.531-3.973-.646l-1.953-2.555c-.902-1.178-.583-2.799.709-3.618 1.292-.821 3.071-.531 3.97.646l1.955 2.558c.9 1.176.585 2.796-.708 3.615z"/><path fill="#FFC898" d="M-247.463 177.583c-1.292.822-3.069.532-3.971-.646l-1.955-2.555c-.899-1.18-.583-2.799.711-3.621 1.292-.819 3.069-.531 3.971.648l1.953 2.555c.902 1.179.584 2.8-.709 3.619z"/><path fill="#FFDCBA" d="M-251.508 180.452c-1.292.821-3.069.532-3.971-.646l-1.955-2.558c-.9-1.178-.582-2.797.711-3.618 1.292-.819 3.069-.529 3.968.648l1.955 2.555c.902 1.179.585 2.8-.708 3.619z"/><path fill="#FFC898" d="M-251.942 180.716c-1.292.821-3.072.534-3.971-.646l-1.955-2.556c-.902-1.177-.583-2.799.708-3.618 1.292-.821 3.069-.531 3.971.646l1.956 2.557c.899 1.178.584 2.797-.709 3.617z"/><path fill="#FFDCBA" d="M-256.728 182.524c-1.292.821-3.069.531-3.971-.646l-1.307-1.597c-.899-1.178-.583-2.799.708-3.618 1.292-.822 3.072-.532 3.974.646l1.306 1.597c.901 1.177.583 2.799-.71 3.618z"/><path fill="#FFC898" d="M-257.164 182.855c-1.292.819-3.069.532-3.969-.646l-1.309-1.598c-.899-1.18-.583-2.799.709-3.618 1.292-.821 3.071-.533 3.971.646l1.309 1.597c.899 1.179.584 2.8-.711 3.619z"/><path fill="#25A8DF" d="M-291.767 174.055V154.74h-9.576v21.441h11.755c-1.59.001-2.051-1.243-2.179-2.126z"/><path fill="#F3B475" d="M-291.767 156.062h1.762v16.274h-1.762z"/><path fill="#166C83" d="M-291.767 172.337h1.618v1.463s-.434 2.396 1.089 2.396c0 0-2.722.647-2.722-2.268l.015-1.591z"/><path fill="#E19963" d="M-234.116 153.771h1.661v16.283h-1.661z"/><path fill="#44C6F3" d="M-301.343 154.74h9.562v8.562h-9.562z"/><path fill="#91E9BB" d="M-232.455 152.543h9.561v8.56h-9.561z"/></g><circle fill="#F1C437" cx="-46.37" cy="164.107" r="48"/><path fill="#CB9928" d="M-61.308 192.334l17.698 19.773c1.398-.181 35.987-2.502 44.591-39.154 0 0-18.899-25.044-19.856-24.564-.957.48-42.433 43.945-42.433 43.945z"/><path fill-rule="evenodd" clip-rule="evenodd" fill="#8B7C22" d="M-45.574 199.988v.002-.002zm34.607-36.371l-.05-22.625-24.364.049.002 1.113h-1.362v.049l-12.521-.026-.912.014-.039-.097-4.038.061h-.788l.002-1.116-24.367-.046-.048 22.625 1.482.004c3.698 0 7.288-.88 10.528-2.561l-.056 1.02.135-.053-.012 7.507h.065c.272 3.71 1.482 7.339 3.517 10.546l-.009 5.168.048.003-.005 2.131.157.002a9.698 9.698 0 0 0 6.912 7.979 4.179 4.179 0 0 0 4.036 3.011l1.893.005a5.942 5.942 0 0 0 5.173 3.048h.013a5.943 5.943 0 0 0 5.171-3.029l2.112.006a4.226 4.226 0 0 0 4.05-3.043c3.58-1.1 6.234-4.211 6.796-7.891h.161l.005-1.709-.007-1.441h-.039l.007-3.516c1.629-2.377 3.505-5.931 4.06-10.238l.164.002.012-8.575.123.046-.04-.989a22.803 22.803 0 0 0 10.55 2.57l1.483-.004z"/><path fill="#F49537" d="M-72.795 150.542h.255-.255z"/><path fill="#FFF" d="M-40.049 162.553c0-.041 0-.084.007-.128v.249c-.007-.039-.007-.083-.007-.121zm-.572 19.776l-.002.267h-.005c.005-.087.005-.176.007-.267z"/><path fill="#9A8478" d="M-46.525 179.425h5.907v2.897h-5.907z"/><path fill="#FFF" d="M-40.621 182.329c-.002.091-.002.18-.007.267l-5.9-.012v-.268l5.907.013z"/><path fill="#713811" d="M-46.662 185.366c-.01 4.877 3.938 8.838 8.809 8.848a8.62 8.62 0 0 0 1.905-.202v.036a2.948 2.948 0 0 1-2.953 2.937l-15.204-.031a2.931 2.931 0 0 1-2.936-2.882c.443.071.904.108 1.369.108 4.877.011 8.84-3.937 8.85-8.813h.059v-.307h.039l-.003.307h.065z"/><path fill="#FFF" d="M-46.572 185.06h.039v.386h-.039z"/><path fill="#FFF" d="M-46.57 185.447l.007-2.861h.036l-.007 2.861z"/><path fill="#FB4343" d="M-51.358 184.573l-.022 10.835a4.769 4.769 0 0 0 9.54.016l.021-10.832-9.539-.019z"/><path fill="#FFF" d="M-46.566 182.316h.039v.268h-.039zm.003-2.897h.039v2.897h-.039zm-.003 2.897v.268l-4.93-.01c-.007-.084-.007-.176-.007-.268l4.937.01z"/><path fill="#9A8478" d="M-51.503 182.305l.008-2.897 4.937.014-.008 2.897z"/><path fill="#DA2D2D" d="M-51.496 194.6s4.26-1.572 4.925-4.541c0 0 1.571 3.871 4.732 4.161v-8.27l-8.26-3.038s-1.533 6.812-1.465 7.134.068 4.554.068 4.554z"/><path fill="#FBB158" d="M-34.757 167.347c0-.11.002-1.962.014-4.586-.002-.021-1.653-4.449-3.11-9.08v-13.185h-17.556v17.553h.398c-1.345 4.685-2.698 8.566-2.7 8.721-.012 6.601-.021 11.948-6.618 11.936l-.08.056c.005.015.015.024.026.04l-.012 5.772c.285-2.979 2.862-5.3 5.996-5.294h.391l11.437.023 11.362.022h.396c3.317.008 6.005 2.63 6 5.86h.009l.013-5.793c.001.001-5.978-5.559-5.966-12.045z"/><path fill-rule="evenodd" clip-rule="evenodd" fill="#FFE5C6" d="M-28.764 185.108c.008-3.232-2.683-5.854-6-5.86h-.396l-11.363-.022-11.434-.023h-.391c-3.134-.008-5.714 2.314-5.996 5.294l-.003.834.058.003a8.831 8.831 0 0 0 8.833 8.846c4.417.008 8.083-3.122 8.843-7.253.75 4.135 4.44 7.281 8.901 7.287.67.002 1.955-.202 1.955-.202a8.825 8.825 0 0 0 6.943-8.609h.061v-.294h-.011z"/><path fill="#FFF" d="M-51.503 182.307c0 .092 0 .184.007.268h-.007v-.268z"/><path fill-rule="evenodd" clip-rule="evenodd" fill="#F49537" d="M-52.503 166.702c-.014 6.601-5.181 11.94-11.777 11.927l-.079.055c-2.187-3.296-3.559-7.172-3.78-11.29l-.039.532.027-14.185c5.369-4.117 8.828-5.955 8.843-13.245l6.767-.1.039.1c-.008.589-.001 25.898-.001 26.206z"/><circle fill="#B9721D" cx="-59.694" cy="164.258" r="5.295"/><path fill="#481200" d="M-59.635 159.687a4.405 4.405 0 0 0-4.415 4.397v.006a4.403 4.403 0 0 0 4.398 4.403c.105 0 .205-.008.311-.015a4.399 4.399 0 0 0 4.096-4.379 4.4 4.4 0 0 0-4.39-4.412z"/><path fill="#F49537" d="M-40.61 175.607l-.003 1.702-10.836-.021.005-1.7c.004-3.001 2.433-5.437 5.427-5.432 2.993.007 5.411 2.452 5.407 5.451zm7.914-35.06l-7.486-.012c-.002 1.527.125 26.622.125 26.727-.015 6.482 4.879 11.857 11.316 12.054 2.387-3.383 4.135-7.524 4.388-11.838h.037l.028-13.948c-5.136-4.153-8.422-5.862-8.408-12.983z"/><circle fill="#D7AD81" cx="-38.449" cy="185.249" r="1.233"/><path fill="#D7AD81" d="M-31.794 185.26a1.232 1.232 0 1 1-2.465 0 1.232 1.232 0 0 1 2.465 0z"/><circle fill="#D7AD81" cx="-35.5" cy="189.198" r="1.232"/><circle fill="#D7AD81" cx="-59.157" cy="185.207" r="1.232"/><circle fill="#D7AD81" cx="-53.734" cy="185.219" r="1.234"/><path fill="#D7AD81" d="M-54.974 189.159a1.231 1.231 0 1 1-2.464-.006 1.231 1.231 0 1 1 2.464.006z"/><path fill="#FFF0E0" d="M-57.689 162.873a1.869 1.869 0 0 1-1.866 1.869 1.868 1.868 0 0 1 0-3.735c1.029 0 1.866.837 1.866 1.866z"/><path fill="#B9721D" d="M-64.346 140.442l-3.558 12.403-.275 6.728s10.895-4.054 11.405-19.131h-7.572z"/><path fill="#481200" d="M-67.039 139.242l-13.886-.026-.043 22.766a22.661 22.661 0 0 0 13.894-4.699c5.407-4.148 8.9-10.678 8.915-18.022l-8.88-.019z"/><path fill="#713811" d="M-51.406 176.102c-.024.21-.039 1.389-.039 1.605l-.005 1.702 10.836.022.003-1.703c0-.224-.015-1.409-.042-1.627h-10.753z"/><path fill="#D7B99D" d="M-52.52 179.238a8.25 8.25 0 0 0 1.169 3.859c1.119 1.828 2.879 2.997 4.824 3.204l.068.006c.167.019.342.025.552.027h.012c2.166 0 4.202-1.202 5.446-3.218a8.207 8.207 0 0 0 1.186-3.879H-52.52z"/><path fill="#5A2E0D" d="M-44.928 179.161l-1.567-.005-4.971-.01c.05 1.22.407 2.344.978 3.281.89 1.453 2.312 2.456 3.942 2.632h.039c.154.02.309.024.466.027 1.834.003 3.466-1.044 4.455-2.64a6.866 6.866 0 0 0 .991-3.279l-4.333-.006z"/><path d="M-49.731 181.629s.468 1.198 1.615 1.669v-1.461s.364-1.834-1.408-1.834h-.574s.08 1.036.367 1.626z"/><circle fill="#B9721D" cx="-32.323" cy="164.258" r="5.295"/><path d="M-42.474 181.629s-.47 1.198-1.615 1.669v-1.461s-.367-1.834 1.407-1.834h.572s-.078 1.036-.364 1.626z"/><path fill="#481200" d="M-32.318 159.688a4.404 4.404 0 0 1 4.417 4.396v.006a4.405 4.405 0 0 1-4.4 4.403c-.104 0-.205-.008-.311-.015a4.398 4.398 0 0 1-4.096-4.379 4.4 4.4 0 0 1 4.39-4.411z"/><path fill="#FFF0E0" d="M-34.263 162.873a1.868 1.868 0 1 0 3.735 0 1.868 1.868 0 0 0-3.735 0z"/><path fill="#B9721D" d="M-28.101 140.442l3.558 12.403.275 6.728s-10.895-4.054-11.406-19.131h7.573z"/><path fill="#481200" d="M-25.408 139.242l13.886-.026.046 22.766a22.663 22.663 0 0 1-13.896-4.699c-5.407-4.148-8.9-10.678-8.915-18.021l8.879-.02z"/><path fill="#FFE5C6" d="M-50.522 146.41l.003-5.94 8.377.014-.002 5.943a4.194 4.194 0 0 1-4.197 4.196c-2.315-.004-4.186-1.894-4.181-4.213z"/><path fill="#92461C" d="M-51.406 177.838h10.793v1.208h-10.793z"/><path fill="#0BD1F1" d="M-106.54 164.122c0 26.462-21.49 47.915-48 47.915s-48-21.453-48-47.915c0-26.46 21.49-47.913 48-47.913s48 21.45 48 47.913z"/><path fill="#0F94C3" d="M-182.612 187.699l21.818 24.338s45.825 5.373 54.253-43.894l-16.437-20.574-59.634 40.13z"/><path fill="#02668D" d="M-125.152 146.68h-54.485a4.024 4.024 0 0 0-4.028 4.021v35.359a4.024 4.024 0 0 0 4.028 4.021h54.485a4.025 4.025 0 0 0 4.029-4.021v-35.359a4.024 4.024 0 0 0-4.029-4.021z"/><path fill="#AC8F6C" d="M-123.493 183.697a4.024 4.024 0 0 1-4.029 4.021h-54.485a4.025 4.025 0 0 1-4.028-4.021v-32.996a4.025 4.025 0 0 1 4.028-4.021h54.485a4.025 4.025 0 0 1 4.029 4.021v32.996z"/><path fill="#F8EAD3" d="M-123.493 181.331a4.025 4.025 0 0 1-4.029 4.022h-54.485a4.025 4.025 0 0 1-4.028-4.022v-32.996a4.024 4.024 0 0 1 4.028-4.021h54.485c2.226 0 4.029 1.8 4.029 4.021v32.996z"/><path fill="#FFB220" d="M-186.035 155.666h62.542v17.971h-62.542z"/><path fill="#E1D1B6" d="M-185.956 176.578h62.463v2.024h-62.463zm0-25.055h62.463v2.024h-62.463z"/><path fill="#E79614" d="M-186.035 156.138h62.542v.842h-62.542z"/><path fill="#FFF6E8" d="M-186.903 153.3h63.885v2.94h-63.885z"/><path fill="#E79614" d="M-186.035 173.028h62.542v.841h-62.542z"/><path fill="#FFF6E8" d="M-186.903 173.637h63.885v2.941h-63.885z"/><path fill="#9A8D7A" d="M-147.107 176.578c4.069-2.442 6.793-6.892 6.793-11.979 0-4.611-2.239-8.7-5.689-11.243h-16.609c-3.45 2.543-5.692 6.632-5.692 11.243 0 5.088 2.727 9.537 6.796 11.979h14.401z"/><ellipse fill="#FFF6E8" cx="-154.499" cy="164.702" rx="12.45" ry="12.428"/><ellipse fill="#676798" cx="-154.748" cy="164.794" rx="8.249" ry="8.234"/><ellipse fill="#46467B" cx="-154.748" cy="164.794" rx="6.412" ry="6.398"/><ellipse fill="#2F2F5D" cx="-154.748" cy="164.794" rx="4.806" ry="4.796"/><ellipse fill="#19193E" cx="-154.747" cy="164.794" rx="2.372" ry="2.367"/><circle fill="#FFF6E8" cx="-151.9" cy="161.438" r="1.875"/><circle fill="#FFF6E8" cx="-156.718" cy="167.848" r=".888"/><path fill="#2F2F5D" d="M-129.723 148.91c0 .633-.513 1.144-1.145 1.144h-5.692a1.145 1.145 0 0 1-1.148-1.144v-2.27c0-.633.514-1.146 1.148-1.146h5.692c.631 0 1.145.513 1.145 1.146v2.27z"/><path fill="#46467B" d="M-129.723 149.382c0 .634-.513 1.146-1.145 1.146h-5.692a1.146 1.146 0 0 1-1.148-1.146v-2.269c0-.632.514-1.145 1.148-1.145h5.692c.631 0 1.145.513 1.145 1.145v2.269z"/><path fill="#676798" d="M-136.294 146.441h1.106l1.2 3.612h-2.307a.672.672 0 0 1-.673-.672v-2.269a.673.673 0 0 1 .674-.671z"/><path fill="#FFF6E8" d="M-168.979 144.313v-1.458a.669.669 0 0 0-.67-.669h-5.053a.67.67 0 0 0-.672.669v1.458h6.395z"/><path fill="#E1D1B6" d="M-175.374 143.783h6.396v.53h-6.396z"/></svg>