<svg xmlns="http://www.w3.org/2000/svg" xmlns:xlink="http://www.w3.org/1999/xlink" width="96" height="96" viewBox="0 0 96 96"><circle fill="#FB4343" cx="48.006" cy="47.666" r="48"/><path fill="#BE1616" d="M12.578 62.737l37.805 32.876s45.623-2.606 45.572-50.103l-11.088-8.865-72.289 26.092z"/><path fill="#880D0D" d="M82.741 39.527h2.338-7.207v1.348h-.007v-1.297h-8.708l-9.053-9.834c-3.429-2.978-7.788 0-7.788 0l-.295.301c-.639.293-1.031.56-1.031.56l-1.285.789a3.968 3.968 0 0 0-2.777.366l-.817.337-15.423 10.197-.123-.004h-11.96v-.353H13.77v9.396l-1.895 10.345 3.898 3.79h4.292c.641.171 1.25.015 1.25.015l-.033-.002a2.196 2.196 0 0 0 1.697-2.135v-2.095h4.549l4.109 6.044s2.441 3.74 9.295 1.734c.328-.006.664-.058.994-.169l.504-.186a3.336 3.336 0 0 0-.39 2.898l.072.223a3.346 3.346 0 0 0 4.224 2.129l.024-.02.041-.031c.246-.188 1.242-.938 2.676-2.012l.163.221a2.853 2.853 0 0 0 3.972.71 2.84 2.84 0 0 0 .402-.343l.033-.022a2.84 2.84 0 0 0 1.215-2.23 2.85 2.85 0 0 0 3.568.248c.055-.038.102-.078.152-.117a2.848 2.848 0 0 0 1.445-3.102 2.848 2.848 0 0 0 3.715-1.121c.557-.655.783-1.52.637-2.352a2.84 2.84 0 0 0 3.232-.89 2.847 2.847 0 0 0 .549-3.844v-.085a3.78 3.78 0 0 1-.074-.093c.146-.031.291-.059.431-.083l.093-.016h4.89v2.193a2.19 2.19 0 0 0 1.693 2.13c-.01.002-.018.004-.03.004 0 0 .609.154 1.254-.013h9.938s5.145-14.687-.447-22.221c-5.59-7.53-2.689 8.085-2.689 8.085l-.478-9.393z"/><defs><circle id="a" cx="48.194" cy="47.999" r="38.382"/></defs><clipPath id="b"><use xlink:href="#a" overflow="visible"/></clipPath><g clip-path="url(#b)"><path fill="#30A269" d="M73.247 58.058a2.195 2.195 0 0 0 4.387 0V45.219a2.193 2.193 0 1 0-4.387 0v12.839z"/><path fill="#80D2A9" d="M77.621 57.843V36.646h9.576v23.529l-5.797-.002h-5.96c1.594 0 2.052-1.361 2.181-2.33z"/><path fill="#219058" d="M77.621 55.886h-1.548v1.677s.101 2.628-1.161 2.628c0 0 2.723.711 2.723-2.489l-.014-1.816z"/><path fill="#3F829A" d="M22.728 60.465a2.192 2.192 0 1 1-4.385 0V47.632c0-1.21.981-2.194 2.193-2.194 1.21 0 2.192.983 2.192 2.194v12.833z"/><path fill="#FFC97C" d="M77.613 36.697h-8.705l-9.056-9.834c-3.429-2.979-7.783 0-7.783 0l-5.915 6.023 4.387 1.424L32.4 46.337a3.348 3.348 0 0 0-2.129 4.223l.075.22a3.338 3.338 0 0 0 4.221 2.128l1.678-.586a3.343 3.343 0 0 0-2.131 4.22l.075.224a3.34 3.34 0 0 0 4.221 2.128l1.502-.542a3.343 3.343 0 0 0-1.572 3.979l.075.224a3.342 3.342 0 0 0 4.221 2.128l.506-.185a3.336 3.336 0 0 0-.393 2.897l.075.222a3.343 3.343 0 0 0 4.222 2.13s19-14.375 20.868-14.88c.496-.13.958-.228 1.393-.301h8.307V36.697z"/><path fill="#F3B475" d="M77.67 37.994h-9.724l-9.417-10.27c-3.428-2.978-7.788 0-7.788 0l-7 4.281 5.836 3.602-18.139 12.028a3.346 3.346 0 0 0-2.129 4.225l.075.218a3.345 3.345 0 0 0 4.221 2.133l1.679-.592a3.343 3.343 0 0 0-2.131 4.223l.074.222a3.342 3.342 0 0 0 4.222 2.128l1.504-.543a3.346 3.346 0 0 0-1.575 3.981l.073.222a3.343 3.343 0 0 0 4.223 2.129l.504-.185a3.336 3.336 0 0 0-.391 2.898l.072.223a3.346 3.346 0 0 0 4.225 2.128s18.999-14.376 20.867-14.878c.492-.131.959-.23 1.392-.304h9.326V37.994z"/><path fill="#FFDEC6" d="M54.486 43.792c.521-.101 1.686-.528 2.15-.851a3.992 3.992 0 0 0 1.018-5.554l-5.809-7.254a3.992 3.992 0 0 0-5.168-1.254l-.816.337-15.423 10.198-.123-.005H16.164v17.873h10.607l4.105 6.046s2.859 4.387 11.084 1.114L58.784 51.26l-4.298-7.468z"/><path fill="#FFC898" d="M46.516 30.159L27.091 43.064s-6.504 2.769-3.595 9.741l7.891 11.61s2.858 4.387 11.083 1.118L59.292 52.35 46.516 30.159z"/><path fill="#F3B475" d="M56.491 44.25c-3.397-.674-5.39-9.562-5.39-9.562L31.438 47.635a3.346 3.346 0 0 0-2.129 4.225l.075.218a3.345 3.345 0 0 0 4.221 2.133l1.679-.592a3.343 3.343 0 0 0-2.131 4.223l.074.222a3.342 3.342 0 0 0 4.222 2.128l1.504-.543a3.346 3.346 0 0 0-1.575 3.981l.073.222a3.343 3.343 0 0 0 4.223 2.129l.504-.185a3.336 3.336 0 0 0-.391 2.898l.072.223a3.346 3.346 0 0 0 4.225 2.128s18.999-14.376 20.867-14.878c3.12-.837 5.121-.31 5.121-.31L56.491 44.25z"/><path fill="#D79458" d="M43.56 39.594l6.997 5.772s2.615 1.999 5.268.183c0 0 2.486-1.519-.219-5.487-3.23-4.745-4.504-5.375-4.504-5.375l-7.542 4.907z"/><path fill="#FFC898" d="M30.826 40.498H16.164v17.87l14.663.002a3.09 3.09 0 0 0 3.088-3.089V43.587a3.092 3.092 0 0 0-3.089-3.089z"/><path fill="#DA8C57" d="M38.623 42.871l-7.184 4.764a3.346 3.346 0 0 0-2.129 4.225l.075.218a3.345 3.345 0 0 0 4.221 2.133l1.679-.592a3.343 3.343 0 0 0-2.131 4.223l.074.222a3.342 3.342 0 0 0 4.222 2.128l1.504-.543a3.346 3.346 0 0 0-1.575 3.981l.073.222a3.343 3.343 0 0 0 4.223 2.129l.504-.185a3.336 3.336 0 0 0-.391 2.898l.072.223a3.346 3.346 0 0 0 4.225 2.128s4.142-3.133 8.747-6.524l-16.209-21.65z"/><path fill="#FFC898" d="M56.491 44.25a3.991 3.991 0 0 1-5.554-1.018l-5.81-7.254a3.996 3.996 0 0 1 1.018-5.557 3.992 3.992 0 0 1 5.553 1.017l5.811 7.256a3.99 3.99 0 0 1-1.018 5.556z"/><path fill="#CB8953" d="M66.601 55.194v-.084a2.849 2.849 0 0 0-3.969-.707 2.85 2.85 0 0 0-1.171 2.88l-.916-1.313a2.853 2.853 0 0 0-4.823 3.035 2.854 2.854 0 0 0-3.631-.306 2.848 2.848 0 0 0-.735 3.928 2.851 2.851 0 0 0-3.835-.529c-1.292.902-1.666 2.54-1.217 3.972l.868 4.155s3.416-2.717 4.708-3.619c1.103-.767 1.705-.247 1.239-1.448l.219.318a2.85 2.85 0 0 0 3.971.707 2.85 2.85 0 0 0 .852-3.742 2.855 2.855 0 0 0 3.63.306 2.856 2.856 0 0 0 .981-3.489 2.838 2.838 0 0 0 3.119-.094 2.852 2.852 0 0 0 .71-3.97z"/><path fill="#FFDCBA" d="M67.199 60.108a2.85 2.85 0 0 1-3.971-.71v-.081a2.852 2.852 0 0 1 4.679-3.262v.081a2.852 2.852 0 0 1-.708 3.972z"/><path fill="#FFC898" d="M66.762 60.545a2.854 2.854 0 0 1-3.971-.708v-.081a2.86 2.86 0 0 1 .709-3.973 2.856 2.856 0 0 1 3.975.71v.08a2.855 2.855 0 0 1-.713 3.972z"/><path fill="#FFDCBA" d="M62.953 63.716c-1.293.9-3.07.583-3.973-.709l-1.953-2.804a2.852 2.852 0 1 1 4.68-3.262l1.955 2.806a2.851 2.851 0 0 1-.709 3.969z"/><path fill="#FFC898" d="M62.662 64.125a2.85 2.85 0 0 1-3.971-.71l-1.955-2.803a2.855 2.855 0 0 1 .71-3.974 2.856 2.856 0 0 1 3.972.711l1.953 2.804a2.855 2.855 0 0 1-.709 3.972z"/><path fill="#FFDCBA" d="M58.616 67.273a2.85 2.85 0 0 1-3.97-.71l-1.955-2.806a2.852 2.852 0 0 1 4.678-3.26l1.955 2.804a2.851 2.851 0 0 1-.708 3.972z"/><path fill="#FFC898" d="M58.181 67.563a2.85 2.85 0 0 1-3.97-.71l-1.955-2.803a2.852 2.852 0 1 1 4.679-3.264l1.955 2.806a2.852 2.852 0 0 1-.709 3.971z"/><path fill="#FFDCBA" d="M53.396 69.548a2.855 2.855 0 0 1-3.971-.709l-1.307-1.754a2.852 2.852 0 0 1 4.682-3.262l1.306 1.753a2.852 2.852 0 0 1-.71 3.972z"/><path fill="#FFC898" d="M52.962 69.91a2.851 2.851 0 0 1-3.97-.707l-1.309-1.753a2.851 2.851 0 1 1 4.68-3.262l1.309 1.753a2.85 2.85 0 0 1-.71 3.969z"/><path fill="#25A8DF" d="M18.357 60.253V39.057H8.781v23.529h11.755c-1.59 0-2.051-1.363-2.179-2.333z"/><path fill="#F3B475" d="M18.357 40.508h1.761v17.86h-1.761z"/><path fill="#166C83" d="M18.357 58.368h1.617v1.606S19.54 62.6 21.063 62.6c0 0-2.721.712-2.721-2.487l.015-1.745z"/><path fill="#E19963" d="M76.008 37.994h1.662v17.869h-1.662z"/><path fill="#44C6F3" d="M8.781 39.057h9.562v9.396H8.781z"/><path fill="#91E9BB" d="M77.67 36.646h9.561v9.393H77.67z"/></g></svg>